<svg version="1.1"
      xmlns="http://www.w3.org/2000/svg"
      xmlns:xlink="http://www.w3.org/1999/xlink"  id="snapshot-89791" width="599" height="326" viewBox="0 0 599 326"><desc>This image was made on Patterninja.com</desc><defs>
<!-- image 05693 -->
<g id="transformed-05693" data-image="05693" transform="translate(57.13064337597166, 21.73064337597166) rotate(6, 25.179356624028344, 25.179356624028337)"><g><svg version="1.1" width="50.35871324805669px" height="50.358713248056674px" viewBox="0 0 50.35871324805669 50.358713248056674"><g id="original-05693"><svg xmlns="http://www.w3.org/2000/svg" viewBox="0 0 60 60" xmlns:xlink="http://www.w3.org/1999/xlink" version="1.1" preserveAspectRatio="xMidYMid meet">
  <path d="M30.559 20.09c-7.546-2.025-15.101.531-16.631 6.838-3.104 12.798 10.79 29.517 17.54 29.65 6.749.135 20.329-22.166 16.543-31.143-1.92-4.553-9.686-7.318-17.452-5.344z" stroke-linecap="round" stroke-width="2" stroke-linejoin="round" fill-rule="evenodd" fill="rgba(96, 96, 96, 0.029069767441860465)" stroke="rgba(83, 83, 83, 1)"/>
  <path d="M29 26h2" stroke-width="2" stroke-linejoin="round" fill-rule="evenodd" fill="rgba(96, 96, 96, 0.029069767441860465)" stroke="rgba(83, 83, 83, 1)"/>
  <path d="M32 29h2" stroke-width="2" stroke-linejoin="round" fill-rule="evenodd" fill="rgba(96, 96, 96, 0.029069767441860465)" stroke="rgba(83, 83, 83, 1)"/>
  <path d="M34 26h2" stroke-width="2" stroke-linejoin="round" fill-rule="evenodd" fill="rgba(96, 96, 96, 0.029069767441860465)" stroke="rgba(83, 83, 83, 1)"/>
  <path d="M36 30h2" stroke-width="2" stroke-linejoin="round" fill-rule="evenodd" fill="rgba(96, 96, 96, 0.029069767441860465)" stroke="rgba(83, 83, 83, 1)"/>
  <path d="M42 26h2" stroke-width="2" stroke-linejoin="round" fill-rule="evenodd" fill="rgba(96, 96, 96, 0.029069767441860465)" stroke="rgba(83, 83, 83, 1)"/>
  <path d="M38 27h2" stroke-width="2" stroke-linejoin="round" fill-rule="evenodd" fill="rgba(96, 96, 96, 0.029069767441860465)" stroke="rgba(83, 83, 83, 1)"/>
  <path d="M40 30h2" stroke-width="2" stroke-linejoin="round" fill-rule="evenodd" fill="rgba(96, 96, 96, 0.029069767441860465)" stroke="rgba(83, 83, 83, 1)"/>
  <path d="M33 32h2" stroke-width="2" stroke-linejoin="round" fill-rule="evenodd" fill="rgba(96, 96, 96, 0.029069767441860465)" stroke="rgba(83, 83, 83, 1)"/>
  <path d="M25.746 18.823l-3.38-6.105s2.695-4.88 5.688-2.84c2.992 2.039 1.638 4.504 1.638 4.504l5.165-8.32-.461 8.32s4.902-6.906 6.665-4.285c1.763 2.621-4.68 8.767-4.68 8.767" stroke-linecap="round" stroke-width="2" stroke-linejoin="round" fill-rule="evenodd" fill="rgba(96, 96, 96, 0.029069767441860465)" stroke="rgba(83, 83, 83, 1)"/>
</svg>
</g></svg></g></g>
<!-- /image 05693 -->

<!-- image 28863 -->
<g id="transformed-28863" data-image="28863" transform="translate(362.7654845034029, 79.96143023902178) rotate(7, 16.1245154965971, 14.318569760978228)"><g><svg version="1.1" width="32.2490309931942px" height="28.637139521956456px" viewBox="0 0 32.2490309931942 28.637139521956456"><g id="original-28863"><svg xmlns="http://www.w3.org/2000/svg" viewBox="0 0 72 64" xmlns:xlink="http://www.w3.org/1999/xlink" version="1.1" preserveAspectRatio="xMidYMid meet">
  <path fill-rule="evenodd" d="M36 64C29.7 64 0 42.055 0 20.112 0 13.812.67-.002 18.9-.002c7.482 0 14.106 5.712 17.1 11.886C38.994 5.71 45.618-.002 53.1-.002 71.33-.002 72 13.811 72 20.112 72 42.057 42.3 64 36 64z" fill="rgba(158, 118, 110, 0.9767441860465116)" stroke="none"/>
  <path fill-rule="evenodd" d="M36 11.884C38.994 5.71 45.618-.002 53.1-.002 71.33-.002 72 13.811 72 20.112 72 42.057 42.3 64 36 64V11.884z" fill="rgba(158, 118, 110, 1)" stroke="none"/>
</svg>
</g></svg></g></g>
<!-- /image 28863 -->

<!-- image 11639 -->
<g id="transformed-11639" data-image="11639" transform="translate(405.06892473494577, 25.963024198872123) rotate(324, 18.241075265054253, 25.80697580112788)"><g><svg version="1.1" width="36.482150530108505px" height="51.61395160225576px" viewBox="0 0 36.482150530108505 51.61395160225576"><g id="original-11639"><svg xmlns="http://www.w3.org/2000/svg" viewBox="0 0 595.28 841.89" xmlns:xlink="http://www.w3.org/1999/xlink" version="1.1" preserveAspectRatio="xMidYMid meet">
  <path d="M553.845 336.415s0-.658-.658-.658c-87.485-122.347-224.96-97.351-226.276-96.694-1.316 0-1.973.658-2.631 1.316-4.604-1.973-9.867-3.947-14.471-4.604 1.316-23.022 7.236-78.276 42.098-90.773 5.92-1.973 8.551-8.551 6.578-14.471-1.973-5.92-8.551-8.551-14.471-6.578-48.676 17.102-55.911 85.511-57.227 111.822-28.284 5.262-49.991 30.258-49.991 59.858v3.289L45.382 427.847c-1.316.658-1.973 1.316-2.631 2.631-1.316 1.973-1.316 2.631-1.973 3.947V437.056l-.658 270.347c0 3.289 1.316 6.578 3.947 8.551 1.973 1.973 4.604 2.631 7.236 2.631h1.973l492.676-91.431c5.262-.658 9.209-5.92 9.209-11.182V342.336 340.362v-.658c-.001-1.315-.658-1.973-1.316-3.289zm-256.534-80.249c21.707 0 38.809 17.76 38.809 38.809 0 21.707-17.76 38.809-38.809 38.809-21.707 0-38.809-17.76-38.809-38.809 0-21.048 17.76-38.809 38.809-38.809zm-55.253 65.778c9.867 20.391 30.916 34.862 55.253 34.862 33.547 0 61.173-27.627 61.173-61.173a61.069 61.069 0 0 0-11.84-36.178c34.204-2.631 115.111 1.316 176.943 75.645l-420.979 80.907 139.45-94.063zm290.08 284.161L62.484 693.589V573.874l469.654-83.538v115.769zm0-138.134L62.484 551.509V445.607l469.654-90.116v112.48z" fill="rgba(206, 58, 0, 1)" stroke="none"/>
</svg>
</g></svg></g></g>
<!-- /image 11639 -->

<!-- image 00603 -->
<g id="transformed-00603" data-image="00603" transform="translate(194.7954845034029, 49.851430239021774) rotate(7, 16.1245154965971, 14.318569760978228)"><g><svg version="1.1" width="32.2490309931942px" height="28.637139521956456px" viewBox="0 0 32.2490309931942 28.637139521956456"><g id="original-00603"><svg xmlns="http://www.w3.org/2000/svg" viewBox="0 0 72 64" xmlns:xlink="http://www.w3.org/1999/xlink" version="1.1" preserveAspectRatio="xMidYMid meet">
  <path fill-rule="evenodd" d="M36 64C29.7 64 0 42.055 0 20.112 0 13.812.67-.002 18.9-.002c7.482 0 14.106 5.712 17.1 11.886C38.994 5.71 45.618-.002 53.1-.002 71.33-.002 72 13.811 72 20.112 72 42.057 42.3 64 36 64z" fill="rgba(158, 118, 110, 0.9767441860465116)" stroke="none"/>
  <path fill-rule="evenodd" d="M36 11.884C38.994 5.71 45.618-.002 53.1-.002 71.33-.002 72 13.811 72 20.112 72 42.057 42.3 64 36 64V11.884z" fill="rgba(158, 118, 110, 1)" stroke="none"/>
</svg>
</g></svg></g></g>
<!-- /image 00603 -->

<!-- image 48983 -->
<g id="transformed-48983" data-image="48983" transform="translate(17.180600178560773, 258.97060017856074) rotate(340, 23.40939982143923, 23.40939982143925)"><g><svg version="1.1" width="46.81879964287846px" height="46.8187996428785px" viewBox="0 0 46.81879964287846 46.8187996428785"><g id="original-48983"><svg xmlns="http://www.w3.org/2000/svg" viewBox="0 0 64 64" xmlns:xlink="http://www.w3.org/1999/xlink" version="1.1" preserveAspectRatio="xMidYMid meet">
  <g data-name="Layer 68">
    <path d="M32.87 36.78l-.86.86c-4.19-5.64-12.34.54-7.61 5.87l7.6 7.61c.47-.47 7.42-7.41 7.59-7.61 4.34-4.51-2.16-11.06-6.72-6.73z" fill="rgba(58, 36, 3, 1)" stroke="none"/>
    <path d="M51 22h-2V4a1 1 0 0 0-1-1H17a1 1 0 0 0-1 1v18c-.81.14-3.06-.47-3 1v37a1 1 0 0 0 1 1h37a1 1 0 0 0 1-1V23a1 1 0 0 0-1-1zm-18 0v-7h6v7zm-7 0v-7h5v7zm15-7h6v7h-6zm6-10v8h-6V5zm-8 0v8h-6V5zm-8 8h-5V5h5zm-7-8v8h-6V5zm-6 10h6v7h-6zm32 44H15V24h35z" fill="rgba(58, 36, 3, 1)" stroke="none"/>
  </g>
</svg>
</g></svg></g></g>
<!-- /image 48983 -->

<!-- image 21728 -->
<g id="transformed-21728" data-image="21728" transform="translate(261.5025777417293, 16.021487827787407) rotate(51, 19.097422258270747, 27.018512172212592)"><g><svg version="1.1" width="38.194844516541494px" height="54.037024344425184px" viewBox="0 0 38.194844516541494 54.037024344425184"><g id="original-21728"><svg xmlns="http://www.w3.org/2000/svg" viewBox="0 0 595.28 841.89" xmlns:xlink="http://www.w3.org/1999/xlink" version="1.1" preserveAspectRatio="xMidYMid meet">
  <path d="M553.845 336.415s0-.658-.658-.658c-87.485-122.347-224.96-97.351-226.276-96.694-1.316 0-1.973.658-2.631 1.316-4.604-1.973-9.867-3.947-14.471-4.604 1.316-23.022 7.236-78.276 42.098-90.773 5.92-1.973 8.551-8.551 6.578-14.471-1.973-5.92-8.551-8.551-14.471-6.578-48.676 17.102-55.911 85.511-57.227 111.822-28.284 5.262-49.991 30.258-49.991 59.858v3.289L45.382 427.847c-1.316.658-1.973 1.316-2.631 2.631-1.316 1.973-1.316 2.631-1.973 3.947V437.056l-.658 270.347c0 3.289 1.316 6.578 3.947 8.551 1.973 1.973 4.604 2.631 7.236 2.631h1.973l492.676-91.431c5.262-.658 9.209-5.92 9.209-11.182V342.336 340.362v-.658c-.001-1.315-.658-1.973-1.316-3.289zm-256.534-80.249c21.707 0 38.809 17.76 38.809 38.809 0 21.707-17.76 38.809-38.809 38.809-21.707 0-38.809-17.76-38.809-38.809 0-21.048 17.76-38.809 38.809-38.809zm-55.253 65.778c9.867 20.391 30.916 34.862 55.253 34.862 33.547 0 61.173-27.627 61.173-61.173a61.069 61.069 0 0 0-11.84-36.178c34.204-2.631 115.111 1.316 176.943 75.645l-420.979 80.907 139.45-94.063zm290.08 284.161L62.484 693.589V573.874l469.654-83.538v115.769zm0-138.134L62.484 551.509V445.607l469.654-90.116v112.48z" fill="rgba(206, 58, 0, 1)" stroke="none"/>
</svg>
</g></svg></g></g>
<!-- /image 21728 -->

<!-- image 35854 -->
<g id="transformed-35854" data-image="35854" transform="translate(24.298924734945746, 136.93302419887212) rotate(324, 18.241075265054253, 25.80697580112788)"><g><svg version="1.1" width="36.482150530108505px" height="51.61395160225576px" viewBox="0 0 36.482150530108505 51.61395160225576"><g id="original-35854"><svg xmlns="http://www.w3.org/2000/svg" viewBox="0 0 595.28 841.89" xmlns:xlink="http://www.w3.org/1999/xlink" version="1.1" preserveAspectRatio="xMidYMid meet">
  <path d="M553.845 336.415s0-.658-.658-.658c-87.485-122.347-224.96-97.351-226.276-96.694-1.316 0-1.973.658-2.631 1.316-4.604-1.973-9.867-3.947-14.471-4.604 1.316-23.022 7.236-78.276 42.098-90.773 5.92-1.973 8.551-8.551 6.578-14.471-1.973-5.92-8.551-8.551-14.471-6.578-48.676 17.102-55.911 85.511-57.227 111.822-28.284 5.262-49.991 30.258-49.991 59.858v3.289L45.382 427.847c-1.316.658-1.973 1.316-2.631 2.631-1.316 1.973-1.316 2.631-1.973 3.947V437.056l-.658 270.347c0 3.289 1.316 6.578 3.947 8.551 1.973 1.973 4.604 2.631 7.236 2.631h1.973l492.676-91.431c5.262-.658 9.209-5.92 9.209-11.182V342.336 340.362v-.658c-.001-1.315-.658-1.973-1.316-3.289zm-256.534-80.249c21.707 0 38.809 17.76 38.809 38.809 0 21.707-17.76 38.809-38.809 38.809-21.707 0-38.809-17.76-38.809-38.809 0-21.048 17.76-38.809 38.809-38.809zm-55.253 65.778c9.867 20.391 30.916 34.862 55.253 34.862 33.547 0 61.173-27.627 61.173-61.173a61.069 61.069 0 0 0-11.84-36.178c34.204-2.631 115.111 1.316 176.943 75.645l-420.979 80.907 139.45-94.063zm290.08 284.161L62.484 693.589V573.874l469.654-83.538v115.769zm0-138.134L62.484 551.509V445.607l469.654-90.116v112.48z" fill="rgba(206, 58, 0, 1)" stroke="none"/>
</svg>
</g></svg></g></g>
<!-- /image 35854 -->

<!-- image 37917 -->
<g id="transformed-37917" data-image="37917" transform="translate(361.81064337597167, 262.4806433759717) rotate(6, 25.179356624028344, 25.179356624028337)"><g><svg version="1.1" width="50.35871324805669px" height="50.358713248056674px" viewBox="0 0 50.35871324805669 50.358713248056674"><g id="original-37917"><svg xmlns="http://www.w3.org/2000/svg" viewBox="0 0 60 60" xmlns:xlink="http://www.w3.org/1999/xlink" version="1.1" preserveAspectRatio="xMidYMid meet">
  <path d="M30.559 20.09c-7.546-2.025-15.101.531-16.631 6.838-3.104 12.798 10.79 29.517 17.54 29.65 6.749.135 20.329-22.166 16.543-31.143-1.92-4.553-9.686-7.318-17.452-5.344z" stroke-linecap="round" stroke-width="2" stroke-linejoin="round" fill-rule="evenodd" fill="rgba(96, 96, 96, 0.029069767441860465)" stroke="rgba(83, 83, 83, 1)"/>
  <path d="M29 26h2" stroke-width="2" stroke-linejoin="round" fill-rule="evenodd" fill="rgba(96, 96, 96, 0.029069767441860465)" stroke="rgba(83, 83, 83, 1)"/>
  <path d="M32 29h2" stroke-width="2" stroke-linejoin="round" fill-rule="evenodd" fill="rgba(96, 96, 96, 0.029069767441860465)" stroke="rgba(83, 83, 83, 1)"/>
  <path d="M34 26h2" stroke-width="2" stroke-linejoin="round" fill-rule="evenodd" fill="rgba(96, 96, 96, 0.029069767441860465)" stroke="rgba(83, 83, 83, 1)"/>
  <path d="M36 30h2" stroke-width="2" stroke-linejoin="round" fill-rule="evenodd" fill="rgba(96, 96, 96, 0.029069767441860465)" stroke="rgba(83, 83, 83, 1)"/>
  <path d="M42 26h2" stroke-width="2" stroke-linejoin="round" fill-rule="evenodd" fill="rgba(96, 96, 96, 0.029069767441860465)" stroke="rgba(83, 83, 83, 1)"/>
  <path d="M38 27h2" stroke-width="2" stroke-linejoin="round" fill-rule="evenodd" fill="rgba(96, 96, 96, 0.029069767441860465)" stroke="rgba(83, 83, 83, 1)"/>
  <path d="M40 30h2" stroke-width="2" stroke-linejoin="round" fill-rule="evenodd" fill="rgba(96, 96, 96, 0.029069767441860465)" stroke="rgba(83, 83, 83, 1)"/>
  <path d="M33 32h2" stroke-width="2" stroke-linejoin="round" fill-rule="evenodd" fill="rgba(96, 96, 96, 0.029069767441860465)" stroke="rgba(83, 83, 83, 1)"/>
  <path d="M25.746 18.823l-3.38-6.105s2.695-4.88 5.688-2.84c2.992 2.039 1.638 4.504 1.638 4.504l5.165-8.32-.461 8.32s4.902-6.906 6.665-4.285c1.763 2.621-4.68 8.767-4.68 8.767" stroke-linecap="round" stroke-width="2" stroke-linejoin="round" fill-rule="evenodd" fill="rgba(96, 96, 96, 0.029069767441860465)" stroke="rgba(83, 83, 83, 1)"/>
</svg>
</g></svg></g></g>
<!-- /image 37917 -->

<!-- image 72249 -->
<g id="transformed-72249" data-image="72249" transform="translate(352.46892473494574, 114.83302419887211) rotate(324, 18.241075265054253, 25.80697580112788)"><g><svg version="1.1" width="36.482150530108505px" height="51.61395160225576px" viewBox="0 0 36.482150530108505 51.61395160225576"><g id="original-72249"><svg xmlns="http://www.w3.org/2000/svg" viewBox="0 0 595.28 841.89" xmlns:xlink="http://www.w3.org/1999/xlink" version="1.1" preserveAspectRatio="xMidYMid meet">
  <path d="M553.845 336.415s0-.658-.658-.658c-87.485-122.347-224.96-97.351-226.276-96.694-1.316 0-1.973.658-2.631 1.316-4.604-1.973-9.867-3.947-14.471-4.604 1.316-23.022 7.236-78.276 42.098-90.773 5.92-1.973 8.551-8.551 6.578-14.471-1.973-5.92-8.551-8.551-14.471-6.578-48.676 17.102-55.911 85.511-57.227 111.822-28.284 5.262-49.991 30.258-49.991 59.858v3.289L45.382 427.847c-1.316.658-1.973 1.316-2.631 2.631-1.316 1.973-1.316 2.631-1.973 3.947V437.056l-.658 270.347c0 3.289 1.316 6.578 3.947 8.551 1.973 1.973 4.604 2.631 7.236 2.631h1.973l492.676-91.431c5.262-.658 9.209-5.92 9.209-11.182V342.336 340.362v-.658c-.001-1.315-.658-1.973-1.316-3.289zm-256.534-80.249c21.707 0 38.809 17.76 38.809 38.809 0 21.707-17.76 38.809-38.809 38.809-21.707 0-38.809-17.76-38.809-38.809 0-21.048 17.76-38.809 38.809-38.809zm-55.253 65.778c9.867 20.391 30.916 34.862 55.253 34.862 33.547 0 61.173-27.627 61.173-61.173a61.069 61.069 0 0 0-11.84-36.178c34.204-2.631 115.111 1.316 176.943 75.645l-420.979 80.907 139.45-94.063zm290.08 284.161L62.484 693.589V573.874l469.654-83.538v115.769zm0-138.134L62.484 551.509V445.607l469.654-90.116v112.48z" fill="rgba(206, 58, 0, 1)" stroke="none"/>
</svg>
</g></svg></g></g>
<!-- /image 72249 -->

<!-- image 46075 -->
<g id="transformed-46075" data-image="46075" transform="translate(92.82257774172925, 224.6514878277874) rotate(51, 19.097422258270747, 27.018512172212592)"><g><svg version="1.1" width="38.194844516541494px" height="54.037024344425184px" viewBox="0 0 38.194844516541494 54.037024344425184"><g id="original-46075"><svg xmlns="http://www.w3.org/2000/svg" viewBox="0 0 595.28 841.89" xmlns:xlink="http://www.w3.org/1999/xlink" version="1.1" preserveAspectRatio="xMidYMid meet">
  <path d="M553.845 336.415s0-.658-.658-.658c-87.485-122.347-224.96-97.351-226.276-96.694-1.316 0-1.973.658-2.631 1.316-4.604-1.973-9.867-3.947-14.471-4.604 1.316-23.022 7.236-78.276 42.098-90.773 5.92-1.973 8.551-8.551 6.578-14.471-1.973-5.92-8.551-8.551-14.471-6.578-48.676 17.102-55.911 85.511-57.227 111.822-28.284 5.262-49.991 30.258-49.991 59.858v3.289L45.382 427.847c-1.316.658-1.973 1.316-2.631 2.631-1.316 1.973-1.316 2.631-1.973 3.947V437.056l-.658 270.347c0 3.289 1.316 6.578 3.947 8.551 1.973 1.973 4.604 2.631 7.236 2.631h1.973l492.676-91.431c5.262-.658 9.209-5.92 9.209-11.182V342.336 340.362v-.658c-.001-1.315-.658-1.973-1.316-3.289zm-256.534-80.249c21.707 0 38.809 17.76 38.809 38.809 0 21.707-17.76 38.809-38.809 38.809-21.707 0-38.809-17.76-38.809-38.809 0-21.048 17.76-38.809 38.809-38.809zm-55.253 65.778c9.867 20.391 30.916 34.862 55.253 34.862 33.547 0 61.173-27.627 61.173-61.173a61.069 61.069 0 0 0-11.84-36.178c34.204-2.631 115.111 1.316 176.943 75.645l-420.979 80.907 139.45-94.063zm290.08 284.161L62.484 693.589V573.874l469.654-83.538v115.769zm0-138.134L62.484 551.509V445.607l469.654-90.116v112.48z" fill="rgba(206, 58, 0, 1)" stroke="none"/>
</svg>
</g></svg></g></g>
<!-- /image 46075 -->

<!-- image 23660 -->
<g id="transformed-23660" data-image="23660" transform="translate(444.90060017856075, 267.01060017856076) rotate(340, 23.40939982143923, 23.40939982143925)"><g><svg version="1.1" width="46.81879964287846px" height="46.8187996428785px" viewBox="0 0 46.81879964287846 46.8187996428785"><g id="original-23660"><svg xmlns="http://www.w3.org/2000/svg" viewBox="0 0 64 64" xmlns:xlink="http://www.w3.org/1999/xlink" version="1.1" preserveAspectRatio="xMidYMid meet">
  <g data-name="Layer 68">
    <path d="M32.87 36.78l-.86.86c-4.19-5.64-12.34.54-7.61 5.87l7.6 7.61c.47-.47 7.42-7.41 7.59-7.61 4.34-4.51-2.16-11.06-6.72-6.73z" fill="rgba(58, 36, 3, 1)" stroke="none"/>
    <path d="M51 22h-2V4a1 1 0 0 0-1-1H17a1 1 0 0 0-1 1v18c-.81.14-3.06-.47-3 1v37a1 1 0 0 0 1 1h37a1 1 0 0 0 1-1V23a1 1 0 0 0-1-1zm-18 0v-7h6v7zm-7 0v-7h5v7zm15-7h6v7h-6zm6-10v8h-6V5zm-8 0v8h-6V5zm-8 8h-5V5h5zm-7-8v8h-6V5zm-6 10h6v7h-6zm32 44H15V24h35z" fill="rgba(58, 36, 3, 1)" stroke="none"/>
  </g>
</svg>
</g></svg></g></g>
<!-- /image 23660 -->

<!-- image 02214 -->
<g id="transformed-02214" data-image="02214" transform="translate(475.38064337597166, 175.43064337597167) rotate(6, 25.179356624028344, 25.179356624028337)"><g><svg version="1.1" width="50.35871324805669px" height="50.358713248056674px" viewBox="0 0 50.35871324805669 50.358713248056674"><g id="original-02214"><svg xmlns="http://www.w3.org/2000/svg" viewBox="0 0 60 60" xmlns:xlink="http://www.w3.org/1999/xlink" version="1.1" preserveAspectRatio="xMidYMid meet">
  <path d="M30.559 20.09c-7.546-2.025-15.101.531-16.631 6.838-3.104 12.798 10.79 29.517 17.54 29.65 6.749.135 20.329-22.166 16.543-31.143-1.92-4.553-9.686-7.318-17.452-5.344z" stroke-linecap="round" stroke-width="2" stroke-linejoin="round" fill-rule="evenodd" fill="rgba(96, 96, 96, 0.029069767441860465)" stroke="rgba(83, 83, 83, 1)"/>
  <path d="M29 26h2" stroke-width="2" stroke-linejoin="round" fill-rule="evenodd" fill="rgba(96, 96, 96, 0.029069767441860465)" stroke="rgba(83, 83, 83, 1)"/>
  <path d="M32 29h2" stroke-width="2" stroke-linejoin="round" fill-rule="evenodd" fill="rgba(96, 96, 96, 0.029069767441860465)" stroke="rgba(83, 83, 83, 1)"/>
  <path d="M34 26h2" stroke-width="2" stroke-linejoin="round" fill-rule="evenodd" fill="rgba(96, 96, 96, 0.029069767441860465)" stroke="rgba(83, 83, 83, 1)"/>
  <path d="M36 30h2" stroke-width="2" stroke-linejoin="round" fill-rule="evenodd" fill="rgba(96, 96, 96, 0.029069767441860465)" stroke="rgba(83, 83, 83, 1)"/>
  <path d="M42 26h2" stroke-width="2" stroke-linejoin="round" fill-rule="evenodd" fill="rgba(96, 96, 96, 0.029069767441860465)" stroke="rgba(83, 83, 83, 1)"/>
  <path d="M38 27h2" stroke-width="2" stroke-linejoin="round" fill-rule="evenodd" fill="rgba(96, 96, 96, 0.029069767441860465)" stroke="rgba(83, 83, 83, 1)"/>
  <path d="M40 30h2" stroke-width="2" stroke-linejoin="round" fill-rule="evenodd" fill="rgba(96, 96, 96, 0.029069767441860465)" stroke="rgba(83, 83, 83, 1)"/>
  <path d="M33 32h2" stroke-width="2" stroke-linejoin="round" fill-rule="evenodd" fill="rgba(96, 96, 96, 0.029069767441860465)" stroke="rgba(83, 83, 83, 1)"/>
  <path d="M25.746 18.823l-3.38-6.105s2.695-4.88 5.688-2.84c2.992 2.039 1.638 4.504 1.638 4.504l5.165-8.32-.461 8.32s4.902-6.906 6.665-4.285c1.763 2.621-4.68 8.767-4.68 8.767" stroke-linecap="round" stroke-width="2" stroke-linejoin="round" fill-rule="evenodd" fill="rgba(96, 96, 96, 0.029069767441860465)" stroke="rgba(83, 83, 83, 1)"/>
</svg>
</g></svg></g></g>
<!-- /image 02214 -->

<!-- image 20412 -->
<g id="transformed-20412" data-image="20412" transform="translate(465.6454845034029, 56.65143023902177) rotate(7, 16.1245154965971, 14.318569760978228)"><g><svg version="1.1" width="32.2490309931942px" height="28.637139521956456px" viewBox="0 0 32.2490309931942 28.637139521956456"><g id="original-20412"><svg xmlns="http://www.w3.org/2000/svg" viewBox="0 0 72 64" xmlns:xlink="http://www.w3.org/1999/xlink" version="1.1" preserveAspectRatio="xMidYMid meet">
  <path fill-rule="evenodd" d="M36 64C29.7 64 0 42.055 0 20.112 0 13.812.67-.002 18.9-.002c7.482 0 14.106 5.712 17.1 11.886C38.994 5.71 45.618-.002 53.1-.002 71.33-.002 72 13.811 72 20.112 72 42.057 42.3 64 36 64z" fill="rgba(158, 118, 110, 0.9767441860465116)" stroke="none"/>
  <path fill-rule="evenodd" d="M36 11.884C38.994 5.71 45.618-.002 53.1-.002 71.33-.002 72 13.811 72 20.112 72 42.057 42.3 64 36 64V11.884z" fill="rgba(158, 118, 110, 1)" stroke="none"/>
</svg>
</g></svg></g></g>
<!-- /image 20412 -->

<!-- image 91898 -->
<g id="transformed-91898" data-image="91898" transform="translate(124.97060017856077, 26.170600178560747) rotate(340, 23.40939982143923, 23.40939982143925)"><g><svg version="1.1" width="46.81879964287846px" height="46.8187996428785px" viewBox="0 0 46.81879964287846 46.8187996428785"><g id="original-91898"><svg xmlns="http://www.w3.org/2000/svg" viewBox="0 0 64 64" xmlns:xlink="http://www.w3.org/1999/xlink" version="1.1" preserveAspectRatio="xMidYMid meet">
  <g data-name="Layer 68">
    <path d="M32.87 36.78l-.86.86c-4.19-5.64-12.34.54-7.61 5.87l7.6 7.61c.47-.47 7.42-7.41 7.59-7.61 4.34-4.51-2.16-11.06-6.72-6.73z" fill="rgba(58, 36, 3, 1)" stroke="none"/>
    <path d="M51 22h-2V4a1 1 0 0 0-1-1H17a1 1 0 0 0-1 1v18c-.81.14-3.06-.47-3 1v37a1 1 0 0 0 1 1h37a1 1 0 0 0 1-1V23a1 1 0 0 0-1-1zm-18 0v-7h6v7zm-7 0v-7h5v7zm15-7h6v7h-6zm6-10v8h-6V5zm-8 0v8h-6V5zm-8 8h-5V5h5zm-7-8v8h-6V5zm-6 10h6v7h-6zm32 44H15V24h35z" fill="rgba(58, 36, 3, 1)" stroke="none"/>
  </g>
</svg>
</g></svg></g></g>
<!-- /image 91898 -->

<!-- image 21713 -->
<g id="transformed-21713" data-image="21713" transform="translate(314.2406433759717, 30.44064337597166) rotate(6, 25.179356624028344, 25.179356624028337)"><g><svg version="1.1" width="50.35871324805669px" height="50.358713248056674px" viewBox="0 0 50.35871324805669 50.358713248056674"><g id="original-21713"><svg xmlns="http://www.w3.org/2000/svg" viewBox="0 0 60 60" xmlns:xlink="http://www.w3.org/1999/xlink" version="1.1" preserveAspectRatio="xMidYMid meet">
  <path d="M30.559 20.09c-7.546-2.025-15.101.531-16.631 6.838-3.104 12.798 10.79 29.517 17.54 29.65 6.749.135 20.329-22.166 16.543-31.143-1.92-4.553-9.686-7.318-17.452-5.344z" stroke-linecap="round" stroke-width="2" stroke-linejoin="round" fill-rule="evenodd" fill="rgba(96, 96, 96, 0.029069767441860465)" stroke="rgba(83, 83, 83, 1)"/>
  <path d="M29 26h2" stroke-width="2" stroke-linejoin="round" fill-rule="evenodd" fill="rgba(96, 96, 96, 0.029069767441860465)" stroke="rgba(83, 83, 83, 1)"/>
  <path d="M32 29h2" stroke-width="2" stroke-linejoin="round" fill-rule="evenodd" fill="rgba(96, 96, 96, 0.029069767441860465)" stroke="rgba(83, 83, 83, 1)"/>
  <path d="M34 26h2" stroke-width="2" stroke-linejoin="round" fill-rule="evenodd" fill="rgba(96, 96, 96, 0.029069767441860465)" stroke="rgba(83, 83, 83, 1)"/>
  <path d="M36 30h2" stroke-width="2" stroke-linejoin="round" fill-rule="evenodd" fill="rgba(96, 96, 96, 0.029069767441860465)" stroke="rgba(83, 83, 83, 1)"/>
  <path d="M42 26h2" stroke-width="2" stroke-linejoin="round" fill-rule="evenodd" fill="rgba(96, 96, 96, 0.029069767441860465)" stroke="rgba(83, 83, 83, 1)"/>
  <path d="M38 27h2" stroke-width="2" stroke-linejoin="round" fill-rule="evenodd" fill="rgba(96, 96, 96, 0.029069767441860465)" stroke="rgba(83, 83, 83, 1)"/>
  <path d="M40 30h2" stroke-width="2" stroke-linejoin="round" fill-rule="evenodd" fill="rgba(96, 96, 96, 0.029069767441860465)" stroke="rgba(83, 83, 83, 1)"/>
  <path d="M33 32h2" stroke-width="2" stroke-linejoin="round" fill-rule="evenodd" fill="rgba(96, 96, 96, 0.029069767441860465)" stroke="rgba(83, 83, 83, 1)"/>
  <path d="M25.746 18.823l-3.38-6.105s2.695-4.88 5.688-2.84c2.992 2.039 1.638 4.504 1.638 4.504l5.165-8.32-.461 8.32s4.902-6.906 6.665-4.285c1.763 2.621-4.68 8.767-4.68 8.767" stroke-linecap="round" stroke-width="2" stroke-linejoin="round" fill-rule="evenodd" fill="rgba(96, 96, 96, 0.029069767441860465)" stroke="rgba(83, 83, 83, 1)"/>
</svg>
</g></svg></g></g>
<!-- /image 21713 -->

<!-- image 91728 -->
<g id="transformed-91728" data-image="91728" transform="translate(404.23257774172924, 160.69148782778743) rotate(51, 19.097422258270747, 27.018512172212592)"><g><svg version="1.1" width="38.194844516541494px" height="54.037024344425184px" viewBox="0 0 38.194844516541494 54.037024344425184"><g id="original-91728"><svg xmlns="http://www.w3.org/2000/svg" viewBox="0 0 595.28 841.89" xmlns:xlink="http://www.w3.org/1999/xlink" version="1.1" preserveAspectRatio="xMidYMid meet">
  <path d="M553.845 336.415s0-.658-.658-.658c-87.485-122.347-224.96-97.351-226.276-96.694-1.316 0-1.973.658-2.631 1.316-4.604-1.973-9.867-3.947-14.471-4.604 1.316-23.022 7.236-78.276 42.098-90.773 5.92-1.973 8.551-8.551 6.578-14.471-1.973-5.92-8.551-8.551-14.471-6.578-48.676 17.102-55.911 85.511-57.227 111.822-28.284 5.262-49.991 30.258-49.991 59.858v3.289L45.382 427.847c-1.316.658-1.973 1.316-2.631 2.631-1.316 1.973-1.316 2.631-1.973 3.947V437.056l-.658 270.347c0 3.289 1.316 6.578 3.947 8.551 1.973 1.973 4.604 2.631 7.236 2.631h1.973l492.676-91.431c5.262-.658 9.209-5.92 9.209-11.182V342.336 340.362v-.658c-.001-1.315-.658-1.973-1.316-3.289zm-256.534-80.249c21.707 0 38.809 17.76 38.809 38.809 0 21.707-17.76 38.809-38.809 38.809-21.707 0-38.809-17.76-38.809-38.809 0-21.048 17.76-38.809 38.809-38.809zm-55.253 65.778c9.867 20.391 30.916 34.862 55.253 34.862 33.547 0 61.173-27.627 61.173-61.173a61.069 61.069 0 0 0-11.84-36.178c34.204-2.631 115.111 1.316 176.943 75.645l-420.979 80.907 139.45-94.063zm290.08 284.161L62.484 693.589V573.874l469.654-83.538v115.769zm0-138.134L62.484 551.509V445.607l469.654-90.116v112.48z" fill="rgba(206, 58, 0, 1)" stroke="none"/>
</svg>
</g></svg></g></g>
<!-- /image 91728 -->

<!-- image 77785 -->
<g id="transformed-77785" data-image="77785" transform="translate(432.4554845034029, 116.43143023902178) rotate(7, 16.1245154965971, 14.318569760978228)"><g><svg version="1.1" width="32.2490309931942px" height="28.637139521956456px" viewBox="0 0 32.2490309931942 28.637139521956456"><g id="original-77785"><svg xmlns="http://www.w3.org/2000/svg" viewBox="0 0 72 64" xmlns:xlink="http://www.w3.org/1999/xlink" version="1.1" preserveAspectRatio="xMidYMid meet">
  <path fill-rule="evenodd" d="M36 64C29.7 64 0 42.055 0 20.112 0 13.812.67-.002 18.9-.002c7.482 0 14.106 5.712 17.1 11.886C38.994 5.71 45.618-.002 53.1-.002 71.33-.002 72 13.811 72 20.112 72 42.057 42.3 64 36 64z" fill="rgba(158, 118, 110, 0.9767441860465116)" stroke="none"/>
  <path fill-rule="evenodd" d="M36 11.884C38.994 5.71 45.618-.002 53.1-.002 71.33-.002 72 13.811 72 20.112 72 42.057 42.3 64 36 64V11.884z" fill="rgba(158, 118, 110, 1)" stroke="none"/>
</svg>
</g></svg></g></g>
<!-- /image 77785 -->

<!-- image 78453 -->
<g id="transformed-78453" data-image="78453" transform="translate(245.78548450340293, 263.45143023902176) rotate(7, 16.1245154965971, 14.318569760978228)"><g><svg version="1.1" width="32.2490309931942px" height="28.637139521956456px" viewBox="0 0 32.2490309931942 28.637139521956456"><g id="original-78453"><svg xmlns="http://www.w3.org/2000/svg" viewBox="0 0 72 64" xmlns:xlink="http://www.w3.org/1999/xlink" version="1.1" preserveAspectRatio="xMidYMid meet">
  <path fill-rule="evenodd" d="M36 64C29.7 64 0 42.055 0 20.112 0 13.812.67-.002 18.9-.002c7.482 0 14.106 5.712 17.1 11.886C38.994 5.71 45.618-.002 53.1-.002 71.33-.002 72 13.811 72 20.112 72 42.057 42.3 64 36 64z" fill="rgba(158, 118, 110, 0.9767441860465116)" stroke="none"/>
  <path fill-rule="evenodd" d="M36 11.884C38.994 5.71 45.618-.002 53.1-.002 71.33-.002 72 13.811 72 20.112 72 42.057 42.3 64 36 64V11.884z" fill="rgba(158, 118, 110, 1)" stroke="none"/>
</svg>
</g></svg></g></g>
<!-- /image 78453 -->

<!-- image 44124 -->
<g id="transformed-44124" data-image="44124" transform="translate(506.14257774172927, 105.46148782778742) rotate(51, 19.097422258270747, 27.018512172212592)"><g><svg version="1.1" width="38.194844516541494px" height="54.037024344425184px" viewBox="0 0 38.194844516541494 54.037024344425184"><g id="original-44124"><svg xmlns="http://www.w3.org/2000/svg" viewBox="0 0 595.28 841.89" xmlns:xlink="http://www.w3.org/1999/xlink" version="1.1" preserveAspectRatio="xMidYMid meet">
  <path d="M553.845 336.415s0-.658-.658-.658c-87.485-122.347-224.96-97.351-226.276-96.694-1.316 0-1.973.658-2.631 1.316-4.604-1.973-9.867-3.947-14.471-4.604 1.316-23.022 7.236-78.276 42.098-90.773 5.92-1.973 8.551-8.551 6.578-14.471-1.973-5.92-8.551-8.551-14.471-6.578-48.676 17.102-55.911 85.511-57.227 111.822-28.284 5.262-49.991 30.258-49.991 59.858v3.289L45.382 427.847c-1.316.658-1.973 1.316-2.631 2.631-1.316 1.973-1.316 2.631-1.973 3.947V437.056l-.658 270.347c0 3.289 1.316 6.578 3.947 8.551 1.973 1.973 4.604 2.631 7.236 2.631h1.973l492.676-91.431c5.262-.658 9.209-5.92 9.209-11.182V342.336 340.362v-.658c-.001-1.315-.658-1.973-1.316-3.289zm-256.534-80.249c21.707 0 38.809 17.76 38.809 38.809 0 21.707-17.76 38.809-38.809 38.809-21.707 0-38.809-17.76-38.809-38.809 0-21.048 17.76-38.809 38.809-38.809zm-55.253 65.778c9.867 20.391 30.916 34.862 55.253 34.862 33.547 0 61.173-27.627 61.173-61.173a61.069 61.069 0 0 0-11.84-36.178c34.204-2.631 115.111 1.316 176.943 75.645l-420.979 80.907 139.45-94.063zm290.08 284.161L62.484 693.589V573.874l469.654-83.538v115.769zm0-138.134L62.484 551.509V445.607l469.654-90.116v112.48z" fill="rgba(206, 58, 0, 1)" stroke="none"/>
</svg>
</g></svg></g></g>
<!-- /image 44124 -->

<!-- image 37771 -->
<g id="transformed-37771" data-image="37771" transform="translate(200.48257774172927, 200.70148782778742) rotate(51, 19.097422258270747, 27.018512172212592)"><g><svg version="1.1" width="38.194844516541494px" height="54.037024344425184px" viewBox="0 0 38.194844516541494 54.037024344425184"><g id="original-37771"><svg xmlns="http://www.w3.org/2000/svg" viewBox="0 0 595.28 841.89" xmlns:xlink="http://www.w3.org/1999/xlink" version="1.1" preserveAspectRatio="xMidYMid meet">
  <path d="M553.845 336.415s0-.658-.658-.658c-87.485-122.347-224.96-97.351-226.276-96.694-1.316 0-1.973.658-2.631 1.316-4.604-1.973-9.867-3.947-14.471-4.604 1.316-23.022 7.236-78.276 42.098-90.773 5.92-1.973 8.551-8.551 6.578-14.471-1.973-5.92-8.551-8.551-14.471-6.578-48.676 17.102-55.911 85.511-57.227 111.822-28.284 5.262-49.991 30.258-49.991 59.858v3.289L45.382 427.847c-1.316.658-1.973 1.316-2.631 2.631-1.316 1.973-1.316 2.631-1.973 3.947V437.056l-.658 270.347c0 3.289 1.316 6.578 3.947 8.551 1.973 1.973 4.604 2.631 7.236 2.631h1.973l492.676-91.431c5.262-.658 9.209-5.92 9.209-11.182V342.336 340.362v-.658c-.001-1.315-.658-1.973-1.316-3.289zm-256.534-80.249c21.707 0 38.809 17.76 38.809 38.809 0 21.707-17.76 38.809-38.809 38.809-21.707 0-38.809-17.76-38.809-38.809 0-21.048 17.76-38.809 38.809-38.809zm-55.253 65.778c9.867 20.391 30.916 34.862 55.253 34.862 33.547 0 61.173-27.627 61.173-61.173a61.069 61.069 0 0 0-11.84-36.178c34.204-2.631 115.111 1.316 176.943 75.645l-420.979 80.907 139.45-94.063zm290.08 284.161L62.484 693.589V573.874l469.654-83.538v115.769zm0-138.134L62.484 551.509V445.607l469.654-90.116v112.48z" fill="rgba(206, 58, 0, 1)" stroke="none"/>
</svg>
</g></svg></g></g>
<!-- /image 37771 -->

<!-- image 10050 -->
<g id="transformed-10050" data-image="10050" transform="translate(525.5706433759717, 250.86064337597168) rotate(6, 25.179356624028344, 25.179356624028337)"><g><svg version="1.1" width="50.35871324805669px" height="50.358713248056674px" viewBox="0 0 50.35871324805669 50.358713248056674"><g id="original-10050"><svg xmlns="http://www.w3.org/2000/svg" viewBox="0 0 60 60" xmlns:xlink="http://www.w3.org/1999/xlink" version="1.1" preserveAspectRatio="xMidYMid meet">
  <path d="M30.559 20.09c-7.546-2.025-15.101.531-16.631 6.838-3.104 12.798 10.79 29.517 17.54 29.65 6.749.135 20.329-22.166 16.543-31.143-1.92-4.553-9.686-7.318-17.452-5.344z" stroke-linecap="round" stroke-width="2" stroke-linejoin="round" fill-rule="evenodd" fill="rgba(96, 96, 96, 0.029069767441860465)" stroke="rgba(83, 83, 83, 1)"/>
  <path d="M29 26h2" stroke-width="2" stroke-linejoin="round" fill-rule="evenodd" fill="rgba(96, 96, 96, 0.029069767441860465)" stroke="rgba(83, 83, 83, 1)"/>
  <path d="M32 29h2" stroke-width="2" stroke-linejoin="round" fill-rule="evenodd" fill="rgba(96, 96, 96, 0.029069767441860465)" stroke="rgba(83, 83, 83, 1)"/>
  <path d="M34 26h2" stroke-width="2" stroke-linejoin="round" fill-rule="evenodd" fill="rgba(96, 96, 96, 0.029069767441860465)" stroke="rgba(83, 83, 83, 1)"/>
  <path d="M36 30h2" stroke-width="2" stroke-linejoin="round" fill-rule="evenodd" fill="rgba(96, 96, 96, 0.029069767441860465)" stroke="rgba(83, 83, 83, 1)"/>
  <path d="M42 26h2" stroke-width="2" stroke-linejoin="round" fill-rule="evenodd" fill="rgba(96, 96, 96, 0.029069767441860465)" stroke="rgba(83, 83, 83, 1)"/>
  <path d="M38 27h2" stroke-width="2" stroke-linejoin="round" fill-rule="evenodd" fill="rgba(96, 96, 96, 0.029069767441860465)" stroke="rgba(83, 83, 83, 1)"/>
  <path d="M40 30h2" stroke-width="2" stroke-linejoin="round" fill-rule="evenodd" fill="rgba(96, 96, 96, 0.029069767441860465)" stroke="rgba(83, 83, 83, 1)"/>
  <path d="M33 32h2" stroke-width="2" stroke-linejoin="round" fill-rule="evenodd" fill="rgba(96, 96, 96, 0.029069767441860465)" stroke="rgba(83, 83, 83, 1)"/>
  <path d="M25.746 18.823l-3.38-6.105s2.695-4.88 5.688-2.84c2.992 2.039 1.638 4.504 1.638 4.504l5.165-8.32-.461 8.32s4.902-6.906 6.665-4.285c1.763 2.621-4.68 8.767-4.68 8.767" stroke-linecap="round" stroke-width="2" stroke-linejoin="round" fill-rule="evenodd" fill="rgba(96, 96, 96, 0.029069767441860465)" stroke="rgba(83, 83, 83, 1)"/>
</svg>
</g></svg></g></g>
<!-- /image 10050 -->

<!-- image 45859 -->
<g id="transformed-45859" data-image="45859" transform="translate(528.1106001785607, 50.21060017856075) rotate(340, 23.40939982143923, 23.40939982143925)"><g><svg version="1.1" width="46.81879964287846px" height="46.8187996428785px" viewBox="0 0 46.81879964287846 46.8187996428785"><g id="original-45859"><svg xmlns="http://www.w3.org/2000/svg" viewBox="0 0 64 64" xmlns:xlink="http://www.w3.org/1999/xlink" version="1.1" preserveAspectRatio="xMidYMid meet">
  <g data-name="Layer 68">
    <path d="M32.87 36.78l-.86.86c-4.19-5.64-12.34.54-7.61 5.87l7.6 7.61c.47-.47 7.42-7.41 7.59-7.61 4.34-4.51-2.16-11.06-6.72-6.73z" fill="rgba(58, 36, 3, 1)" stroke="none"/>
    <path d="M51 22h-2V4a1 1 0 0 0-1-1H17a1 1 0 0 0-1 1v18c-.81.14-3.06-.47-3 1v37a1 1 0 0 0 1 1h37a1 1 0 0 0 1-1V23a1 1 0 0 0-1-1zm-18 0v-7h6v7zm-7 0v-7h5v7zm15-7h6v7h-6zm6-10v8h-6V5zm-8 0v8h-6V5zm-8 8h-5V5h5zm-7-8v8h-6V5zm-6 10h6v7h-6zm32 44H15V24h35z" fill="rgba(58, 36, 3, 1)" stroke="none"/>
  </g>
</svg>
</g></svg></g></g>
<!-- /image 45859 -->

<!-- image 46273 -->
<g id="transformed-46273" data-image="46273" transform="translate(209.1554845034029, 102.96143023902178) rotate(7, 16.1245154965971, 14.318569760978228)"><g><svg version="1.1" width="32.2490309931942px" height="28.637139521956456px" viewBox="0 0 32.2490309931942 28.637139521956456"><g id="original-46273"><svg xmlns="http://www.w3.org/2000/svg" viewBox="0 0 72 64" xmlns:xlink="http://www.w3.org/1999/xlink" version="1.1" preserveAspectRatio="xMidYMid meet">
  <path fill-rule="evenodd" d="M36 64C29.7 64 0 42.055 0 20.112 0 13.812.67-.002 18.9-.002c7.482 0 14.106 5.712 17.1 11.886C38.994 5.71 45.618-.002 53.1-.002 71.33-.002 72 13.811 72 20.112 72 42.057 42.3 64 36 64z" fill="rgba(158, 118, 110, 0.9767441860465116)" stroke="none"/>
  <path fill-rule="evenodd" d="M36 11.884C38.994 5.71 45.618-.002 53.1-.002 71.33-.002 72 13.811 72 20.112 72 42.057 42.3 64 36 64V11.884z" fill="rgba(158, 118, 110, 1)" stroke="none"/>
</svg>
</g></svg></g></g>
<!-- /image 46273 -->

<!-- image 06685 -->
<g id="transformed-06685" data-image="06685" transform="translate(394.23870049799405, 213.9607183181848) rotate(331, 20.271299502005927, 28.679281681815194)"><g><svg version="1.1" width="40.542599004011855px" height="57.35856336363039px" viewBox="0 0 40.542599004011855 57.35856336363039"><g id="original-06685"><svg xmlns="http://www.w3.org/2000/svg" viewBox="0 0 595.28 841.89" xmlns:xlink="http://www.w3.org/1999/xlink" version="1.1" preserveAspectRatio="xMidYMid meet">
  <path d="M553.845 336.415s0-.658-.658-.658c-87.485-122.347-224.96-97.351-226.276-96.694-1.316 0-1.973.658-2.631 1.316-4.604-1.973-9.867-3.947-14.471-4.604 1.316-23.022 7.236-78.276 42.098-90.773 5.92-1.973 8.551-8.551 6.578-14.471-1.973-5.92-8.551-8.551-14.471-6.578-48.676 17.102-55.911 85.511-57.227 111.822-28.284 5.262-49.991 30.258-49.991 59.858v3.289L45.382 427.847c-1.316.658-1.973 1.316-2.631 2.631-1.316 1.973-1.316 2.631-1.973 3.947V437.056l-.658 270.347c0 3.289 1.316 6.578 3.947 8.551 1.973 1.973 4.604 2.631 7.236 2.631h1.973l492.676-91.431c5.262-.658 9.209-5.92 9.209-11.182V342.336 340.362v-.658c-.001-1.315-.658-1.973-1.316-3.289zm-256.534-80.249c21.707 0 38.809 17.76 38.809 38.809 0 21.707-17.76 38.809-38.809 38.809-21.707 0-38.809-17.76-38.809-38.809 0-21.048 17.76-38.809 38.809-38.809zm-55.253 65.778c9.867 20.391 30.916 34.862 55.253 34.862 33.547 0 61.173-27.627 61.173-61.173a61.069 61.069 0 0 0-11.84-36.178c34.204-2.631 115.111 1.316 176.943 75.645l-420.979 80.907 139.45-94.063zm290.08 284.161L62.484 693.589V573.874l469.654-83.538v115.769zm0-138.134L62.484 551.509V445.607l469.654-90.116v112.48z" fill="rgba(206, 58, 0, 1)" stroke="none"/>
</svg>
</g></svg></g></g>
<!-- /image 06685 -->

<!-- image 02437 -->
<g id="transformed-02437" data-image="02437" transform="translate(27.540643375971655, 189.37064337597167) rotate(6, 25.179356624028344, 25.179356624028337)"><g><svg version="1.1" width="50.35871324805669px" height="50.358713248056674px" viewBox="0 0 50.35871324805669 50.358713248056674"><g id="original-02437"><svg xmlns="http://www.w3.org/2000/svg" viewBox="0 0 60 60" xmlns:xlink="http://www.w3.org/1999/xlink" version="1.1" preserveAspectRatio="xMidYMid meet">
  <path d="M30.559 20.09c-7.546-2.025-15.101.531-16.631 6.838-3.104 12.798 10.79 29.517 17.54 29.65 6.749.135 20.329-22.166 16.543-31.143-1.92-4.553-9.686-7.318-17.452-5.344z" stroke-linecap="round" stroke-width="2" stroke-linejoin="round" fill-rule="evenodd" fill="rgba(96, 96, 96, 0.029069767441860465)" stroke="rgba(83, 83, 83, 1)"/>
  <path d="M29 26h2" stroke-width="2" stroke-linejoin="round" fill-rule="evenodd" fill="rgba(96, 96, 96, 0.029069767441860465)" stroke="rgba(83, 83, 83, 1)"/>
  <path d="M32 29h2" stroke-width="2" stroke-linejoin="round" fill-rule="evenodd" fill="rgba(96, 96, 96, 0.029069767441860465)" stroke="rgba(83, 83, 83, 1)"/>
  <path d="M34 26h2" stroke-width="2" stroke-linejoin="round" fill-rule="evenodd" fill="rgba(96, 96, 96, 0.029069767441860465)" stroke="rgba(83, 83, 83, 1)"/>
  <path d="M36 30h2" stroke-width="2" stroke-linejoin="round" fill-rule="evenodd" fill="rgba(96, 96, 96, 0.029069767441860465)" stroke="rgba(83, 83, 83, 1)"/>
  <path d="M42 26h2" stroke-width="2" stroke-linejoin="round" fill-rule="evenodd" fill="rgba(96, 96, 96, 0.029069767441860465)" stroke="rgba(83, 83, 83, 1)"/>
  <path d="M38 27h2" stroke-width="2" stroke-linejoin="round" fill-rule="evenodd" fill="rgba(96, 96, 96, 0.029069767441860465)" stroke="rgba(83, 83, 83, 1)"/>
  <path d="M40 30h2" stroke-width="2" stroke-linejoin="round" fill-rule="evenodd" fill="rgba(96, 96, 96, 0.029069767441860465)" stroke="rgba(83, 83, 83, 1)"/>
  <path d="M33 32h2" stroke-width="2" stroke-linejoin="round" fill-rule="evenodd" fill="rgba(96, 96, 96, 0.029069767441860465)" stroke="rgba(83, 83, 83, 1)"/>
  <path d="M25.746 18.823l-3.38-6.105s2.695-4.88 5.688-2.84c2.992 2.039 1.638 4.504 1.638 4.504l5.165-8.32-.461 8.32s4.902-6.906 6.665-4.285c1.763 2.621-4.68 8.767-4.68 8.767" stroke-linecap="round" stroke-width="2" stroke-linejoin="round" fill-rule="evenodd" fill="rgba(96, 96, 96, 0.029069767441860465)" stroke="rgba(83, 83, 83, 1)"/>
</svg>
</g></svg></g></g>
<!-- /image 02437 -->

<!-- image 46144 -->
<g id="transformed-46144" data-image="46144" transform="translate(297.78892473494574, 265.01302419887213) rotate(324, 18.241075265054253, 25.80697580112788)"><g><svg version="1.1" width="36.482150530108505px" height="51.61395160225576px" viewBox="0 0 36.482150530108505 51.61395160225576"><g id="original-46144"><svg xmlns="http://www.w3.org/2000/svg" viewBox="0 0 595.28 841.89" xmlns:xlink="http://www.w3.org/1999/xlink" version="1.1" preserveAspectRatio="xMidYMid meet">
  <path d="M553.845 336.415s0-.658-.658-.658c-87.485-122.347-224.96-97.351-226.276-96.694-1.316 0-1.973.658-2.631 1.316-4.604-1.973-9.867-3.947-14.471-4.604 1.316-23.022 7.236-78.276 42.098-90.773 5.92-1.973 8.551-8.551 6.578-14.471-1.973-5.92-8.551-8.551-14.471-6.578-48.676 17.102-55.911 85.511-57.227 111.822-28.284 5.262-49.991 30.258-49.991 59.858v3.289L45.382 427.847c-1.316.658-1.973 1.316-2.631 2.631-1.316 1.973-1.316 2.631-1.973 3.947V437.056l-.658 270.347c0 3.289 1.316 6.578 3.947 8.551 1.973 1.973 4.604 2.631 7.236 2.631h1.973l492.676-91.431c5.262-.658 9.209-5.92 9.209-11.182V342.336 340.362v-.658c-.001-1.315-.658-1.973-1.316-3.289zm-256.534-80.249c21.707 0 38.809 17.76 38.809 38.809 0 21.707-17.76 38.809-38.809 38.809-21.707 0-38.809-17.76-38.809-38.809 0-21.048 17.76-38.809 38.809-38.809zm-55.253 65.778c9.867 20.391 30.916 34.862 55.253 34.862 33.547 0 61.173-27.627 61.173-61.173a61.069 61.069 0 0 0-11.84-36.178c34.204-2.631 115.111 1.316 176.943 75.645l-420.979 80.907 139.45-94.063zm290.08 284.161L62.484 693.589V573.874l469.654-83.538v115.769zm0-138.134L62.484 551.509V445.607l469.654-90.116v112.48z" fill="rgba(206, 58, 0, 1)" stroke="none"/>
</svg>
</g></svg></g></g>
<!-- /image 46144 -->

<!-- image 29781 -->
<g id="transformed-29781" data-image="29781" transform="translate(278.2406433759717, 92.57064337597166) rotate(6, 25.179356624028344, 25.179356624028337)"><g><svg version="1.1" width="50.35871324805669px" height="50.358713248056674px" viewBox="0 0 50.35871324805669 50.358713248056674"><g id="original-29781"><svg xmlns="http://www.w3.org/2000/svg" viewBox="0 0 60 60" xmlns:xlink="http://www.w3.org/1999/xlink" version="1.1" preserveAspectRatio="xMidYMid meet">
  <path d="M30.559 20.09c-7.546-2.025-15.101.531-16.631 6.838-3.104 12.798 10.79 29.517 17.54 29.65 6.749.135 20.329-22.166 16.543-31.143-1.92-4.553-9.686-7.318-17.452-5.344z" stroke-linecap="round" stroke-width="2" stroke-linejoin="round" fill-rule="evenodd" fill="rgba(96, 96, 96, 0.029069767441860465)" stroke="rgba(83, 83, 83, 1)"/>
  <path d="M29 26h2" stroke-width="2" stroke-linejoin="round" fill-rule="evenodd" fill="rgba(96, 96, 96, 0.029069767441860465)" stroke="rgba(83, 83, 83, 1)"/>
  <path d="M32 29h2" stroke-width="2" stroke-linejoin="round" fill-rule="evenodd" fill="rgba(96, 96, 96, 0.029069767441860465)" stroke="rgba(83, 83, 83, 1)"/>
  <path d="M34 26h2" stroke-width="2" stroke-linejoin="round" fill-rule="evenodd" fill="rgba(96, 96, 96, 0.029069767441860465)" stroke="rgba(83, 83, 83, 1)"/>
  <path d="M36 30h2" stroke-width="2" stroke-linejoin="round" fill-rule="evenodd" fill="rgba(96, 96, 96, 0.029069767441860465)" stroke="rgba(83, 83, 83, 1)"/>
  <path d="M42 26h2" stroke-width="2" stroke-linejoin="round" fill-rule="evenodd" fill="rgba(96, 96, 96, 0.029069767441860465)" stroke="rgba(83, 83, 83, 1)"/>
  <path d="M38 27h2" stroke-width="2" stroke-linejoin="round" fill-rule="evenodd" fill="rgba(96, 96, 96, 0.029069767441860465)" stroke="rgba(83, 83, 83, 1)"/>
  <path d="M40 30h2" stroke-width="2" stroke-linejoin="round" fill-rule="evenodd" fill="rgba(96, 96, 96, 0.029069767441860465)" stroke="rgba(83, 83, 83, 1)"/>
  <path d="M33 32h2" stroke-width="2" stroke-linejoin="round" fill-rule="evenodd" fill="rgba(96, 96, 96, 0.029069767441860465)" stroke="rgba(83, 83, 83, 1)"/>
  <path d="M25.746 18.823l-3.38-6.105s2.695-4.88 5.688-2.84c2.992 2.039 1.638 4.504 1.638 4.504l5.165-8.32-.461 8.32s4.902-6.906 6.665-4.285c1.763 2.621-4.68 8.767-4.68 8.767" stroke-linecap="round" stroke-width="2" stroke-linejoin="round" fill-rule="evenodd" fill="rgba(96, 96, 96, 0.029069767441860465)" stroke="rgba(83, 83, 83, 1)"/>
</svg>
</g></svg></g></g>
<!-- /image 29781 -->

<!-- image 54152 -->
<g id="transformed-54152" data-image="54152" transform="translate(95.44613532163875, 121.44613532163872) rotate(30, 25.553864678361254, 25.553864678361276)"><g><svg version="1.1" width="51.10772935672251px" height="51.10772935672255px" viewBox="0 0 51.10772935672251 51.10772935672255"><g id="original-54152"><svg xmlns="http://www.w3.org/2000/svg" viewBox="0 0 64 64" xmlns:xlink="http://www.w3.org/1999/xlink" version="1.1" preserveAspectRatio="xMidYMid meet">
  <g data-name="Layer 68">
    <path d="M32.87 36.78l-.86.86c-4.19-5.64-12.34.54-7.61 5.87l7.6 7.61c.47-.47 7.42-7.41 7.59-7.61 4.34-4.51-2.16-11.06-6.72-6.73z" fill="rgba(58, 36, 3, 1)" stroke="none"/>
    <path d="M51 22h-2V4a1 1 0 0 0-1-1H17a1 1 0 0 0-1 1v18c-.81.14-3.06-.47-3 1v37a1 1 0 0 0 1 1h37a1 1 0 0 0 1-1V23a1 1 0 0 0-1-1zm-18 0v-7h6v7zm-7 0v-7h5v7zm15-7h6v7h-6zm6-10v8h-6V5zm-8 0v8h-6V5zm-8 8h-5V5h5zm-7-8v8h-6V5zm-6 10h6v7h-6zm32 44H15V24h35z" fill="rgba(58, 36, 3, 1)" stroke="none"/>
  </g>
</svg>
</g></svg></g></g>
<!-- /image 54152 -->

<!-- image 48399 -->
<g id="transformed-48399" data-image="48399" transform="translate(37.2454845034029, 76.76143023902176) rotate(7, 16.1245154965971, 14.318569760978228)"><g><svg version="1.1" width="32.2490309931942px" height="28.637139521956456px" viewBox="0 0 32.2490309931942 28.637139521956456"><g id="original-48399"><svg xmlns="http://www.w3.org/2000/svg" viewBox="0 0 72 64" xmlns:xlink="http://www.w3.org/1999/xlink" version="1.1" preserveAspectRatio="xMidYMid meet">
  <path fill-rule="evenodd" d="M36 64C29.7 64 0 42.055 0 20.112 0 13.812.67-.002 18.9-.002c7.482 0 14.106 5.712 17.1 11.886C38.994 5.71 45.618-.002 53.1-.002 71.33-.002 72 13.811 72 20.112 72 42.057 42.3 64 36 64z" fill="rgba(158, 118, 110, 0.9767441860465116)" stroke="none"/>
  <path fill-rule="evenodd" d="M36 11.884C38.994 5.71 45.618-.002 53.1-.002 71.33-.002 72 13.811 72 20.112 72 42.057 42.3 64 36 64V11.884z" fill="rgba(158, 118, 110, 1)" stroke="none"/>
</svg>
</g></svg></g></g>
<!-- /image 48399 -->

<!-- image 49708 -->
<g id="transformed-49708" data-image="49708" transform="translate(538.7589247349457, 175.1930241988721) rotate(324, 18.241075265054253, 25.80697580112788)"><g><svg version="1.1" width="36.482150530108505px" height="51.61395160225576px" viewBox="0 0 36.482150530108505 51.61395160225576"><g id="original-49708"><svg xmlns="http://www.w3.org/2000/svg" viewBox="0 0 595.28 841.89" xmlns:xlink="http://www.w3.org/1999/xlink" version="1.1" preserveAspectRatio="xMidYMid meet">
  <path d="M553.845 336.415s0-.658-.658-.658c-87.485-122.347-224.96-97.351-226.276-96.694-1.316 0-1.973.658-2.631 1.316-4.604-1.973-9.867-3.947-14.471-4.604 1.316-23.022 7.236-78.276 42.098-90.773 5.92-1.973 8.551-8.551 6.578-14.471-1.973-5.92-8.551-8.551-14.471-6.578-48.676 17.102-55.911 85.511-57.227 111.822-28.284 5.262-49.991 30.258-49.991 59.858v3.289L45.382 427.847c-1.316.658-1.973 1.316-2.631 2.631-1.316 1.973-1.316 2.631-1.973 3.947V437.056l-.658 270.347c0 3.289 1.316 6.578 3.947 8.551 1.973 1.973 4.604 2.631 7.236 2.631h1.973l492.676-91.431c5.262-.658 9.209-5.92 9.209-11.182V342.336 340.362v-.658c-.001-1.315-.658-1.973-1.316-3.289zm-256.534-80.249c21.707 0 38.809 17.76 38.809 38.809 0 21.707-17.76 38.809-38.809 38.809-21.707 0-38.809-17.76-38.809-38.809 0-21.048 17.76-38.809 38.809-38.809zm-55.253 65.778c9.867 20.391 30.916 34.862 55.253 34.862 33.547 0 61.173-27.627 61.173-61.173a61.069 61.069 0 0 0-11.84-36.178c34.204-2.631 115.111 1.316 176.943 75.645l-420.979 80.907 139.45-94.063zm290.08 284.161L62.484 693.589V573.874l469.654-83.538v115.769zm0-138.134L62.484 551.509V445.607l469.654-90.116v112.48z" fill="rgba(206, 58, 0, 1)" stroke="none"/>
</svg>
</g></svg></g></g>
<!-- /image 49708 -->

<!-- image 47274 -->
<g id="transformed-47274" data-image="47274" transform="translate(135.00257774172925, 73.0114878277874) rotate(51, 19.097422258270747, 27.018512172212592)"><g><svg version="1.1" width="38.194844516541494px" height="54.037024344425184px" viewBox="0 0 38.194844516541494 54.037024344425184"><g id="original-47274"><svg xmlns="http://www.w3.org/2000/svg" viewBox="0 0 595.28 841.89" xmlns:xlink="http://www.w3.org/1999/xlink" version="1.1" preserveAspectRatio="xMidYMid meet">
  <path d="M553.845 336.415s0-.658-.658-.658c-87.485-122.347-224.96-97.351-226.276-96.694-1.316 0-1.973.658-2.631 1.316-4.604-1.973-9.867-3.947-14.471-4.604 1.316-23.022 7.236-78.276 42.098-90.773 5.92-1.973 8.551-8.551 6.578-14.471-1.973-5.92-8.551-8.551-14.471-6.578-48.676 17.102-55.911 85.511-57.227 111.822-28.284 5.262-49.991 30.258-49.991 59.858v3.289L45.382 427.847c-1.316.658-1.973 1.316-2.631 2.631-1.316 1.973-1.316 2.631-1.973 3.947V437.056l-.658 270.347c0 3.289 1.316 6.578 3.947 8.551 1.973 1.973 4.604 2.631 7.236 2.631h1.973l492.676-91.431c5.262-.658 9.209-5.92 9.209-11.182V342.336 340.362v-.658c-.001-1.315-.658-1.973-1.316-3.289zm-256.534-80.249c21.707 0 38.809 17.76 38.809 38.809 0 21.707-17.76 38.809-38.809 38.809-21.707 0-38.809-17.76-38.809-38.809 0-21.048 17.76-38.809 38.809-38.809zm-55.253 65.778c9.867 20.391 30.916 34.862 55.253 34.862 33.547 0 61.173-27.627 61.173-61.173a61.069 61.069 0 0 0-11.84-36.178c34.204-2.631 115.111 1.316 176.943 75.645l-420.979 80.907 139.45-94.063zm290.08 284.161L62.484 693.589V573.874l469.654-83.538v115.769zm0-138.134L62.484 551.509V445.607l469.654-90.116v112.48z" fill="rgba(206, 58, 0, 1)" stroke="none"/>
</svg>
</g></svg></g></g>
<!-- /image 47274 -->

<!-- image 73499 -->
<g id="transformed-73499" data-image="73499" transform="translate(237.79892473494576, 138.2330241988721) rotate(324, 18.241075265054253, 25.80697580112788)"><g><svg version="1.1" width="36.482150530108505px" height="51.61395160225576px" viewBox="0 0 36.482150530108505 51.61395160225576"><g id="original-73499"><svg xmlns="http://www.w3.org/2000/svg" viewBox="0 0 595.28 841.89" xmlns:xlink="http://www.w3.org/1999/xlink" version="1.1" preserveAspectRatio="xMidYMid meet">
  <path d="M553.845 336.415s0-.658-.658-.658c-87.485-122.347-224.96-97.351-226.276-96.694-1.316 0-1.973.658-2.631 1.316-4.604-1.973-9.867-3.947-14.471-4.604 1.316-23.022 7.236-78.276 42.098-90.773 5.92-1.973 8.551-8.551 6.578-14.471-1.973-5.92-8.551-8.551-14.471-6.578-48.676 17.102-55.911 85.511-57.227 111.822-28.284 5.262-49.991 30.258-49.991 59.858v3.289L45.382 427.847c-1.316.658-1.973 1.316-2.631 2.631-1.316 1.973-1.316 2.631-1.973 3.947V437.056l-.658 270.347c0 3.289 1.316 6.578 3.947 8.551 1.973 1.973 4.604 2.631 7.236 2.631h1.973l492.676-91.431c5.262-.658 9.209-5.92 9.209-11.182V342.336 340.362v-.658c-.001-1.315-.658-1.973-1.316-3.289zm-256.534-80.249c21.707 0 38.809 17.76 38.809 38.809 0 21.707-17.76 38.809-38.809 38.809-21.707 0-38.809-17.76-38.809-38.809 0-21.048 17.76-38.809 38.809-38.809zm-55.253 65.778c9.867 20.391 30.916 34.862 55.253 34.862 33.547 0 61.173-27.627 61.173-61.173a61.069 61.069 0 0 0-11.84-36.178c34.204-2.631 115.111 1.316 176.943 75.645l-420.979 80.907 139.45-94.063zm290.08 284.161L62.484 693.589V573.874l469.654-83.538v115.769zm0-138.134L62.484 551.509V445.607l469.654-90.116v112.48z" fill="rgba(206, 58, 0, 1)" stroke="none"/>
</svg>
</g></svg></g></g>
<!-- /image 73499 -->

<!-- image 15424 -->
<g id="transformed-15424" data-image="15424" transform="translate(310.13060017856077, 170.55060017856076) rotate(340, 23.40939982143923, 23.40939982143925)"><g><svg version="1.1" width="46.81879964287846px" height="46.8187996428785px" viewBox="0 0 46.81879964287846 46.8187996428785"><g id="original-15424"><svg xmlns="http://www.w3.org/2000/svg" viewBox="0 0 64 64" xmlns:xlink="http://www.w3.org/1999/xlink" version="1.1" preserveAspectRatio="xMidYMid meet">
  <g data-name="Layer 68">
    <path d="M32.87 36.78l-.86.86c-4.19-5.64-12.34.54-7.61 5.87l7.6 7.61c.47-.47 7.42-7.41 7.59-7.61 4.34-4.51-2.16-11.06-6.72-6.73z" fill="rgba(58, 36, 3, 1)" stroke="none"/>
    <path d="M51 22h-2V4a1 1 0 0 0-1-1H17a1 1 0 0 0-1 1v18c-.81.14-3.06-.47-3 1v37a1 1 0 0 0 1 1h37a1 1 0 0 0 1-1V23a1 1 0 0 0-1-1zm-18 0v-7h6v7zm-7 0v-7h5v7zm15-7h6v7h-6zm6-10v8h-6V5zm-8 0v8h-6V5zm-8 8h-5V5h5zm-7-8v8h-6V5zm-6 10h6v7h-6zm32 44H15V24h35z" fill="rgba(58, 36, 3, 1)" stroke="none"/>
  </g>
</svg>
</g></svg></g></g>
<!-- /image 15424 -->

<!-- image 56049 -->
<g id="transformed-56049" data-image="56049" transform="translate(144.22064337597166, 264.16064337597163) rotate(6, 25.179356624028344, 25.179356624028337)"><g><svg version="1.1" width="50.35871324805669px" height="50.358713248056674px" viewBox="0 0 50.35871324805669 50.358713248056674"><g id="original-56049"><svg xmlns="http://www.w3.org/2000/svg" viewBox="0 0 60 60" xmlns:xlink="http://www.w3.org/1999/xlink" version="1.1" preserveAspectRatio="xMidYMid meet">
  <path d="M30.559 20.09c-7.546-2.025-15.101.531-16.631 6.838-3.104 12.798 10.79 29.517 17.54 29.65 6.749.135 20.329-22.166 16.543-31.143-1.92-4.553-9.686-7.318-17.452-5.344z" stroke-linecap="round" stroke-width="2" stroke-linejoin="round" fill-rule="evenodd" fill="rgba(96, 96, 96, 0.029069767441860465)" stroke="rgba(83, 83, 83, 1)"/>
  <path d="M29 26h2" stroke-width="2" stroke-linejoin="round" fill-rule="evenodd" fill="rgba(96, 96, 96, 0.029069767441860465)" stroke="rgba(83, 83, 83, 1)"/>
  <path d="M32 29h2" stroke-width="2" stroke-linejoin="round" fill-rule="evenodd" fill="rgba(96, 96, 96, 0.029069767441860465)" stroke="rgba(83, 83, 83, 1)"/>
  <path d="M34 26h2" stroke-width="2" stroke-linejoin="round" fill-rule="evenodd" fill="rgba(96, 96, 96, 0.029069767441860465)" stroke="rgba(83, 83, 83, 1)"/>
  <path d="M36 30h2" stroke-width="2" stroke-linejoin="round" fill-rule="evenodd" fill="rgba(96, 96, 96, 0.029069767441860465)" stroke="rgba(83, 83, 83, 1)"/>
  <path d="M42 26h2" stroke-width="2" stroke-linejoin="round" fill-rule="evenodd" fill="rgba(96, 96, 96, 0.029069767441860465)" stroke="rgba(83, 83, 83, 1)"/>
  <path d="M38 27h2" stroke-width="2" stroke-linejoin="round" fill-rule="evenodd" fill="rgba(96, 96, 96, 0.029069767441860465)" stroke="rgba(83, 83, 83, 1)"/>
  <path d="M40 30h2" stroke-width="2" stroke-linejoin="round" fill-rule="evenodd" fill="rgba(96, 96, 96, 0.029069767441860465)" stroke="rgba(83, 83, 83, 1)"/>
  <path d="M33 32h2" stroke-width="2" stroke-linejoin="round" fill-rule="evenodd" fill="rgba(96, 96, 96, 0.029069767441860465)" stroke="rgba(83, 83, 83, 1)"/>
  <path d="M25.746 18.823l-3.38-6.105s2.695-4.88 5.688-2.84c2.992 2.039 1.638 4.504 1.638 4.504l5.165-8.32-.461 8.32s4.902-6.906 6.665-4.285c1.763 2.621-4.68 8.767-4.68 8.767" stroke-linecap="round" stroke-width="2" stroke-linejoin="round" fill-rule="evenodd" fill="rgba(96, 96, 96, 0.029069767441860465)" stroke="rgba(83, 83, 83, 1)"/>
</svg>
</g></svg></g></g>
<!-- /image 56049 -->

<!-- image 89925 -->
<g id="transformed-89925" data-image="89925" transform="translate(140.8754845034029, 176.68143023902178) rotate(7, 16.1245154965971, 14.318569760978228)"><g><svg version="1.1" width="32.2490309931942px" height="28.637139521956456px" viewBox="0 0 32.2490309931942 28.637139521956456"><g id="original-89925"><svg xmlns="http://www.w3.org/2000/svg" viewBox="0 0 72 64" xmlns:xlink="http://www.w3.org/1999/xlink" version="1.1" preserveAspectRatio="xMidYMid meet">
  <path fill-rule="evenodd" d="M36 64C29.7 64 0 42.055 0 20.112 0 13.812.67-.002 18.9-.002c7.482 0 14.106 5.712 17.1 11.886C38.994 5.71 45.618-.002 53.1-.002 71.33-.002 72 13.811 72 20.112 72 42.057 42.3 64 36 64z" fill="rgba(158, 118, 110, 0.9767441860465116)" stroke="none"/>
  <path fill-rule="evenodd" d="M36 11.884C38.994 5.71 45.618-.002 53.1-.002 71.33-.002 72 13.811 72 20.112 72 42.057 42.3 64 36 64V11.884z" fill="rgba(158, 118, 110, 1)" stroke="none"/>
</svg>
</g></svg></g></g>
<!-- /image 89925 -->
</defs><rect x="0" y="0" width="599" height="326" fill="rgba(58, 36, 3, 0)"></rect><use xlink:href="#transformed-05693" transform="translate(-599, -326)"></use><use xlink:href="#transformed-05693" transform="translate(0, -326)"></use><use xlink:href="#transformed-05693" transform="translate(599, -326)"></use><use xlink:href="#transformed-05693" transform="translate(-599, 0)"></use><use xlink:href="#transformed-05693" transform="translate(0, 0)"></use><use xlink:href="#transformed-05693" transform="translate(599, 0)"></use><use xlink:href="#transformed-05693" transform="translate(-599, 326)"></use><use xlink:href="#transformed-05693" transform="translate(0, 326)"></use><use xlink:href="#transformed-05693" transform="translate(599, 326)"></use><use xlink:href="#transformed-28863" transform="translate(-599, -326)"></use><use xlink:href="#transformed-28863" transform="translate(0, -326)"></use><use xlink:href="#transformed-28863" transform="translate(599, -326)"></use><use xlink:href="#transformed-28863" transform="translate(-599, 0)"></use><use xlink:href="#transformed-28863" transform="translate(0, 0)"></use><use xlink:href="#transformed-28863" transform="translate(599, 0)"></use><use xlink:href="#transformed-28863" transform="translate(-599, 326)"></use><use xlink:href="#transformed-28863" transform="translate(0, 326)"></use><use xlink:href="#transformed-28863" transform="translate(599, 326)"></use><use xlink:href="#transformed-11639" transform="translate(-599, -326)"></use><use xlink:href="#transformed-11639" transform="translate(0, -326)"></use><use xlink:href="#transformed-11639" transform="translate(599, -326)"></use><use xlink:href="#transformed-11639" transform="translate(-599, 0)"></use><use xlink:href="#transformed-11639" transform="translate(0, 0)"></use><use xlink:href="#transformed-11639" transform="translate(599, 0)"></use><use xlink:href="#transformed-11639" transform="translate(-599, 326)"></use><use xlink:href="#transformed-11639" transform="translate(0, 326)"></use><use xlink:href="#transformed-11639" transform="translate(599, 326)"></use><use xlink:href="#transformed-00603" transform="translate(-599, -326)"></use><use xlink:href="#transformed-00603" transform="translate(0, -326)"></use><use xlink:href="#transformed-00603" transform="translate(599, -326)"></use><use xlink:href="#transformed-00603" transform="translate(-599, 0)"></use><use xlink:href="#transformed-00603" transform="translate(0, 0)"></use><use xlink:href="#transformed-00603" transform="translate(599, 0)"></use><use xlink:href="#transformed-00603" transform="translate(-599, 326)"></use><use xlink:href="#transformed-00603" transform="translate(0, 326)"></use><use xlink:href="#transformed-00603" transform="translate(599, 326)"></use><use xlink:href="#transformed-48983" transform="translate(-599, -326)"></use><use xlink:href="#transformed-48983" transform="translate(0, -326)"></use><use xlink:href="#transformed-48983" transform="translate(599, -326)"></use><use xlink:href="#transformed-48983" transform="translate(-599, 0)"></use><use xlink:href="#transformed-48983" transform="translate(0, 0)"></use><use xlink:href="#transformed-48983" transform="translate(599, 0)"></use><use xlink:href="#transformed-48983" transform="translate(-599, 326)"></use><use xlink:href="#transformed-48983" transform="translate(0, 326)"></use><use xlink:href="#transformed-48983" transform="translate(599, 326)"></use><use xlink:href="#transformed-21728" transform="translate(-599, -326)"></use><use xlink:href="#transformed-21728" transform="translate(0, -326)"></use><use xlink:href="#transformed-21728" transform="translate(599, -326)"></use><use xlink:href="#transformed-21728" transform="translate(-599, 0)"></use><use xlink:href="#transformed-21728" transform="translate(0, 0)"></use><use xlink:href="#transformed-21728" transform="translate(599, 0)"></use><use xlink:href="#transformed-21728" transform="translate(-599, 326)"></use><use xlink:href="#transformed-21728" transform="translate(0, 326)"></use><use xlink:href="#transformed-21728" transform="translate(599, 326)"></use><use xlink:href="#transformed-35854" transform="translate(-599, -326)"></use><use xlink:href="#transformed-35854" transform="translate(0, -326)"></use><use xlink:href="#transformed-35854" transform="translate(599, -326)"></use><use xlink:href="#transformed-35854" transform="translate(-599, 0)"></use><use xlink:href="#transformed-35854" transform="translate(0, 0)"></use><use xlink:href="#transformed-35854" transform="translate(599, 0)"></use><use xlink:href="#transformed-35854" transform="translate(-599, 326)"></use><use xlink:href="#transformed-35854" transform="translate(0, 326)"></use><use xlink:href="#transformed-35854" transform="translate(599, 326)"></use><use xlink:href="#transformed-37917" transform="translate(-599, -326)"></use><use xlink:href="#transformed-37917" transform="translate(0, -326)"></use><use xlink:href="#transformed-37917" transform="translate(599, -326)"></use><use xlink:href="#transformed-37917" transform="translate(-599, 0)"></use><use xlink:href="#transformed-37917" transform="translate(0, 0)"></use><use xlink:href="#transformed-37917" transform="translate(599, 0)"></use><use xlink:href="#transformed-37917" transform="translate(-599, 326)"></use><use xlink:href="#transformed-37917" transform="translate(0, 326)"></use><use xlink:href="#transformed-37917" transform="translate(599, 326)"></use><use xlink:href="#transformed-72249" transform="translate(-599, -326)"></use><use xlink:href="#transformed-72249" transform="translate(0, -326)"></use><use xlink:href="#transformed-72249" transform="translate(599, -326)"></use><use xlink:href="#transformed-72249" transform="translate(-599, 0)"></use><use xlink:href="#transformed-72249" transform="translate(0, 0)"></use><use xlink:href="#transformed-72249" transform="translate(599, 0)"></use><use xlink:href="#transformed-72249" transform="translate(-599, 326)"></use><use xlink:href="#transformed-72249" transform="translate(0, 326)"></use><use xlink:href="#transformed-72249" transform="translate(599, 326)"></use><use xlink:href="#transformed-46075" transform="translate(-599, -326)"></use><use xlink:href="#transformed-46075" transform="translate(0, -326)"></use><use xlink:href="#transformed-46075" transform="translate(599, -326)"></use><use xlink:href="#transformed-46075" transform="translate(-599, 0)"></use><use xlink:href="#transformed-46075" transform="translate(0, 0)"></use><use xlink:href="#transformed-46075" transform="translate(599, 0)"></use><use xlink:href="#transformed-46075" transform="translate(-599, 326)"></use><use xlink:href="#transformed-46075" transform="translate(0, 326)"></use><use xlink:href="#transformed-46075" transform="translate(599, 326)"></use><use xlink:href="#transformed-23660" transform="translate(-599, -326)"></use><use xlink:href="#transformed-23660" transform="translate(0, -326)"></use><use xlink:href="#transformed-23660" transform="translate(599, -326)"></use><use xlink:href="#transformed-23660" transform="translate(-599, 0)"></use><use xlink:href="#transformed-23660" transform="translate(0, 0)"></use><use xlink:href="#transformed-23660" transform="translate(599, 0)"></use><use xlink:href="#transformed-23660" transform="translate(-599, 326)"></use><use xlink:href="#transformed-23660" transform="translate(0, 326)"></use><use xlink:href="#transformed-23660" transform="translate(599, 326)"></use><use xlink:href="#transformed-02214" transform="translate(-599, -326)"></use><use xlink:href="#transformed-02214" transform="translate(0, -326)"></use><use xlink:href="#transformed-02214" transform="translate(599, -326)"></use><use xlink:href="#transformed-02214" transform="translate(-599, 0)"></use><use xlink:href="#transformed-02214" transform="translate(0, 0)"></use><use xlink:href="#transformed-02214" transform="translate(599, 0)"></use><use xlink:href="#transformed-02214" transform="translate(-599, 326)"></use><use xlink:href="#transformed-02214" transform="translate(0, 326)"></use><use xlink:href="#transformed-02214" transform="translate(599, 326)"></use><use xlink:href="#transformed-20412" transform="translate(-599, -326)"></use><use xlink:href="#transformed-20412" transform="translate(0, -326)"></use><use xlink:href="#transformed-20412" transform="translate(599, -326)"></use><use xlink:href="#transformed-20412" transform="translate(-599, 0)"></use><use xlink:href="#transformed-20412" transform="translate(0, 0)"></use><use xlink:href="#transformed-20412" transform="translate(599, 0)"></use><use xlink:href="#transformed-20412" transform="translate(-599, 326)"></use><use xlink:href="#transformed-20412" transform="translate(0, 326)"></use><use xlink:href="#transformed-20412" transform="translate(599, 326)"></use><use xlink:href="#transformed-91898" transform="translate(-599, -326)"></use><use xlink:href="#transformed-91898" transform="translate(0, -326)"></use><use xlink:href="#transformed-91898" transform="translate(599, -326)"></use><use xlink:href="#transformed-91898" transform="translate(-599, 0)"></use><use xlink:href="#transformed-91898" transform="translate(0, 0)"></use><use xlink:href="#transformed-91898" transform="translate(599, 0)"></use><use xlink:href="#transformed-91898" transform="translate(-599, 326)"></use><use xlink:href="#transformed-91898" transform="translate(0, 326)"></use><use xlink:href="#transformed-91898" transform="translate(599, 326)"></use><use xlink:href="#transformed-21713" transform="translate(-599, -326)"></use><use xlink:href="#transformed-21713" transform="translate(0, -326)"></use><use xlink:href="#transformed-21713" transform="translate(599, -326)"></use><use xlink:href="#transformed-21713" transform="translate(-599, 0)"></use><use xlink:href="#transformed-21713" transform="translate(0, 0)"></use><use xlink:href="#transformed-21713" transform="translate(599, 0)"></use><use xlink:href="#transformed-21713" transform="translate(-599, 326)"></use><use xlink:href="#transformed-21713" transform="translate(0, 326)"></use><use xlink:href="#transformed-21713" transform="translate(599, 326)"></use><use xlink:href="#transformed-91728" transform="translate(-599, -326)"></use><use xlink:href="#transformed-91728" transform="translate(0, -326)"></use><use xlink:href="#transformed-91728" transform="translate(599, -326)"></use><use xlink:href="#transformed-91728" transform="translate(-599, 0)"></use><use xlink:href="#transformed-91728" transform="translate(0, 0)"></use><use xlink:href="#transformed-91728" transform="translate(599, 0)"></use><use xlink:href="#transformed-91728" transform="translate(-599, 326)"></use><use xlink:href="#transformed-91728" transform="translate(0, 326)"></use><use xlink:href="#transformed-91728" transform="translate(599, 326)"></use><use xlink:href="#transformed-77785" transform="translate(-599, -326)"></use><use xlink:href="#transformed-77785" transform="translate(0, -326)"></use><use xlink:href="#transformed-77785" transform="translate(599, -326)"></use><use xlink:href="#transformed-77785" transform="translate(-599, 0)"></use><use xlink:href="#transformed-77785" transform="translate(0, 0)"></use><use xlink:href="#transformed-77785" transform="translate(599, 0)"></use><use xlink:href="#transformed-77785" transform="translate(-599, 326)"></use><use xlink:href="#transformed-77785" transform="translate(0, 326)"></use><use xlink:href="#transformed-77785" transform="translate(599, 326)"></use><use xlink:href="#transformed-78453" transform="translate(-599, -326)"></use><use xlink:href="#transformed-78453" transform="translate(0, -326)"></use><use xlink:href="#transformed-78453" transform="translate(599, -326)"></use><use xlink:href="#transformed-78453" transform="translate(-599, 0)"></use><use xlink:href="#transformed-78453" transform="translate(0, 0)"></use><use xlink:href="#transformed-78453" transform="translate(599, 0)"></use><use xlink:href="#transformed-78453" transform="translate(-599, 326)"></use><use xlink:href="#transformed-78453" transform="translate(0, 326)"></use><use xlink:href="#transformed-78453" transform="translate(599, 326)"></use><use xlink:href="#transformed-44124" transform="translate(-599, -326)"></use><use xlink:href="#transformed-44124" transform="translate(0, -326)"></use><use xlink:href="#transformed-44124" transform="translate(599, -326)"></use><use xlink:href="#transformed-44124" transform="translate(-599, 0)"></use><use xlink:href="#transformed-44124" transform="translate(0, 0)"></use><use xlink:href="#transformed-44124" transform="translate(599, 0)"></use><use xlink:href="#transformed-44124" transform="translate(-599, 326)"></use><use xlink:href="#transformed-44124" transform="translate(0, 326)"></use><use xlink:href="#transformed-44124" transform="translate(599, 326)"></use><use xlink:href="#transformed-37771" transform="translate(-599, -326)"></use><use xlink:href="#transformed-37771" transform="translate(0, -326)"></use><use xlink:href="#transformed-37771" transform="translate(599, -326)"></use><use xlink:href="#transformed-37771" transform="translate(-599, 0)"></use><use xlink:href="#transformed-37771" transform="translate(0, 0)"></use><use xlink:href="#transformed-37771" transform="translate(599, 0)"></use><use xlink:href="#transformed-37771" transform="translate(-599, 326)"></use><use xlink:href="#transformed-37771" transform="translate(0, 326)"></use><use xlink:href="#transformed-37771" transform="translate(599, 326)"></use><use xlink:href="#transformed-10050" transform="translate(-599, -326)"></use><use xlink:href="#transformed-10050" transform="translate(0, -326)"></use><use xlink:href="#transformed-10050" transform="translate(599, -326)"></use><use xlink:href="#transformed-10050" transform="translate(-599, 0)"></use><use xlink:href="#transformed-10050" transform="translate(0, 0)"></use><use xlink:href="#transformed-10050" transform="translate(599, 0)"></use><use xlink:href="#transformed-10050" transform="translate(-599, 326)"></use><use xlink:href="#transformed-10050" transform="translate(0, 326)"></use><use xlink:href="#transformed-10050" transform="translate(599, 326)"></use><use xlink:href="#transformed-45859" transform="translate(-599, -326)"></use><use xlink:href="#transformed-45859" transform="translate(0, -326)"></use><use xlink:href="#transformed-45859" transform="translate(599, -326)"></use><use xlink:href="#transformed-45859" transform="translate(-599, 0)"></use><use xlink:href="#transformed-45859" transform="translate(0, 0)"></use><use xlink:href="#transformed-45859" transform="translate(599, 0)"></use><use xlink:href="#transformed-45859" transform="translate(-599, 326)"></use><use xlink:href="#transformed-45859" transform="translate(0, 326)"></use><use xlink:href="#transformed-45859" transform="translate(599, 326)"></use><use xlink:href="#transformed-46273" transform="translate(-599, -326)"></use><use xlink:href="#transformed-46273" transform="translate(0, -326)"></use><use xlink:href="#transformed-46273" transform="translate(599, -326)"></use><use xlink:href="#transformed-46273" transform="translate(-599, 0)"></use><use xlink:href="#transformed-46273" transform="translate(0, 0)"></use><use xlink:href="#transformed-46273" transform="translate(599, 0)"></use><use xlink:href="#transformed-46273" transform="translate(-599, 326)"></use><use xlink:href="#transformed-46273" transform="translate(0, 326)"></use><use xlink:href="#transformed-46273" transform="translate(599, 326)"></use><use xlink:href="#transformed-06685" transform="translate(-599, -326)"></use><use xlink:href="#transformed-06685" transform="translate(0, -326)"></use><use xlink:href="#transformed-06685" transform="translate(599, -326)"></use><use xlink:href="#transformed-06685" transform="translate(-599, 0)"></use><use xlink:href="#transformed-06685" transform="translate(0, 0)"></use><use xlink:href="#transformed-06685" transform="translate(599, 0)"></use><use xlink:href="#transformed-06685" transform="translate(-599, 326)"></use><use xlink:href="#transformed-06685" transform="translate(0, 326)"></use><use xlink:href="#transformed-06685" transform="translate(599, 326)"></use><use xlink:href="#transformed-02437" transform="translate(-599, -326)"></use><use xlink:href="#transformed-02437" transform="translate(0, -326)"></use><use xlink:href="#transformed-02437" transform="translate(599, -326)"></use><use xlink:href="#transformed-02437" transform="translate(-599, 0)"></use><use xlink:href="#transformed-02437" transform="translate(0, 0)"></use><use xlink:href="#transformed-02437" transform="translate(599, 0)"></use><use xlink:href="#transformed-02437" transform="translate(-599, 326)"></use><use xlink:href="#transformed-02437" transform="translate(0, 326)"></use><use xlink:href="#transformed-02437" transform="translate(599, 326)"></use><use xlink:href="#transformed-46144" transform="translate(-599, -326)"></use><use xlink:href="#transformed-46144" transform="translate(0, -326)"></use><use xlink:href="#transformed-46144" transform="translate(599, -326)"></use><use xlink:href="#transformed-46144" transform="translate(-599, 0)"></use><use xlink:href="#transformed-46144" transform="translate(0, 0)"></use><use xlink:href="#transformed-46144" transform="translate(599, 0)"></use><use xlink:href="#transformed-46144" transform="translate(-599, 326)"></use><use xlink:href="#transformed-46144" transform="translate(0, 326)"></use><use xlink:href="#transformed-46144" transform="translate(599, 326)"></use><use xlink:href="#transformed-29781" transform="translate(-599, -326)"></use><use xlink:href="#transformed-29781" transform="translate(0, -326)"></use><use xlink:href="#transformed-29781" transform="translate(599, -326)"></use><use xlink:href="#transformed-29781" transform="translate(-599, 0)"></use><use xlink:href="#transformed-29781" transform="translate(0, 0)"></use><use xlink:href="#transformed-29781" transform="translate(599, 0)"></use><use xlink:href="#transformed-29781" transform="translate(-599, 326)"></use><use xlink:href="#transformed-29781" transform="translate(0, 326)"></use><use xlink:href="#transformed-29781" transform="translate(599, 326)"></use><use xlink:href="#transformed-54152" transform="translate(-599, -326)"></use><use xlink:href="#transformed-54152" transform="translate(0, -326)"></use><use xlink:href="#transformed-54152" transform="translate(599, -326)"></use><use xlink:href="#transformed-54152" transform="translate(-599, 0)"></use><use xlink:href="#transformed-54152" transform="translate(0, 0)"></use><use xlink:href="#transformed-54152" transform="translate(599, 0)"></use><use xlink:href="#transformed-54152" transform="translate(-599, 326)"></use><use xlink:href="#transformed-54152" transform="translate(0, 326)"></use><use xlink:href="#transformed-54152" transform="translate(599, 326)"></use><use xlink:href="#transformed-48399" transform="translate(-599, -326)"></use><use xlink:href="#transformed-48399" transform="translate(0, -326)"></use><use xlink:href="#transformed-48399" transform="translate(599, -326)"></use><use xlink:href="#transformed-48399" transform="translate(-599, 0)"></use><use xlink:href="#transformed-48399" transform="translate(0, 0)"></use><use xlink:href="#transformed-48399" transform="translate(599, 0)"></use><use xlink:href="#transformed-48399" transform="translate(-599, 326)"></use><use xlink:href="#transformed-48399" transform="translate(0, 326)"></use><use xlink:href="#transformed-48399" transform="translate(599, 326)"></use><use xlink:href="#transformed-49708" transform="translate(-599, -326)"></use><use xlink:href="#transformed-49708" transform="translate(0, -326)"></use><use xlink:href="#transformed-49708" transform="translate(599, -326)"></use><use xlink:href="#transformed-49708" transform="translate(-599, 0)"></use><use xlink:href="#transformed-49708" transform="translate(0, 0)"></use><use xlink:href="#transformed-49708" transform="translate(599, 0)"></use><use xlink:href="#transformed-49708" transform="translate(-599, 326)"></use><use xlink:href="#transformed-49708" transform="translate(0, 326)"></use><use xlink:href="#transformed-49708" transform="translate(599, 326)"></use><use xlink:href="#transformed-47274" transform="translate(-599, -326)"></use><use xlink:href="#transformed-47274" transform="translate(0, -326)"></use><use xlink:href="#transformed-47274" transform="translate(599, -326)"></use><use xlink:href="#transformed-47274" transform="translate(-599, 0)"></use><use xlink:href="#transformed-47274" transform="translate(0, 0)"></use><use xlink:href="#transformed-47274" transform="translate(599, 0)"></use><use xlink:href="#transformed-47274" transform="translate(-599, 326)"></use><use xlink:href="#transformed-47274" transform="translate(0, 326)"></use><use xlink:href="#transformed-47274" transform="translate(599, 326)"></use><use xlink:href="#transformed-73499" transform="translate(-599, -326)"></use><use xlink:href="#transformed-73499" transform="translate(0, -326)"></use><use xlink:href="#transformed-73499" transform="translate(599, -326)"></use><use xlink:href="#transformed-73499" transform="translate(-599, 0)"></use><use xlink:href="#transformed-73499" transform="translate(0, 0)"></use><use xlink:href="#transformed-73499" transform="translate(599, 0)"></use><use xlink:href="#transformed-73499" transform="translate(-599, 326)"></use><use xlink:href="#transformed-73499" transform="translate(0, 326)"></use><use xlink:href="#transformed-73499" transform="translate(599, 326)"></use><use xlink:href="#transformed-15424" transform="translate(-599, -326)"></use><use xlink:href="#transformed-15424" transform="translate(0, -326)"></use><use xlink:href="#transformed-15424" transform="translate(599, -326)"></use><use xlink:href="#transformed-15424" transform="translate(-599, 0)"></use><use xlink:href="#transformed-15424" transform="translate(0, 0)"></use><use xlink:href="#transformed-15424" transform="translate(599, 0)"></use><use xlink:href="#transformed-15424" transform="translate(-599, 326)"></use><use xlink:href="#transformed-15424" transform="translate(0, 326)"></use><use xlink:href="#transformed-15424" transform="translate(599, 326)"></use><use xlink:href="#transformed-56049" transform="translate(-599, -326)"></use><use xlink:href="#transformed-56049" transform="translate(0, -326)"></use><use xlink:href="#transformed-56049" transform="translate(599, -326)"></use><use xlink:href="#transformed-56049" transform="translate(-599, 0)"></use><use xlink:href="#transformed-56049" transform="translate(0, 0)"></use><use xlink:href="#transformed-56049" transform="translate(599, 0)"></use><use xlink:href="#transformed-56049" transform="translate(-599, 326)"></use><use xlink:href="#transformed-56049" transform="translate(0, 326)"></use><use xlink:href="#transformed-56049" transform="translate(599, 326)"></use><use xlink:href="#transformed-89925" transform="translate(-599, -326)"></use><use xlink:href="#transformed-89925" transform="translate(0, -326)"></use><use xlink:href="#transformed-89925" transform="translate(599, -326)"></use><use xlink:href="#transformed-89925" transform="translate(-599, 0)"></use><use xlink:href="#transformed-89925" transform="translate(0, 0)"></use><use xlink:href="#transformed-89925" transform="translate(599, 0)"></use><use xlink:href="#transformed-89925" transform="translate(-599, 326)"></use><use xlink:href="#transformed-89925" transform="translate(0, 326)"></use><use xlink:href="#transformed-89925" transform="translate(599, 326)"></use></svg>