<svg version="1.1"
      xmlns="http://www.w3.org/2000/svg"
      xmlns:xlink="http://www.w3.org/1999/xlink"  id="snapshot-76010" width="250" height="250" viewBox="0 0 250 250"><desc>This image was made on Patterninja.com</desc><defs>
<!-- image 50921 -->
<g id="transformed-50921" data-image="50921" transform="translate(197.5, 6.5) rotate(25, 20.5, 20.5)"><g><svg version="1.1" width="41px" height="41px" viewBox="0 0 41 41"><g id="original-50921"><svg xmlns="http://www.w3.org/2000/svg" viewBox="0 0 400 400" xmlns:xlink="http://www.w3.org/1999/xlink" version="1.1">
  <path d="M298.4 289l-47.1-66.5h20.5c1.9 0 3.7-1.1 4.5-2.9.8-1.8.5-3.8-.7-5.3l-46.4-54.7h20.2c1.9 0 3.6-1 4.4-2.7.9-1.6.7-3.6-.3-5.2L221 104.3l-15-21.7c-.9-1.4-2.5-2.2-4.1-2.2-1.6 0-3.2.8-4.1 2.2l-47.5 69.1c-1.1 1.5-1.2 3.5-.3 5.2.9 1.6 2.6 2.7 4.4 2.7h20.2l-6.4 7.6-39.9 47.1c-1.3 1.5-1.5 3.6-.7 5.3.8 1.8 2.6 2.9 4.5 2.9h20.5L105.5 289c-1.1 1.5-1.2 3.5-.4 5.2.9 1.7 2.6 2.7 4.4 2.7h53l-.1 35.5c0 1.3.5 2.6 1.5 3.5.9.9 2.2 1.5 3.5 1.5h68.9c2.8 0 5-2.2 5-5v-35.5h53c1.9 0 3.6-1 4.4-2.7.9-1.6.8-3.6-.3-5.2zM201.9 94.3l9.3 13.5c-.3.5-.8 1.1-1.5 2-1.7 2.1-1.4 5.3.8 7 .9.7 2 1.1 3.1 1.1 1.3 0 2.6-.5 3.5-1.4l21.6 31.4h-73.6l7.5-10.9c10.9-.8 14.4-1.1 21.5-4.5 2.5-1.2 3.6-4.2 2.4-6.7-1.2-2.5-4.2-3.6-6.7-2.4-3.7 1.7-5.8 2.4-9.9 2.9l22-32zm-29.7 83.6c3.5 3.4 7.3 6.3 11.5 8.6.8.4 1.6.6 2.4.6 1.8 0 3.5-1 4.4-2.6 1.3-2.4.4-5.5-2-6.8-3.6-1.9-6.9-4.4-9.8-7.4l10.6-12.5h25.4l18.6 21.9c-5.4 1.8-13.5 4-21.8 4.2-2.8.1-4.9 2.4-4.8 5.2.1 2.7 2.3 4.8 5 4.8h.2c11.8-.4 23-4 28.4-6.1l20.9 24.6H143l29.2-34.5zm15.3 109c-2.8 0-5 2.2-5 5s2.2 5 5 5h43.8v30.5h-58.9l.1-35.5c0-1.3-.5-2.6-1.5-3.5-.9-.9-2.2-1.5-3.5-1.5h-48.3l21.8-30.8c3.7 1.8 9.1 2.8 16.3 2.8 2.8 0 5.9-.1 9.3-.4 2.8-.2 4.8-2.6 4.6-5.4-.2-2.8-2.6-4.8-5.4-4.6-11 .9-16.4 0-18.9-.7l17.9-25.2H239l3.4 4.9c-2.7 1.5-6.9 3.4-13.5 5.8-2.6.9-4 3.8-3.1 6.4.7 2.1 2.7 3.3 4.7 3.3.6 0 1.1-.1 1.7-.3 7-2.5 12.2-4.7 16-7l36.4 51.4h-97.1z" fill="rgba(0, 89, 15, 1)" stroke="none"/>
  <path d="M203.6 240.4c-4.2 1.2-6.2 1.8-8 2.4-1.2.4-2.2.7-3.6 1.1-2.7.8-4.2 3.5-3.4 6.2.6 2.2 2.6 3.6 4.8 3.6.5 0 .9-.1 1.4-.2 1.6-.5 2.8-.8 4-1.2 1.7-.6 3.7-1.2 7.6-2.3 2.7-.7 4.2-3.5 3.5-6.2-.9-2.6-3.6-4.2-6.3-3.4z" fill="rgba(0, 89, 15, 1)" stroke="none"/>
  <path d="M194.9 190.8c.8.7 1.9 1.3 3.4 1.5.3 0 .5.1.8.1 2.4 0 4.5-1.8 4.9-4.2.3-2.2-.9-4.4-2.8-5.3-.7-.6-1.6-1-2.7-1.3-2.7-.7-5.4 1-6.1 3.6-.6 2.2.5 4.5 2.5 5.6z" fill="rgba(0, 89, 15, 1)" stroke="none"/>
  <path d="M199.4 125.8c.9.7 2 1.1 3.1 1.1s2.2-.3 3-1c.9-.4 1.9-1.2 2.8-2.5 1.5-2.3.9-5.4-1.4-6.9-1.9-1.2-4.3-1-6 .4-.8.4-1.6 1.1-2.3 1.9-1.8 2.2-1.4 5.3.8 7z" fill="rgba(0, 89, 15, 1)" stroke="none"/>
  <path d="M181.2 247.7h-2.7c-2.8 0-5 2.2-5 5s2.2 5 5 5h2.7c2.8 0 5-2.2 5-5s-2.3-5-5-5z" fill="rgba(0, 89, 15, 1)" stroke="none"/>
  <path d="M218.7 236.3l-2.2.4c-2.7.5-4.5 3.1-4.1 5.8.4 2.4 2.5 4.1 4.9 4.1.3 0 .6 0 .9-.1l2.2-.4c2.7-.5 4.5-3.1 4.1-5.8-.5-2.6-3.1-4.5-5.8-4z" fill="rgba(0, 89, 15, 1)" stroke="none"/>
  <path d="M195.1 74.5l8.3-4.4 8.4 4.4-1.6-9.3 6.8-6.6-9.4-1.3-4.2-8.5-4.1 8.5-9.4 1.3 6.8 6.6z" fill="rgba(0, 89, 15, 1)" stroke="none"/>
</svg>
</g></svg></g></g>
<!-- /image 50921 -->

<!-- image 58895 -->
<g id="transformed-58895" data-image="58895" transform="translate(99, 48) rotate(335, 20, 20)"><g><svg version="1.1" width="40px" height="40px" viewBox="0 0 40 40"><g id="original-58895"><svg xmlns="http://www.w3.org/2000/svg" id="Layer_1" viewBox="0 0 400 400" xmlns:xlink="http://www.w3.org/1999/xlink" version="1.1">
  <path d="M282.2 144h-52.8c1.5-.7 3-1.4 4.6-2.1 7.1-3.4 12.7-6.5 17.1-9.4.1-.1.3-.2.4-.3 15.5-10.2 16.1-17.3 16.4-20 .6-6.6-3.4-12.3-12-16.9-6.7-3.6-13.6-4-20.6-1.3-5.2 2.1-10 5.9-14.3 10.6-.3.3-.6.6-.8.9-6.2 7.1-11.4 15.9-15.2 23.6-1-12.6-5.2-32.7-21.6-42.7-20.2-12.2-39.8 3.8-47.7 14.4-.9.8-1.8 1.7-2.6 2.7-5.2 5.9-4.8 11.4-3.6 15 3.1 9.1 15.6 17.2 38.4 24.9.5.2 1 .3 1.5.5h-52.8c-9.4 0-17 7.6-17 17v42c0 9.4 7.6 17 17 17h62V313h-43.2c-3.9 0-7-3.1-7-7v-73c0-2.8-2.2-5-5-5s-5 2.2-5 5v73.1c0 9.4 7.6 17 17 17H265c9.4 0 17-7.6 17-17V233c0-2.8-2.2-5-5-5s-5 2.2-5 5v73.1c0 3.9-3.1 7-7 7h-44.7V220h61.9c9.4 0 17-7.6 17-17v-42c0-9.4-7.7-17-17-17zm-69.4 10v56H191v-56h9.1c.6.2 1.2.3 1.8.3.5 0 1-.1 1.6-.2 0 0 .1 0 .3-.1h9zm31.4-51.7c2.3 0 4.6.6 6.9 1.9 3.2 1.7 7 4.4 6.7 7.2-.2 2.3-2.1 4.9-5.2 7.6-1.1-4-3.1-7.3-6-9.9-2.8-2.6-6.2-4.1-9.5-4.9.6-.3 1.2-.6 1.8-.8 1.8-.8 3.5-1.1 5.3-1.1zm-17.4 10.8c3.5-.2 9.6.2 13.2 3.4 2.2 2 3.4 4.9 3.6 8.9-9.3 5.6-21.6 11.2-33 15.5 3.7-8.7 9.4-19.7 16.2-27.8zM178.2 95c12.2 7.4 15.7 23.3 16.7 33.9-9-13.2-23-30.1-37.9-33.8 7.6-4.1 14.5-4.1 21.2-.1zm-39.3 20.3c-.2-.7-.8-2.4 1.7-5.3 3.3-3.8 6.8-5.6 10.7-5.6.5 0 1 0 1.5.1 13 1.5 28.2 21 37.2 35.1-22.3-5.7-48.1-15.4-51.1-24.3zM109.6 203v-42c0-3.9 3.1-7 7-7H181v56h-64.5c-3.8 0-6.9-3.1-6.9-7zm79 110.1V220h21.7v93.1h-21.7zM289.2 203c0 3.9-3.1 7-7 7h-59.4v-56h59.4c3.9 0 7 3.1 7 7v42z" fill="rgba(211, 175, 175, 1)" stroke="none"/>
</svg>
</g></svg></g></g>
<!-- /image 58895 -->

<!-- image 11216 -->
<g id="transformed-11216" data-image="11216" transform="translate(79.5, 102.5) rotate(25, 20.5, 20.5)"><g><svg version="1.1" width="41px" height="41px" viewBox="0 0 41 41"><g id="original-11216"><svg xmlns="http://www.w3.org/2000/svg" viewBox="0 0 400 400" xmlns:xlink="http://www.w3.org/1999/xlink" version="1.1">
  <path d="M298.4 289l-47.1-66.5h20.5c1.9 0 3.7-1.1 4.5-2.9.8-1.8.5-3.8-.7-5.3l-46.4-54.7h20.2c1.9 0 3.6-1 4.4-2.7.9-1.6.7-3.6-.3-5.2L221 104.3l-15-21.7c-.9-1.4-2.5-2.2-4.1-2.2-1.6 0-3.2.8-4.1 2.2l-47.5 69.1c-1.1 1.5-1.2 3.5-.3 5.2.9 1.6 2.6 2.7 4.4 2.7h20.2l-6.4 7.6-39.9 47.1c-1.3 1.5-1.5 3.6-.7 5.3.8 1.8 2.6 2.9 4.5 2.9h20.5L105.5 289c-1.1 1.5-1.2 3.5-.4 5.2.9 1.7 2.6 2.7 4.4 2.7h53l-.1 35.5c0 1.3.5 2.6 1.5 3.5.9.9 2.2 1.5 3.5 1.5h68.9c2.8 0 5-2.2 5-5v-35.5h53c1.9 0 3.6-1 4.4-2.7.9-1.6.8-3.6-.3-5.2zM201.9 94.3l9.3 13.5c-.3.5-.8 1.1-1.5 2-1.7 2.1-1.4 5.3.8 7 .9.7 2 1.1 3.1 1.1 1.3 0 2.6-.5 3.5-1.4l21.6 31.4h-73.6l7.5-10.9c10.9-.8 14.4-1.1 21.5-4.5 2.5-1.2 3.6-4.2 2.4-6.7-1.2-2.5-4.2-3.6-6.7-2.4-3.7 1.7-5.8 2.4-9.9 2.9l22-32zm-29.7 83.6c3.5 3.4 7.3 6.3 11.5 8.6.8.4 1.6.6 2.4.6 1.8 0 3.5-1 4.4-2.6 1.3-2.4.4-5.5-2-6.8-3.6-1.9-6.9-4.4-9.8-7.4l10.6-12.5h25.4l18.6 21.9c-5.4 1.8-13.5 4-21.8 4.2-2.8.1-4.9 2.4-4.8 5.2.1 2.7 2.3 4.8 5 4.8h.2c11.8-.4 23-4 28.4-6.1l20.9 24.6H143l29.2-34.5zm15.3 109c-2.8 0-5 2.2-5 5s2.2 5 5 5h43.8v30.5h-58.9l.1-35.5c0-1.3-.5-2.6-1.5-3.5-.9-.9-2.2-1.5-3.5-1.5h-48.3l21.8-30.8c3.7 1.8 9.1 2.8 16.3 2.8 2.8 0 5.9-.1 9.3-.4 2.8-.2 4.8-2.6 4.6-5.4-.2-2.8-2.6-4.8-5.4-4.6-11 .9-16.4 0-18.9-.7l17.9-25.2H239l3.4 4.9c-2.7 1.5-6.9 3.4-13.5 5.8-2.6.9-4 3.8-3.1 6.4.7 2.1 2.7 3.3 4.7 3.3.6 0 1.1-.1 1.7-.3 7-2.5 12.2-4.7 16-7l36.4 51.4h-97.1z" fill="rgba(0, 89, 15, 1)" stroke="none"/>
  <path d="M203.6 240.4c-4.2 1.2-6.2 1.8-8 2.4-1.2.4-2.2.7-3.6 1.1-2.7.8-4.2 3.5-3.4 6.2.6 2.2 2.6 3.6 4.8 3.6.5 0 .9-.1 1.4-.2 1.6-.5 2.8-.8 4-1.2 1.7-.6 3.7-1.2 7.6-2.3 2.7-.7 4.2-3.5 3.5-6.2-.9-2.6-3.6-4.2-6.3-3.4z" fill="rgba(0, 89, 15, 1)" stroke="none"/>
  <path d="M194.9 190.8c.8.7 1.9 1.3 3.4 1.5.3 0 .5.1.8.1 2.4 0 4.5-1.8 4.9-4.2.3-2.2-.9-4.4-2.8-5.3-.7-.6-1.6-1-2.7-1.3-2.7-.7-5.4 1-6.1 3.6-.6 2.2.5 4.5 2.5 5.6z" fill="rgba(0, 89, 15, 1)" stroke="none"/>
  <path d="M199.4 125.8c.9.7 2 1.1 3.1 1.1s2.2-.3 3-1c.9-.4 1.9-1.2 2.8-2.5 1.5-2.3.9-5.4-1.4-6.9-1.9-1.2-4.3-1-6 .4-.8.4-1.6 1.1-2.3 1.9-1.8 2.2-1.4 5.3.8 7z" fill="rgba(0, 89, 15, 1)" stroke="none"/>
  <path d="M181.2 247.7h-2.7c-2.8 0-5 2.2-5 5s2.2 5 5 5h2.7c2.8 0 5-2.2 5-5s-2.3-5-5-5z" fill="rgba(0, 89, 15, 1)" stroke="none"/>
  <path d="M218.7 236.3l-2.2.4c-2.7.5-4.5 3.1-4.1 5.8.4 2.4 2.5 4.1 4.9 4.1.3 0 .6 0 .9-.1l2.2-.4c2.7-.5 4.5-3.1 4.1-5.8-.5-2.6-3.1-4.5-5.8-4z" fill="rgba(0, 89, 15, 1)" stroke="none"/>
  <path d="M195.1 74.5l8.3-4.4 8.4 4.4-1.6-9.3 6.8-6.6-9.4-1.3-4.2-8.5-4.1 8.5-9.4 1.3 6.8 6.6z" fill="rgba(0, 89, 15, 1)" stroke="none"/>
</svg>
</g></svg></g></g>
<!-- /image 11216 -->

<!-- image 88498 -->
<g id="transformed-88498" data-image="88498" transform="translate(197, 160) rotate(358, 25, 25)"><g><svg version="1.1" width="50px" height="50px" viewBox="0 0 50 50"><g id="original-88498"><svg xmlns="http://www.w3.org/2000/svg" id="Layer_1" viewBox="0 0 400 400" xmlns:xlink="http://www.w3.org/1999/xlink" version="1.1">
  <circle cx="201.6" cy="173.8" r="6.4" fill="rgba(211, 175, 175, 1)" stroke="none"/>
  <circle cx="201.6" cy="196" r="6.4" fill="rgba(211, 175, 175, 1)" stroke="none"/>
  <circle cx="201.6" cy="216.7" r="6.4" fill="rgba(211, 175, 175, 1)" stroke="none"/>
  <circle cx="217.2" cy="90" r="6" fill="rgba(211, 175, 175, 1)" stroke="none"/>
  <circle cx="184" cy="90" r="6" fill="rgba(211, 175, 175, 1)" stroke="none"/>
  <path d="M217.2 103c-2.8 0-5 2.2-5 5 0 6.4-5.2 11.6-11.6 11.6-6.4 0-11.6-5.2-11.6-11.6 0-2.8-2.2-5-5-5s-5 2.2-5 5c0 11.9 9.7 21.6 21.6 21.6 11.9 0 21.6-9.7 21.6-21.6 0-2.7-2.2-5-5-5z" fill="rgba(211, 175, 175, 1)" stroke="none"/>
  <path d="M263.7 146.3h-31.2c12.6-9.6 20-24.5 20-40.8 0-28.4-23.1-51.5-51.5-51.5s-51.5 23.1-51.5 51.5c0 16 7.6 31.1 20.1 40.8h-34.1c-15.1 0-27.4 12.3-27.4 27.4 0 15.1 12.3 27.4 27.4 27.4H156.1l-17.9 111.3c-1.2 7.2.6 14.4 4.9 20.4 4.3 5.9 10.6 9.8 17.8 11 7.2 1.2 14.4-.6 20.4-4.9 5.9-4.3 9.8-10.6 11-17.8l7.6-47.1 7.6 47.1c1.2 7.2 5.1 13.5 11 17.8 4.7 3.4 10.3 5.2 16 5.2 1.5 0 2.9-.1 4.4-.4 7.2-1.2 13.5-5.1 17.8-11 4.3-5.9 6-13.2 4.9-20.4l-1.1-6.6c0-.3 0-.6-.1-.8 0-.2-.1-.4-.2-.6L243.6 201h20c15.1 0 27.4-12.3 27.4-27.4 0-15-12.2-27.3-27.3-27.3zm-145.5 27.4c0-8.1 5.6-14.9 13.1-16.8v33.6c-7.6-1.9-13.1-8.7-13.1-16.8zm57.2 157.1c-3.8 2.7-8.4 3.8-12.9 3.1-4.6-.7-8.6-3.2-11.3-7-2.7-3.8-3.8-8.4-3.1-12.9l.5-3.1 34.2 6.2-.4 2.4c-.7 4.5-3.2 8.5-7 11.3zm73.1-3.9c-2.7 3.8-6.7 6.3-11.3 7-4.6.7-9.1-.4-12.9-3.1-3.8-2.7-6.3-6.7-7-11.3l-.3-1.6 34.2-6.2.4 2.3c.7 4.5-.4 9.1-3.1 12.9zm-15.7-130.1l16.9 105-34.2 6.2-10.7-66.3c-.4-2.4-2.5-4.2-4.9-4.2-2.5 0-4.5 1.8-4.9 4.2l-10.5 65.5-34.2-6.2L167 196.8c.2-1.4-.2-2.9-1.1-4-.9-1.1-2.3-1.8-3.8-1.8h-20.8v-34.7h36c2.8 0 5-2.2 5-5v-5.8c0-1.8-.9-3.4-2.4-4.3-12.5-7.5-20.3-21.1-20.3-35.7 0-22.9 18.6-41.5 41.5-41.5s41.5 18.6 41.5 41.5c0 15.8-8.8 30-23 37.1-1.7.8-2.8 2.6-2.8 4.5v4.2c0 2.8 2.2 5 5 5h35.5V191h-19.5c-1.5 0-2.9.6-3.8 1.8-1 1.1-1.5 2.6-1.2 4zm34.4-6.1v-34c7.9 1.6 13.8 8.6 13.8 17 0 8.3-5.9 15.3-13.8 17z" fill="rgba(211, 175, 175, 1)" stroke="none"/>
</svg>
</g></svg></g></g>
<!-- /image 88498 -->

<!-- image 28765 -->
<g id="transformed-28765" data-image="28765" transform="translate(54, 209) rotate(335, 20, 20)"><g><svg version="1.1" width="40px" height="40px" viewBox="0 0 40 40"><g id="original-28765"><svg xmlns="http://www.w3.org/2000/svg" id="Layer_1" viewBox="0 0 400 400" xmlns:xlink="http://www.w3.org/1999/xlink" version="1.1">
  <path d="M282.2 144h-52.8c1.5-.7 3-1.4 4.6-2.1 7.1-3.4 12.7-6.5 17.1-9.4.1-.1.3-.2.4-.3 15.5-10.2 16.1-17.3 16.4-20 .6-6.6-3.4-12.3-12-16.9-6.7-3.6-13.6-4-20.6-1.3-5.2 2.1-10 5.9-14.3 10.6-.3.3-.6.6-.8.9-6.2 7.1-11.4 15.9-15.2 23.6-1-12.6-5.2-32.7-21.6-42.7-20.2-12.2-39.8 3.8-47.7 14.4-.9.8-1.8 1.7-2.6 2.7-5.2 5.9-4.8 11.4-3.6 15 3.1 9.1 15.6 17.2 38.4 24.9.5.2 1 .3 1.5.5h-52.8c-9.4 0-17 7.6-17 17v42c0 9.4 7.6 17 17 17h62V313h-43.2c-3.9 0-7-3.1-7-7v-73c0-2.8-2.2-5-5-5s-5 2.2-5 5v73.1c0 9.4 7.6 17 17 17H265c9.4 0 17-7.6 17-17V233c0-2.8-2.2-5-5-5s-5 2.2-5 5v73.1c0 3.9-3.1 7-7 7h-44.7V220h61.9c9.4 0 17-7.6 17-17v-42c0-9.4-7.7-17-17-17zm-69.4 10v56H191v-56h9.1c.6.2 1.2.3 1.8.3.5 0 1-.1 1.6-.2 0 0 .1 0 .3-.1h9zm31.4-51.7c2.3 0 4.6.6 6.9 1.9 3.2 1.7 7 4.4 6.7 7.2-.2 2.3-2.1 4.9-5.2 7.6-1.1-4-3.1-7.3-6-9.9-2.8-2.6-6.2-4.1-9.5-4.9.6-.3 1.2-.6 1.8-.8 1.8-.8 3.5-1.1 5.3-1.1zm-17.4 10.8c3.5-.2 9.6.2 13.2 3.4 2.2 2 3.4 4.9 3.6 8.9-9.3 5.6-21.6 11.2-33 15.5 3.7-8.7 9.4-19.7 16.2-27.8zM178.2 95c12.2 7.4 15.7 23.3 16.7 33.9-9-13.2-23-30.1-37.9-33.8 7.6-4.1 14.5-4.1 21.2-.1zm-39.3 20.3c-.2-.7-.8-2.4 1.7-5.3 3.3-3.8 6.8-5.6 10.7-5.6.5 0 1 0 1.5.1 13 1.5 28.2 21 37.2 35.1-22.3-5.7-48.1-15.4-51.1-24.3zM109.6 203v-42c0-3.9 3.1-7 7-7H181v56h-64.5c-3.8 0-6.9-3.1-6.9-7zm79 110.1V220h21.7v93.1h-21.7zM289.2 203c0 3.9-3.1 7-7 7h-59.4v-56h59.4c3.9 0 7 3.1 7 7v42z" fill="rgba(211, 175, 175, 1)" stroke="none"/>
</svg>
</g></svg></g></g>
<!-- /image 28765 -->

<!-- image 85168 -->
<g id="transformed-85168" data-image="85168" transform="translate(162, 207) rotate(335, 20, 20)"><g><svg version="1.1" width="40px" height="40px" viewBox="0 0 40 40"><g id="original-85168"><svg xmlns="http://www.w3.org/2000/svg" id="Layer_1" viewBox="0 0 400 400" xmlns:xlink="http://www.w3.org/1999/xlink" version="1.1">
  <path d="M282.2 144h-52.8c1.5-.7 3-1.4 4.6-2.1 7.1-3.4 12.7-6.5 17.1-9.4.1-.1.3-.2.4-.3 15.5-10.2 16.1-17.3 16.4-20 .6-6.6-3.4-12.3-12-16.9-6.7-3.6-13.6-4-20.6-1.3-5.2 2.1-10 5.9-14.3 10.6-.3.3-.6.6-.8.9-6.2 7.1-11.4 15.9-15.2 23.6-1-12.6-5.2-32.7-21.6-42.7-20.2-12.2-39.8 3.8-47.7 14.4-.9.8-1.8 1.7-2.6 2.7-5.2 5.9-4.8 11.4-3.6 15 3.1 9.1 15.6 17.2 38.4 24.9.5.2 1 .3 1.5.5h-52.8c-9.4 0-17 7.6-17 17v42c0 9.4 7.6 17 17 17h62V313h-43.2c-3.9 0-7-3.1-7-7v-73c0-2.8-2.2-5-5-5s-5 2.2-5 5v73.1c0 9.4 7.6 17 17 17H265c9.4 0 17-7.6 17-17V233c0-2.8-2.2-5-5-5s-5 2.2-5 5v73.1c0 3.9-3.1 7-7 7h-44.7V220h61.9c9.4 0 17-7.6 17-17v-42c0-9.4-7.7-17-17-17zm-69.4 10v56H191v-56h9.1c.6.2 1.2.3 1.8.3.5 0 1-.1 1.6-.2 0 0 .1 0 .3-.1h9zm31.4-51.7c2.3 0 4.6.6 6.9 1.9 3.2 1.7 7 4.4 6.7 7.2-.2 2.3-2.1 4.9-5.2 7.6-1.1-4-3.1-7.3-6-9.9-2.8-2.6-6.2-4.1-9.5-4.9.6-.3 1.2-.6 1.8-.8 1.8-.8 3.5-1.1 5.3-1.1zm-17.4 10.8c3.5-.2 9.6.2 13.2 3.4 2.2 2 3.4 4.9 3.6 8.9-9.3 5.6-21.6 11.2-33 15.5 3.7-8.7 9.4-19.7 16.2-27.8zM178.2 95c12.2 7.4 15.7 23.3 16.7 33.9-9-13.2-23-30.1-37.9-33.8 7.6-4.1 14.5-4.1 21.2-.1zm-39.3 20.3c-.2-.7-.8-2.4 1.7-5.3 3.3-3.8 6.8-5.6 10.7-5.6.5 0 1 0 1.5.1 13 1.5 28.2 21 37.2 35.1-22.3-5.7-48.1-15.4-51.1-24.3zM109.6 203v-42c0-3.9 3.1-7 7-7H181v56h-64.5c-3.8 0-6.9-3.1-6.9-7zm79 110.1V220h21.7v93.1h-21.7zM289.2 203c0 3.9-3.1 7-7 7h-59.4v-56h59.4c3.9 0 7 3.1 7 7v42z" fill="rgba(211, 175, 175, 1)" stroke="none"/>
</svg>
</g></svg></g></g>
<!-- /image 85168 -->

<!-- image 03053 -->
<g id="transformed-03053" data-image="03053" transform="translate(112.5, 139.5) rotate(338, 12.5, 17.5)"><g><svg version="1.1" width="25px" height="35px" viewBox="0 0 25 35"><g id="original-03053"><svg xmlns="http://www.w3.org/2000/svg" viewBox="0 0 595.28 841.89" xmlns:xlink="http://www.w3.org/1999/xlink" version="1.1" preserveAspectRatio="xMidYMid meet">
  <path d="M553.845 336.415s0-.658-.658-.658c-87.485-122.347-224.96-97.351-226.276-96.694-1.316 0-1.973.658-2.631 1.316-4.604-1.973-9.867-3.947-14.471-4.604 1.316-23.022 7.236-78.276 42.098-90.773 5.92-1.973 8.551-8.551 6.578-14.471-1.973-5.92-8.551-8.551-14.471-6.578-48.676 17.102-55.911 85.511-57.227 111.822-28.284 5.262-49.991 30.258-49.991 59.858v3.289L45.382 427.847c-1.316.658-1.973 1.316-2.631 2.631-1.316 1.973-1.316 2.631-1.973 3.947V437.056l-.658 270.347c0 3.289 1.316 6.578 3.947 8.551 1.973 1.973 4.604 2.631 7.236 2.631h1.973l492.676-91.431c5.262-.658 9.209-5.92 9.209-11.182V342.336 340.362v-.658c-.001-1.315-.658-1.973-1.316-3.289zm-256.534-80.249c21.707 0 38.809 17.76 38.809 38.809 0 21.707-17.76 38.809-38.809 38.809-21.707 0-38.809-17.76-38.809-38.809 0-21.048 17.76-38.809 38.809-38.809zm-55.253 65.778c9.867 20.391 30.916 34.862 55.253 34.862 33.547 0 61.173-27.627 61.173-61.173a61.069 61.069 0 0 0-11.84-36.178c34.204-2.631 115.111 1.316 176.943 75.645l-420.979 80.907 139.45-94.063zm290.08 284.161L62.484 693.589V573.874l469.654-83.538v115.769zm0-138.134L62.484 551.509V445.607l469.654-90.116v112.48z" fill="rgba(211, 175, 175, 1)" stroke="none"/>
</svg>
</g></svg></g></g>
<!-- /image 03053 -->

<!-- image 56792 -->
<g id="transformed-56792" data-image="56792" transform="translate(156.5, 170.5) rotate(338, 12.5, 17.5)"><g><svg version="1.1" width="25px" height="35px" viewBox="0 0 25 35"><g id="original-56792"><svg xmlns="http://www.w3.org/2000/svg" viewBox="0 0 595.28 841.89" xmlns:xlink="http://www.w3.org/1999/xlink" version="1.1" preserveAspectRatio="xMidYMid meet">
  <path d="M553.845 336.415s0-.658-.658-.658c-87.485-122.347-224.96-97.351-226.276-96.694-1.316 0-1.973.658-2.631 1.316-4.604-1.973-9.867-3.947-14.471-4.604 1.316-23.022 7.236-78.276 42.098-90.773 5.92-1.973 8.551-8.551 6.578-14.471-1.973-5.92-8.551-8.551-14.471-6.578-48.676 17.102-55.911 85.511-57.227 111.822-28.284 5.262-49.991 30.258-49.991 59.858v3.289L45.382 427.847c-1.316.658-1.973 1.316-2.631 2.631-1.316 1.973-1.316 2.631-1.973 3.947V437.056l-.658 270.347c0 3.289 1.316 6.578 3.947 8.551 1.973 1.973 4.604 2.631 7.236 2.631h1.973l492.676-91.431c5.262-.658 9.209-5.92 9.209-11.182V342.336 340.362v-.658c-.001-1.315-.658-1.973-1.316-3.289zm-256.534-80.249c21.707 0 38.809 17.76 38.809 38.809 0 21.707-17.76 38.809-38.809 38.809-21.707 0-38.809-17.76-38.809-38.809 0-21.048 17.76-38.809 38.809-38.809zm-55.253 65.778c9.867 20.391 30.916 34.862 55.253 34.862 33.547 0 61.173-27.627 61.173-61.173a61.069 61.069 0 0 0-11.84-36.178c34.204-2.631 115.111 1.316 176.943 75.645l-420.979 80.907 139.45-94.063zm290.08 284.161L62.484 693.589V573.874l469.654-83.538v115.769zm0-138.134L62.484 551.509V445.607l469.654-90.116v112.48z" fill="rgba(211, 175, 175, 1)" stroke="none"/>
</svg>
</g></svg></g></g>
<!-- /image 56792 -->

<!-- image 66052 -->
<g id="transformed-66052" data-image="66052" transform="translate(209.5, 207.5) rotate(37, 11.5, 16.5)"><g><svg version="1.1" width="23px" height="33px" viewBox="0 0 23 33"><g id="original-66052"><svg xmlns="http://www.w3.org/2000/svg" viewBox="0 0 595.28 841.89" xmlns:xlink="http://www.w3.org/1999/xlink" version="1.1" preserveAspectRatio="xMidYMid meet">
  <path d="M553.845 336.415s0-.658-.658-.658c-87.485-122.347-224.96-97.351-226.276-96.694-1.316 0-1.973.658-2.631 1.316-4.604-1.973-9.867-3.947-14.471-4.604 1.316-23.022 7.236-78.276 42.098-90.773 5.92-1.973 8.551-8.551 6.578-14.471-1.973-5.92-8.551-8.551-14.471-6.578-48.676 17.102-55.911 85.511-57.227 111.822-28.284 5.262-49.991 30.258-49.991 59.858v3.289L45.382 427.847c-1.316.658-1.973 1.316-2.631 2.631-1.316 1.973-1.316 2.631-1.973 3.947V437.056l-.658 270.347c0 3.289 1.316 6.578 3.947 8.551 1.973 1.973 4.604 2.631 7.236 2.631h1.973l492.676-91.431c5.262-.658 9.209-5.92 9.209-11.182V342.336 340.362v-.658c-.001-1.315-.658-1.973-1.316-3.289zm-256.534-80.249c21.707 0 38.809 17.76 38.809 38.809 0 21.707-17.76 38.809-38.809 38.809-21.707 0-38.809-17.76-38.809-38.809 0-21.048 17.76-38.809 38.809-38.809zm-55.253 65.778c9.867 20.391 30.916 34.862 55.253 34.862 33.547 0 61.173-27.627 61.173-61.173a61.069 61.069 0 0 0-11.84-36.178c34.204-2.631 115.111 1.316 176.943 75.645l-420.979 80.907 139.45-94.063zm290.08 284.161L62.484 693.589V573.874l469.654-83.538v115.769zm0-138.134L62.484 551.509V445.607l469.654-90.116v112.48z" fill="rgba(116, 52, 52, 1)" stroke="none"/>
</svg>
</g></svg></g></g>
<!-- /image 66052 -->

<!-- image 52194 -->
<g id="transformed-52194" data-image="52194" transform="translate(23.5, 199.5) rotate(37, 11.5, 16.5)"><g><svg version="1.1" width="23px" height="33px" viewBox="0 0 23 33"><g id="original-52194"><svg xmlns="http://www.w3.org/2000/svg" viewBox="0 0 595.28 841.89" xmlns:xlink="http://www.w3.org/1999/xlink" version="1.1" preserveAspectRatio="xMidYMid meet">
  <path d="M553.845 336.415s0-.658-.658-.658c-87.485-122.347-224.96-97.351-226.276-96.694-1.316 0-1.973.658-2.631 1.316-4.604-1.973-9.867-3.947-14.471-4.604 1.316-23.022 7.236-78.276 42.098-90.773 5.92-1.973 8.551-8.551 6.578-14.471-1.973-5.92-8.551-8.551-14.471-6.578-48.676 17.102-55.911 85.511-57.227 111.822-28.284 5.262-49.991 30.258-49.991 59.858v3.289L45.382 427.847c-1.316.658-1.973 1.316-2.631 2.631-1.316 1.973-1.316 2.631-1.973 3.947V437.056l-.658 270.347c0 3.289 1.316 6.578 3.947 8.551 1.973 1.973 4.604 2.631 7.236 2.631h1.973l492.676-91.431c5.262-.658 9.209-5.92 9.209-11.182V342.336 340.362v-.658c-.001-1.315-.658-1.973-1.316-3.289zm-256.534-80.249c21.707 0 38.809 17.76 38.809 38.809 0 21.707-17.76 38.809-38.809 38.809-21.707 0-38.809-17.76-38.809-38.809 0-21.048 17.76-38.809 38.809-38.809zm-55.253 65.778c9.867 20.391 30.916 34.862 55.253 34.862 33.547 0 61.173-27.627 61.173-61.173a61.069 61.069 0 0 0-11.84-36.178c34.204-2.631 115.111 1.316 176.943 75.645l-420.979 80.907 139.45-94.063zm290.08 284.161L62.484 693.589V573.874l469.654-83.538v115.769zm0-138.134L62.484 551.509V445.607l469.654-90.116v112.48z" fill="rgba(116, 52, 52, 1)" stroke="none"/>
</svg>
</g></svg></g></g>
<!-- /image 52194 -->

<!-- image 63877 -->
<g id="transformed-63877" data-image="63877" transform="translate(59, 65.5) rotate(13, 13, 18.5)"><g><svg version="1.1" width="26px" height="37px" viewBox="0 0 26 37"><g id="original-63877"><svg xmlns="http://www.w3.org/2000/svg" viewBox="0 0 595.28 841.89" xmlns:xlink="http://www.w3.org/1999/xlink" version="1.1" preserveAspectRatio="xMidYMid meet">
  <path d="M553.845 336.415s0-.658-.658-.658c-87.485-122.347-224.96-97.351-226.276-96.694-1.316 0-1.973.658-2.631 1.316-4.604-1.973-9.867-3.947-14.471-4.604 1.316-23.022 7.236-78.276 42.098-90.773 5.92-1.973 8.551-8.551 6.578-14.471-1.973-5.92-8.551-8.551-14.471-6.578-48.676 17.102-55.911 85.511-57.227 111.822-28.284 5.262-49.991 30.258-49.991 59.858v3.289L45.382 427.847c-1.316.658-1.973 1.316-2.631 2.631-1.316 1.973-1.316 2.631-1.973 3.947V437.056l-.658 270.347c0 3.289 1.316 6.578 3.947 8.551 1.973 1.973 4.604 2.631 7.236 2.631h1.973l492.676-91.431c5.262-.658 9.209-5.92 9.209-11.182V342.336 340.362v-.658c-.001-1.315-.658-1.973-1.316-3.289zm-256.534-80.249c21.707 0 38.809 17.76 38.809 38.809 0 21.707-17.76 38.809-38.809 38.809-21.707 0-38.809-17.76-38.809-38.809 0-21.048 17.76-38.809 38.809-38.809zm-55.253 65.778c9.867 20.391 30.916 34.862 55.253 34.862 33.547 0 61.173-27.627 61.173-61.173a61.069 61.069 0 0 0-11.84-36.178c34.204-2.631 115.111 1.316 176.943 75.645l-420.979 80.907 139.45-94.063zm290.08 284.161L62.484 693.589V573.874l469.654-83.538v115.769zm0-138.134L62.484 551.509V445.607l469.654-90.116v112.48z" fill="rgba(211, 175, 175, 1)" stroke="none"/>
</svg>
</g></svg></g></g>
<!-- /image 63877 -->

<!-- image 76941 -->
<g id="transformed-76941" data-image="76941" transform="translate(209.5, 57.5) rotate(37, 11.5, 16.5)"><g><svg version="1.1" width="23px" height="33px" viewBox="0 0 23 33"><g id="original-76941"><svg xmlns="http://www.w3.org/2000/svg" viewBox="0 0 595.28 841.89" xmlns:xlink="http://www.w3.org/1999/xlink" version="1.1" preserveAspectRatio="xMidYMid meet">
  <path d="M553.845 336.415s0-.658-.658-.658c-87.485-122.347-224.96-97.351-226.276-96.694-1.316 0-1.973.658-2.631 1.316-4.604-1.973-9.867-3.947-14.471-4.604 1.316-23.022 7.236-78.276 42.098-90.773 5.92-1.973 8.551-8.551 6.578-14.471-1.973-5.92-8.551-8.551-14.471-6.578-48.676 17.102-55.911 85.511-57.227 111.822-28.284 5.262-49.991 30.258-49.991 59.858v3.289L45.382 427.847c-1.316.658-1.973 1.316-2.631 2.631-1.316 1.973-1.316 2.631-1.973 3.947V437.056l-.658 270.347c0 3.289 1.316 6.578 3.947 8.551 1.973 1.973 4.604 2.631 7.236 2.631h1.973l492.676-91.431c5.262-.658 9.209-5.92 9.209-11.182V342.336 340.362v-.658c-.001-1.315-.658-1.973-1.316-3.289zm-256.534-80.249c21.707 0 38.809 17.76 38.809 38.809 0 21.707-17.76 38.809-38.809 38.809-21.707 0-38.809-17.76-38.809-38.809 0-21.048 17.76-38.809 38.809-38.809zm-55.253 65.778c9.867 20.391 30.916 34.862 55.253 34.862 33.547 0 61.173-27.627 61.173-61.173a61.069 61.069 0 0 0-11.84-36.178c34.204-2.631 115.111 1.316 176.943 75.645l-420.979 80.907 139.45-94.063zm290.08 284.161L62.484 693.589V573.874l469.654-83.538v115.769zm0-138.134L62.484 551.509V445.607l469.654-90.116v112.48z" fill="rgba(116, 52, 52, 1)" stroke="none"/>
</svg>
</g></svg></g></g>
<!-- /image 76941 -->

<!-- image 26537 -->
<g id="transformed-26537" data-image="26537" transform="translate(192.5, 132.5) rotate(37, 11.5, 16.5)"><g><svg version="1.1" width="23px" height="33px" viewBox="0 0 23 33"><g id="original-26537"><svg xmlns="http://www.w3.org/2000/svg" viewBox="0 0 595.28 841.89" xmlns:xlink="http://www.w3.org/1999/xlink" version="1.1" preserveAspectRatio="xMidYMid meet">
  <path d="M553.845 336.415s0-.658-.658-.658c-87.485-122.347-224.96-97.351-226.276-96.694-1.316 0-1.973.658-2.631 1.316-4.604-1.973-9.867-3.947-14.471-4.604 1.316-23.022 7.236-78.276 42.098-90.773 5.92-1.973 8.551-8.551 6.578-14.471-1.973-5.92-8.551-8.551-14.471-6.578-48.676 17.102-55.911 85.511-57.227 111.822-28.284 5.262-49.991 30.258-49.991 59.858v3.289L45.382 427.847c-1.316.658-1.973 1.316-2.631 2.631-1.316 1.973-1.316 2.631-1.973 3.947V437.056l-.658 270.347c0 3.289 1.316 6.578 3.947 8.551 1.973 1.973 4.604 2.631 7.236 2.631h1.973l492.676-91.431c5.262-.658 9.209-5.92 9.209-11.182V342.336 340.362v-.658c-.001-1.315-.658-1.973-1.316-3.289zm-256.534-80.249c21.707 0 38.809 17.76 38.809 38.809 0 21.707-17.76 38.809-38.809 38.809-21.707 0-38.809-17.76-38.809-38.809 0-21.048 17.76-38.809 38.809-38.809zm-55.253 65.778c9.867 20.391 30.916 34.862 55.253 34.862 33.547 0 61.173-27.627 61.173-61.173a61.069 61.069 0 0 0-11.84-36.178c34.204-2.631 115.111 1.316 176.943 75.645l-420.979 80.907 139.45-94.063zm290.08 284.161L62.484 693.589V573.874l469.654-83.538v115.769zm0-138.134L62.484 551.509V445.607l469.654-90.116v112.48z" fill="rgba(211, 175, 175, 1)" stroke="none"/>
</svg>
</g></svg></g></g>
<!-- /image 26537 -->

<!-- image 88688 -->
<g id="transformed-88688" data-image="88688" transform="translate(56.5, 149.5) rotate(25, 20.5, 20.5)"><g><svg version="1.1" width="41px" height="41px" viewBox="0 0 41 41"><g id="original-88688"><svg xmlns="http://www.w3.org/2000/svg" viewBox="0 0 400 400" xmlns:xlink="http://www.w3.org/1999/xlink" version="1.1">
  <path d="M298.4 289l-47.1-66.5h20.5c1.9 0 3.7-1.1 4.5-2.9.8-1.8.5-3.8-.7-5.3l-46.4-54.7h20.2c1.9 0 3.6-1 4.4-2.7.9-1.6.7-3.6-.3-5.2L221 104.3l-15-21.7c-.9-1.4-2.5-2.2-4.1-2.2-1.6 0-3.2.8-4.1 2.2l-47.5 69.1c-1.1 1.5-1.2 3.5-.3 5.2.9 1.6 2.6 2.7 4.4 2.7h20.2l-6.4 7.6-39.9 47.1c-1.3 1.5-1.5 3.6-.7 5.3.8 1.8 2.6 2.9 4.5 2.9h20.5L105.5 289c-1.1 1.5-1.2 3.5-.4 5.2.9 1.7 2.6 2.7 4.4 2.7h53l-.1 35.5c0 1.3.5 2.6 1.5 3.5.9.9 2.2 1.5 3.5 1.5h68.9c2.8 0 5-2.2 5-5v-35.5h53c1.9 0 3.6-1 4.4-2.7.9-1.6.8-3.6-.3-5.2zM201.9 94.3l9.3 13.5c-.3.5-.8 1.1-1.5 2-1.7 2.1-1.4 5.3.8 7 .9.7 2 1.1 3.1 1.1 1.3 0 2.6-.5 3.5-1.4l21.6 31.4h-73.6l7.5-10.9c10.9-.8 14.4-1.1 21.5-4.5 2.5-1.2 3.6-4.2 2.4-6.7-1.2-2.5-4.2-3.6-6.7-2.4-3.7 1.7-5.8 2.4-9.9 2.9l22-32zm-29.7 83.6c3.5 3.4 7.3 6.3 11.5 8.6.8.4 1.6.6 2.4.6 1.8 0 3.5-1 4.4-2.6 1.3-2.4.4-5.5-2-6.8-3.6-1.9-6.9-4.4-9.8-7.4l10.6-12.5h25.4l18.6 21.9c-5.4 1.8-13.5 4-21.8 4.2-2.8.1-4.9 2.4-4.8 5.2.1 2.7 2.3 4.8 5 4.8h.2c11.8-.4 23-4 28.4-6.1l20.9 24.6H143l29.2-34.5zm15.3 109c-2.8 0-5 2.2-5 5s2.2 5 5 5h43.8v30.5h-58.9l.1-35.5c0-1.3-.5-2.6-1.5-3.5-.9-.9-2.2-1.5-3.5-1.5h-48.3l21.8-30.8c3.7 1.8 9.1 2.8 16.3 2.8 2.8 0 5.9-.1 9.3-.4 2.8-.2 4.8-2.6 4.6-5.4-.2-2.8-2.6-4.8-5.4-4.6-11 .9-16.4 0-18.9-.7l17.9-25.2H239l3.4 4.9c-2.7 1.5-6.9 3.4-13.5 5.8-2.6.9-4 3.8-3.1 6.4.7 2.1 2.7 3.3 4.7 3.3.6 0 1.1-.1 1.7-.3 7-2.5 12.2-4.7 16-7l36.4 51.4h-97.1z" fill="rgba(0, 89, 15, 1)" stroke="none"/>
  <path d="M203.6 240.4c-4.2 1.2-6.2 1.8-8 2.4-1.2.4-2.2.7-3.6 1.1-2.7.8-4.2 3.5-3.4 6.2.6 2.2 2.6 3.6 4.8 3.6.5 0 .9-.1 1.4-.2 1.6-.5 2.8-.8 4-1.2 1.7-.6 3.7-1.2 7.6-2.3 2.7-.7 4.2-3.5 3.5-6.2-.9-2.6-3.6-4.2-6.3-3.4z" fill="rgba(0, 89, 15, 1)" stroke="none"/>
  <path d="M194.9 190.8c.8.7 1.9 1.3 3.4 1.5.3 0 .5.1.8.1 2.4 0 4.5-1.8 4.9-4.2.3-2.2-.9-4.4-2.8-5.3-.7-.6-1.6-1-2.7-1.3-2.7-.7-5.4 1-6.1 3.6-.6 2.2.5 4.5 2.5 5.6z" fill="rgba(0, 89, 15, 1)" stroke="none"/>
  <path d="M199.4 125.8c.9.7 2 1.1 3.1 1.1s2.2-.3 3-1c.9-.4 1.9-1.2 2.8-2.5 1.5-2.3.9-5.4-1.4-6.9-1.9-1.2-4.3-1-6 .4-.8.4-1.6 1.1-2.3 1.9-1.8 2.2-1.4 5.3.8 7z" fill="rgba(0, 89, 15, 1)" stroke="none"/>
  <path d="M181.2 247.7h-2.7c-2.8 0-5 2.2-5 5s2.2 5 5 5h2.7c2.8 0 5-2.2 5-5s-2.3-5-5-5z" fill="rgba(0, 89, 15, 1)" stroke="none"/>
  <path d="M218.7 236.3l-2.2.4c-2.7.5-4.5 3.1-4.1 5.8.4 2.4 2.5 4.1 4.9 4.1.3 0 .6 0 .9-.1l2.2-.4c2.7-.5 4.5-3.1 4.1-5.8-.5-2.6-3.1-4.5-5.8-4z" fill="rgba(0, 89, 15, 1)" stroke="none"/>
  <path d="M195.1 74.5l8.3-4.4 8.4 4.4-1.6-9.3 6.8-6.6-9.4-1.3-4.2-8.5-4.1 8.5-9.4 1.3 6.8 6.6z" fill="rgba(0, 89, 15, 1)" stroke="none"/>
</svg>
</g></svg></g></g>
<!-- /image 88688 -->

<!-- image 88569 -->
<g id="transformed-88569" data-image="88569" transform="translate(23, 106) rotate(335, 20, 20)"><g><svg version="1.1" width="40px" height="40px" viewBox="0 0 40 40"><g id="original-88569"><svg xmlns="http://www.w3.org/2000/svg" id="Layer_1" viewBox="0 0 400 400" xmlns:xlink="http://www.w3.org/1999/xlink" version="1.1">
  <path d="M282.2 144h-52.8c1.5-.7 3-1.4 4.6-2.1 7.1-3.4 12.7-6.5 17.1-9.4.1-.1.3-.2.4-.3 15.5-10.2 16.1-17.3 16.4-20 .6-6.6-3.4-12.3-12-16.9-6.7-3.6-13.6-4-20.6-1.3-5.2 2.1-10 5.9-14.3 10.6-.3.3-.6.6-.8.9-6.2 7.1-11.4 15.9-15.2 23.6-1-12.6-5.2-32.7-21.6-42.7-20.2-12.2-39.8 3.8-47.7 14.4-.9.8-1.8 1.7-2.6 2.7-5.2 5.9-4.8 11.4-3.6 15 3.1 9.1 15.6 17.2 38.4 24.9.5.2 1 .3 1.5.5h-52.8c-9.4 0-17 7.6-17 17v42c0 9.4 7.6 17 17 17h62V313h-43.2c-3.9 0-7-3.1-7-7v-73c0-2.8-2.2-5-5-5s-5 2.2-5 5v73.1c0 9.4 7.6 17 17 17H265c9.4 0 17-7.6 17-17V233c0-2.8-2.2-5-5-5s-5 2.2-5 5v73.1c0 3.9-3.1 7-7 7h-44.7V220h61.9c9.4 0 17-7.6 17-17v-42c0-9.4-7.7-17-17-17zm-69.4 10v56H191v-56h9.1c.6.2 1.2.3 1.8.3.5 0 1-.1 1.6-.2 0 0 .1 0 .3-.1h9zm31.4-51.7c2.3 0 4.6.6 6.9 1.9 3.2 1.7 7 4.4 6.7 7.2-.2 2.3-2.1 4.9-5.2 7.6-1.1-4-3.1-7.3-6-9.9-2.8-2.6-6.2-4.1-9.5-4.9.6-.3 1.2-.6 1.8-.8 1.8-.8 3.5-1.1 5.3-1.1zm-17.4 10.8c3.5-.2 9.6.2 13.2 3.4 2.2 2 3.4 4.9 3.6 8.9-9.3 5.6-21.6 11.2-33 15.5 3.7-8.7 9.4-19.7 16.2-27.8zM178.2 95c12.2 7.4 15.7 23.3 16.7 33.9-9-13.2-23-30.1-37.9-33.8 7.6-4.1 14.5-4.1 21.2-.1zm-39.3 20.3c-.2-.7-.8-2.4 1.7-5.3 3.3-3.8 6.8-5.6 10.7-5.6.5 0 1 0 1.5.1 13 1.5 28.2 21 37.2 35.1-22.3-5.7-48.1-15.4-51.1-24.3zM109.6 203v-42c0-3.9 3.1-7 7-7H181v56h-64.5c-3.8 0-6.9-3.1-6.9-7zm79 110.1V220h21.7v93.1h-21.7zM289.2 203c0 3.9-3.1 7-7 7h-59.4v-56h59.4c3.9 0 7 3.1 7 7v42z" fill="rgba(211, 175, 175, 1)" stroke="none"/>
</svg>
</g></svg></g></g>
<!-- /image 88569 -->

<!-- image 44102 -->
<g id="transformed-44102" data-image="44102" transform="translate(14.5, 37.5) rotate(348, 22.5, 22.5)"><g><svg version="1.1" width="45px" height="45px" viewBox="0 0 45 45"><g id="original-44102"><svg xmlns="http://www.w3.org/2000/svg" viewBox="0 0 400 400" xmlns:xlink="http://www.w3.org/1999/xlink" version="1.1">
  <path d="M298.4 289l-47.1-66.5h20.5c1.9 0 3.7-1.1 4.5-2.9.8-1.8.5-3.8-.7-5.3l-46.4-54.7h20.2c1.9 0 3.6-1 4.4-2.7.9-1.6.7-3.6-.3-5.2L221 104.3l-15-21.7c-.9-1.4-2.5-2.2-4.1-2.2-1.6 0-3.2.8-4.1 2.2l-47.5 69.1c-1.1 1.5-1.2 3.5-.3 5.2.9 1.6 2.6 2.7 4.4 2.7h20.2l-6.4 7.6-39.9 47.1c-1.3 1.5-1.5 3.6-.7 5.3.8 1.8 2.6 2.9 4.5 2.9h20.5L105.5 289c-1.1 1.5-1.2 3.5-.4 5.2.9 1.7 2.6 2.7 4.4 2.7h53l-.1 35.5c0 1.3.5 2.6 1.5 3.5.9.9 2.2 1.5 3.5 1.5h68.9c2.8 0 5-2.2 5-5v-35.5h53c1.9 0 3.6-1 4.4-2.7.9-1.6.8-3.6-.3-5.2zM201.9 94.3l9.3 13.5c-.3.5-.8 1.1-1.5 2-1.7 2.1-1.4 5.3.8 7 .9.7 2 1.1 3.1 1.1 1.3 0 2.6-.5 3.5-1.4l21.6 31.4h-73.6l7.5-10.9c10.9-.8 14.4-1.1 21.5-4.5 2.5-1.2 3.6-4.2 2.4-6.7-1.2-2.5-4.2-3.6-6.7-2.4-3.7 1.7-5.8 2.4-9.9 2.9l22-32zm-29.7 83.6c3.5 3.4 7.3 6.3 11.5 8.6.8.4 1.6.6 2.4.6 1.8 0 3.5-1 4.4-2.6 1.3-2.4.4-5.5-2-6.8-3.6-1.9-6.9-4.4-9.8-7.4l10.6-12.5h25.4l18.6 21.9c-5.4 1.8-13.5 4-21.8 4.2-2.8.1-4.9 2.4-4.8 5.2.1 2.7 2.3 4.8 5 4.8h.2c11.8-.4 23-4 28.4-6.1l20.9 24.6H143l29.2-34.5zm15.3 109c-2.8 0-5 2.2-5 5s2.2 5 5 5h43.8v30.5h-58.9l.1-35.5c0-1.3-.5-2.6-1.5-3.5-.9-.9-2.2-1.5-3.5-1.5h-48.3l21.8-30.8c3.7 1.8 9.1 2.8 16.3 2.8 2.8 0 5.9-.1 9.3-.4 2.8-.2 4.8-2.6 4.6-5.4-.2-2.8-2.6-4.8-5.4-4.6-11 .9-16.4 0-18.9-.7l17.9-25.2H239l3.4 4.9c-2.7 1.5-6.9 3.4-13.5 5.8-2.6.9-4 3.8-3.1 6.4.7 2.1 2.7 3.3 4.7 3.3.6 0 1.1-.1 1.7-.3 7-2.5 12.2-4.7 16-7l36.4 51.4h-97.1z" fill="rgba(0, 89, 15, 0.7558139534883721)" stroke="none"/>
  <path d="M203.6 240.4c-4.2 1.2-6.2 1.8-8 2.4-1.2.4-2.2.7-3.6 1.1-2.7.8-4.2 3.5-3.4 6.2.6 2.2 2.6 3.6 4.8 3.6.5 0 .9-.1 1.4-.2 1.6-.5 2.8-.8 4-1.2 1.7-.6 3.7-1.2 7.6-2.3 2.7-.7 4.2-3.5 3.5-6.2-.9-2.6-3.6-4.2-6.3-3.4z" fill="rgba(0, 89, 15, 0.7558139534883721)" stroke="none"/>
  <path d="M194.9 190.8c.8.7 1.9 1.3 3.4 1.5.3 0 .5.1.8.1 2.4 0 4.5-1.8 4.9-4.2.3-2.2-.9-4.4-2.8-5.3-.7-.6-1.6-1-2.7-1.3-2.7-.7-5.4 1-6.1 3.6-.6 2.2.5 4.5 2.5 5.6z" fill="rgba(0, 89, 15, 0.7558139534883721)" stroke="none"/>
  <path d="M199.4 125.8c.9.7 2 1.1 3.1 1.1s2.2-.3 3-1c.9-.4 1.9-1.2 2.8-2.5 1.5-2.3.9-5.4-1.4-6.9-1.9-1.2-4.3-1-6 .4-.8.4-1.6 1.1-2.3 1.9-1.8 2.2-1.4 5.3.8 7z" fill="rgba(0, 89, 15, 0.7558139534883721)" stroke="none"/>
  <path d="M181.2 247.7h-2.7c-2.8 0-5 2.2-5 5s2.2 5 5 5h2.7c2.8 0 5-2.2 5-5s-2.3-5-5-5z" fill="rgba(0, 89, 15, 0.7558139534883721)" stroke="none"/>
  <path d="M218.7 236.3l-2.2.4c-2.7.5-4.5 3.1-4.1 5.8.4 2.4 2.5 4.1 4.9 4.1.3 0 .6 0 .9-.1l2.2-.4c2.7-.5 4.5-3.1 4.1-5.8-.5-2.6-3.1-4.5-5.8-4z" fill="rgba(0, 89, 15, 0.7558139534883721)" stroke="none"/>
  <path d="M195.1 74.5l8.3-4.4 8.4 4.4-1.6-9.3 6.8-6.6-9.4-1.3-4.2-8.5-4.1 8.5-9.4 1.3 6.8 6.6z" fill="rgba(0, 89, 15, 0.7558139534883721)" stroke="none"/>
</svg>
</g></svg></g></g>
<!-- /image 44102 -->

<!-- image 83820 -->
<g id="transformed-83820" data-image="83820" transform="translate(50.5, 0.5) rotate(326, 18.5, 18.5)"><g><svg version="1.1" width="37px" height="37px" viewBox="0 0 37 37"><g id="original-83820"><svg xmlns="http://www.w3.org/2000/svg" id="Layer_1" viewBox="0 0 400 400" xmlns:xlink="http://www.w3.org/1999/xlink" version="1.1">
  <path d="M281.9 144h-52.8c1.5-.7 3-1.4 4.6-2.1 7.1-3.4 12.7-6.5 17.1-9.4.1-.1.3-.2.4-.3 15.5-10.2 16.1-17.3 16.4-20 .6-6.6-3.4-12.3-12-16.9-3.8-2-7.7-3.1-11.6-3.1-12.2 0-23.9 9.6-34.8 28.5-1.6 2.8-3.1 5.6-4.4 8.3-1-12.6-5.2-32.7-21.6-42.7-20.2-12.2-39.8 3.8-47.7 14.3-.9.8-1.8 1.7-2.7 2.7-5.2 5.9-4.8 11.4-3.6 15 3.1 9.1 15.6 17.2 38.4 24.9.5.2 1 .3 1.5.5h-52.8c-9.4 0-17 7.6-17 17V203c0 9.4 7.6 17 17 17h16l-8.9 9h-.3c-2.8 0-5 2.2-5 5v72.1c0 9.4 7.6 17 17 17H264.7c9.4 0 17-7.6 17-17V233c0-.3 0-.6-.1-.9.3-1.6-.2-3.3-1.5-4.6-2-1.9-5.2-1.8-7.1.2L220 284v-12.3l47.9-51.6h14c9.4 0 17-7.6 17-17v-42c0-9.5-7.6-17.1-17-17.1zm0 10c2.5 0 4.6 1.3 5.9 3.2l-.3.3-48.9 52.5h-11.2l51.8-56h2.7zm-52.6 66l-9.3 10v-10h9.3zm36.3-66l-43.1 46.6v-8.8l35.1-37.8h8zm-32.6 0h10.9l-21.4 23.1v-11.8L233 154zm10.9-51.7c2.3 0 4.6.6 6.9 1.9 3.2 1.7 7 4.4 6.7 7.2-.2 2.3-2.1 4.9-5.2 7.6-1.1-4-3.1-7.3-6-9.9-2.9-2.6-6.2-4.1-9.5-4.9 2.8-1.4 5.2-1.9 7.1-1.9zM178 95c12.3 7.4 15.8 23.5 16.7 34.1-1.9-2.8-4.1-5.9-6.5-8.9-11.1-14.3-21.6-22.6-31.4-25 7.5-4.2 14.4-4.2 21.2-.2zm-68.7 66c0-3.9 3.1-7 7-7h5.5l-12.5 13.9V161zm0 21.9l25.9-28.9h12l-37.9 40.8v-11.9zm10.3 27.1h-3.2c-2.1 0-4-.9-5.3-2.4l49.8-53.6h10.7l-52 56zm8.5 28.6l18.2-18.6h11.8l-30 32.3v-13.7zm50.2 63.3L168 313.1h-11.6l21.9-23.5v12.3zm0-27.1L142.8 313h-7.7c-.9 0-1.8-.2-2.6-.5l45.8-49.5v11.8zm0-26.5l-50.2 54.3v-9.2l50.2-54.1v9zm0-23.7l-50.2 54.1V267l43.7-47h6.6v4.6zm2.5-29L167.4 210h-11l5.5-5.9 1.6-1.6c.2-.2.4-.4.5-.7l16.8-18v11.8zm0-26.5l-26.1 28.1-12.6 12.8h-8.9l47.6-51.2v10.3zM170.7 134c-26.2-8.9-31.1-16-32-18.6-.2-.7-.8-2.4 1.7-5.3 3.3-3.8 6.8-5.6 10.7-5.6 7.9 0 18.3 7.8 29.2 21.8 3.6 4.7 6.8 9.4 9.3 13.3-5.4-1.4-12.1-3.3-18.9-5.6zM210 313.1h-21.7V220H210v93.1zm2.5-103.1h-21.7v-56h9.1c.6.2 1.2.3 1.8.3.5 0 1-.1 1.6-.2 0 0 .1 0 .3-.1h9.1v56zm59.2 96.1c0 3.9-3.1 7-7 7h-12.3l19.3-20.7v13.7zm0-28.4l-.3.3-32.6 35.1h-9.3l42.3-45.3v9.9zm0-34v9.4l-.3.3-51.4 55.1v-10l51.7-54.8zm-59.6-103.4c-.4-.2-.9-.3-1.3-.4 1.9-4.2 4.3-9.3 7.1-14.2 3-5.2 5.9-9.3 8.6-12.5 3.5-.2 9.6.2 13.2 3.4 2.2 2 3.4 4.9 3.6 8.9-8.8 5.3-20.4 10.6-31.2 14.8zm7.9 116.6v-12.3l23-24.6h11.3L220 256.9zm68.9-53.9c0 3.9-3.1 7-7 7h-4.7l11.7-12.6v5.6zm0-20.3L263.6 210h-11.3l36.7-39.4v12.1z" fill="rgba(211, 175, 175, 1)" stroke="none"/>
</svg>
</g></svg></g></g>
<!-- /image 83820 -->

<!-- image 27175 -->
<g id="transformed-27175" data-image="27175" transform="translate(147.5, -8.5) rotate(27, 22.5, 22.5)"><g><svg version="1.1" width="45px" height="45px" viewBox="0 0 45 45"><g id="original-27175"><svg xmlns="http://www.w3.org/2000/svg" id="Layer_1" viewBox="0 0 400 400" xmlns:xlink="http://www.w3.org/1999/xlink" version="1.1">
  <path d="M282 144h-52.8c1.5-.7 3-1.4 4.6-2.1 7.1-3.4 12.7-6.5 17.1-9.4.1-.1.3-.2.4-.3 15.5-10.2 16.1-17.3 16.4-20 .6-6.6-3.4-12.3-12-16.9-6.7-3.6-13.6-4-20.6-1.3-5.2 2.1-10 5.9-14.3 10.6-.3.3-.6.6-.8.9-6.2 7.1-11.4 15.9-15.2 23.6-1-12.6-5.2-32.7-21.6-42.7-20.2-12.2-39.8 3.8-47.7 14.3-.9.8-1.8 1.7-2.6 2.7-5.2 5.9-4.8 11.4-3.6 15 3.1 9.1 15.6 17.2 38.4 24.9.5.2 1 .3 1.5.5h-52.8c-9.4 0-17 7.6-17 17v42c0 9.4 7.6 17 17 17h62v41.6c-.3-.1-.6-.1-.9-.1-8.7 0-15.7 7.1-15.7 15.7s7.1 15.7 15.7 15.7c.3 0 .6 0 .9-.1v20.1h-43.2c-3.9 0-7-3.1-7-7v-39.2c7.1-1.5 12.5-7.8 12.5-15.4 0-7.6-5.4-13.9-12.5-15.4V233c0-2.8-2.2-5-5-5s-5 2.2-5 5v73.1c0 9.4 7.6 17 17 17H264.8c9.4 0 17-7.6 17-17V233c0-2.8-2.2-5-5-5s-5 2.2-5 5v43.6c-2.8-2.7-6.6-4.3-10.8-4.3-8.7 0-15.7 7.1-15.7 15.7 0 8.7 7.1 15.7 15.7 15.7 4.2 0 8-1.6 10.8-4.3v6.6c0 3.9-3.1 7-7 7h-44.7v-56.7c8.2-.5 14.7-7.4 14.7-15.7 0-8.3-6.5-15.2-14.7-15.7v-5H282c9.4 0 17-7.6 17-17v-42c0-9.3-7.7-16.9-17-16.9zM130.6 251.5c0 1.9-1 3.7-2.5 4.7v-9.4c1.5 1 2.5 2.7 2.5 4.7zM261 293.8c-3.2 0-5.7-2.6-5.7-5.7 0-3.2 2.6-5.7 5.7-5.7s5.7 2.6 5.7 5.7-2.6 5.7-5.7 5.7zM212.6 154v56h-21.7v-56h9.1c.6.2 1.2.3 1.8.3.5 0 1-.1 1.6-.2 0 0 .1 0 .3-.1h8.9zm31.3-51.7c2.3 0 4.6.6 6.9 1.9 3.2 1.7 7 4.4 6.7 7.2-.2 2.3-2.1 4.9-5.2 7.6-1.1-4-3.1-7.3-6-9.9-2.8-2.6-6.2-4.1-9.5-4.9.6-.3 1.2-.6 1.8-.8 1.9-.8 3.6-1.1 5.3-1.1zm-17.3 10.8c3.5-.2 9.6.2 13.2 3.4 2.2 2 3.4 4.9 3.6 8.9-9.3 5.6-21.6 11.2-33 15.5 3.7-8.7 9.4-19.7 16.2-27.8zM178 95c12.2 7.4 15.8 23.3 16.7 33.9-8.9-13.2-23-30.1-37.8-33.8 6-3.2 13.4-4.7 21.1-.1zm-39.3 20.3c-.2-.7-.8-2.4 1.7-5.3 3.3-3.8 6.8-5.6 10.7-5.6.5 0 1 0 1.5.1 13 1.5 28.2 21 37.2 35.1-22.3-5.7-48.1-15.4-51.1-24.3zm11.5 38.7c-.2.5-.3 1-.3 1.5 0 3.2-2.6 5.7-5.7 5.7-3.2 0-5.7-2.6-5.7-5.7 0-.5-.1-1-.3-1.5h12zm-40.9 49v-42c0-3.9 3.1-7 7-7h12.4c-.2.5-.3 1-.3 1.5 0 8.7 7.1 15.7 15.7 15.7 8.7 0 15.7-7.1 15.7-15.7 0-.5-.1-1-.3-1.5h21.1v56h-4.9c-1-7.8-7.6-13.8-15.6-13.8s-14.6 6-15.6 13.8h-28.4c-3.6 0-6.8-3.1-6.8-7zm56.4 7h-10.8c.8-2.2 2.9-3.8 5.4-3.8s4.6 1.6 5.4 3.8zm11.7 73c-3.2 0-5.7-2.6-5.7-5.7 0-3.2 2.6-5.7 5.7-5.7.3 0 .6 0 .9-.1v11.7c-.2-.1-.5-.2-.9-.2zm10.9 30.1V220H210v93.1h-21.7zm36.5-72.4c0 2.8-2.1 5.2-4.7 5.7V235c2.7.5 4.7 2.9 4.7 5.7zM289 203c0 3.9-3.1 7-7 7h-59.4v-56H282c3.9 0 7 3.1 7 7v42z" fill="rgba(211, 175, 175, 1)" stroke="none"/>
  <path d="M262.8 163.3c-8.7 0-15.7 7.1-15.7 15.7s7.1 15.7 15.7 15.7c8.7 0 15.7-7.1 15.7-15.7s-7.1-15.7-15.7-15.7zm0 21.4c-3.2 0-5.7-2.6-5.7-5.7s2.6-5.7 5.7-5.7 5.7 2.6 5.7 5.7-2.6 5.7-5.7 5.7z" fill="rgba(211, 175, 175, 1)" stroke="none"/>
</svg>
</g></svg></g></g>
<!-- /image 27175 -->

<!-- image 88667 -->
<g id="transformed-88667" data-image="88667" transform="translate(131.5, 85.5) rotate(13, 23.5, 23.5)"><g><svg version="1.1" width="47px" height="47px" viewBox="0 0 47 47"><g id="original-88667"><svg xmlns="http://www.w3.org/2000/svg" id="Layer_1" viewBox="0 0 400 400" xmlns:xlink="http://www.w3.org/1999/xlink" version="1.1">
  <path d="M258.9 119.7c-7.9-16.3-23-29-41.5-34.7-34.3-10.6-70.9 8.6-81.6 43-.3.8-1.7 5-2.2 8-.7 4.2-1.2 13.7-.1 20.8v.2l.8 4.1c1.6 11.8 12.4 20.2 24.3 18.8 11.9-1.5 20.4-12.4 18.9-24.3l-.4-3c0-.2-.1-.5-.1-.7-1.1-4.1 0-8.9 0-8.9 1.5-5.9 5.2-10.8 10.4-13.9 4.9-2.9 10.5-3.8 16-2.7.2.1.4.2.6.2.4.1.8.2 1.1.2 6 1.7 11.3 6.1 14.3 11.8 2.7 5.1 3.3 10.5 1.6 15.2-5 14.1-49.3 124.6-55.2 139.3-.5.7-.9 1.6-.9 2.5-3.6 10.5 1.7 22.1 12.2 26.2 2.5 1 5.1 1.4 7.6 1.4 8.4 0 16.3-5 19.5-13.3l56-143c6.4-15.9 5.9-32.2-1.3-47.2zm-55.1 164.2l-25.5 5.3c1.4-3.4 3-7.6 5-12.4.2 0 .5 0 .7-.1l24.6-5.2-4.8 12.4zm9.1-23.4l-25.3 5.3c1.9-4.6 3.8-9.6 5.9-14.7l25.2-5.3-5.8 14.7zm10.1-25.8l-25.1 5.3c1.8-4.5 3.6-9.1 5.5-13.7l25-5.2-5.4 13.6zm9.8-24.8l-24.9 5.2c1.9-4.8 3.8-9.6 5.6-14.2.3 0 .5 0 .8-.1l24-5-5.5 14.1zm-21.3-91.4l6.3-22.7c6.8 2.6 13.1 6.2 18.3 10.8l-17 16.5c-2.2-1.9-4.8-3.5-7.6-4.6zm31.1 66.2l-24.8 5.2c2.2-5.7 4.3-10.9 6.1-15.5l24.8-5.2-6.1 15.5zm8.7-26.3l-23 4.8c1-2.7 1.8-4.8 2.3-6 .9-2.6 1.4-5.3 1.5-8.1l22.4-8.4c.5 5.8-.1 11.7-1.8 17.6-.5 0-.9 0-1.4.1zm1.2-27.7l-22 8.3c-.6-1.7-1.3-3.4-2.2-5.1-.7-1.3-1.4-2.4-2.2-3.6l17.1-16.6c2.6 3.2 4.9 6.7 6.6 10.4 1.1 2.2 2 4.4 2.7 6.6zm-107.2.3c1.9-6.3 4.9-11.9 8.7-16.9l16.7 18.2c-1.5 2.5-2.6 5.3-3.3 8.2-.1.2-.2 1-.4 2.2l-21.9-10.9c.1-.3.2-.5.2-.7v-.1zm12.1 39c-6.5.8-12.4-3.8-13.2-10.2 0-.1 0-.2-.1-.3l-.8-4.1c-.6-4.1-.6-9.3-.3-13.3l24.3 12.1.3 2.7c.8 6.4-3.8 12.3-10.2 13.1zm19.7-45.5l-16.3-17.7c5.6-5.1 12.1-9 19.2-11.5l4.6 24.1c-.7.4-1.4.7-2.1 1.1-2 1.2-3.8 2.5-5.4 4zm17-8.2l-4.5-23.5c6.1-1 12.3-.9 18.6.3l-6.4 23c-1-.1-1.9-.1-2.9-.1-1.6 0-3.2.1-4.8.3zm-13.3 196.3c-5-2-7.7-7.2-6.8-12.2l25.4-5.3-4.4 11.4c-2.3 5.5-8.6 8.3-14.2 6.1z" fill="rgba(211, 175, 175, 1)" stroke="none"/>
</svg>
</g></svg></g></g>
<!-- /image 88667 -->

<!-- image 47548 -->
<g id="transformed-47548" data-image="47548" transform="translate(154, 37) rotate(358, 25, 25)"><g><svg version="1.1" width="50px" height="50px" viewBox="0 0 50 50"><g id="original-47548"><svg xmlns="http://www.w3.org/2000/svg" id="Layer_1" viewBox="0 0 400 400" xmlns:xlink="http://www.w3.org/1999/xlink" version="1.1">
  <circle cx="201.6" cy="173.8" r="6.4" fill="rgba(211, 175, 175, 1)" stroke="none"/>
  <circle cx="201.6" cy="196" r="6.4" fill="rgba(211, 175, 175, 1)" stroke="none"/>
  <circle cx="201.6" cy="216.7" r="6.4" fill="rgba(211, 175, 175, 1)" stroke="none"/>
  <circle cx="217.2" cy="90" r="6" fill="rgba(211, 175, 175, 1)" stroke="none"/>
  <circle cx="184" cy="90" r="6" fill="rgba(211, 175, 175, 1)" stroke="none"/>
  <path d="M217.2 103c-2.8 0-5 2.2-5 5 0 6.4-5.2 11.6-11.6 11.6-6.4 0-11.6-5.2-11.6-11.6 0-2.8-2.2-5-5-5s-5 2.2-5 5c0 11.9 9.7 21.6 21.6 21.6 11.9 0 21.6-9.7 21.6-21.6 0-2.7-2.2-5-5-5z" fill="rgba(211, 175, 175, 1)" stroke="none"/>
  <path d="M263.7 146.3h-31.2c12.6-9.6 20-24.5 20-40.8 0-28.4-23.1-51.5-51.5-51.5s-51.5 23.1-51.5 51.5c0 16 7.6 31.1 20.1 40.8h-34.1c-15.1 0-27.4 12.3-27.4 27.4 0 15.1 12.3 27.4 27.4 27.4H156.1l-17.9 111.3c-1.2 7.2.6 14.4 4.9 20.4 4.3 5.9 10.6 9.8 17.8 11 7.2 1.2 14.4-.6 20.4-4.9 5.9-4.3 9.8-10.6 11-17.8l7.6-47.1 7.6 47.1c1.2 7.2 5.1 13.5 11 17.8 4.7 3.4 10.3 5.2 16 5.2 1.5 0 2.9-.1 4.4-.4 7.2-1.2 13.5-5.1 17.8-11 4.3-5.9 6-13.2 4.9-20.4l-1.1-6.6c0-.3 0-.6-.1-.8 0-.2-.1-.4-.2-.6L243.6 201h20c15.1 0 27.4-12.3 27.4-27.4 0-15-12.2-27.3-27.3-27.3zm-145.5 27.4c0-8.1 5.6-14.9 13.1-16.8v33.6c-7.6-1.9-13.1-8.7-13.1-16.8zm57.2 157.1c-3.8 2.7-8.4 3.8-12.9 3.1-4.6-.7-8.6-3.2-11.3-7-2.7-3.8-3.8-8.4-3.1-12.9l.5-3.1 34.2 6.2-.4 2.4c-.7 4.5-3.2 8.5-7 11.3zm73.1-3.9c-2.7 3.8-6.7 6.3-11.3 7-4.6.7-9.1-.4-12.9-3.1-3.8-2.7-6.3-6.7-7-11.3l-.3-1.6 34.2-6.2.4 2.3c.7 4.5-.4 9.1-3.1 12.9zm-15.7-130.1l16.9 105-34.2 6.2-10.7-66.3c-.4-2.4-2.5-4.2-4.9-4.2-2.5 0-4.5 1.8-4.9 4.2l-10.5 65.5-34.2-6.2L167 196.8c.2-1.4-.2-2.9-1.1-4-.9-1.1-2.3-1.8-3.8-1.8h-20.8v-34.7h36c2.8 0 5-2.2 5-5v-5.8c0-1.8-.9-3.4-2.4-4.3-12.5-7.5-20.3-21.1-20.3-35.7 0-22.9 18.6-41.5 41.5-41.5s41.5 18.6 41.5 41.5c0 15.8-8.8 30-23 37.1-1.7.8-2.8 2.6-2.8 4.5v4.2c0 2.8 2.2 5 5 5h35.5V191h-19.5c-1.5 0-2.9.6-3.8 1.8-1 1.1-1.5 2.6-1.2 4zm34.4-6.1v-34c7.9 1.6 13.8 8.6 13.8 17 0 8.3-5.9 15.3-13.8 17z" fill="rgba(211, 175, 175, 1)" stroke="none"/>
</svg>
</g></svg></g></g>
<!-- /image 47548 -->

<!-- image 55691 -->
<g id="transformed-55691" data-image="55691" transform="translate(91, -5) rotate(357, 28, 28)"><g><svg version="1.1" width="56px" height="56px" viewBox="0 0 56 56"><g id="original-55691"><svg xmlns="http://www.w3.org/2000/svg" id="Layer_1" viewBox="0 0 400 400" xmlns:xlink="http://www.w3.org/1999/xlink" version="1.1">
  <path d="M209.3 175.4c-2.1 1.8-2.4 4.9-.6 7 1.7 2.1 4.9 2.4 7 .7 1-.8 10.2-7.8 19-.1 1 .8 2.1 1.3 3.3 1.3 1.4 0 2.8-.6 3.8-1.7 1.8-2.1 1.6-5.2-.4-7.1-12.5-10.8-26.5-4.8-32.1-.1z" fill="rgba(211, 175, 175, 1)" stroke="none"/>
  <path d="M143.6 175.4c-2.1 1.8-2.4 4.9-.6 7 1.7 2.1 4.9 2.4 7 .7 1-.8 10.2-7.8 19-.1 1 .8 2.1 1.3 3.3 1.3 1.4 0 2.8-.6 3.8-1.7 1.8-2.1 1.6-5.2-.4-7.1-12.4-10.8-26.4-4.8-32.1-.1z" fill="rgba(211, 175, 175, 1)" stroke="none"/>
  <path d="M302.7 155.3c0-.2.1-.4.1-.6 0-51.8-42.2-94-94-94-39.1 0-74.5 24.6-88.1 61.2-.2.6-.3 1.2-.3 1.7-7.9 4.5-9 11.8-9 15.4 0 5.2 2.8 10.7 7.4 14.5 1.6 1.3 3.4 2.4 5.2 3.1 1.7 31.8.2 80.9-10.9 91-1.3 1.2-1.9 3-1.5 4.8.1.6 3.3 15.1 12.5 30.5 12.5 20.8 30 33.3 50.8 36.1h.7c2.5 0 4.6-1.8 4.9-4.3.4-2.7-1.6-5.3-4.3-5.6-17.8-2.4-32.4-12.8-43.4-31-6.3-10.5-9.6-20.7-10.8-25.2 4.4-5.4 7.6-14.4 9.6-27.1.1.3.2.6.4.9 11.2 18.8 26.3 23.4 38.6 23.4 4.9 0 9.3-.7 12.8-1.6 4.2-1 7.7-3.4 10.2-6.6 2.5 3.2 6 5.5 10.2 6.6 3.5.9 8 1.6 12.8 1.6 12.1 0 26.9-4.5 38-22.5 2.4 11.7 5.6 20.1 9.9 25.3-1.3 4.6-4.5 14.8-10.8 25.2-11 18.2-25.6 28.7-43.4 31-2.7.4-4.7 2.9-4.3 5.6.3 2.5 2.5 4.3 4.9 4.3h.7c20.8-2.8 38.3-15.3 50.8-36.1 9.2-15.4 12.4-29.9 12.5-30.5.4-1.7-.2-3.6-1.5-4.8-8.5-7.7-12.2-36.9-13.1-64 4.2 8.5 13 14.4 23.1 14.4 14.2 0 25.8-11.6 25.8-25.8 0-6.3-2.5-12.3-6.5-16.9zm-169.8-25c1.2-.1 2.9-.4 5-.7 16.3-2.4 59.6-8.7 111 .6 5.7 1 11.8 3.9 11.8 8.9 0 2.5-1.4 5.3-3.6 7.1-1.4 1.1-3.6 2.3-6.4 1.8-28.2-5.4-71.5-9.9-117.8-.3-.3.1-.6.1-.9.2-1-.9-2.3-1.4-3.7-1.3-.6 0-1.1.2-1.6.4-.5-.3-1.1-.7-1.6-1.1-2.3-1.9-3.8-4.5-3.8-6.8.1-1.8.1-7.5 11.6-8.8zm54.7 100c0 4-2.7 7.5-6.6 8.4-10.1 2.5-23.7 2.5-34.7-9.5 6.3-.7 14.6-2.9 22.2-9.2 4.5-3.7 11.1-7.4 16.7-4.1 1.5.9 2.4 2.6 2.4 4.5v9.9zm18.6 8.5c-3.9-1-6.6-4.4-6.6-8.4v-9.8c0-1.9.9-3.7 2.4-4.5 1.5-.9 3.1-1.3 4.7-1.3 4.3 0 8.7 2.7 12 5.4 7.7 6.2 15.9 8.5 22.2 9.2-11 11.9-24.6 11.9-34.7 9.4zm43.7-19.6c-.5.1-13.5 2.4-25-6.9-5.8-4.7-10.9-6.8-15.2-7.4-.1-1-.4-2-1.1-2.8-1.7-2.1-4.9-2.4-7-.7-1 .8-10.2 7.8-19 .1-2.1-1.8-5.2-1.6-7.1.4-.9 1-1.3 2.3-1.2 3.6-3.6 1-7.7 3.1-12.1 6.7-11.4 9.3-24.4 7-25 6.9-1.9-.4-3.8.4-5 2 1-7.4 1.7-15.9 2-25.5.6-15.3.1-29.9-.3-37.9.3-.1.6-.1 1-.2 44.6-9.2 86.5-4.9 113.8.3.5.1.9.2 1.4.2-.2 6.8-.4 22.3.7 39.3.5 8.3 1.3 15.8 2.3 22.4-.8-.5-2-.7-3.2-.5zm10.2-57.9c0-1.8.1-3.6.2-5.2 1.1-.6 2.1-1.3 3.1-2.1 4.5-3.7 7.2-9.3 7.2-14.8 0-2.9-.7-5.5-2.1-7.9 1.2-4.2 2.4-12.5-2.4-22.9-1.2-2.5-4.1-3.6-6.6-2.5-2.5 1.2-3.6 4.1-2.5 6.6 2 4.3 2.6 8 2.6 10.8-2.6-1.3-5.6-2.3-9-2.9-53-9.6-97.5-3.1-114.2-.7-1.7.3-3.1.5-4.2.6 13.4-29.8 43.5-49.5 76.6-49.5 44.1 0 80.4 34.2 83.7 77.5-2.8-1.1-5.9-1.7-9.1-1.7-10.2 0-19.1 6-23.3 14.7zm23.3 26.9c-8.7 0-15.8-7.1-15.8-15.8 0-8.7 7.1-15.8 15.8-15.8 8.7 0 15.8 7.1 15.8 15.8 0 8.7-7.1 15.8-15.8 15.8z" fill="rgba(211, 175, 175, 1)" stroke="none"/>
  <path d="M214.2 261.5c2.3-1.5 3-4.6 1.6-6.9-1.5-2.3-4.6-3-6.9-1.6-.2.1-17.2 10.6-34 0-2.3-1.5-5.4-.8-6.9 1.5s-.8 5.4 1.5 6.9c7.5 4.8 14.9 6.3 21.6 6.3 12.9.2 22.5-5.8 23.1-6.2z" fill="rgba(211, 175, 175, 1)" stroke="none"/>
  <path d="M192.2 306.5c-2.7.4-4.6 2.9-4.2 5.7.3 2.1.5 9-2.5 12.6-1.4 1.7-3.5 2.5-6.4 2.6-2.8.1-4.9 2.4-4.9 5.1.1 2.7 2.3 4.9 5 4.9h.1c5.7-.2 10.5-2.3 13.7-6.2 6.4-7.6 4.9-19.1 4.8-20.4-.4-2.8-2.9-4.7-5.6-4.3z" fill="rgba(211, 175, 175, 1)" stroke="none"/>
</svg>
</g></svg></g></g>
<!-- /image 55691 -->

<!-- image 34637 -->
<g id="transformed-34637" data-image="34637" transform="translate(109.5, 199.5) rotate(2, 21.5, 21.5)"><g><svg version="1.1" width="43px" height="43px" viewBox="0 0 43 43"><g id="original-34637"><svg xmlns="http://www.w3.org/2000/svg" id="Layer_1" viewBox="0 0 400 400" xmlns:xlink="http://www.w3.org/1999/xlink" version="1.1">
  <path d="M327.7 186.1c3.3-6.4 7.4-14.5 7.4-23.8 0-9.4-4.5-16-8.4-21.9-2.5-3.8-4.9-7.3-6.3-11.5-1.2-3.8-1.1-8.3-.9-13.1.2-6.9.5-14.6-3.7-21.1-3.4-5.2-10.2-8.3-16.7-11.2-4.2-1.9-8.5-3.9-10.7-6-2.3-2.3-4.5-6-6.8-9.8-3.6-6-7.3-12.3-12.9-15.7-6.9-4.2-14.8-4.5-22.5-4.8-4.8-.2-9.3-.4-13.4-1.4-3.5-.9-7.3-2.9-11.4-5.1-6.8-3.6-13.8-7.2-21.5-7.2-8.7 0-16.6 4-24.2 7.9-4.3 2.2-8.3 4.2-12 5.3-3.9 1.2-8.5 1.4-13.4 1.6-7.7.3-15.7.7-22.3 4.9-5.2 3.3-8.1 9.2-10.9 14.9-1.8 3.6-3.7 7.4-5.7 9.4-2.2 2.2-7 4.4-11.7 6.5-7.2 3.3-14.6 6.7-18.1 12.2-4.1 6.4-3.2 13.8-2.3 20.3.6 4.6 1.2 9 .1 12.5-1.4 4.2-4 7.7-6.9 11.5-4.4 5.8-9.3 12.4-9.3 21.7 0 6.4 3.9 13.9 7.6 21.2 2.3 4.4 4.6 9 5.3 11.9.7 3.2-.1 7.8-1 12.4-1.2 6.9-2.5 14 .4 20 3 6.2 9.4 9.6 15.5 13 4 2.1 8 4.3 10 6.8 1.4 1.8 2.3 4.2 3.3 6.8 2.2 5.9 5.1 13.7 15.6 15.7-2 6.4-2.8 14.3 1 24.3 3.2 8.5 9 11.3 13.4 12 1.1.2 2.3.3 3.5.3 2.2 0 4.5-.4 6.8-1L129.7 332c-1 1.7-.8 3.9.3 5.4 1.2 1.6 3.2 2.3 5.1 1.9l16.3-3.6 2.9 19.6c.3 2.1 1.9 3.8 4.1 4.2.3.1.6.1.9.1 1.8 0 3.5-1 4.4-2.6l37.6-68.7 39.7 72.5c.9 1.6 2.6 2.6 4.4 2.6.3 0 .6 0 .9-.1 2.1-.4 3.8-2.1 4.1-4.2l2.9-19.6 16.3 3.6c1.9.4 3.9-.3 5.1-1.9 1.2-1.6 1.3-3.7.3-5.4l-16.5-29c1.4.2 2.7.4 4.1.4 1.2 0 2.3-.1 3.5-.3 4.3-.8 10.2-3.5 13.4-12 3.9-10.3 2.9-18.4.8-24.8 12.6-2 15.2-10.7 17.1-17.3.9-2.8 1.7-5.5 3.1-7.5 2.1-2.8 5.8-4.8 9.8-7 5.7-3.1 12.1-6.7 15-13.6 2.2-5.1.9-11.8-.4-18.3-.8-4.1-1.7-8.8-1.2-11.2.6-2.4 2.2-5.6 4-9.1zM136.2 296.6c-1.7-.3-4.1-1.2-5.8-5.7-4.1-10.9-1-18 1.9-24.8 2-4.7 3.9-9.1 3-14.1-1-5-2.9-9.7-4.7-14.3-4.7-11.7-6-16.9 0-21.9 16.3-13.3 47.6 20.5 47.9 20.8l.3.3c-1.9 4.2-3 9.7-3 15.8 0 5.9 1 11.1 2.7 15.3-8.2 9.4-16.6 16.9-24.1 21.9-.3.2-.6.3-.8.5-6.9 4.8-13.1 7-17.4 6.2zm79.2-43.8c0 9.6-3.4 14.9-4.6 15.3h-20.2c-1.3-.4-4.6-5.7-4.6-15.3 0-9.6 3.4-14.9 4.6-15.3h20.2c1.2.4 4.6 5.7 4.6 15.3zm-53.3 86.4l-1.5-10.1c-.2-1.4-1-2.6-2.1-3.4-1.1-.8-2.6-1.1-3.9-.8l-10.5 2.3 16.7-29.4c10.1-6.9 19.2-16.2 24.1-21.6 1.7 1.2 3.7 1.8 5.8 1.8h5l-33.6 61.2zm98.5-8.1l-10.5-2.3c-1.4-.3-2.8 0-3.9.8s-1.9 2-2.1 3.4l-1.5 10.1-35.5-65h3.8c1.7 0 3.3-.4 4.8-1.2 5.5 6.1 16.2 17 27.8 24l17.1 30.2zm9.4-39.7c-1.7 4.5-4.1 5.4-5.8 5.7-8.9 1.6-25.7-9.6-42-28 2-4.3 3.2-10 3.2-16.4 0-6.3-1.1-11.9-3.1-16.1 4.2-4.4 32.3-32.7 47.4-20.3 6 4.9 4.7 10.2 0 21.9-1.8 4.6-3.7 9.3-4.7 14.3-.9 4.9 1 9.4 3 14.1.1.2.1.3.2.5.1.3.2.6.4.9 2.8 6.4 5.2 13.3 1.4 23.4zm48.8-109.8c-2.1 4.1-4 7.9-4.9 11.7-1 4.4 0 9.6 1.1 15.2.9 4.5 2 10.2 1 12.5-1.6 3.7-6 6.2-10.7 8.8-4.6 2.6-9.4 5.2-12.8 9.7-2.6 3.4-3.8 7.3-4.8 10.7-1.9 6.3-3 10.1-11.4 10.5-1-2.5-1.7-4.6-1.5-6.1.8-4.1 2.5-8.3 4.1-12.4 4.2-10.4 9.4-23.3-3-33.4-21.4-17.6-52.9 12.7-60.2 20.3-1.6-.9-3.2-1.4-5-1.4h-20.3c-1.9 0-3.7.5-5.3 1.6-4.8-5.2-29.3-29.8-50.2-26 2.4-1.1 3.5-3.9 2.5-6.4-3.3-8.1-5-16.8-5-25.6 0-37.2 30.3-67.4 67.4-67.4s67.4 30.3 67.4 67.4c0 8.4-1.5 16.6-4.5 24.3-1 2.6.3 5.5 2.9 6.5s5.5-.3 6.5-2.9c3.4-8.9 5.2-18.3 5.2-27.9 0-42.7-34.7-77.4-77.4-77.4s-77.4 34.7-77.4 77.4c0 10.2 1.9 20.1 5.8 29.4.8 1.9 2.7 3.1 4.6 3.1-3 .8-5.9 2.3-8.6 4.5-12.3 10.1-7.1 23-3 33.4 1.7 4.1 3.4 8.4 4.1 12.4.3 1.6-.5 3.9-1.7 6.6-6.6-.5-7.9-3.9-10-9.7-1.2-3.1-2.5-6.6-4.9-9.6-3.3-4-8.2-6.7-13.1-9.3-4.8-2.6-9.7-5.2-11.3-8.5-1.5-3.1-.5-8.6.5-14 1-5.5 2-11.1.9-16.3-.9-4.2-3.5-9.1-6.2-14.4-3.1-5.9-6.5-12.7-6.5-16.6 0-6 3.4-10.5 7.3-15.7 3.2-4.3 6.5-8.7 8.4-14.4 1.8-5.7 1-11.6.3-16.9-.7-5.5-1.4-10.2.7-13.5 2-3 8.3-5.9 13.9-8.5 5.7-2.6 11-5.1 14.5-8.4 3.3-3.2 5.5-7.8 7.7-12.2 2.2-4.5 4.5-9.1 7.3-10.9 4.3-2.8 10.7-3 17.3-3.3 5.3-.2 10.7-.5 15.8-2 4.6-1.4 9.3-3.7 13.7-6 6.6-3.4 13.4-6.8 19.6-6.8 5.3 0 11.2 3.1 16.9 6.1 4.3 2.3 8.8 4.6 13.4 5.9 5.1 1.4 10.4 1.6 15.6 1.8 6.7.3 13.1.5 17.7 3.3 3.5 2.1 6.5 7.3 9.5 12.2 2.5 4.3 5.2 8.7 8.4 11.9 3.4 3.3 8.3 5.5 13.5 7.9 5 2.3 10.7 4.9 12.5 7.7 2.5 3.8 2.3 9.3 2.1 15.2-.2 5.5-.4 11.1 1.4 16.6 1.8 5.5 4.7 9.8 7.5 13.9 3.6 5.4 6.7 10 6.7 16.3.3 6.7-2.9 13-6 19.1z" fill="rgba(65, 88, 50, 1)" stroke="none"/>
  <path d="M296.3 179.6c-8.1-1.5-15.9 3.9-17.4 12.1-.7 3.9.2 7.9 2.4 11.2 2.3 3.3 5.7 5.5 9.6 6.2.9.2 1.8.2 2.7.2 3 0 6-.9 8.5-2.7 3.3-2.3 5.5-5.7 6.2-9.6 1.5-8.1-3.9-15.9-12-17.4zm2.2 15.6c-.2 1.3-1 2.4-2.1 3.2-1.1.8-2.4 1-3.7.8-1.3-.2-2.4-1-3.2-2.1-.8-1.1-1-2.4-.8-3.7.4-2.4 2.5-4.1 4.9-4.1.3 0 .6 0 .9.1 2.7.5 4.5 3.1 4 5.8z" fill="rgba(65, 88, 50, 1)" stroke="none"/>
  <path d="M286.5 143.4c3 0 6-.9 8.5-2.7 3.3-2.3 5.5-5.7 6.2-9.6.7-3.9-.2-7.9-2.4-11.2-2.3-3.3-5.7-5.5-9.6-6.2-3.9-.7-7.9.2-11.2 2.4-3.3 2.3-5.5 5.7-6.2 9.6-.7 3.9.2 7.9 2.4 11.2 2.3 3.3 5.7 5.5 9.6 6.2.9.2 1.8.3 2.7.3zm-4.1-12.1c-.8-1.1-1-2.4-.8-3.7.2-1.3 1-2.4 2.1-3.2.8-.6 1.8-.9 2.8-.9.3 0 .6 0 .9.1 1.3.2 2.4 1 3.2 2.1.8 1.1 1 2.4.8 3.7-.2 1.3-1 2.4-2.1 3.2-1.1.8-2.4 1-3.7.8-1.3-.3-2.4-1-3.2-2.1z" fill="rgba(65, 88, 50, 1)" stroke="none"/>
  <path d="M241.4 66.5c-8.1-1.5-15.9 3.9-17.4 12.1-.7 3.9.2 7.9 2.4 11.2 2.3 3.3 5.7 5.5 9.6 6.2.9.2 1.8.2 2.7.2 3 0 6-.9 8.5-2.7 3.3-2.3 5.5-5.7 6.2-9.6 1.6-8.2-3.8-16-12-17.4zm2.3 15.6c-.2 1.3-1 2.4-2.1 3.2-1.1.8-2.4 1-3.7.8-1.3-.2-2.4-1-3.2-2.1-.8-1.1-1-2.4-.8-3.7.4-2.4 2.5-4.1 4.9-4.1.3 0 .6 0 .9.1 2.7.5 4.5 3.1 4 5.8z" fill="rgba(65, 88, 50, 1)" stroke="none"/>
  <path d="M177.5 70.5c-2.3-3.3-5.7-5.5-9.6-6.2-3.9-.7-7.9.2-11.2 2.4-3.3 2.3-5.5 5.7-6.2 9.6-.7 3.9.2 7.9 2.4 11.2 2.3 3.3 5.7 5.5 9.6 6.2.9.2 1.8.2 2.7.2 7.1 0 13.4-5.1 14.7-12.3.7-3.9-.1-7.8-2.4-11.1zm-7.4 9.4c-.5 2.7-3.1 4.5-5.8 4-1.3-.2-2.4-1-3.2-2.1-.8-1.1-1-2.4-.8-3.7.2-1.3 1-2.4 2.1-3.2.8-.6 1.8-.9 2.8-.9.3 0 .6 0 .9.1 1.3.2 2.4 1 3.2 2.1.7 1.1 1 2.4.8 3.7z" fill="rgba(65, 88, 50, 1)" stroke="none"/>
  <path d="M124.6 118.3c-2.3-3.3-5.7-5.5-9.6-6.2-8.1-1.5-15.9 3.9-17.4 12.1-.7 3.9.2 7.9 2.4 11.2 2.3 3.3 5.7 5.5 9.6 6.2.9.2 1.8.2 2.7.2 7.1 0 13.4-5.1 14.7-12.3.7-3.9-.1-7.9-2.4-11.2zm-7.4 9.4c-.5 2.7-3.1 4.5-5.8 4-1.3-.2-2.4-1-3.2-2.1-.8-1.1-1-2.4-.8-3.7.4-2.4 2.5-4.1 4.9-4.1.3 0 .6 0 .9.1 1.3.2 2.4 1 3.2 2.1.7 1.1 1 2.4.8 3.7z" fill="rgba(65, 88, 50, 1)" stroke="none"/>
  <path d="M109.3 181.7c-8.1-1.5-15.9 3.9-17.4 12.1-.7 3.9.2 7.9 2.4 11.2 2.3 3.3 5.7 5.5 9.6 6.2.9.2 1.8.2 2.7.2 3 0 6-.9 8.5-2.7 3.3-2.3 5.5-5.7 6.2-9.6 1.6-8.1-3.9-15.9-12-17.4zm2.2 15.6c-.2 1.3-1 2.4-2.1 3.2-1.1.8-2.4 1-3.7.8-1.3-.2-2.4-1-3.2-2.1-.8-1.1-1-2.4-.8-3.7.4-2.4 2.5-4.1 4.9-4.1.3 0 .6 0 .9.1 2.7.5 4.5 3.1 4 5.8z" fill="rgba(65, 88, 50, 1)" stroke="none"/>
  <path d="M135.6 218.7c-13.1 5.3 39.1 20.2 39.1 20.2s-25.9-25.5-39.1-20.2z" fill="rgba(65, 88, 50, 1)" stroke="none"/>
  <path d="M264.8 219.2c-13.1-5.3-39.1 20.2-39.1 20.2s52.2-14.9 39.1-20.2z" fill="rgba(65, 88, 50, 1)" stroke="none"/>
</svg>
</g></svg></g></g>
<!-- /image 34637 -->

<!-- image 33905 -->
<g id="transformed-33905" data-image="33905" transform="translate(208, 94) rotate(335, 20, 20)"><g><svg version="1.1" width="40px" height="40px" viewBox="0 0 40 40"><g id="original-33905"><svg xmlns="http://www.w3.org/2000/svg" id="Layer_1" viewBox="0 0 400 400" xmlns:xlink="http://www.w3.org/1999/xlink" version="1.1">
  <path d="M282.2 144h-52.8c1.5-.7 3-1.4 4.6-2.1 7.1-3.4 12.7-6.5 17.1-9.4.1-.1.3-.2.4-.3 15.5-10.2 16.1-17.3 16.4-20 .6-6.6-3.4-12.3-12-16.9-6.7-3.6-13.6-4-20.6-1.3-5.2 2.1-10 5.9-14.3 10.6-.3.3-.6.6-.8.9-6.2 7.1-11.4 15.9-15.2 23.6-1-12.6-5.2-32.7-21.6-42.7-20.2-12.2-39.8 3.8-47.7 14.4-.9.8-1.8 1.7-2.6 2.7-5.2 5.9-4.8 11.4-3.6 15 3.1 9.1 15.6 17.2 38.4 24.9.5.2 1 .3 1.5.5h-52.8c-9.4 0-17 7.6-17 17v42c0 9.4 7.6 17 17 17h62V313h-43.2c-3.9 0-7-3.1-7-7v-73c0-2.8-2.2-5-5-5s-5 2.2-5 5v73.1c0 9.4 7.6 17 17 17H265c9.4 0 17-7.6 17-17V233c0-2.8-2.2-5-5-5s-5 2.2-5 5v73.1c0 3.9-3.1 7-7 7h-44.7V220h61.9c9.4 0 17-7.6 17-17v-42c0-9.4-7.7-17-17-17zm-69.4 10v56H191v-56h9.1c.6.2 1.2.3 1.8.3.5 0 1-.1 1.6-.2 0 0 .1 0 .3-.1h9zm31.4-51.7c2.3 0 4.6.6 6.9 1.9 3.2 1.7 7 4.4 6.7 7.2-.2 2.3-2.1 4.9-5.2 7.6-1.1-4-3.1-7.3-6-9.9-2.8-2.6-6.2-4.1-9.5-4.9.6-.3 1.2-.6 1.8-.8 1.8-.8 3.5-1.1 5.3-1.1zm-17.4 10.8c3.5-.2 9.6.2 13.2 3.4 2.2 2 3.4 4.9 3.6 8.9-9.3 5.6-21.6 11.2-33 15.5 3.7-8.7 9.4-19.7 16.2-27.8zM178.2 95c12.2 7.4 15.7 23.3 16.7 33.9-9-13.2-23-30.1-37.9-33.8 7.6-4.1 14.5-4.1 21.2-.1zm-39.3 20.3c-.2-.7-.8-2.4 1.7-5.3 3.3-3.8 6.8-5.6 10.7-5.6.5 0 1 0 1.5.1 13 1.5 28.2 21 37.2 35.1-22.3-5.7-48.1-15.4-51.1-24.3zM109.6 203v-42c0-3.9 3.1-7 7-7H181v56h-64.5c-3.8 0-6.9-3.1-6.9-7zm79 110.1V220h21.7v93.1h-21.7zM289.2 203c0 3.9-3.1 7-7 7h-59.4v-56h59.4c3.9 0 7 3.1 7 7v42z" fill="rgba(211, 175, 175, 1)" stroke="none"/>
</svg>
</g></svg></g></g>
<!-- /image 33905 -->

<!-- image 15439 -->
<g id="transformed-15439" data-image="15439" transform="translate(-0.5, 142.5) rotate(344, 25.5, 25.5)"><g><svg version="1.1" width="51px" height="51px" viewBox="0 0 51 51"><g id="original-15439"><svg xmlns="http://www.w3.org/2000/svg" id="Layer_1" viewBox="0 0 400 400" xmlns:xlink="http://www.w3.org/1999/xlink" version="1.1">
  <circle cx="201.6" cy="173.8" r="6.4" fill="rgba(211, 175, 175, 1)" stroke="none"/>
  <circle cx="201.6" cy="196" r="6.4" fill="rgba(211, 175, 175, 1)" stroke="none"/>
  <circle cx="201.6" cy="216.7" r="6.4" fill="rgba(211, 175, 175, 1)" stroke="none"/>
  <circle cx="217.2" cy="90" r="6" fill="rgba(211, 175, 175, 1)" stroke="none"/>
  <circle cx="184" cy="90" r="6" fill="rgba(211, 175, 175, 1)" stroke="none"/>
  <path d="M217.2 103c-2.8 0-5 2.2-5 5 0 6.4-5.2 11.6-11.6 11.6-6.4 0-11.6-5.2-11.6-11.6 0-2.8-2.2-5-5-5s-5 2.2-5 5c0 11.9 9.7 21.6 21.6 21.6 11.9 0 21.6-9.7 21.6-21.6 0-2.7-2.2-5-5-5z" fill="rgba(211, 175, 175, 1)" stroke="none"/>
  <path d="M263.7 146.3h-31.2c12.6-9.6 20-24.5 20-40.8 0-28.4-23.1-51.5-51.5-51.5s-51.5 23.1-51.5 51.5c0 16 7.6 31.1 20.1 40.8h-34.1c-15.1 0-27.4 12.3-27.4 27.4 0 15.1 12.3 27.4 27.4 27.4H156.1l-17.9 111.3c-1.2 7.2.6 14.4 4.9 20.4 4.3 5.9 10.6 9.8 17.8 11 7.2 1.2 14.4-.6 20.4-4.9 5.9-4.3 9.8-10.6 11-17.8l7.6-47.1 7.6 47.1c1.2 7.2 5.1 13.5 11 17.8 4.7 3.4 10.3 5.2 16 5.2 1.5 0 2.9-.1 4.4-.4 7.2-1.2 13.5-5.1 17.8-11 4.3-5.9 6-13.2 4.9-20.4l-1.1-6.6c0-.3 0-.6-.1-.8 0-.2-.1-.4-.2-.6L243.6 201h20c15.1 0 27.4-12.3 27.4-27.4 0-15-12.2-27.3-27.3-27.3zm-145.5 27.4c0-8.1 5.6-14.9 13.1-16.8v33.6c-7.6-1.9-13.1-8.7-13.1-16.8zm57.2 157.1c-3.8 2.7-8.4 3.8-12.9 3.1-4.6-.7-8.6-3.2-11.3-7-2.7-3.8-3.8-8.4-3.1-12.9l.5-3.1 34.2 6.2-.4 2.4c-.7 4.5-3.2 8.5-7 11.3zm73.1-3.9c-2.7 3.8-6.7 6.3-11.3 7-4.6.7-9.1-.4-12.9-3.1-3.8-2.7-6.3-6.7-7-11.3l-.3-1.6 34.2-6.2.4 2.3c.7 4.5-.4 9.1-3.1 12.9zm-15.7-130.1l16.9 105-34.2 6.2-10.7-66.3c-.4-2.4-2.5-4.2-4.9-4.2-2.5 0-4.5 1.8-4.9 4.2l-10.5 65.5-34.2-6.2L167 196.8c.2-1.4-.2-2.9-1.1-4-.9-1.1-2.3-1.8-3.8-1.8h-20.8v-34.7h36c2.8 0 5-2.2 5-5v-5.8c0-1.8-.9-3.4-2.4-4.3-12.5-7.5-20.3-21.1-20.3-35.7 0-22.9 18.6-41.5 41.5-41.5s41.5 18.6 41.5 41.5c0 15.8-8.8 30-23 37.1-1.7.8-2.8 2.6-2.8 4.5v4.2c0 2.8 2.2 5 5 5h35.5V191h-19.5c-1.5 0-2.9.6-3.8 1.8-1 1.1-1.5 2.6-1.2 4zm34.4-6.1v-34c7.9 1.6 13.8 8.6 13.8 17 0 8.3-5.9 15.3-13.8 17z" fill="rgba(211, 175, 175, 1)" stroke="none"/>
</svg>
</g></svg></g></g>
<!-- /image 15439 -->

<!-- image 65242 -->
<g id="transformed-65242" data-image="65242" transform="translate(5, -3) rotate(328, 24, 24)"><g><svg version="1.1" width="48px" height="48px" viewBox="0 0 48 48"><g id="original-65242"><svg xmlns="http://www.w3.org/2000/svg" id="Layer_1" viewBox="0 0 400 400" xmlns:xlink="http://www.w3.org/1999/xlink" version="1.1">
  <path d="M226.4 136.7V121c0-9.4-7.6-17-17-17h-20c-9.4 0-17 7.6-17 17v19c0 2.8 2.2 5 5 5s5-2.2 5-5v-19c0-3.9 3.1-7 7-7h20c3.9 0 7 3.1 7 7v13.3c-5.5-1-11.2-1.5-17-1.5-3.3 0-6.5.2-9.8.5-2.7.3-4.7 2.7-4.5 5.5.3 2.7 2.7 4.7 5.5 4.5 2.9-.3 5.8-.4 8.7-.4 46.5 0 84.2 37.8 84.2 84.2 0 46.5-37.8 84.2-84.2 84.2s-84.2-37.8-84.2-84.2c0-17.3 5.2-33.9 15-48 9.6-13.8 22.9-24.4 38.5-30.5 2.6-1 3.8-3.9 2.8-6.5s-3.9-3.8-6.5-2.8c-17.5 6.8-32.4 18.6-43.1 34.1-11 15.8-16.8 34.4-16.8 53.7 0 52 42.3 94.2 94.2 94.2 52 0 94.2-42.3 94.2-94.2.3-42.7-28.1-78.8-67-90.4z" fill="rgba(211, 175, 175, 1)" stroke="none"/>
  <path d="M269.9 205c2.5-1.2 3.6-4.1 2.4-6.6-8.4-17.9-22.5-33.1-39.7-42.7-2.4-1.3-5.5-.5-6.8 1.9-1.3 2.4-.5 5.5 1.9 6.8 15.4 8.6 28 22.1 35.5 38.2.8 1.8 2.7 2.9 4.5 2.9.8-.1 1.5-.2 2.2-.5z" fill="rgba(211, 175, 175, 1)" stroke="none"/>
  <circle cx="217.2" cy="154.6" r="5.9" fill="rgba(211, 175, 175, 1)" stroke="none"/>
  <circle cx="176.1" cy="275" r="15" fill="rgba(211, 175, 175, 1)" stroke="none"/>
  <circle cx="213.4" cy="262.7" r="5.3" fill="rgba(211, 175, 175, 1)" stroke="none"/>
  <circle cx="202.1" cy="211" r="16" fill="rgba(211, 175, 175, 1)" stroke="none"/>
  <circle cx="258.4" cy="244.6" r="9.4" fill="rgba(211, 175, 175, 1)" stroke="none"/>
  <circle cx="157" cy="197.5" r="10.9" fill="rgba(211, 175, 175, 1)" stroke="none"/>
  <path d="M184.4 101.3c2.8 0 5-2.2 5-5 0-5.5 4.5-10 10-10s10 4.5 10 10c0 2.8 2.2 5 5 5s5-2.2 5-5c0-11-9-20-20-20s-20 9-20 20c0 2.8 2.3 5 5 5z" fill="rgba(211, 175, 175, 1)" stroke="none"/>
</svg>
</g></svg></g></g>
<!-- /image 65242 -->

<!-- image 48377 -->
<g id="transformed-48377" data-image="48377" transform="translate(2.5, 78.5) rotate(37, 11.5, 16.5)"><g><svg version="1.1" width="23px" height="33px" viewBox="0 0 23 33"><g id="original-48377"><svg xmlns="http://www.w3.org/2000/svg" viewBox="0 0 595.28 841.89" xmlns:xlink="http://www.w3.org/1999/xlink" version="1.1" preserveAspectRatio="xMidYMid meet">
  <path d="M553.845 336.415s0-.658-.658-.658c-87.485-122.347-224.96-97.351-226.276-96.694-1.316 0-1.973.658-2.631 1.316-4.604-1.973-9.867-3.947-14.471-4.604 1.316-23.022 7.236-78.276 42.098-90.773 5.92-1.973 8.551-8.551 6.578-14.471-1.973-5.92-8.551-8.551-14.471-6.578-48.676 17.102-55.911 85.511-57.227 111.822-28.284 5.262-49.991 30.258-49.991 59.858v3.289L45.382 427.847c-1.316.658-1.973 1.316-2.631 2.631-1.316 1.973-1.316 2.631-1.973 3.947V437.056l-.658 270.347c0 3.289 1.316 6.578 3.947 8.551 1.973 1.973 4.604 2.631 7.236 2.631h1.973l492.676-91.431c5.262-.658 9.209-5.92 9.209-11.182V342.336 340.362v-.658c-.001-1.315-.658-1.973-1.316-3.289zm-256.534-80.249c21.707 0 38.809 17.76 38.809 38.809 0 21.707-17.76 38.809-38.809 38.809-21.707 0-38.809-17.76-38.809-38.809 0-21.048 17.76-38.809 38.809-38.809zm-55.253 65.778c9.867 20.391 30.916 34.862 55.253 34.862 33.547 0 61.173-27.627 61.173-61.173a61.069 61.069 0 0 0-11.84-36.178c34.204-2.631 115.111 1.316 176.943 75.645l-420.979 80.907 139.45-94.063zm290.08 284.161L62.484 693.589V573.874l469.654-83.538v115.769zm0-138.134L62.484 551.509V445.607l469.654-90.116v112.48z" fill="rgba(116, 52, 52, 1)" stroke="none"/>
</svg>
</g></svg></g></g>
<!-- /image 48377 -->
</defs><rect x="0" y="0" width="250" height="250" fill="rgba(255, 255, 255, 1)"></rect><use xlink:href="#transformed-50921" transform="translate(-250, -250)"></use><use xlink:href="#transformed-50921" transform="translate(0, -250)"></use><use xlink:href="#transformed-50921" transform="translate(250, -250)"></use><use xlink:href="#transformed-50921" transform="translate(-250, 0)"></use><use xlink:href="#transformed-50921" transform="translate(0, 0)"></use><use xlink:href="#transformed-50921" transform="translate(250, 0)"></use><use xlink:href="#transformed-50921" transform="translate(-250, 250)"></use><use xlink:href="#transformed-50921" transform="translate(0, 250)"></use><use xlink:href="#transformed-50921" transform="translate(250, 250)"></use><use xlink:href="#transformed-58895" transform="translate(-250, -250)"></use><use xlink:href="#transformed-58895" transform="translate(0, -250)"></use><use xlink:href="#transformed-58895" transform="translate(250, -250)"></use><use xlink:href="#transformed-58895" transform="translate(-250, 0)"></use><use xlink:href="#transformed-58895" transform="translate(0, 0)"></use><use xlink:href="#transformed-58895" transform="translate(250, 0)"></use><use xlink:href="#transformed-58895" transform="translate(-250, 250)"></use><use xlink:href="#transformed-58895" transform="translate(0, 250)"></use><use xlink:href="#transformed-58895" transform="translate(250, 250)"></use><use xlink:href="#transformed-11216" transform="translate(-250, -250)"></use><use xlink:href="#transformed-11216" transform="translate(0, -250)"></use><use xlink:href="#transformed-11216" transform="translate(250, -250)"></use><use xlink:href="#transformed-11216" transform="translate(-250, 0)"></use><use xlink:href="#transformed-11216" transform="translate(0, 0)"></use><use xlink:href="#transformed-11216" transform="translate(250, 0)"></use><use xlink:href="#transformed-11216" transform="translate(-250, 250)"></use><use xlink:href="#transformed-11216" transform="translate(0, 250)"></use><use xlink:href="#transformed-11216" transform="translate(250, 250)"></use><use xlink:href="#transformed-88498" transform="translate(-250, -250)"></use><use xlink:href="#transformed-88498" transform="translate(0, -250)"></use><use xlink:href="#transformed-88498" transform="translate(250, -250)"></use><use xlink:href="#transformed-88498" transform="translate(-250, 0)"></use><use xlink:href="#transformed-88498" transform="translate(0, 0)"></use><use xlink:href="#transformed-88498" transform="translate(250, 0)"></use><use xlink:href="#transformed-88498" transform="translate(-250, 250)"></use><use xlink:href="#transformed-88498" transform="translate(0, 250)"></use><use xlink:href="#transformed-88498" transform="translate(250, 250)"></use><use xlink:href="#transformed-28765" transform="translate(-250, -250)"></use><use xlink:href="#transformed-28765" transform="translate(0, -250)"></use><use xlink:href="#transformed-28765" transform="translate(250, -250)"></use><use xlink:href="#transformed-28765" transform="translate(-250, 0)"></use><use xlink:href="#transformed-28765" transform="translate(0, 0)"></use><use xlink:href="#transformed-28765" transform="translate(250, 0)"></use><use xlink:href="#transformed-28765" transform="translate(-250, 250)"></use><use xlink:href="#transformed-28765" transform="translate(0, 250)"></use><use xlink:href="#transformed-28765" transform="translate(250, 250)"></use><use xlink:href="#transformed-85168" transform="translate(-250, -250)"></use><use xlink:href="#transformed-85168" transform="translate(0, -250)"></use><use xlink:href="#transformed-85168" transform="translate(250, -250)"></use><use xlink:href="#transformed-85168" transform="translate(-250, 0)"></use><use xlink:href="#transformed-85168" transform="translate(0, 0)"></use><use xlink:href="#transformed-85168" transform="translate(250, 0)"></use><use xlink:href="#transformed-85168" transform="translate(-250, 250)"></use><use xlink:href="#transformed-85168" transform="translate(0, 250)"></use><use xlink:href="#transformed-85168" transform="translate(250, 250)"></use><use xlink:href="#transformed-03053" transform="translate(-250, -250)"></use><use xlink:href="#transformed-03053" transform="translate(0, -250)"></use><use xlink:href="#transformed-03053" transform="translate(250, -250)"></use><use xlink:href="#transformed-03053" transform="translate(-250, 0)"></use><use xlink:href="#transformed-03053" transform="translate(0, 0)"></use><use xlink:href="#transformed-03053" transform="translate(250, 0)"></use><use xlink:href="#transformed-03053" transform="translate(-250, 250)"></use><use xlink:href="#transformed-03053" transform="translate(0, 250)"></use><use xlink:href="#transformed-03053" transform="translate(250, 250)"></use><use xlink:href="#transformed-56792" transform="translate(-250, -250)"></use><use xlink:href="#transformed-56792" transform="translate(0, -250)"></use><use xlink:href="#transformed-56792" transform="translate(250, -250)"></use><use xlink:href="#transformed-56792" transform="translate(-250, 0)"></use><use xlink:href="#transformed-56792" transform="translate(0, 0)"></use><use xlink:href="#transformed-56792" transform="translate(250, 0)"></use><use xlink:href="#transformed-56792" transform="translate(-250, 250)"></use><use xlink:href="#transformed-56792" transform="translate(0, 250)"></use><use xlink:href="#transformed-56792" transform="translate(250, 250)"></use><use xlink:href="#transformed-66052" transform="translate(-250, -250)"></use><use xlink:href="#transformed-66052" transform="translate(0, -250)"></use><use xlink:href="#transformed-66052" transform="translate(250, -250)"></use><use xlink:href="#transformed-66052" transform="translate(-250, 0)"></use><use xlink:href="#transformed-66052" transform="translate(0, 0)"></use><use xlink:href="#transformed-66052" transform="translate(250, 0)"></use><use xlink:href="#transformed-66052" transform="translate(-250, 250)"></use><use xlink:href="#transformed-66052" transform="translate(0, 250)"></use><use xlink:href="#transformed-66052" transform="translate(250, 250)"></use><use xlink:href="#transformed-52194" transform="translate(-250, -250)"></use><use xlink:href="#transformed-52194" transform="translate(0, -250)"></use><use xlink:href="#transformed-52194" transform="translate(250, -250)"></use><use xlink:href="#transformed-52194" transform="translate(-250, 0)"></use><use xlink:href="#transformed-52194" transform="translate(0, 0)"></use><use xlink:href="#transformed-52194" transform="translate(250, 0)"></use><use xlink:href="#transformed-52194" transform="translate(-250, 250)"></use><use xlink:href="#transformed-52194" transform="translate(0, 250)"></use><use xlink:href="#transformed-52194" transform="translate(250, 250)"></use><use xlink:href="#transformed-63877" transform="translate(-250, -250)"></use><use xlink:href="#transformed-63877" transform="translate(0, -250)"></use><use xlink:href="#transformed-63877" transform="translate(250, -250)"></use><use xlink:href="#transformed-63877" transform="translate(-250, 0)"></use><use xlink:href="#transformed-63877" transform="translate(0, 0)"></use><use xlink:href="#transformed-63877" transform="translate(250, 0)"></use><use xlink:href="#transformed-63877" transform="translate(-250, 250)"></use><use xlink:href="#transformed-63877" transform="translate(0, 250)"></use><use xlink:href="#transformed-63877" transform="translate(250, 250)"></use><use xlink:href="#transformed-76941" transform="translate(-250, -250)"></use><use xlink:href="#transformed-76941" transform="translate(0, -250)"></use><use xlink:href="#transformed-76941" transform="translate(250, -250)"></use><use xlink:href="#transformed-76941" transform="translate(-250, 0)"></use><use xlink:href="#transformed-76941" transform="translate(0, 0)"></use><use xlink:href="#transformed-76941" transform="translate(250, 0)"></use><use xlink:href="#transformed-76941" transform="translate(-250, 250)"></use><use xlink:href="#transformed-76941" transform="translate(0, 250)"></use><use xlink:href="#transformed-76941" transform="translate(250, 250)"></use><use xlink:href="#transformed-26537" transform="translate(-250, -250)"></use><use xlink:href="#transformed-26537" transform="translate(0, -250)"></use><use xlink:href="#transformed-26537" transform="translate(250, -250)"></use><use xlink:href="#transformed-26537" transform="translate(-250, 0)"></use><use xlink:href="#transformed-26537" transform="translate(0, 0)"></use><use xlink:href="#transformed-26537" transform="translate(250, 0)"></use><use xlink:href="#transformed-26537" transform="translate(-250, 250)"></use><use xlink:href="#transformed-26537" transform="translate(0, 250)"></use><use xlink:href="#transformed-26537" transform="translate(250, 250)"></use><use xlink:href="#transformed-88688" transform="translate(-250, -250)"></use><use xlink:href="#transformed-88688" transform="translate(0, -250)"></use><use xlink:href="#transformed-88688" transform="translate(250, -250)"></use><use xlink:href="#transformed-88688" transform="translate(-250, 0)"></use><use xlink:href="#transformed-88688" transform="translate(0, 0)"></use><use xlink:href="#transformed-88688" transform="translate(250, 0)"></use><use xlink:href="#transformed-88688" transform="translate(-250, 250)"></use><use xlink:href="#transformed-88688" transform="translate(0, 250)"></use><use xlink:href="#transformed-88688" transform="translate(250, 250)"></use><use xlink:href="#transformed-88569" transform="translate(-250, -250)"></use><use xlink:href="#transformed-88569" transform="translate(0, -250)"></use><use xlink:href="#transformed-88569" transform="translate(250, -250)"></use><use xlink:href="#transformed-88569" transform="translate(-250, 0)"></use><use xlink:href="#transformed-88569" transform="translate(0, 0)"></use><use xlink:href="#transformed-88569" transform="translate(250, 0)"></use><use xlink:href="#transformed-88569" transform="translate(-250, 250)"></use><use xlink:href="#transformed-88569" transform="translate(0, 250)"></use><use xlink:href="#transformed-88569" transform="translate(250, 250)"></use><use xlink:href="#transformed-44102" transform="translate(-250, -250)"></use><use xlink:href="#transformed-44102" transform="translate(0, -250)"></use><use xlink:href="#transformed-44102" transform="translate(250, -250)"></use><use xlink:href="#transformed-44102" transform="translate(-250, 0)"></use><use xlink:href="#transformed-44102" transform="translate(0, 0)"></use><use xlink:href="#transformed-44102" transform="translate(250, 0)"></use><use xlink:href="#transformed-44102" transform="translate(-250, 250)"></use><use xlink:href="#transformed-44102" transform="translate(0, 250)"></use><use xlink:href="#transformed-44102" transform="translate(250, 250)"></use><use xlink:href="#transformed-83820" transform="translate(-250, -250)"></use><use xlink:href="#transformed-83820" transform="translate(0, -250)"></use><use xlink:href="#transformed-83820" transform="translate(250, -250)"></use><use xlink:href="#transformed-83820" transform="translate(-250, 0)"></use><use xlink:href="#transformed-83820" transform="translate(0, 0)"></use><use xlink:href="#transformed-83820" transform="translate(250, 0)"></use><use xlink:href="#transformed-83820" transform="translate(-250, 250)"></use><use xlink:href="#transformed-83820" transform="translate(0, 250)"></use><use xlink:href="#transformed-83820" transform="translate(250, 250)"></use><use xlink:href="#transformed-27175" transform="translate(-250, -250)"></use><use xlink:href="#transformed-27175" transform="translate(0, -250)"></use><use xlink:href="#transformed-27175" transform="translate(250, -250)"></use><use xlink:href="#transformed-27175" transform="translate(-250, 0)"></use><use xlink:href="#transformed-27175" transform="translate(0, 0)"></use><use xlink:href="#transformed-27175" transform="translate(250, 0)"></use><use xlink:href="#transformed-27175" transform="translate(-250, 250)"></use><use xlink:href="#transformed-27175" transform="translate(0, 250)"></use><use xlink:href="#transformed-27175" transform="translate(250, 250)"></use><use xlink:href="#transformed-88667" transform="translate(-250, -250)"></use><use xlink:href="#transformed-88667" transform="translate(0, -250)"></use><use xlink:href="#transformed-88667" transform="translate(250, -250)"></use><use xlink:href="#transformed-88667" transform="translate(-250, 0)"></use><use xlink:href="#transformed-88667" transform="translate(0, 0)"></use><use xlink:href="#transformed-88667" transform="translate(250, 0)"></use><use xlink:href="#transformed-88667" transform="translate(-250, 250)"></use><use xlink:href="#transformed-88667" transform="translate(0, 250)"></use><use xlink:href="#transformed-88667" transform="translate(250, 250)"></use><use xlink:href="#transformed-47548" transform="translate(-250, -250)"></use><use xlink:href="#transformed-47548" transform="translate(0, -250)"></use><use xlink:href="#transformed-47548" transform="translate(250, -250)"></use><use xlink:href="#transformed-47548" transform="translate(-250, 0)"></use><use xlink:href="#transformed-47548" transform="translate(0, 0)"></use><use xlink:href="#transformed-47548" transform="translate(250, 0)"></use><use xlink:href="#transformed-47548" transform="translate(-250, 250)"></use><use xlink:href="#transformed-47548" transform="translate(0, 250)"></use><use xlink:href="#transformed-47548" transform="translate(250, 250)"></use><use xlink:href="#transformed-55691" transform="translate(-250, -250)"></use><use xlink:href="#transformed-55691" transform="translate(0, -250)"></use><use xlink:href="#transformed-55691" transform="translate(250, -250)"></use><use xlink:href="#transformed-55691" transform="translate(-250, 0)"></use><use xlink:href="#transformed-55691" transform="translate(0, 0)"></use><use xlink:href="#transformed-55691" transform="translate(250, 0)"></use><use xlink:href="#transformed-55691" transform="translate(-250, 250)"></use><use xlink:href="#transformed-55691" transform="translate(0, 250)"></use><use xlink:href="#transformed-55691" transform="translate(250, 250)"></use><use xlink:href="#transformed-34637" transform="translate(-250, -250)"></use><use xlink:href="#transformed-34637" transform="translate(0, -250)"></use><use xlink:href="#transformed-34637" transform="translate(250, -250)"></use><use xlink:href="#transformed-34637" transform="translate(-250, 0)"></use><use xlink:href="#transformed-34637" transform="translate(0, 0)"></use><use xlink:href="#transformed-34637" transform="translate(250, 0)"></use><use xlink:href="#transformed-34637" transform="translate(-250, 250)"></use><use xlink:href="#transformed-34637" transform="translate(0, 250)"></use><use xlink:href="#transformed-34637" transform="translate(250, 250)"></use><use xlink:href="#transformed-33905" transform="translate(-250, -250)"></use><use xlink:href="#transformed-33905" transform="translate(0, -250)"></use><use xlink:href="#transformed-33905" transform="translate(250, -250)"></use><use xlink:href="#transformed-33905" transform="translate(-250, 0)"></use><use xlink:href="#transformed-33905" transform="translate(0, 0)"></use><use xlink:href="#transformed-33905" transform="translate(250, 0)"></use><use xlink:href="#transformed-33905" transform="translate(-250, 250)"></use><use xlink:href="#transformed-33905" transform="translate(0, 250)"></use><use xlink:href="#transformed-33905" transform="translate(250, 250)"></use><use xlink:href="#transformed-15439" transform="translate(-250, -250)"></use><use xlink:href="#transformed-15439" transform="translate(0, -250)"></use><use xlink:href="#transformed-15439" transform="translate(250, -250)"></use><use xlink:href="#transformed-15439" transform="translate(-250, 0)"></use><use xlink:href="#transformed-15439" transform="translate(0, 0)"></use><use xlink:href="#transformed-15439" transform="translate(250, 0)"></use><use xlink:href="#transformed-15439" transform="translate(-250, 250)"></use><use xlink:href="#transformed-15439" transform="translate(0, 250)"></use><use xlink:href="#transformed-15439" transform="translate(250, 250)"></use><use xlink:href="#transformed-65242" transform="translate(-250, -250)"></use><use xlink:href="#transformed-65242" transform="translate(0, -250)"></use><use xlink:href="#transformed-65242" transform="translate(250, -250)"></use><use xlink:href="#transformed-65242" transform="translate(-250, 0)"></use><use xlink:href="#transformed-65242" transform="translate(0, 0)"></use><use xlink:href="#transformed-65242" transform="translate(250, 0)"></use><use xlink:href="#transformed-65242" transform="translate(-250, 250)"></use><use xlink:href="#transformed-65242" transform="translate(0, 250)"></use><use xlink:href="#transformed-65242" transform="translate(250, 250)"></use><use xlink:href="#transformed-48377" transform="translate(-250, -250)"></use><use xlink:href="#transformed-48377" transform="translate(0, -250)"></use><use xlink:href="#transformed-48377" transform="translate(250, -250)"></use><use xlink:href="#transformed-48377" transform="translate(-250, 0)"></use><use xlink:href="#transformed-48377" transform="translate(0, 0)"></use><use xlink:href="#transformed-48377" transform="translate(250, 0)"></use><use xlink:href="#transformed-48377" transform="translate(-250, 250)"></use><use xlink:href="#transformed-48377" transform="translate(0, 250)"></use><use xlink:href="#transformed-48377" transform="translate(250, 250)"></use></svg>