<svg version="1.1"
      xmlns="http://www.w3.org/2000/svg"
      xmlns:xlink="http://www.w3.org/1999/xlink"  id="snapshot-55752" width="400" height="350" viewBox="0 0 400 350"><desc>This image was made on Patterninja.com</desc><defs>
<!-- image 84915 -->
<g id="transformed-84915" data-image="84915" transform="translate(140.99406763172786, 262.2740676317279) rotate(6, 21.63593236827214, 21.635932368272133)"><g><svg version="1.1" width="43.27186473654428px" height="43.271864736544266px" viewBox="0 0 43.27186473654428 43.271864736544266"><g id="original-84915"><svg xmlns="http://www.w3.org/2000/svg" viewBox="0 0 64 64" xmlns:xlink="http://www.w3.org/1999/xlink" version="1.1" preserveAspectRatio="xMidYMid meet">
  <g data-name="Layer 68">
    <path d="M32.87 36.78l-.86.86c-4.19-5.64-12.34.54-7.61 5.87l7.6 7.61c.47-.47 7.42-7.41 7.59-7.61 4.34-4.51-2.16-11.06-6.72-6.73z" fill="rgba(66, 49, 4, 1)" stroke="none"/>
    <path d="M51 22h-2V4a1 1 0 0 0-1-1H17a1 1 0 0 0-1 1v18c-.81.14-3.06-.47-3 1v37a1 1 0 0 0 1 1h37a1 1 0 0 0 1-1V23a1 1 0 0 0-1-1zm-18 0v-7h6v7zm-7 0v-7h5v7zm15-7h6v7h-6zm6-10v8h-6V5zm-8 0v8h-6V5zm-8 8h-5V5h5zm-7-8v8h-6V5zm-6 10h6v7h-6zm32 44H15V24h35z" fill="rgba(66, 49, 4, 1)" stroke="none"/>
  </g>
</svg>
</g></svg></g></g>
<!-- /image 84915 -->

<!-- image 72311 -->
<g id="transformed-72311" data-image="72311" transform="translate(365.5118313665874, 311.66411415813604) rotate(12, 14.258168633412568, 12.665885841863954)"><g><svg version="1.1" width="28.516337266825136px" height="25.331771683727908px" viewBox="0 0 28.516337266825136 25.331771683727908"><g id="original-72311"><svg xmlns="http://www.w3.org/2000/svg" viewBox="0 0 72 64" xmlns:xlink="http://www.w3.org/1999/xlink" version="1.1" preserveAspectRatio="xMidYMid meet">
  <path fill-rule="evenodd" d="M36 64C29.7 64 0 42.055 0 20.112 0 13.812.67-.002 18.9-.002c7.482 0 14.106 5.712 17.1 11.886C38.994 5.71 45.618-.002 53.1-.002 71.33-.002 72 13.811 72 20.112 72 42.057 42.3 64 36 64z" fill="rgba(155, 39, 18, 0.6046511627906976)" stroke="none"/>
  <path fill-rule="evenodd" d="M36 11.884C38.994 5.71 45.618-.002 53.1-.002 71.33-.002 72 13.811 72 20.112 72 42.057 42.3 64 36 64V11.884z" fill="rgba(155, 39, 18, 0.08139534883720931)" stroke="none"/>
</svg>
</g></svg></g></g>
<!-- /image 72311 -->

<!-- image 86919 -->
<g id="transformed-86919" data-image="86919" transform="translate(29.054365916969505, 2.423838343883915) rotate(17, 19.305634083030494, 27.356161656116086)"><g><svg version="1.1" width="38.61126816606099px" height="54.71232331223217px" viewBox="0 0 38.61126816606099 54.71232331223217"><g id="original-86919"><svg xmlns="http://www.w3.org/2000/svg" viewBox="0 0 595.28 841.89" xmlns:xlink="http://www.w3.org/1999/xlink" version="1.1" preserveAspectRatio="xMidYMid meet">
  <path d="M553.845 336.415s0-.658-.658-.658c-87.485-122.347-224.96-97.351-226.276-96.694-1.316 0-1.973.658-2.631 1.316-4.604-1.973-9.867-3.947-14.471-4.604 1.316-23.022 7.236-78.276 42.098-90.773 5.92-1.973 8.551-8.551 6.578-14.471-1.973-5.92-8.551-8.551-14.471-6.578-48.676 17.102-55.911 85.511-57.227 111.822-28.284 5.262-49.991 30.258-49.991 59.858v3.289L45.382 427.847c-1.316.658-1.973 1.316-2.631 2.631-1.316 1.973-1.316 2.631-1.973 3.947V437.056l-.658 270.347c0 3.289 1.316 6.578 3.947 8.551 1.973 1.973 4.604 2.631 7.236 2.631h1.973l492.676-91.431c5.262-.658 9.209-5.92 9.209-11.182V342.336 340.362v-.658c-.001-1.315-.658-1.973-1.316-3.289zm-256.534-80.249c21.707 0 38.809 17.76 38.809 38.809 0 21.707-17.76 38.809-38.809 38.809-21.707 0-38.809-17.76-38.809-38.809 0-21.048 17.76-38.809 38.809-38.809zm-55.253 65.778c9.867 20.391 30.916 34.862 55.253 34.862 33.547 0 61.173-27.627 61.173-61.173a61.069 61.069 0 0 0-11.84-36.178c34.204-2.631 115.111 1.316 176.943 75.645l-420.979 80.907 139.45-94.063zm290.08 284.161L62.484 693.589V573.874l469.654-83.538v115.769zm0-138.134L62.484 551.509V445.607l469.654-90.116v112.48z" fill="rgba(206, 58, 0, 1)" stroke="none"/>
</svg>
</g></svg></g></g>
<!-- /image 86919 -->

<!-- image 36091 -->
<g id="transformed-36091" data-image="36091" transform="translate(120.4543659169695, 301.3538383438839) rotate(17, 19.305634083030494, 27.356161656116086)"><g><svg version="1.1" width="38.61126816606099px" height="54.71232331223217px" viewBox="0 0 38.61126816606099 54.71232331223217"><g id="original-36091"><svg xmlns="http://www.w3.org/2000/svg" viewBox="0 0 595.28 841.89" xmlns:xlink="http://www.w3.org/1999/xlink" version="1.1" preserveAspectRatio="xMidYMid meet">
  <path d="M553.845 336.415s0-.658-.658-.658c-87.485-122.347-224.96-97.351-226.276-96.694-1.316 0-1.973.658-2.631 1.316-4.604-1.973-9.867-3.947-14.471-4.604 1.316-23.022 7.236-78.276 42.098-90.773 5.92-1.973 8.551-8.551 6.578-14.471-1.973-5.92-8.551-8.551-14.471-6.578-48.676 17.102-55.911 85.511-57.227 111.822-28.284 5.262-49.991 30.258-49.991 59.858v3.289L45.382 427.847c-1.316.658-1.973 1.316-2.631 2.631-1.316 1.973-1.316 2.631-1.973 3.947V437.056l-.658 270.347c0 3.289 1.316 6.578 3.947 8.551 1.973 1.973 4.604 2.631 7.236 2.631h1.973l492.676-91.431c5.262-.658 9.209-5.92 9.209-11.182V342.336 340.362v-.658c-.001-1.315-.658-1.973-1.316-3.289zm-256.534-80.249c21.707 0 38.809 17.76 38.809 38.809 0 21.707-17.76 38.809-38.809 38.809-21.707 0-38.809-17.76-38.809-38.809 0-21.048 17.76-38.809 38.809-38.809zm-55.253 65.778c9.867 20.391 30.916 34.862 55.253 34.862 33.547 0 61.173-27.627 61.173-61.173a61.069 61.069 0 0 0-11.84-36.178c34.204-2.631 115.111 1.316 176.943 75.645l-420.979 80.907 139.45-94.063zm290.08 284.161L62.484 693.589V573.874l469.654-83.538v115.769zm0-138.134L62.484 551.509V445.607l469.654-90.116v112.48z" fill="rgba(206, 58, 0, 1)" stroke="none"/>
</svg>
</g></svg></g></g>
<!-- /image 36091 -->

<!-- image 85394 -->
<g id="transformed-85394" data-image="85394" transform="translate(351.41406763172785, 117.85406763172787) rotate(6, 21.63593236827214, 21.635932368272133)"><g><svg version="1.1" width="43.27186473654428px" height="43.271864736544266px" viewBox="0 0 43.27186473654428 43.271864736544266"><g id="original-85394"><svg xmlns="http://www.w3.org/2000/svg" viewBox="0 0 64 64" xmlns:xlink="http://www.w3.org/1999/xlink" version="1.1" preserveAspectRatio="xMidYMid meet">
  <g data-name="Layer 68">
    <path d="M32.87 36.78l-.86.86c-4.19-5.64-12.34.54-7.61 5.87l7.6 7.61c.47-.47 7.42-7.41 7.59-7.61 4.34-4.51-2.16-11.06-6.72-6.73z" fill="rgba(66, 49, 4, 1)" stroke="none"/>
    <path d="M51 22h-2V4a1 1 0 0 0-1-1H17a1 1 0 0 0-1 1v18c-.81.14-3.06-.47-3 1v37a1 1 0 0 0 1 1h37a1 1 0 0 0 1-1V23a1 1 0 0 0-1-1zm-18 0v-7h6v7zm-7 0v-7h5v7zm15-7h6v7h-6zm6-10v8h-6V5zm-8 0v8h-6V5zm-8 8h-5V5h5zm-7-8v8h-6V5zm-6 10h6v7h-6zm32 44H15V24h35z" fill="rgba(66, 49, 4, 1)" stroke="none"/>
  </g>
</svg>
</g></svg></g></g>
<!-- /image 85394 -->

<!-- image 06410 -->
<g id="transformed-06410" data-image="06410" transform="translate(111.85858216617822, 13.678582166178238) rotate(329, 19.021417833821765, 19.021417833821765)"><g><svg version="1.1" width="38.04283566764353px" height="38.04283566764353px" viewBox="0 0 38.04283566764353 38.04283566764353"><g id="original-06410"><svg xmlns="http://www.w3.org/2000/svg" id="Icons" viewBox="0 0 32 32" xmlns:xlink="http://www.w3.org/1999/xlink" version="1.1" preserveAspectRatio="xMidYMid meet">
  <path d="M22.6 14c-2.5-1.1-3.2-4.9-3.2-4.9s3.3-1.9 5.8-.8 3.2 4.9 3.2 4.9-3.3 1.9-5.8.8z" fill="rgba(147, 16, 16, 0.6627906976744186)" stroke="none"/>
  <path d="M8 21c0-9.4 7.6-17 17-17" fill="rgba(147, 16, 16, 0.6627906976744186)" stroke="none"/>
  <path d="M20.5 23.5c-4.6-4.6-6-11.1-4.3-16.9" fill="rgba(147, 16, 16, 0.6627906976744186)" stroke="none"/>
  <path d="M13 22c0 2.8-2.2 5-5 5s-5-2.2-5-5 2.2-4 5-4 5 1.2 5 4z" fill="rgba(147, 16, 16, 0.6627906976744186)" stroke="none"/>
  <path d="M25 21.4c1.5 2.3.8 5.4-1.5 6.8-2.3 1.4-5.3.7-6.8-1.6s-.3-4.5 2-5.9c2.3-1.5 4.8-1.6 6.3.7z" fill="rgba(147, 16, 16, 0.6627906976744186)" stroke="none"/>
</svg>
</g></svg></g></g>
<!-- /image 06410 -->

<!-- image 07142 -->
<g id="transformed-07142" data-image="07142" transform="translate(357.0438469863375, 212.2409167822596) rotate(318, 18.37615301366252, 26.039083217740412)"><g><svg version="1.1" width="36.75230602732504px" height="52.078166435480824px" viewBox="0 0 36.75230602732504 52.078166435480824"><g id="original-07142"><svg xmlns="http://www.w3.org/2000/svg" viewBox="0 0 595.28 841.89" xmlns:xlink="http://www.w3.org/1999/xlink" version="1.1" preserveAspectRatio="xMidYMid meet">
  <path d="M553.845 336.415s0-.658-.658-.658c-87.485-122.347-224.96-97.351-226.276-96.694-1.316 0-1.973.658-2.631 1.316-4.604-1.973-9.867-3.947-14.471-4.604 1.316-23.022 7.236-78.276 42.098-90.773 5.92-1.973 8.551-8.551 6.578-14.471-1.973-5.92-8.551-8.551-14.471-6.578-48.676 17.102-55.911 85.511-57.227 111.822-28.284 5.262-49.991 30.258-49.991 59.858v3.289L45.382 427.847c-1.316.658-1.973 1.316-2.631 2.631-1.316 1.973-1.316 2.631-1.973 3.947V437.056l-.658 270.347c0 3.289 1.316 6.578 3.947 8.551 1.973 1.973 4.604 2.631 7.236 2.631h1.973l492.676-91.431c5.262-.658 9.209-5.92 9.209-11.182V342.336 340.362v-.658c-.001-1.315-.658-1.973-1.316-3.289zm-256.534-80.249c21.707 0 38.809 17.76 38.809 38.809 0 21.707-17.76 38.809-38.809 38.809-21.707 0-38.809-17.76-38.809-38.809 0-21.048 17.76-38.809 38.809-38.809zm-55.253 65.778c9.867 20.391 30.916 34.862 55.253 34.862 33.547 0 61.173-27.627 61.173-61.173a61.069 61.069 0 0 0-11.84-36.178c34.204-2.631 115.111 1.316 176.943 75.645l-420.979 80.907 139.45-94.063zm290.08 284.161L62.484 693.589V573.874l469.654-83.538v115.769zm0-138.134L62.484 551.509V445.607l469.654-90.116v112.48z" fill="rgba(206, 58, 0, 1)" stroke="none"/>
</svg>
</g></svg></g></g>
<!-- /image 07142 -->

<!-- image 05741 -->
<g id="transformed-05741" data-image="05741" transform="translate(201.9743659169695, 182.8738383438839) rotate(17, 19.305634083030494, 27.356161656116086)"><g><svg version="1.1" width="38.61126816606099px" height="54.71232331223217px" viewBox="0 0 38.61126816606099 54.71232331223217"><g id="original-05741"><svg xmlns="http://www.w3.org/2000/svg" viewBox="0 0 595.28 841.89" xmlns:xlink="http://www.w3.org/1999/xlink" version="1.1" preserveAspectRatio="xMidYMid meet">
  <path d="M553.845 336.415s0-.658-.658-.658c-87.485-122.347-224.96-97.351-226.276-96.694-1.316 0-1.973.658-2.631 1.316-4.604-1.973-9.867-3.947-14.471-4.604 1.316-23.022 7.236-78.276 42.098-90.773 5.92-1.973 8.551-8.551 6.578-14.471-1.973-5.92-8.551-8.551-14.471-6.578-48.676 17.102-55.911 85.511-57.227 111.822-28.284 5.262-49.991 30.258-49.991 59.858v3.289L45.382 427.847c-1.316.658-1.973 1.316-2.631 2.631-1.316 1.973-1.316 2.631-1.973 3.947V437.056l-.658 270.347c0 3.289 1.316 6.578 3.947 8.551 1.973 1.973 4.604 2.631 7.236 2.631h1.973l492.676-91.431c5.262-.658 9.209-5.92 9.209-11.182V342.336 340.362v-.658c-.001-1.315-.658-1.973-1.316-3.289zm-256.534-80.249c21.707 0 38.809 17.76 38.809 38.809 0 21.707-17.76 38.809-38.809 38.809-21.707 0-38.809-17.76-38.809-38.809 0-21.048 17.76-38.809 38.809-38.809zm-55.253 65.778c9.867 20.391 30.916 34.862 55.253 34.862 33.547 0 61.173-27.627 61.173-61.173a61.069 61.069 0 0 0-11.84-36.178c34.204-2.631 115.111 1.316 176.943 75.645l-420.979 80.907 139.45-94.063zm290.08 284.161L62.484 693.589V573.874l469.654-83.538v115.769zm0-138.134L62.484 551.509V445.607l469.654-90.116v112.48z" fill="rgba(206, 58, 0, 1)" stroke="none"/>
</svg>
</g></svg></g></g>
<!-- /image 05741 -->

<!-- image 32811 -->
<g id="transformed-32811" data-image="32811" transform="translate(67.0143659169695, 217.5938383438839) rotate(17, 19.305634083030494, 27.356161656116086)"><g><svg version="1.1" width="38.61126816606099px" height="54.71232331223217px" viewBox="0 0 38.61126816606099 54.71232331223217"><g id="original-32811"><svg xmlns="http://www.w3.org/2000/svg" viewBox="0 0 595.28 841.89" xmlns:xlink="http://www.w3.org/1999/xlink" version="1.1" preserveAspectRatio="xMidYMid meet">
  <path d="M553.845 336.415s0-.658-.658-.658c-87.485-122.347-224.96-97.351-226.276-96.694-1.316 0-1.973.658-2.631 1.316-4.604-1.973-9.867-3.947-14.471-4.604 1.316-23.022 7.236-78.276 42.098-90.773 5.92-1.973 8.551-8.551 6.578-14.471-1.973-5.92-8.551-8.551-14.471-6.578-48.676 17.102-55.911 85.511-57.227 111.822-28.284 5.262-49.991 30.258-49.991 59.858v3.289L45.382 427.847c-1.316.658-1.973 1.316-2.631 2.631-1.316 1.973-1.316 2.631-1.973 3.947V437.056l-.658 270.347c0 3.289 1.316 6.578 3.947 8.551 1.973 1.973 4.604 2.631 7.236 2.631h1.973l492.676-91.431c5.262-.658 9.209-5.92 9.209-11.182V342.336 340.362v-.658c-.001-1.315-.658-1.973-1.316-3.289zm-256.534-80.249c21.707 0 38.809 17.76 38.809 38.809 0 21.707-17.76 38.809-38.809 38.809-21.707 0-38.809-17.76-38.809-38.809 0-21.048 17.76-38.809 38.809-38.809zm-55.253 65.778c9.867 20.391 30.916 34.862 55.253 34.862 33.547 0 61.173-27.627 61.173-61.173a61.069 61.069 0 0 0-11.84-36.178c34.204-2.631 115.111 1.316 176.943 75.645l-420.979 80.907 139.45-94.063zm290.08 284.161L62.484 693.589V573.874l469.654-83.538v115.769zm0-138.134L62.484 551.509V445.607l469.654-90.116v112.48z" fill="rgba(206, 58, 0, 1)" stroke="none"/>
</svg>
</g></svg></g></g>
<!-- /image 32811 -->

<!-- image 19296 -->
<g id="transformed-19296" data-image="19296" transform="translate(258.31875465339385, 62.13875465339389) rotate(20, 19.94124534660611, 19.94124534660611)"><g><svg version="1.1" width="39.88249069321222px" height="39.88249069321222px" viewBox="0 0 39.88249069321222 39.88249069321222"><g id="original-19296"><svg xmlns="http://www.w3.org/2000/svg" viewBox="0 0 60 60" xmlns:xlink="http://www.w3.org/1999/xlink" version="1.1" preserveAspectRatio="xMidYMid meet">
  <path d="M30.559 20.09c-7.546-2.025-15.101.531-16.631 6.838-3.104 12.798 10.79 29.517 17.54 29.65 6.749.135 20.329-22.166 16.543-31.143-1.92-4.553-9.686-7.318-17.452-5.344z" stroke-linecap="round" stroke-width="2" stroke-linejoin="round" fill-rule="evenodd" fill="rgba(255, 255, 255, 0.23837209302325582)" stroke="rgba(35, 8, 59, 1)"/>
  <path d="M29 26h2" stroke-width="2" stroke-linejoin="round" fill-rule="evenodd" fill="rgba(255, 255, 255, 0.23837209302325582)" stroke="rgba(35, 8, 59, 1)"/>
  <path d="M32 29h2" stroke-width="2" stroke-linejoin="round" fill-rule="evenodd" fill="rgba(255, 255, 255, 0.23837209302325582)" stroke="rgba(35, 8, 59, 1)"/>
  <path d="M34 26h2" stroke-width="2" stroke-linejoin="round" fill-rule="evenodd" fill="rgba(255, 255, 255, 0.23837209302325582)" stroke="rgba(35, 8, 59, 1)"/>
  <path d="M36 30h2" stroke-width="2" stroke-linejoin="round" fill-rule="evenodd" fill="rgba(255, 255, 255, 0.23837209302325582)" stroke="rgba(35, 8, 59, 1)"/>
  <path d="M42 26h2" stroke-width="2" stroke-linejoin="round" fill-rule="evenodd" fill="rgba(255, 255, 255, 0.23837209302325582)" stroke="rgba(35, 8, 59, 1)"/>
  <path d="M38 27h2" stroke-width="2" stroke-linejoin="round" fill-rule="evenodd" fill="rgba(255, 255, 255, 0.23837209302325582)" stroke="rgba(35, 8, 59, 1)"/>
  <path d="M40 30h2" stroke-width="2" stroke-linejoin="round" fill-rule="evenodd" fill="rgba(255, 255, 255, 0.23837209302325582)" stroke="rgba(35, 8, 59, 1)"/>
  <path d="M33 32h2" stroke-width="2" stroke-linejoin="round" fill-rule="evenodd" fill="rgba(255, 255, 255, 0.23837209302325582)" stroke="rgba(35, 8, 59, 1)"/>
  <path d="M25.746 18.823l-3.38-6.105s2.695-4.88 5.688-2.84c2.992 2.039 1.638 4.504 1.638 4.504l5.165-8.32-.461 8.32s4.902-6.906 6.665-4.285c1.763 2.621-4.68 8.767-4.68 8.767" stroke-linecap="round" stroke-width="2" stroke-linejoin="round" fill-rule="evenodd" fill="rgba(255, 255, 255, 0.23837209302325582)" stroke="rgba(35, 8, 59, 1)"/>
</svg>
</g></svg></g></g>
<!-- /image 19296 -->

<!-- image 94420 -->
<g id="transformed-94420" data-image="94420" transform="translate(7.121831366587431, 209.18411415813603) rotate(12, 14.258168633412568, 12.665885841863954)"><g><svg version="1.1" width="28.516337266825136px" height="25.331771683727908px" viewBox="0 0 28.516337266825136 25.331771683727908"><g id="original-94420"><svg xmlns="http://www.w3.org/2000/svg" viewBox="0 0 72 64" xmlns:xlink="http://www.w3.org/1999/xlink" version="1.1" preserveAspectRatio="xMidYMid meet">
  <path fill-rule="evenodd" d="M36 64C29.7 64 0 42.055 0 20.112 0 13.812.67-.002 18.9-.002c7.482 0 14.106 5.712 17.1 11.886C38.994 5.71 45.618-.002 53.1-.002 71.33-.002 72 13.811 72 20.112 72 42.057 42.3 64 36 64z" fill="rgba(159, 37, 16, 0.4883720930232558)" stroke="none"/>
  <path fill-rule="evenodd" d="M36 11.884C38.994 5.71 45.618-.002 53.1-.002 71.33-.002 72 13.811 72 20.112 72 42.057 42.3 64 36 64V11.884z" fill="rgba(236, 152, 138, 0.4883720930232558)" stroke="none"/>
</svg>
</g></svg></g></g>
<!-- /image 94420 -->

<!-- image 62784 -->
<g id="transformed-62784" data-image="62784" transform="translate(36.199134972849066, 297.55913497284905) rotate(323, 19.270865027150936, 19.270865027150936)"><g><svg version="1.1" width="38.54173005430187px" height="38.54173005430187px" viewBox="0 0 38.54173005430187 38.54173005430187"><g id="original-62784"><svg xmlns="http://www.w3.org/2000/svg" id="Icons" viewBox="0 0 32 32" xmlns:xlink="http://www.w3.org/1999/xlink" version="1.1" preserveAspectRatio="xMidYMid meet">
  <path d="M22.6 14c-2.5-1.1-3.2-4.9-3.2-4.9s3.3-1.9 5.8-.8 3.2 4.9 3.2 4.9-3.3 1.9-5.8.8z" fill="rgba(147, 16, 16, 0.6627906976744186)" stroke="none"/>
  <path d="M8 21c0-9.4 7.6-17 17-17" fill="rgba(147, 16, 16, 0.6627906976744186)" stroke="none"/>
  <path d="M20.5 23.5c-4.6-4.6-6-11.1-4.3-16.9" fill="rgba(147, 16, 16, 0.6627906976744186)" stroke="none"/>
  <path d="M13 22c0 2.8-2.2 5-5 5s-5-2.2-5-5 2.2-4 5-4 5 1.2 5 4z" fill="rgba(147, 16, 16, 0.6627906976744186)" stroke="none"/>
  <path d="M25 21.4c1.5 2.3.8 5.4-1.5 6.8-2.3 1.4-5.3.7-6.8-1.6s-.3-4.5 2-5.9c2.3-1.5 4.8-1.6 6.3.7z" fill="rgba(147, 16, 16, 0.6627906976744186)" stroke="none"/>
</svg>
</g></svg></g></g>
<!-- /image 62784 -->

<!-- image 05074 -->
<g id="transformed-05074" data-image="05074" transform="translate(289.06547043834723, 128.19547043834723) rotate(326, 21.23452956165277, 21.23452956165277)"><g><svg version="1.1" width="42.46905912330554px" height="42.46905912330554px" viewBox="0 0 42.46905912330554 42.46905912330554"><g id="original-05074"><svg xmlns="http://www.w3.org/2000/svg" viewBox="0 0 60 60" xmlns:xlink="http://www.w3.org/1999/xlink" version="1.1" preserveAspectRatio="xMidYMid meet">
  <path d="M30.559 20.09c-7.546-2.025-15.101.531-16.631 6.838-3.104 12.798 10.79 29.517 17.54 29.65 6.749.135 20.329-22.166 16.543-31.143-1.92-4.553-9.686-7.318-17.452-5.344z" stroke-linecap="round" stroke-width="2" stroke-linejoin="round" fill-rule="evenodd" fill="rgba(255, 255, 255, 0)" stroke="rgba(35, 8, 59, 1)"/>
  <path d="M29 26h2" stroke-width="2" stroke-linejoin="round" fill-rule="evenodd" fill="rgba(255, 255, 255, 0)" stroke="rgba(35, 8, 59, 1)"/>
  <path d="M32 29h2" stroke-width="2" stroke-linejoin="round" fill-rule="evenodd" fill="rgba(255, 255, 255, 0)" stroke="rgba(35, 8, 59, 1)"/>
  <path d="M34 26h2" stroke-width="2" stroke-linejoin="round" fill-rule="evenodd" fill="rgba(255, 255, 255, 0)" stroke="rgba(35, 8, 59, 1)"/>
  <path d="M36 30h2" stroke-width="2" stroke-linejoin="round" fill-rule="evenodd" fill="rgba(255, 255, 255, 0)" stroke="rgba(35, 8, 59, 1)"/>
  <path d="M42 26h2" stroke-width="2" stroke-linejoin="round" fill-rule="evenodd" fill="rgba(255, 255, 255, 0)" stroke="rgba(35, 8, 59, 1)"/>
  <path d="M38 27h2" stroke-width="2" stroke-linejoin="round" fill-rule="evenodd" fill="rgba(255, 255, 255, 0)" stroke="rgba(35, 8, 59, 1)"/>
  <path d="M40 30h2" stroke-width="2" stroke-linejoin="round" fill-rule="evenodd" fill="rgba(255, 255, 255, 0)" stroke="rgba(35, 8, 59, 1)"/>
  <path d="M33 32h2" stroke-width="2" stroke-linejoin="round" fill-rule="evenodd" fill="rgba(255, 255, 255, 0)" stroke="rgba(35, 8, 59, 1)"/>
  <path d="M25.746 18.823l-3.38-6.105s2.695-4.88 5.688-2.84c2.992 2.039 1.638 4.504 1.638 4.504l5.165-8.32-.461 8.32s4.902-6.906 6.665-4.285c1.763 2.621-4.68 8.767-4.68 8.767" stroke-linecap="round" stroke-width="2" stroke-linejoin="round" fill-rule="evenodd" fill="rgba(255, 255, 255, 0)" stroke="rgba(35, 8, 59, 1)"/>
</svg>
</g></svg></g></g>
<!-- /image 05074 -->

<!-- image 31533 -->
<g id="transformed-31533" data-image="31533" transform="translate(282.11377482375593, 212.75377482375592) rotate(342, 19.636225176244068, 19.636225176244068)"><g><svg version="1.1" width="39.272450352488136px" height="39.272450352488136px" viewBox="0 0 39.272450352488136 39.272450352488136"><g id="original-31533"><svg xmlns="http://www.w3.org/2000/svg" id="Icons" viewBox="0 0 32 32" xmlns:xlink="http://www.w3.org/1999/xlink" version="1.1" preserveAspectRatio="xMidYMid meet">
  <path d="M22.6 14c-2.5-1.1-3.2-4.9-3.2-4.9s3.3-1.9 5.8-.8 3.2 4.9 3.2 4.9-3.3 1.9-5.8.8z" fill="rgba(147, 16, 16, 0.6627906976744186)" stroke="none"/>
  <path d="M8 21c0-9.4 7.6-17 17-17" fill="rgba(147, 16, 16, 0.6627906976744186)" stroke="none"/>
  <path d="M20.5 23.5c-4.6-4.6-6-11.1-4.3-16.9" fill="rgba(147, 16, 16, 0.6627906976744186)" stroke="none"/>
  <path d="M13 22c0 2.8-2.2 5-5 5s-5-2.2-5-5 2.2-4 5-4 5 1.2 5 4z" fill="rgba(147, 16, 16, 0.6627906976744186)" stroke="none"/>
  <path d="M25 21.4c1.5 2.3.8 5.4-1.5 6.8-2.3 1.4-5.3.7-6.8-1.6s-.3-4.5 2-5.9c2.3-1.5 4.8-1.6 6.3.7z" fill="rgba(147, 16, 16, 0.6627906976744186)" stroke="none"/>
</svg>
</g></svg></g></g>
<!-- /image 31533 -->

<!-- image 67901 -->
<g id="transformed-67901" data-image="67901" transform="translate(263.16374504973385, 290.67374504973384) rotate(333, 20.556254950266162, 20.556254950266155)"><g><svg version="1.1" width="41.112509900532324px" height="41.11250990053231px" viewBox="0 0 41.112509900532324 41.11250990053231"><g id="original-67901"><svg xmlns="http://www.w3.org/2000/svg" viewBox="0 0 64 64" xmlns:xlink="http://www.w3.org/1999/xlink" version="1.1" preserveAspectRatio="xMidYMid meet">
  <g data-name="Layer 68">
    <path d="M32.87 36.78l-.86.86c-4.19-5.64-12.34.54-7.61 5.87l7.6 7.61c.47-.47 7.42-7.41 7.59-7.61 4.34-4.51-2.16-11.06-6.72-6.73z" fill="rgba(66, 49, 4, 1)" stroke="none"/>
    <path d="M51 22h-2V4a1 1 0 0 0-1-1H17a1 1 0 0 0-1 1v18c-.81.14-3.06-.47-3 1v37a1 1 0 0 0 1 1h37a1 1 0 0 0 1-1V23a1 1 0 0 0-1-1zm-18 0v-7h6v7zm-7 0v-7h5v7zm15-7h6v7h-6zm6-10v8h-6V5zm-8 0v8h-6V5zm-8 8h-5V5h5zm-7-8v8h-6V5zm-6 10h6v7h-6zm32 44H15V24h35z" fill="rgba(66, 49, 4, 1)" stroke="none"/>
  </g>
</svg>
</g></svg></g></g>
<!-- /image 67901 -->

<!-- image 47965 -->
<g id="transformed-47965" data-image="47965" transform="translate(328.7243659169695, -7.576161656116085) rotate(17, 19.305634083030494, 27.356161656116086)"><g><svg version="1.1" width="38.61126816606099px" height="54.71232331223217px" viewBox="0 0 38.61126816606099 54.71232331223217"><g id="original-47965"><svg xmlns="http://www.w3.org/2000/svg" viewBox="0 0 595.28 841.89" xmlns:xlink="http://www.w3.org/1999/xlink" version="1.1" preserveAspectRatio="xMidYMid meet">
  <path d="M553.845 336.415s0-.658-.658-.658c-87.485-122.347-224.96-97.351-226.276-96.694-1.316 0-1.973.658-2.631 1.316-4.604-1.973-9.867-3.947-14.471-4.604 1.316-23.022 7.236-78.276 42.098-90.773 5.92-1.973 8.551-8.551 6.578-14.471-1.973-5.92-8.551-8.551-14.471-6.578-48.676 17.102-55.911 85.511-57.227 111.822-28.284 5.262-49.991 30.258-49.991 59.858v3.289L45.382 427.847c-1.316.658-1.973 1.316-2.631 2.631-1.316 1.973-1.316 2.631-1.973 3.947V437.056l-.658 270.347c0 3.289 1.316 6.578 3.947 8.551 1.973 1.973 4.604 2.631 7.236 2.631h1.973l492.676-91.431c5.262-.658 9.209-5.92 9.209-11.182V342.336 340.362v-.658c-.001-1.315-.658-1.973-1.316-3.289zm-256.534-80.249c21.707 0 38.809 17.76 38.809 38.809 0 21.707-17.76 38.809-38.809 38.809-21.707 0-38.809-17.76-38.809-38.809 0-21.048 17.76-38.809 38.809-38.809zm-55.253 65.778c9.867 20.391 30.916 34.862 55.253 34.862 33.547 0 61.173-27.627 61.173-61.173a61.069 61.069 0 0 0-11.84-36.178c34.204-2.631 115.111 1.316 176.943 75.645l-420.979 80.907 139.45-94.063zm290.08 284.161L62.484 693.589V573.874l469.654-83.538v115.769zm0-138.134L62.484 551.509V445.607l469.654-90.116v112.48z" fill="rgba(206, 58, 0, 1)" stroke="none"/>
</svg>
</g></svg></g></g>
<!-- /image 47965 -->

<!-- image 20479 -->
<g id="transformed-20479" data-image="20479" transform="translate(30.205020783121267, 136.46502078312128) rotate(317, 20.404979216878733, 20.40497921687873)"><g><svg version="1.1" width="40.809958433757465px" height="40.80995843375746px" viewBox="0 0 40.809958433757465 40.80995843375746"><g id="original-20479"><svg xmlns="http://www.w3.org/2000/svg" viewBox="0 0 60 60" xmlns:xlink="http://www.w3.org/1999/xlink" version="1.1" preserveAspectRatio="xMidYMid meet">
  <path d="M30.559 20.09c-7.546-2.025-15.101.531-16.631 6.838-3.104 12.798 10.79 29.517 17.54 29.65 6.749.135 20.329-22.166 16.543-31.143-1.92-4.553-9.686-7.318-17.452-5.344z" stroke-linecap="round" stroke-width="2" stroke-linejoin="round" fill-rule="evenodd" fill="rgba(255, 255, 255, 0.28488372093023256)" stroke="rgba(35, 8, 59, 1)"/>
  <path d="M29 26h2" stroke-width="2" stroke-linejoin="round" fill-rule="evenodd" fill="rgba(255, 255, 255, 0.28488372093023256)" stroke="rgba(35, 8, 59, 1)"/>
  <path d="M32 29h2" stroke-width="2" stroke-linejoin="round" fill-rule="evenodd" fill="rgba(255, 255, 255, 0.28488372093023256)" stroke="rgba(35, 8, 59, 1)"/>
  <path d="M34 26h2" stroke-width="2" stroke-linejoin="round" fill-rule="evenodd" fill="rgba(255, 255, 255, 0.28488372093023256)" stroke="rgba(35, 8, 59, 1)"/>
  <path d="M36 30h2" stroke-width="2" stroke-linejoin="round" fill-rule="evenodd" fill="rgba(255, 255, 255, 0.28488372093023256)" stroke="rgba(35, 8, 59, 1)"/>
  <path d="M42 26h2" stroke-width="2" stroke-linejoin="round" fill-rule="evenodd" fill="rgba(255, 255, 255, 0.28488372093023256)" stroke="rgba(35, 8, 59, 1)"/>
  <path d="M38 27h2" stroke-width="2" stroke-linejoin="round" fill-rule="evenodd" fill="rgba(255, 255, 255, 0.28488372093023256)" stroke="rgba(35, 8, 59, 1)"/>
  <path d="M40 30h2" stroke-width="2" stroke-linejoin="round" fill-rule="evenodd" fill="rgba(255, 255, 255, 0.28488372093023256)" stroke="rgba(35, 8, 59, 1)"/>
  <path d="M33 32h2" stroke-width="2" stroke-linejoin="round" fill-rule="evenodd" fill="rgba(255, 255, 255, 0.28488372093023256)" stroke="rgba(35, 8, 59, 1)"/>
  <path d="M25.746 18.823l-3.38-6.105s2.695-4.88 5.688-2.84c2.992 2.039 1.638 4.504 1.638 4.504l5.165-8.32-.461 8.32s4.902-6.906 6.665-4.285c1.763 2.621-4.68 8.767-4.68 8.767" stroke-linecap="round" stroke-width="2" stroke-linejoin="round" fill-rule="evenodd" fill="rgba(255, 255, 255, 0.28488372093023256)" stroke="rgba(35, 8, 59, 1)"/>
</svg>
</g></svg></g></g>
<!-- /image 20479 -->

<!-- image 73359 -->
<g id="transformed-73359" data-image="73359" transform="translate(244.64406763172784, 7.864067631727867) rotate(6, 21.63593236827214, 21.635932368272133)"><g><svg version="1.1" width="43.27186473654428px" height="43.271864736544266px" viewBox="0 0 43.27186473654428 43.271864736544266"><g id="original-73359"><svg xmlns="http://www.w3.org/2000/svg" viewBox="0 0 64 64" xmlns:xlink="http://www.w3.org/1999/xlink" version="1.1" preserveAspectRatio="xMidYMid meet">
  <g data-name="Layer 68">
    <path d="M32.87 36.78l-.86.86c-4.19-5.64-12.34.54-7.61 5.87l7.6 7.61c.47-.47 7.42-7.41 7.59-7.61 4.34-4.51-2.16-11.06-6.72-6.73z" fill="rgba(66, 49, 4, 1)" stroke="none"/>
    <path d="M51 22h-2V4a1 1 0 0 0-1-1H17a1 1 0 0 0-1 1v18c-.81.14-3.06-.47-3 1v37a1 1 0 0 0 1 1h37a1 1 0 0 0 1-1V23a1 1 0 0 0-1-1zm-18 0v-7h6v7zm-7 0v-7h5v7zm15-7h6v7h-6zm6-10v8h-6V5zm-8 0v8h-6V5zm-8 8h-5V5h5zm-7-8v8h-6V5zm-6 10h6v7h-6zm32 44H15V24h35z" fill="rgba(66, 49, 4, 1)" stroke="none"/>
  </g>
</svg>
</g></svg></g></g>
<!-- /image 73359 -->

<!-- image 37233 -->
<g id="transformed-37233" data-image="37233" transform="translate(53.63197887600777, 72.59197887600777) rotate(330, 20.208021123992232, 20.20802112399222)"><g><svg version="1.1" width="40.416042247984464px" height="40.41604224798444px" viewBox="0 0 40.416042247984464 40.41604224798444"><g id="original-37233"><svg xmlns="http://www.w3.org/2000/svg" viewBox="0 0 64 64" xmlns:xlink="http://www.w3.org/1999/xlink" version="1.1" preserveAspectRatio="xMidYMid meet">
  <g data-name="Layer 68">
    <path d="M32.87 36.78l-.86.86c-4.19-5.64-12.34.54-7.61 5.87l7.6 7.61c.47-.47 7.42-7.41 7.59-7.61 4.34-4.51-2.16-11.06-6.72-6.73z" fill="rgba(66, 49, 4, 1)" stroke="none"/>
    <path d="M51 22h-2V4a1 1 0 0 0-1-1H17a1 1 0 0 0-1 1v18c-.81.14-3.06-.47-3 1v37a1 1 0 0 0 1 1h37a1 1 0 0 0 1-1V23a1 1 0 0 0-1-1zm-18 0v-7h6v7zm-7 0v-7h5v7zm15-7h6v7h-6zm6-10v8h-6V5zm-8 0v8h-6V5zm-8 8h-5V5h5zm-7-8v8h-6V5zm-6 10h6v7h-6zm32 44H15V24h35z" fill="rgba(66, 49, 4, 1)" stroke="none"/>
  </g>
</svg>
</g></svg></g></g>
<!-- /image 37233 -->

<!-- image 93051 -->
<g id="transformed-93051" data-image="93051" transform="translate(112.96406763172786, 146.99406763172786) rotate(6, 21.63593236827214, 21.635932368272133)"><g><svg version="1.1" width="43.27186473654428px" height="43.271864736544266px" viewBox="0 0 43.27186473654428 43.271864736544266"><g id="original-93051"><svg xmlns="http://www.w3.org/2000/svg" viewBox="0 0 64 64" xmlns:xlink="http://www.w3.org/1999/xlink" version="1.1" preserveAspectRatio="xMidYMid meet">
  <g data-name="Layer 68">
    <path d="M32.87 36.78l-.86.86c-4.19-5.64-12.34.54-7.61 5.87l7.6 7.61c.47-.47 7.42-7.41 7.59-7.61 4.34-4.51-2.16-11.06-6.72-6.73z" fill="rgba(66, 49, 4, 1)" stroke="none"/>
    <path d="M51 22h-2V4a1 1 0 0 0-1-1H17a1 1 0 0 0-1 1v18c-.81.14-3.06-.47-3 1v37a1 1 0 0 0 1 1h37a1 1 0 0 0 1-1V23a1 1 0 0 0-1-1zm-18 0v-7h6v7zm-7 0v-7h5v7zm15-7h6v7h-6zm6-10v8h-6V5zm-8 0v8h-6V5zm-8 8h-5V5h5zm-7-8v8h-6V5zm-6 10h6v7h-6zm32 44H15V24h35z" fill="rgba(66, 49, 4, 1)" stroke="none"/>
  </g>
</svg>
</g></svg></g></g>
<!-- /image 93051 -->

<!-- image 08359 -->
<g id="transformed-08359" data-image="08359" transform="translate(204.6387546533939, 308.6287546533939) rotate(20, 19.94124534660611, 19.94124534660611)"><g><svg version="1.1" width="39.88249069321222px" height="39.88249069321222px" viewBox="0 0 39.88249069321222 39.88249069321222"><g id="original-08359"><svg xmlns="http://www.w3.org/2000/svg" viewBox="0 0 60 60" xmlns:xlink="http://www.w3.org/1999/xlink" version="1.1" preserveAspectRatio="xMidYMid meet">
  <path d="M30.559 20.09c-7.546-2.025-15.101.531-16.631 6.838-3.104 12.798 10.79 29.517 17.54 29.65 6.749.135 20.329-22.166 16.543-31.143-1.92-4.553-9.686-7.318-17.452-5.344z" stroke-linecap="round" stroke-width="2" stroke-linejoin="round" fill-rule="evenodd" fill="rgba(83, 77, 77, 0.23837209302325582)" stroke="rgba(83, 83, 83, 1)"/>
  <path d="M29 26h2" stroke-width="2" stroke-linejoin="round" fill-rule="evenodd" fill="rgba(83, 77, 77, 0.23837209302325582)" stroke="rgba(83, 83, 83, 1)"/>
  <path d="M32 29h2" stroke-width="2" stroke-linejoin="round" fill-rule="evenodd" fill="rgba(83, 77, 77, 0.23837209302325582)" stroke="rgba(83, 83, 83, 1)"/>
  <path d="M34 26h2" stroke-width="2" stroke-linejoin="round" fill-rule="evenodd" fill="rgba(83, 77, 77, 0.23837209302325582)" stroke="rgba(83, 83, 83, 1)"/>
  <path d="M36 30h2" stroke-width="2" stroke-linejoin="round" fill-rule="evenodd" fill="rgba(83, 77, 77, 0.23837209302325582)" stroke="rgba(83, 83, 83, 1)"/>
  <path d="M42 26h2" stroke-width="2" stroke-linejoin="round" fill-rule="evenodd" fill="rgba(83, 77, 77, 0.23837209302325582)" stroke="rgba(83, 83, 83, 1)"/>
  <path d="M38 27h2" stroke-width="2" stroke-linejoin="round" fill-rule="evenodd" fill="rgba(83, 77, 77, 0.23837209302325582)" stroke="rgba(83, 83, 83, 1)"/>
  <path d="M40 30h2" stroke-width="2" stroke-linejoin="round" fill-rule="evenodd" fill="rgba(83, 77, 77, 0.23837209302325582)" stroke="rgba(83, 83, 83, 1)"/>
  <path d="M33 32h2" stroke-width="2" stroke-linejoin="round" fill-rule="evenodd" fill="rgba(83, 77, 77, 0.23837209302325582)" stroke="rgba(83, 83, 83, 1)"/>
  <path d="M25.746 18.823l-3.38-6.105s2.695-4.88 5.688-2.84c2.992 2.039 1.638 4.504 1.638 4.504l5.165-8.32-.461 8.32s4.902-6.906 6.665-4.285c1.763 2.621-4.68 8.767-4.68 8.767" stroke-linecap="round" stroke-width="2" stroke-linejoin="round" fill-rule="evenodd" fill="rgba(83, 77, 77, 0.23837209302325582)" stroke="rgba(83, 83, 83, 1)"/>
</svg>
</g></svg></g></g>
<!-- /image 08359 -->

<!-- image 48081 -->
<g id="transformed-48081" data-image="48081" transform="translate(185.25663839319475, 29.02029731829215) rotate(32, 17.113361606805256, 24.249702681707852)"><g><svg version="1.1" width="34.22672321361051px" height="48.499405363415704px" viewBox="0 0 34.22672321361051 48.499405363415704"><g id="original-48081"><svg xmlns="http://www.w3.org/2000/svg" viewBox="0 0 595.28 841.89" xmlns:xlink="http://www.w3.org/1999/xlink" version="1.1" preserveAspectRatio="xMidYMid meet">
  <path d="M553.845 336.415s0-.658-.658-.658c-87.485-122.347-224.96-97.351-226.276-96.694-1.316 0-1.973.658-2.631 1.316-4.604-1.973-9.867-3.947-14.471-4.604 1.316-23.022 7.236-78.276 42.098-90.773 5.92-1.973 8.551-8.551 6.578-14.471-1.973-5.92-8.551-8.551-14.471-6.578-48.676 17.102-55.911 85.511-57.227 111.822-28.284 5.262-49.991 30.258-49.991 59.858v3.289L45.382 427.847c-1.316.658-1.973 1.316-2.631 2.631-1.316 1.973-1.316 2.631-1.973 3.947V437.056l-.658 270.347c0 3.289 1.316 6.578 3.947 8.551 1.973 1.973 4.604 2.631 7.236 2.631h1.973l492.676-91.431c5.262-.658 9.209-5.92 9.209-11.182V342.336 340.362v-.658c-.001-1.315-.658-1.973-1.316-3.289zm-256.534-80.249c21.707 0 38.809 17.76 38.809 38.809 0 21.707-17.76 38.809-38.809 38.809-21.707 0-38.809-17.76-38.809-38.809 0-21.048 17.76-38.809 38.809-38.809zm-55.253 65.778c9.867 20.391 30.916 34.862 55.253 34.862 33.547 0 61.173-27.627 61.173-61.173a61.069 61.069 0 0 0-11.84-36.178c34.204-2.631 115.111 1.316 176.943 75.645l-420.979 80.907 139.45-94.063zm290.08 284.161L62.484 693.589V573.874l469.654-83.538v115.769zm0-138.134L62.484 551.509V445.607l469.654-90.116v112.48z" fill="rgba(206, 58, 0, 1)" stroke="none"/>
</svg>
</g></svg></g></g>
<!-- /image 48081 -->

<!-- image 91707 -->
<g id="transformed-91707" data-image="91707" transform="translate(156.71843684475593, 83.27843684475592) rotate(5, 21.151563155244084, 21.15156315524409)"><g><svg version="1.1" width="42.30312631048817px" height="42.30312631048818px" viewBox="0 0 42.30312631048817 42.30312631048818"><g id="original-91707"><svg xmlns="http://www.w3.org/2000/svg" id="Icons" viewBox="0 0 32 32" xmlns:xlink="http://www.w3.org/1999/xlink" version="1.1" preserveAspectRatio="xMidYMid meet">
  <path d="M22.6 14c-2.5-1.1-3.2-4.9-3.2-4.9s3.3-1.9 5.8-.8 3.2 4.9 3.2 4.9-3.3 1.9-5.8.8z" fill="rgba(147, 16, 16, 0.6627906976744186)" stroke="none"/>
  <path d="M8 21c0-9.4 7.6-17 17-17" fill="rgba(147, 16, 16, 0.6627906976744186)" stroke="none"/>
  <path d="M20.5 23.5c-4.6-4.6-6-11.1-4.3-16.9" fill="rgba(147, 16, 16, 0.6627906976744186)" stroke="none"/>
  <path d="M13 22c0 2.8-2.2 5-5 5s-5-2.2-5-5 2.2-4 5-4 5 1.2 5 4z" fill="rgba(147, 16, 16, 0.6627906976744186)" stroke="none"/>
  <path d="M25 21.4c1.5 2.3.8 5.4-1.5 6.8-2.3 1.4-5.3.7-6.8-1.6s-.3-4.5 2-5.9c2.3-1.5 4.8-1.6 6.3.7z" fill="rgba(147, 16, 16, 0.6627906976744186)" stroke="none"/>
</svg>
</g></svg></g></g>
<!-- /image 91707 -->

<!-- image 25386 -->
<g id="transformed-25386" data-image="25386" transform="translate(334.2040924517654, 56.728711568827144) rotate(345, 16.875907548234586, 14.991288431172856)"><g><svg version="1.1" width="33.75181509646917px" height="29.982576862345713px" viewBox="0 0 33.75181509646917 29.982576862345713"><g id="original-25386"><svg xmlns="http://www.w3.org/2000/svg" viewBox="0 0 72 64" xmlns:xlink="http://www.w3.org/1999/xlink" version="1.1" preserveAspectRatio="xMidYMid meet">
  <path fill-rule="evenodd" d="M36 64C29.7 64 0 42.055 0 20.112 0 13.812.67-.002 18.9-.002c7.482 0 14.106 5.712 17.1 11.886C38.994 5.71 45.618-.002 53.1-.002 71.33-.002 72 13.811 72 20.112 72 42.057 42.3 64 36 64z" fill="rgba(198, 77, 55, 0.6569767441860465)" stroke="none"/>
  <path fill-rule="evenodd" d="M36 11.884C38.994 5.71 45.618-.002 53.1-.002 71.33-.002 72 13.811 72 20.112 72 42.057 42.3 64 36 64V11.884z" fill="rgba(195, 113, 99, 0.46511627906976744)" stroke="none"/>
</svg>
</g></svg></g></g>
<!-- /image 25386 -->
</defs><rect x="0" y="0" width="400" height="350" fill="rgba(255, 255, 255, 0)"></rect><use xlink:href="#transformed-84915" transform="translate(-400, -350)"></use><use xlink:href="#transformed-84915" transform="translate(0, -350)"></use><use xlink:href="#transformed-84915" transform="translate(400, -350)"></use><use xlink:href="#transformed-84915" transform="translate(-400, 0)"></use><use xlink:href="#transformed-84915" transform="translate(0, 0)"></use><use xlink:href="#transformed-84915" transform="translate(400, 0)"></use><use xlink:href="#transformed-84915" transform="translate(-400, 350)"></use><use xlink:href="#transformed-84915" transform="translate(0, 350)"></use><use xlink:href="#transformed-84915" transform="translate(400, 350)"></use><use xlink:href="#transformed-72311" transform="translate(-400, -350)"></use><use xlink:href="#transformed-72311" transform="translate(0, -350)"></use><use xlink:href="#transformed-72311" transform="translate(400, -350)"></use><use xlink:href="#transformed-72311" transform="translate(-400, 0)"></use><use xlink:href="#transformed-72311" transform="translate(0, 0)"></use><use xlink:href="#transformed-72311" transform="translate(400, 0)"></use><use xlink:href="#transformed-72311" transform="translate(-400, 350)"></use><use xlink:href="#transformed-72311" transform="translate(0, 350)"></use><use xlink:href="#transformed-72311" transform="translate(400, 350)"></use><use xlink:href="#transformed-86919" transform="translate(-400, -350)"></use><use xlink:href="#transformed-86919" transform="translate(0, -350)"></use><use xlink:href="#transformed-86919" transform="translate(400, -350)"></use><use xlink:href="#transformed-86919" transform="translate(-400, 0)"></use><use xlink:href="#transformed-86919" transform="translate(0, 0)"></use><use xlink:href="#transformed-86919" transform="translate(400, 0)"></use><use xlink:href="#transformed-86919" transform="translate(-400, 350)"></use><use xlink:href="#transformed-86919" transform="translate(0, 350)"></use><use xlink:href="#transformed-86919" transform="translate(400, 350)"></use><use xlink:href="#transformed-36091" transform="translate(-400, -350)"></use><use xlink:href="#transformed-36091" transform="translate(0, -350)"></use><use xlink:href="#transformed-36091" transform="translate(400, -350)"></use><use xlink:href="#transformed-36091" transform="translate(-400, 0)"></use><use xlink:href="#transformed-36091" transform="translate(0, 0)"></use><use xlink:href="#transformed-36091" transform="translate(400, 0)"></use><use xlink:href="#transformed-36091" transform="translate(-400, 350)"></use><use xlink:href="#transformed-36091" transform="translate(0, 350)"></use><use xlink:href="#transformed-36091" transform="translate(400, 350)"></use><use xlink:href="#transformed-85394" transform="translate(-400, -350)"></use><use xlink:href="#transformed-85394" transform="translate(0, -350)"></use><use xlink:href="#transformed-85394" transform="translate(400, -350)"></use><use xlink:href="#transformed-85394" transform="translate(-400, 0)"></use><use xlink:href="#transformed-85394" transform="translate(0, 0)"></use><use xlink:href="#transformed-85394" transform="translate(400, 0)"></use><use xlink:href="#transformed-85394" transform="translate(-400, 350)"></use><use xlink:href="#transformed-85394" transform="translate(0, 350)"></use><use xlink:href="#transformed-85394" transform="translate(400, 350)"></use><use xlink:href="#transformed-06410" transform="translate(-400, -350)"></use><use xlink:href="#transformed-06410" transform="translate(0, -350)"></use><use xlink:href="#transformed-06410" transform="translate(400, -350)"></use><use xlink:href="#transformed-06410" transform="translate(-400, 0)"></use><use xlink:href="#transformed-06410" transform="translate(0, 0)"></use><use xlink:href="#transformed-06410" transform="translate(400, 0)"></use><use xlink:href="#transformed-06410" transform="translate(-400, 350)"></use><use xlink:href="#transformed-06410" transform="translate(0, 350)"></use><use xlink:href="#transformed-06410" transform="translate(400, 350)"></use><use xlink:href="#transformed-07142" transform="translate(-400, -350)"></use><use xlink:href="#transformed-07142" transform="translate(0, -350)"></use><use xlink:href="#transformed-07142" transform="translate(400, -350)"></use><use xlink:href="#transformed-07142" transform="translate(-400, 0)"></use><use xlink:href="#transformed-07142" transform="translate(0, 0)"></use><use xlink:href="#transformed-07142" transform="translate(400, 0)"></use><use xlink:href="#transformed-07142" transform="translate(-400, 350)"></use><use xlink:href="#transformed-07142" transform="translate(0, 350)"></use><use xlink:href="#transformed-07142" transform="translate(400, 350)"></use><use xlink:href="#transformed-05741" transform="translate(-400, -350)"></use><use xlink:href="#transformed-05741" transform="translate(0, -350)"></use><use xlink:href="#transformed-05741" transform="translate(400, -350)"></use><use xlink:href="#transformed-05741" transform="translate(-400, 0)"></use><use xlink:href="#transformed-05741" transform="translate(0, 0)"></use><use xlink:href="#transformed-05741" transform="translate(400, 0)"></use><use xlink:href="#transformed-05741" transform="translate(-400, 350)"></use><use xlink:href="#transformed-05741" transform="translate(0, 350)"></use><use xlink:href="#transformed-05741" transform="translate(400, 350)"></use><use xlink:href="#transformed-32811" transform="translate(-400, -350)"></use><use xlink:href="#transformed-32811" transform="translate(0, -350)"></use><use xlink:href="#transformed-32811" transform="translate(400, -350)"></use><use xlink:href="#transformed-32811" transform="translate(-400, 0)"></use><use xlink:href="#transformed-32811" transform="translate(0, 0)"></use><use xlink:href="#transformed-32811" transform="translate(400, 0)"></use><use xlink:href="#transformed-32811" transform="translate(-400, 350)"></use><use xlink:href="#transformed-32811" transform="translate(0, 350)"></use><use xlink:href="#transformed-32811" transform="translate(400, 350)"></use><use xlink:href="#transformed-19296" transform="translate(-400, -350)"></use><use xlink:href="#transformed-19296" transform="translate(0, -350)"></use><use xlink:href="#transformed-19296" transform="translate(400, -350)"></use><use xlink:href="#transformed-19296" transform="translate(-400, 0)"></use><use xlink:href="#transformed-19296" transform="translate(0, 0)"></use><use xlink:href="#transformed-19296" transform="translate(400, 0)"></use><use xlink:href="#transformed-19296" transform="translate(-400, 350)"></use><use xlink:href="#transformed-19296" transform="translate(0, 350)"></use><use xlink:href="#transformed-19296" transform="translate(400, 350)"></use><use xlink:href="#transformed-94420" transform="translate(-400, -350)"></use><use xlink:href="#transformed-94420" transform="translate(0, -350)"></use><use xlink:href="#transformed-94420" transform="translate(400, -350)"></use><use xlink:href="#transformed-94420" transform="translate(-400, 0)"></use><use xlink:href="#transformed-94420" transform="translate(0, 0)"></use><use xlink:href="#transformed-94420" transform="translate(400, 0)"></use><use xlink:href="#transformed-94420" transform="translate(-400, 350)"></use><use xlink:href="#transformed-94420" transform="translate(0, 350)"></use><use xlink:href="#transformed-94420" transform="translate(400, 350)"></use><use xlink:href="#transformed-62784" transform="translate(-400, -350)"></use><use xlink:href="#transformed-62784" transform="translate(0, -350)"></use><use xlink:href="#transformed-62784" transform="translate(400, -350)"></use><use xlink:href="#transformed-62784" transform="translate(-400, 0)"></use><use xlink:href="#transformed-62784" transform="translate(0, 0)"></use><use xlink:href="#transformed-62784" transform="translate(400, 0)"></use><use xlink:href="#transformed-62784" transform="translate(-400, 350)"></use><use xlink:href="#transformed-62784" transform="translate(0, 350)"></use><use xlink:href="#transformed-62784" transform="translate(400, 350)"></use><use xlink:href="#transformed-05074" transform="translate(-400, -350)"></use><use xlink:href="#transformed-05074" transform="translate(0, -350)"></use><use xlink:href="#transformed-05074" transform="translate(400, -350)"></use><use xlink:href="#transformed-05074" transform="translate(-400, 0)"></use><use xlink:href="#transformed-05074" transform="translate(0, 0)"></use><use xlink:href="#transformed-05074" transform="translate(400, 0)"></use><use xlink:href="#transformed-05074" transform="translate(-400, 350)"></use><use xlink:href="#transformed-05074" transform="translate(0, 350)"></use><use xlink:href="#transformed-05074" transform="translate(400, 350)"></use><use xlink:href="#transformed-31533" transform="translate(-400, -350)"></use><use xlink:href="#transformed-31533" transform="translate(0, -350)"></use><use xlink:href="#transformed-31533" transform="translate(400, -350)"></use><use xlink:href="#transformed-31533" transform="translate(-400, 0)"></use><use xlink:href="#transformed-31533" transform="translate(0, 0)"></use><use xlink:href="#transformed-31533" transform="translate(400, 0)"></use><use xlink:href="#transformed-31533" transform="translate(-400, 350)"></use><use xlink:href="#transformed-31533" transform="translate(0, 350)"></use><use xlink:href="#transformed-31533" transform="translate(400, 350)"></use><use xlink:href="#transformed-67901" transform="translate(-400, -350)"></use><use xlink:href="#transformed-67901" transform="translate(0, -350)"></use><use xlink:href="#transformed-67901" transform="translate(400, -350)"></use><use xlink:href="#transformed-67901" transform="translate(-400, 0)"></use><use xlink:href="#transformed-67901" transform="translate(0, 0)"></use><use xlink:href="#transformed-67901" transform="translate(400, 0)"></use><use xlink:href="#transformed-67901" transform="translate(-400, 350)"></use><use xlink:href="#transformed-67901" transform="translate(0, 350)"></use><use xlink:href="#transformed-67901" transform="translate(400, 350)"></use><use xlink:href="#transformed-47965" transform="translate(-400, -350)"></use><use xlink:href="#transformed-47965" transform="translate(0, -350)"></use><use xlink:href="#transformed-47965" transform="translate(400, -350)"></use><use xlink:href="#transformed-47965" transform="translate(-400, 0)"></use><use xlink:href="#transformed-47965" transform="translate(0, 0)"></use><use xlink:href="#transformed-47965" transform="translate(400, 0)"></use><use xlink:href="#transformed-47965" transform="translate(-400, 350)"></use><use xlink:href="#transformed-47965" transform="translate(0, 350)"></use><use xlink:href="#transformed-47965" transform="translate(400, 350)"></use><use xlink:href="#transformed-20479" transform="translate(-400, -350)"></use><use xlink:href="#transformed-20479" transform="translate(0, -350)"></use><use xlink:href="#transformed-20479" transform="translate(400, -350)"></use><use xlink:href="#transformed-20479" transform="translate(-400, 0)"></use><use xlink:href="#transformed-20479" transform="translate(0, 0)"></use><use xlink:href="#transformed-20479" transform="translate(400, 0)"></use><use xlink:href="#transformed-20479" transform="translate(-400, 350)"></use><use xlink:href="#transformed-20479" transform="translate(0, 350)"></use><use xlink:href="#transformed-20479" transform="translate(400, 350)"></use><use xlink:href="#transformed-73359" transform="translate(-400, -350)"></use><use xlink:href="#transformed-73359" transform="translate(0, -350)"></use><use xlink:href="#transformed-73359" transform="translate(400, -350)"></use><use xlink:href="#transformed-73359" transform="translate(-400, 0)"></use><use xlink:href="#transformed-73359" transform="translate(0, 0)"></use><use xlink:href="#transformed-73359" transform="translate(400, 0)"></use><use xlink:href="#transformed-73359" transform="translate(-400, 350)"></use><use xlink:href="#transformed-73359" transform="translate(0, 350)"></use><use xlink:href="#transformed-73359" transform="translate(400, 350)"></use><use xlink:href="#transformed-37233" transform="translate(-400, -350)"></use><use xlink:href="#transformed-37233" transform="translate(0, -350)"></use><use xlink:href="#transformed-37233" transform="translate(400, -350)"></use><use xlink:href="#transformed-37233" transform="translate(-400, 0)"></use><use xlink:href="#transformed-37233" transform="translate(0, 0)"></use><use xlink:href="#transformed-37233" transform="translate(400, 0)"></use><use xlink:href="#transformed-37233" transform="translate(-400, 350)"></use><use xlink:href="#transformed-37233" transform="translate(0, 350)"></use><use xlink:href="#transformed-37233" transform="translate(400, 350)"></use><use xlink:href="#transformed-93051" transform="translate(-400, -350)"></use><use xlink:href="#transformed-93051" transform="translate(0, -350)"></use><use xlink:href="#transformed-93051" transform="translate(400, -350)"></use><use xlink:href="#transformed-93051" transform="translate(-400, 0)"></use><use xlink:href="#transformed-93051" transform="translate(0, 0)"></use><use xlink:href="#transformed-93051" transform="translate(400, 0)"></use><use xlink:href="#transformed-93051" transform="translate(-400, 350)"></use><use xlink:href="#transformed-93051" transform="translate(0, 350)"></use><use xlink:href="#transformed-93051" transform="translate(400, 350)"></use><use xlink:href="#transformed-08359" transform="translate(-400, -350)"></use><use xlink:href="#transformed-08359" transform="translate(0, -350)"></use><use xlink:href="#transformed-08359" transform="translate(400, -350)"></use><use xlink:href="#transformed-08359" transform="translate(-400, 0)"></use><use xlink:href="#transformed-08359" transform="translate(0, 0)"></use><use xlink:href="#transformed-08359" transform="translate(400, 0)"></use><use xlink:href="#transformed-08359" transform="translate(-400, 350)"></use><use xlink:href="#transformed-08359" transform="translate(0, 350)"></use><use xlink:href="#transformed-08359" transform="translate(400, 350)"></use><use xlink:href="#transformed-48081" transform="translate(-400, -350)"></use><use xlink:href="#transformed-48081" transform="translate(0, -350)"></use><use xlink:href="#transformed-48081" transform="translate(400, -350)"></use><use xlink:href="#transformed-48081" transform="translate(-400, 0)"></use><use xlink:href="#transformed-48081" transform="translate(0, 0)"></use><use xlink:href="#transformed-48081" transform="translate(400, 0)"></use><use xlink:href="#transformed-48081" transform="translate(-400, 350)"></use><use xlink:href="#transformed-48081" transform="translate(0, 350)"></use><use xlink:href="#transformed-48081" transform="translate(400, 350)"></use><use xlink:href="#transformed-91707" transform="translate(-400, -350)"></use><use xlink:href="#transformed-91707" transform="translate(0, -350)"></use><use xlink:href="#transformed-91707" transform="translate(400, -350)"></use><use xlink:href="#transformed-91707" transform="translate(-400, 0)"></use><use xlink:href="#transformed-91707" transform="translate(0, 0)"></use><use xlink:href="#transformed-91707" transform="translate(400, 0)"></use><use xlink:href="#transformed-91707" transform="translate(-400, 350)"></use><use xlink:href="#transformed-91707" transform="translate(0, 350)"></use><use xlink:href="#transformed-91707" transform="translate(400, 350)"></use><use xlink:href="#transformed-25386" transform="translate(-400, -350)"></use><use xlink:href="#transformed-25386" transform="translate(0, -350)"></use><use xlink:href="#transformed-25386" transform="translate(400, -350)"></use><use xlink:href="#transformed-25386" transform="translate(-400, 0)"></use><use xlink:href="#transformed-25386" transform="translate(0, 0)"></use><use xlink:href="#transformed-25386" transform="translate(400, 0)"></use><use xlink:href="#transformed-25386" transform="translate(-400, 350)"></use><use xlink:href="#transformed-25386" transform="translate(0, 350)"></use><use xlink:href="#transformed-25386" transform="translate(400, 350)"></use></svg>