<svg version="1.1"
      xmlns="http://www.w3.org/2000/svg"
      xmlns:xlink="http://www.w3.org/1999/xlink"  id="snapshot-62073" width="250" height="250" viewBox="0 0 250 250"><desc>This image was made on Patterninja.com</desc><defs>
<!-- image 03053 -->
<g id="transformed-03053" data-image="03053" transform="translate(43.66436175714691, 114.10418225869078) rotate(338, 12.585638242853094, 17.80581774130921)"><g><svg version="1.1" width="25.171276485706187px" height="35.61163548261842px" viewBox="0 0 25.171276485706187 35.61163548261842"><g id="original-03053"><svg xmlns="http://www.w3.org/2000/svg" viewBox="0 0 595.28 841.89" xmlns:xlink="http://www.w3.org/1999/xlink" version="1.1" preserveAspectRatio="xMidYMid meet">
  <path d="M553.845 336.415s0-.658-.658-.658c-87.485-122.347-224.96-97.351-226.276-96.694-1.316 0-1.973.658-2.631 1.316-4.604-1.973-9.867-3.947-14.471-4.604 1.316-23.022 7.236-78.276 42.098-90.773 5.92-1.973 8.551-8.551 6.578-14.471-1.973-5.92-8.551-8.551-14.471-6.578-48.676 17.102-55.911 85.511-57.227 111.822-28.284 5.262-49.991 30.258-49.991 59.858v3.289L45.382 427.847c-1.316.658-1.973 1.316-2.631 2.631-1.316 1.973-1.316 2.631-1.973 3.947V437.056l-.658 270.347c0 3.289 1.316 6.578 3.947 8.551 1.973 1.973 4.604 2.631 7.236 2.631h1.973l492.676-91.431c5.262-.658 9.209-5.92 9.209-11.182V342.336 340.362v-.658c-.001-1.315-.658-1.973-1.316-3.289zm-256.534-80.249c21.707 0 38.809 17.76 38.809 38.809 0 21.707-17.76 38.809-38.809 38.809-21.707 0-38.809-17.76-38.809-38.809 0-21.048 17.76-38.809 38.809-38.809zm-55.253 65.778c9.867 20.391 30.916 34.862 55.253 34.862 33.547 0 61.173-27.627 61.173-61.173a61.069 61.069 0 0 0-11.84-36.178c34.204-2.631 115.111 1.316 176.943 75.645l-420.979 80.907 139.45-94.063zm290.08 284.161L62.484 693.589V573.874l469.654-83.538v115.769zm0-138.134L62.484 551.509V445.607l469.654-90.116v112.48z" fill="rgba(211, 175, 175, 1)" stroke="none"/>
</svg>
</g></svg></g></g>
<!-- /image 03053 -->

<!-- image 56792 -->
<g id="transformed-56792" data-image="56792" transform="translate(86.6643617571469, 210.1041822586908) rotate(338, 12.585638242853094, 17.80581774130921)"><g><svg version="1.1" width="25.171276485706187px" height="35.61163548261842px" viewBox="0 0 25.171276485706187 35.61163548261842"><g id="original-56792"><svg xmlns="http://www.w3.org/2000/svg" viewBox="0 0 595.28 841.89" xmlns:xlink="http://www.w3.org/1999/xlink" version="1.1" preserveAspectRatio="xMidYMid meet">
  <path d="M553.845 336.415s0-.658-.658-.658c-87.485-122.347-224.96-97.351-226.276-96.694-1.316 0-1.973.658-2.631 1.316-4.604-1.973-9.867-3.947-14.471-4.604 1.316-23.022 7.236-78.276 42.098-90.773 5.92-1.973 8.551-8.551 6.578-14.471-1.973-5.92-8.551-8.551-14.471-6.578-48.676 17.102-55.911 85.511-57.227 111.822-28.284 5.262-49.991 30.258-49.991 59.858v3.289L45.382 427.847c-1.316.658-1.973 1.316-2.631 2.631-1.316 1.973-1.316 2.631-1.973 3.947V437.056l-.658 270.347c0 3.289 1.316 6.578 3.947 8.551 1.973 1.973 4.604 2.631 7.236 2.631h1.973l492.676-91.431c5.262-.658 9.209-5.92 9.209-11.182V342.336 340.362v-.658c-.001-1.315-.658-1.973-1.316-3.289zm-256.534-80.249c21.707 0 38.809 17.76 38.809 38.809 0 21.707-17.76 38.809-38.809 38.809-21.707 0-38.809-17.76-38.809-38.809 0-21.048 17.76-38.809 38.809-38.809zm-55.253 65.778c9.867 20.391 30.916 34.862 55.253 34.862 33.547 0 61.173-27.627 61.173-61.173a61.069 61.069 0 0 0-11.84-36.178c34.204-2.631 115.111 1.316 176.943 75.645l-420.979 80.907 139.45-94.063zm290.08 284.161L62.484 693.589V573.874l469.654-83.538v115.769zm0-138.134L62.484 551.509V445.607l469.654-90.116v112.48z" fill="rgba(211, 175, 175, 1)" stroke="none"/>
</svg>
</g></svg></g></g>
<!-- /image 56792 -->

<!-- image 66052 -->
<g id="transformed-66052" data-image="66052" transform="translate(162.6561280638334, 213.13969254485522) rotate(37, 11.9738719361666, 16.940307455144797)"><g><svg version="1.1" width="23.9477438723332px" height="33.880614910289594px" viewBox="0 0 23.9477438723332 33.880614910289594"><g id="original-66052"><svg xmlns="http://www.w3.org/2000/svg" viewBox="0 0 595.28 841.89" xmlns:xlink="http://www.w3.org/1999/xlink" version="1.1" preserveAspectRatio="xMidYMid meet">
  <path d="M553.845 336.415s0-.658-.658-.658c-87.485-122.347-224.96-97.351-226.276-96.694-1.316 0-1.973.658-2.631 1.316-4.604-1.973-9.867-3.947-14.471-4.604 1.316-23.022 7.236-78.276 42.098-90.773 5.92-1.973 8.551-8.551 6.578-14.471-1.973-5.92-8.551-8.551-14.471-6.578-48.676 17.102-55.911 85.511-57.227 111.822-28.284 5.262-49.991 30.258-49.991 59.858v3.289L45.382 427.847c-1.316.658-1.973 1.316-2.631 2.631-1.316 1.973-1.316 2.631-1.973 3.947V437.056l-.658 270.347c0 3.289 1.316 6.578 3.947 8.551 1.973 1.973 4.604 2.631 7.236 2.631h1.973l492.676-91.431c5.262-.658 9.209-5.92 9.209-11.182V342.336 340.362v-.658c-.001-1.315-.658-1.973-1.316-3.289zm-256.534-80.249c21.707 0 38.809 17.76 38.809 38.809 0 21.707-17.76 38.809-38.809 38.809-21.707 0-38.809-17.76-38.809-38.809 0-21.048 17.76-38.809 38.809-38.809zm-55.253 65.778c9.867 20.391 30.916 34.862 55.253 34.862 33.547 0 61.173-27.627 61.173-61.173a61.069 61.069 0 0 0-11.84-36.178c34.204-2.631 115.111 1.316 176.943 75.645l-420.979 80.907 139.45-94.063zm290.08 284.161L62.484 693.589V573.874l469.654-83.538v115.769zm0-138.134L62.484 551.509V445.607l469.654-90.116v112.48z" fill="rgba(211, 175, 175, 1)" stroke="none"/>
</svg>
</g></svg></g></g>
<!-- /image 66052 -->

<!-- image 52194 -->
<g id="transformed-52194" data-image="52194" transform="translate(53.65612806383339, 171.45969254485522) rotate(37, 11.9738719361666, 16.940307455144797)"><g><svg version="1.1" width="23.9477438723332px" height="33.880614910289594px" viewBox="0 0 23.9477438723332 33.880614910289594"><g id="original-52194"><svg xmlns="http://www.w3.org/2000/svg" viewBox="0 0 595.28 841.89" xmlns:xlink="http://www.w3.org/1999/xlink" version="1.1" preserveAspectRatio="xMidYMid meet">
  <path d="M553.845 336.415s0-.658-.658-.658c-87.485-122.347-224.96-97.351-226.276-96.694-1.316 0-1.973.658-2.631 1.316-4.604-1.973-9.867-3.947-14.471-4.604 1.316-23.022 7.236-78.276 42.098-90.773 5.92-1.973 8.551-8.551 6.578-14.471-1.973-5.92-8.551-8.551-14.471-6.578-48.676 17.102-55.911 85.511-57.227 111.822-28.284 5.262-49.991 30.258-49.991 59.858v3.289L45.382 427.847c-1.316.658-1.973 1.316-2.631 2.631-1.316 1.973-1.316 2.631-1.973 3.947V437.056l-.658 270.347c0 3.289 1.316 6.578 3.947 8.551 1.973 1.973 4.604 2.631 7.236 2.631h1.973l492.676-91.431c5.262-.658 9.209-5.92 9.209-11.182V342.336 340.362v-.658c-.001-1.315-.658-1.973-1.316-3.289zm-256.534-80.249c21.707 0 38.809 17.76 38.809 38.809 0 21.707-17.76 38.809-38.809 38.809-21.707 0-38.809-17.76-38.809-38.809 0-21.048 17.76-38.809 38.809-38.809zm-55.253 65.778c9.867 20.391 30.916 34.862 55.253 34.862 33.547 0 61.173-27.627 61.173-61.173a61.069 61.069 0 0 0-11.84-36.178c34.204-2.631 115.111 1.316 176.943 75.645l-420.979 80.907 139.45-94.063zm290.08 284.161L62.484 693.589V573.874l469.654-83.538v115.769zm0-138.134L62.484 551.509V445.607l469.654-90.116v112.48z" fill="rgba(211, 175, 175, 1)" stroke="none"/>
</svg>
</g></svg></g></g>
<!-- /image 52194 -->

<!-- image 63877 -->
<g id="transformed-63877" data-image="63877" transform="translate(51.353720274378325, 34.99855879727389) rotate(13, 13.176279725621674, 18.641441202726117)"><g><svg version="1.1" width="26.352559451243348px" height="37.282882405452234px" viewBox="0 0 26.352559451243348 37.282882405452234"><g id="original-63877"><svg xmlns="http://www.w3.org/2000/svg" viewBox="0 0 595.28 841.89" xmlns:xlink="http://www.w3.org/1999/xlink" version="1.1" preserveAspectRatio="xMidYMid meet">
  <path d="M553.845 336.415s0-.658-.658-.658c-87.485-122.347-224.96-97.351-226.276-96.694-1.316 0-1.973.658-2.631 1.316-4.604-1.973-9.867-3.947-14.471-4.604 1.316-23.022 7.236-78.276 42.098-90.773 5.92-1.973 8.551-8.551 6.578-14.471-1.973-5.92-8.551-8.551-14.471-6.578-48.676 17.102-55.911 85.511-57.227 111.822-28.284 5.262-49.991 30.258-49.991 59.858v3.289L45.382 427.847c-1.316.658-1.973 1.316-2.631 2.631-1.316 1.973-1.316 2.631-1.973 3.947V437.056l-.658 270.347c0 3.289 1.316 6.578 3.947 8.551 1.973 1.973 4.604 2.631 7.236 2.631h1.973l492.676-91.431c5.262-.658 9.209-5.92 9.209-11.182V342.336 340.362v-.658c-.001-1.315-.658-1.973-1.316-3.289zm-256.534-80.249c21.707 0 38.809 17.76 38.809 38.809 0 21.707-17.76 38.809-38.809 38.809-21.707 0-38.809-17.76-38.809-38.809 0-21.048 17.76-38.809 38.809-38.809zm-55.253 65.778c9.867 20.391 30.916 34.862 55.253 34.862 33.547 0 61.173-27.627 61.173-61.173a61.069 61.069 0 0 0-11.84-36.178c34.204-2.631 115.111 1.316 176.943 75.645l-420.979 80.907 139.45-94.063zm290.08 284.161L62.484 693.589V573.874l469.654-83.538v115.769zm0-138.134L62.484 551.509V445.607l469.654-90.116v112.48z" fill="rgba(211, 175, 175, 1)" stroke="none"/>
</svg>
</g></svg></g></g>
<!-- /image 63877 -->

<!-- image 76941 -->
<g id="transformed-76941" data-image="76941" transform="translate(171.2861280638334, 37.5996925448552) rotate(37, 11.9738719361666, 16.940307455144797)"><g><svg version="1.1" width="23.9477438723332px" height="33.880614910289594px" viewBox="0 0 23.9477438723332 33.880614910289594"><g id="original-76941"><svg xmlns="http://www.w3.org/2000/svg" viewBox="0 0 595.28 841.89" xmlns:xlink="http://www.w3.org/1999/xlink" version="1.1" preserveAspectRatio="xMidYMid meet">
  <path d="M553.845 336.415s0-.658-.658-.658c-87.485-122.347-224.96-97.351-226.276-96.694-1.316 0-1.973.658-2.631 1.316-4.604-1.973-9.867-3.947-14.471-4.604 1.316-23.022 7.236-78.276 42.098-90.773 5.92-1.973 8.551-8.551 6.578-14.471-1.973-5.92-8.551-8.551-14.471-6.578-48.676 17.102-55.911 85.511-57.227 111.822-28.284 5.262-49.991 30.258-49.991 59.858v3.289L45.382 427.847c-1.316.658-1.973 1.316-2.631 2.631-1.316 1.973-1.316 2.631-1.973 3.947V437.056l-.658 270.347c0 3.289 1.316 6.578 3.947 8.551 1.973 1.973 4.604 2.631 7.236 2.631h1.973l492.676-91.431c5.262-.658 9.209-5.92 9.209-11.182V342.336 340.362v-.658c-.001-1.315-.658-1.973-1.316-3.289zm-256.534-80.249c21.707 0 38.809 17.76 38.809 38.809 0 21.707-17.76 38.809-38.809 38.809-21.707 0-38.809-17.76-38.809-38.809 0-21.048 17.76-38.809 38.809-38.809zm-55.253 65.778c9.867 20.391 30.916 34.862 55.253 34.862 33.547 0 61.173-27.627 61.173-61.173a61.069 61.069 0 0 0-11.84-36.178c34.204-2.631 115.111 1.316 176.943 75.645l-420.979 80.907 139.45-94.063zm290.08 284.161L62.484 693.589V573.874l469.654-83.538v115.769zm0-138.134L62.484 551.509V445.607l469.654-90.116v112.48z" fill="rgba(211, 175, 175, 1)" stroke="none"/>
</svg>
</g></svg></g></g>
<!-- /image 76941 -->

<!-- image 26537 -->
<g id="transformed-26537" data-image="26537" transform="translate(192.0761280638334, 132.63969254485522) rotate(37, 11.9738719361666, 16.940307455144797)"><g><svg version="1.1" width="23.9477438723332px" height="33.880614910289594px" viewBox="0 0 23.9477438723332 33.880614910289594"><g id="original-26537"><svg xmlns="http://www.w3.org/2000/svg" viewBox="0 0 595.28 841.89" xmlns:xlink="http://www.w3.org/1999/xlink" version="1.1" preserveAspectRatio="xMidYMid meet">
  <path d="M553.845 336.415s0-.658-.658-.658c-87.485-122.347-224.96-97.351-226.276-96.694-1.316 0-1.973.658-2.631 1.316-4.604-1.973-9.867-3.947-14.471-4.604 1.316-23.022 7.236-78.276 42.098-90.773 5.92-1.973 8.551-8.551 6.578-14.471-1.973-5.92-8.551-8.551-14.471-6.578-48.676 17.102-55.911 85.511-57.227 111.822-28.284 5.262-49.991 30.258-49.991 59.858v3.289L45.382 427.847c-1.316.658-1.973 1.316-2.631 2.631-1.316 1.973-1.316 2.631-1.973 3.947V437.056l-.658 270.347c0 3.289 1.316 6.578 3.947 8.551 1.973 1.973 4.604 2.631 7.236 2.631h1.973l492.676-91.431c5.262-.658 9.209-5.92 9.209-11.182V342.336 340.362v-.658c-.001-1.315-.658-1.973-1.316-3.289zm-256.534-80.249c21.707 0 38.809 17.76 38.809 38.809 0 21.707-17.76 38.809-38.809 38.809-21.707 0-38.809-17.76-38.809-38.809 0-21.048 17.76-38.809 38.809-38.809zm-55.253 65.778c9.867 20.391 30.916 34.862 55.253 34.862 33.547 0 61.173-27.627 61.173-61.173a61.069 61.069 0 0 0-11.84-36.178c34.204-2.631 115.111 1.316 176.943 75.645l-420.979 80.907 139.45-94.063zm290.08 284.161L62.484 693.589V573.874l469.654-83.538v115.769zm0-138.134L62.484 551.509V445.607l469.654-90.116v112.48z" fill="rgba(211, 175, 175, 1)" stroke="none"/>
</svg>
</g></svg></g></g>
<!-- /image 26537 -->

<!-- image 88688 -->
<g id="transformed-88688" data-image="88688" transform="translate(194.22186907769162, 1.6518690776916216) rotate(25, 20.708130922308374, 20.708130922308378)"><g><svg version="1.1" width="41.41626184461675px" height="41.416261844616756px" viewBox="0 0 41.41626184461675 41.416261844616756"><g id="original-88688"><svg xmlns="http://www.w3.org/2000/svg" viewBox="0 0 400 400" xmlns:xlink="http://www.w3.org/1999/xlink" version="1.1" preserveAspectRatio="xMidYMid meet">
  <path d="M298.4 289l-47.1-66.5h20.5c1.9 0 3.7-1.1 4.5-2.9.8-1.8.5-3.8-.7-5.3l-46.4-54.7h20.2c1.9 0 3.6-1 4.4-2.7.9-1.6.7-3.6-.3-5.2L221 104.3l-15-21.7c-.9-1.4-2.5-2.2-4.1-2.2-1.6 0-3.2.8-4.1 2.2l-47.5 69.1c-1.1 1.5-1.2 3.5-.3 5.2.9 1.6 2.6 2.7 4.4 2.7h20.2l-6.4 7.6-39.9 47.1c-1.3 1.5-1.5 3.6-.7 5.3.8 1.8 2.6 2.9 4.5 2.9h20.5L105.5 289c-1.1 1.5-1.2 3.5-.4 5.2.9 1.7 2.6 2.7 4.4 2.7h53l-.1 35.5c0 1.3.5 2.6 1.5 3.5.9.9 2.2 1.5 3.5 1.5h68.9c2.8 0 5-2.2 5-5v-35.5h53c1.9 0 3.6-1 4.4-2.7.9-1.6.8-3.6-.3-5.2zM201.9 94.3l9.3 13.5c-.3.5-.8 1.1-1.5 2-1.7 2.1-1.4 5.3.8 7 .9.7 2 1.1 3.1 1.1 1.3 0 2.6-.5 3.5-1.4l21.6 31.4h-73.6l7.5-10.9c10.9-.8 14.4-1.1 21.5-4.5 2.5-1.2 3.6-4.2 2.4-6.7-1.2-2.5-4.2-3.6-6.7-2.4-3.7 1.7-5.8 2.4-9.9 2.9l22-32zm-29.7 83.6c3.5 3.4 7.3 6.3 11.5 8.6.8.4 1.6.6 2.4.6 1.8 0 3.5-1 4.4-2.6 1.3-2.4.4-5.5-2-6.8-3.6-1.9-6.9-4.4-9.8-7.4l10.6-12.5h25.4l18.6 21.9c-5.4 1.8-13.5 4-21.8 4.2-2.8.1-4.9 2.4-4.8 5.2.1 2.7 2.3 4.8 5 4.8h.2c11.8-.4 23-4 28.4-6.1l20.9 24.6H143l29.2-34.5zm15.3 109c-2.8 0-5 2.2-5 5s2.2 5 5 5h43.8v30.5h-58.9l.1-35.5c0-1.3-.5-2.6-1.5-3.5-.9-.9-2.2-1.5-3.5-1.5h-48.3l21.8-30.8c3.7 1.8 9.1 2.8 16.3 2.8 2.8 0 5.9-.1 9.3-.4 2.8-.2 4.8-2.6 4.6-5.4-.2-2.8-2.6-4.8-5.4-4.6-11 .9-16.4 0-18.9-.7l17.9-25.2H239l3.4 4.9c-2.7 1.5-6.9 3.4-13.5 5.8-2.6.9-4 3.8-3.1 6.4.7 2.1 2.7 3.3 4.7 3.3.6 0 1.1-.1 1.7-.3 7-2.5 12.2-4.7 16-7l36.4 51.4h-97.1z" fill="rgba(211, 175, 175, 1)" stroke="none"/>
  <path d="M203.6 240.4c-4.2 1.2-6.2 1.8-8 2.4-1.2.4-2.2.7-3.6 1.1-2.7.8-4.2 3.5-3.4 6.2.6 2.2 2.6 3.6 4.8 3.6.5 0 .9-.1 1.4-.2 1.6-.5 2.8-.8 4-1.2 1.7-.6 3.7-1.2 7.6-2.3 2.7-.7 4.2-3.5 3.5-6.2-.9-2.6-3.6-4.2-6.3-3.4z" fill="rgba(211, 175, 175, 1)" stroke="none"/>
  <path d="M194.9 190.8c.8.7 1.9 1.3 3.4 1.5.3 0 .5.1.8.1 2.4 0 4.5-1.8 4.9-4.2.3-2.2-.9-4.4-2.8-5.3-.7-.6-1.6-1-2.7-1.3-2.7-.7-5.4 1-6.1 3.6-.6 2.2.5 4.5 2.5 5.6z" fill="rgba(211, 175, 175, 1)" stroke="none"/>
  <path d="M199.4 125.8c.9.7 2 1.1 3.1 1.1s2.2-.3 3-1c.9-.4 1.9-1.2 2.8-2.5 1.5-2.3.9-5.4-1.4-6.9-1.9-1.2-4.3-1-6 .4-.8.4-1.6 1.1-2.3 1.9-1.8 2.2-1.4 5.3.8 7z" fill="rgba(211, 175, 175, 1)" stroke="none"/>
  <path d="M181.2 247.7h-2.7c-2.8 0-5 2.2-5 5s2.2 5 5 5h2.7c2.8 0 5-2.2 5-5s-2.3-5-5-5z" fill="rgba(211, 175, 175, 1)" stroke="none"/>
  <path d="M218.7 236.3l-2.2.4c-2.7.5-4.5 3.1-4.1 5.8.4 2.4 2.5 4.1 4.9 4.1.3 0 .6 0 .9-.1l2.2-.4c2.7-.5 4.5-3.1 4.1-5.8-.5-2.6-3.1-4.5-5.8-4z" fill="rgba(211, 175, 175, 1)" stroke="none"/>
  <path d="M195.1 74.5l8.3-4.4 8.4 4.4-1.6-9.3 6.8-6.6-9.4-1.3-4.2-8.5-4.1 8.5-9.4 1.3 6.8 6.6z" fill="rgba(211, 175, 175, 1)" stroke="none"/>
</svg>
</g></svg></g></g>
<!-- /image 88688 -->

<!-- image 88569 -->
<g id="transformed-88569" data-image="88569" transform="translate(1.6852695285851702, 115.55526952858517) rotate(335, 20.16473047141483, 20.164730471414824)"><g><svg version="1.1" width="40.32946094282966px" height="40.32946094282965px" viewBox="0 0 40.32946094282966 40.32946094282965"><g id="original-88569"><svg xmlns="http://www.w3.org/2000/svg" viewBox="0 0 400 400" xmlns:xlink="http://www.w3.org/1999/xlink" version="1.1" preserveAspectRatio="xMidYMid meet">
  <path d="M282.2 144h-52.8c1.5-.7 3-1.4 4.6-2.1 7.1-3.4 12.7-6.5 17.1-9.4.1-.1.3-.2.4-.3 15.5-10.2 16.1-17.3 16.4-20 .6-6.6-3.4-12.3-12-16.9-6.7-3.6-13.6-4-20.6-1.3-5.2 2.1-10 5.9-14.3 10.6-.3.3-.6.6-.8.9-6.2 7.1-11.4 15.9-15.2 23.6-1-12.6-5.2-32.7-21.6-42.7-20.2-12.2-39.8 3.8-47.7 14.4-.9.8-1.8 1.7-2.6 2.7-5.2 5.9-4.8 11.4-3.6 15 3.1 9.1 15.6 17.2 38.4 24.9.5.2 1 .3 1.5.5h-52.8c-9.4 0-17 7.6-17 17v42c0 9.4 7.6 17 17 17h62V313h-43.2c-3.9 0-7-3.1-7-7v-73c0-2.8-2.2-5-5-5s-5 2.2-5 5v73.1c0 9.4 7.6 17 17 17H265c9.4 0 17-7.6 17-17V233c0-2.8-2.2-5-5-5s-5 2.2-5 5v73.1c0 3.9-3.1 7-7 7h-44.7V220h61.9c9.4 0 17-7.6 17-17v-42c0-9.4-7.7-17-17-17zm-69.4 10v56H191v-56h9.1c.6.2 1.2.3 1.8.3.5 0 1-.1 1.6-.2 0 0 .1 0 .3-.1h9zm31.4-51.7c2.3 0 4.6.6 6.9 1.9 3.2 1.7 7 4.4 6.7 7.2-.2 2.3-2.1 4.9-5.2 7.6-1.1-4-3.1-7.3-6-9.9-2.8-2.6-6.2-4.1-9.5-4.9.6-.3 1.2-.6 1.8-.8 1.8-.8 3.5-1.1 5.3-1.1zm-17.4 10.8c3.5-.2 9.6.2 13.2 3.4 2.2 2 3.4 4.9 3.6 8.9-9.3 5.6-21.6 11.2-33 15.5 3.7-8.7 9.4-19.7 16.2-27.8zM178.2 95c12.2 7.4 15.7 23.3 16.7 33.9-9-13.2-23-30.1-37.9-33.8 7.6-4.1 14.5-4.1 21.2-.1zm-39.3 20.3c-.2-.7-.8-2.4 1.7-5.3 3.3-3.8 6.8-5.6 10.7-5.6.5 0 1 0 1.5.1 13 1.5 28.2 21 37.2 35.1-22.3-5.7-48.1-15.4-51.1-24.3zM109.6 203v-42c0-3.9 3.1-7 7-7H181v56h-64.5c-3.8 0-6.9-3.1-6.9-7zm79 110.1V220h21.7v93.1h-21.7zM289.2 203c0 3.9-3.1 7-7 7h-59.4v-56h59.4c3.9 0 7 3.1 7 7v42z" fill="rgba(211, 175, 175, 1)" stroke="none"/>
</svg>
</g></svg></g></g>
<!-- /image 88569 -->

<!-- image 44102 -->
<g id="transformed-44102" data-image="44102" transform="translate(-0.47609575557019923, 30.2339042444298) rotate(348, 22.7260957555702, 22.7260957555702)"><g><svg version="1.1" width="45.4521915111404px" height="45.4521915111404px" viewBox="0 0 45.4521915111404 45.4521915111404"><g id="original-44102"><svg xmlns="http://www.w3.org/2000/svg" viewBox="0 0 400 400" xmlns:xlink="http://www.w3.org/1999/xlink" version="1.1" preserveAspectRatio="xMidYMid meet">
  <path d="M298.4 289l-47.1-66.5h20.5c1.9 0 3.7-1.1 4.5-2.9.8-1.8.5-3.8-.7-5.3l-46.4-54.7h20.2c1.9 0 3.6-1 4.4-2.7.9-1.6.7-3.6-.3-5.2L221 104.3l-15-21.7c-.9-1.4-2.5-2.2-4.1-2.2-1.6 0-3.2.8-4.1 2.2l-47.5 69.1c-1.1 1.5-1.2 3.5-.3 5.2.9 1.6 2.6 2.7 4.4 2.7h20.2l-6.4 7.6-39.9 47.1c-1.3 1.5-1.5 3.6-.7 5.3.8 1.8 2.6 2.9 4.5 2.9h20.5L105.5 289c-1.1 1.5-1.2 3.5-.4 5.2.9 1.7 2.6 2.7 4.4 2.7h53l-.1 35.5c0 1.3.5 2.6 1.5 3.5.9.9 2.2 1.5 3.5 1.5h68.9c2.8 0 5-2.2 5-5v-35.5h53c1.9 0 3.6-1 4.4-2.7.9-1.6.8-3.6-.3-5.2zM201.9 94.3l9.3 13.5c-.3.5-.8 1.1-1.5 2-1.7 2.1-1.4 5.3.8 7 .9.7 2 1.1 3.1 1.1 1.3 0 2.6-.5 3.5-1.4l21.6 31.4h-73.6l7.5-10.9c10.9-.8 14.4-1.1 21.5-4.5 2.5-1.2 3.6-4.2 2.4-6.7-1.2-2.5-4.2-3.6-6.7-2.4-3.7 1.7-5.8 2.4-9.9 2.9l22-32zm-29.7 83.6c3.5 3.4 7.3 6.3 11.5 8.6.8.4 1.6.6 2.4.6 1.8 0 3.5-1 4.4-2.6 1.3-2.4.4-5.5-2-6.8-3.6-1.9-6.9-4.4-9.8-7.4l10.6-12.5h25.4l18.6 21.9c-5.4 1.8-13.5 4-21.8 4.2-2.8.1-4.9 2.4-4.8 5.2.1 2.7 2.3 4.8 5 4.8h.2c11.8-.4 23-4 28.4-6.1l20.9 24.6H143l29.2-34.5zm15.3 109c-2.8 0-5 2.2-5 5s2.2 5 5 5h43.8v30.5h-58.9l.1-35.5c0-1.3-.5-2.6-1.5-3.5-.9-.9-2.2-1.5-3.5-1.5h-48.3l21.8-30.8c3.7 1.8 9.1 2.8 16.3 2.8 2.8 0 5.9-.1 9.3-.4 2.8-.2 4.8-2.6 4.6-5.4-.2-2.8-2.6-4.8-5.4-4.6-11 .9-16.4 0-18.9-.7l17.9-25.2H239l3.4 4.9c-2.7 1.5-6.9 3.4-13.5 5.8-2.6.9-4 3.8-3.1 6.4.7 2.1 2.7 3.3 4.7 3.3.6 0 1.1-.1 1.7-.3 7-2.5 12.2-4.7 16-7l36.4 51.4h-97.1z" fill="rgba(211, 175, 175, 1)" stroke="none"/>
  <path d="M203.6 240.4c-4.2 1.2-6.2 1.8-8 2.4-1.2.4-2.2.7-3.6 1.1-2.7.8-4.2 3.5-3.4 6.2.6 2.2 2.6 3.6 4.8 3.6.5 0 .9-.1 1.4-.2 1.6-.5 2.8-.8 4-1.2 1.7-.6 3.7-1.2 7.6-2.3 2.7-.7 4.2-3.5 3.5-6.2-.9-2.6-3.6-4.2-6.3-3.4z" fill="rgba(211, 175, 175, 1)" stroke="none"/>
  <path d="M194.9 190.8c.8.7 1.9 1.3 3.4 1.5.3 0 .5.1.8.1 2.4 0 4.5-1.8 4.9-4.2.3-2.2-.9-4.4-2.8-5.3-.7-.6-1.6-1-2.7-1.3-2.7-.7-5.4 1-6.1 3.6-.6 2.2.5 4.5 2.5 5.6z" fill="rgba(211, 175, 175, 1)" stroke="none"/>
  <path d="M199.4 125.8c.9.7 2 1.1 3.1 1.1s2.2-.3 3-1c.9-.4 1.9-1.2 2.8-2.5 1.5-2.3.9-5.4-1.4-6.9-1.9-1.2-4.3-1-6 .4-.8.4-1.6 1.1-2.3 1.9-1.8 2.2-1.4 5.3.8 7z" fill="rgba(211, 175, 175, 1)" stroke="none"/>
  <path d="M181.2 247.7h-2.7c-2.8 0-5 2.2-5 5s2.2 5 5 5h2.7c2.8 0 5-2.2 5-5s-2.3-5-5-5z" fill="rgba(211, 175, 175, 1)" stroke="none"/>
  <path d="M218.7 236.3l-2.2.4c-2.7.5-4.5 3.1-4.1 5.8.4 2.4 2.5 4.1 4.9 4.1.3 0 .6 0 .9-.1l2.2-.4c2.7-.5 4.5-3.1 4.1-5.8-.5-2.6-3.1-4.5-5.8-4z" fill="rgba(211, 175, 175, 1)" stroke="none"/>
  <path d="M195.1 74.5l8.3-4.4 8.4 4.4-1.6-9.3 6.8-6.6-9.4-1.3-4.2-8.5-4.1 8.5-9.4 1.3 6.8 6.6z" fill="rgba(211, 175, 175, 1)" stroke="none"/>
</svg>
</g></svg></g></g>
<!-- /image 44102 -->

<!-- image 47856 -->
<g id="transformed-47856" data-image="47856" transform="translate(23.428626184582782, 66.97862618458278) rotate(23, 27.051373815417215, 27.05137381541722)"><g><svg version="1.1" width="54.10274763083443px" height="54.10274763083444px" viewBox="0 0 54.10274763083443 54.10274763083444"><g id="original-47856"><svg xmlns="http://www.w3.org/2000/svg" viewBox="0 0 400 400" xmlns:xlink="http://www.w3.org/1999/xlink" version="1.1" preserveAspectRatio="xMidYMid meet">
  <path d="M178.9 267.5c-2.6-.8-5.4.7-6.2 3.4-1.7 5.8-7.8 9.1-13.6 7.4-5.8-1.7-9.1-7.8-7.4-13.6.8-2.6-.7-5.4-3.4-6.2-2.6-.8-5.4.7-6.2 3.4-1.6 5.4-1 11 1.7 16 2.7 4.9 7.1 8.5 12.5 10.1 2 .6 4 .9 6 .9 3.5 0 6.9-.9 10-2.6 4.9-2.7 8.5-7.1 10.1-12.5.6-2.8-.9-5.6-3.5-6.3z" fill="rgba(211, 175, 175, 1)" stroke="none"/>
  <path d="M307 242l-5.3-19.3c-.6-2.1-2.4-3.6-4.6-3.7-.2 0-21.7-2-33.2-43.6-6.4-23.2-20.4-39.7-38.7-45.9 1.5-10.2-4.6-20.2-14.8-23.2-11-3.3-22.6 3-26 13.9-2 .2-3.9.6-5.9 1-20.1 4.8-35.8 21.7-43 46.3-12.2 41.2-33 42.9-34 43-2.1.1-4 1.5-4.6 3.6l-5.7 19.2c-.8 2.6.7 5.4 3.4 6.2l128.3 37.9c0 .5 0 1.1.2 1.6 1.6 5.4 5.2 9.8 10.1 12.5 3.1 1.7 6.5 2.5 10 2.5 2 0 4-.3 6-.9 11.1-3.3 17.4-15 14.1-26.1-.8-2.6-3.6-4.1-6.2-3.4-2.6.8-4.2 3.6-3.4 6.2 1.7 5.8-1.6 11.9-7.4 13.7-2.8.8-5.8.5-8.4-.9-1.2-.6-2.2-1.5-3.1-2.5.4-.1.8-.3 1.2-.5 1.2-.6 2-1.7 2.4-3l3.2-10.8 61.9-18c2.7-.4 4.2-3.2 3.5-5.8zm-52.8-63.9c6.6 24 16.6 36.6 25.2 43.4l-46.1 13.2c-1.5-8.4-1.3-20.4 3.6-37 5.9-19.8 4.3-38.5-4-52.8 9.8 7 17.2 18.5 21.3 33.2zm-46.7-62.2c4.9 1.5 8.1 6.1 7.9 11-6.1-3.6-13-5.9-20-6.7 2.5-3.8 7.4-5.7 12.1-4.3zM105.5 220c8.3-2 28-10.8 39.5-49.6 6.2-21.1 19.3-35.5 35.8-39.5 13.6-3.3 28.1 1 37.8 11.2 11.8 12.4 15 31.5 8.8 52.6-7.4 25.2-5.1 41.6-.9 51.8l-102.4-30.2c-2.6-.8-5.4.7-6.2 3.4-.8 2.6.7 5.4 3.4 6.2l112 33.1-3 10.3-128.1-37.8 3.3-11.5zm138.6 35c-.3-1.1-1-2.1-2-2.8-.3-.2-3.3-2.5-5.9-8l55.9-16c.2.1.4.1.6.2l3.2 11.5-51.8 15.1z" fill="rgba(211, 175, 175, 1)" stroke="none"/>
  <path d="M202.4 152.1c.6.3 13.8 7.8 8.7 37.5-.5 2.7 1.3 5.3 4.1 5.8.3.1.6.1.9.1 2.4 0 4.5-1.7 4.9-4.1 6.6-37.6-13.2-47.8-14-48.2-2.5-1.2-5.5-.2-6.7 2.3-1.3 2.4-.3 5.3 2.1 6.6z" fill="rgba(211, 175, 175, 1)" stroke="none"/>
  <path d="M189.2 145.6l.2.1c.8.5 1.8.8 2.7.8 1.6 0 3.2-.8 4.2-2.3.5-.8.8-1.8.8-2.7 0-1.6-.8-3.2-2.3-4.2l-.2-.1c-2.3-1.5-5.4-.8-6.9 1.5-.5.8-.8 1.8-.8 2.7 0 1.6.8 3.2 2.3 4.2z" fill="rgba(211, 175, 175, 1)" stroke="none"/>
</svg>
</g></svg></g></g>
<!-- /image 47856 -->

<!-- image 50718 -->
<g id="transformed-50718" data-image="50718" transform="translate(2.7263717849609463, 161.15637178496092) rotate(8, 20.513628215039052, 20.513628215039052)"><g><svg version="1.1" width="41.027256430078104px" height="41.027256430078104px" viewBox="0 0 41.027256430078104 41.027256430078104"><g id="original-50718"><svg xmlns="http://www.w3.org/2000/svg" viewBox="0 0 400 400" xmlns:xlink="http://www.w3.org/1999/xlink" version="1.1" preserveAspectRatio="xMidYMid meet">
  <path d="M295.9 246.1c-4-15.2-13.2-28.1-26.1-36.8l-.1-.1c-1.1-.7-2.2-1.5-3.4-2.1l-20.1-11.7v-50.8h2.8c8.5 0 15.5-7 15.5-15.5v-42c0-8.5-7-15.5-15.5-15.5H113.9c-8.5 0-15.5 6.9-15.5 15.5v42c0 8.5 7 15.5 15.5 15.5h4.3v87c0 9.8 2.2 19.2 6.5 27.9 5.5 11.9 14.4 21.7 25.7 28.3l51.5 30c10.1 5.9 21.2 8.7 32.1 8.7 22 0 43.5-11.4 55.4-31.8 8.5-14.8 10.8-32 6.5-48.6zm-36.6-31.5l-75.4 81.1-5.1-3c5.8-9.9 7.8-21.4 6.1-32.5l54.1-57.5 20.3 11.9zm-70.2-70l-60.9 66.3v-33.3l30.6-33h30.3zm13.6 0h32l-74.6 80.2c-7.7-4.3-16.5-6.4-25.5-6.2l68.1-74zm33.5 13v33.6l-54.5 57.9c-1-2.3-2.1-4.6-3.5-6.9-2.7-4.5-6.1-8.3-9.9-11.6l67.9-73zm-127.8-28.5v-42c0-3 2.5-5.5 5.5-5.5H249c3 0 5.5 2.5 5.5 5.5v42c0 3-2.5 5.5-5.5 5.5H113.9c-3 0-5.5-2.5-5.5-5.5zm36.7 15.5l-17 18.3v-18.3h17zm-11.4 110.6s-.1 0 0 0c-3.7-7.5-5.5-15.4-5.5-23.7v-2.1c16.1-3.4 32.8 3.7 41.5 18 7.6 12.4 7.7 27.9.4 40.3l-14.8-8.6c-9.5-5.6-17-13.8-21.6-23.9zm59.1 45.7l75-80.7c5.9 4.7 10.7 10.6 14.2 17.4l-69.2 74.5c-2-.9-4-1.8-5.9-3l-14.1-8.2zm87.9-11.3c-7.2 12.4-18.9 21.3-32.9 25-8.1 2.1-16.5 2.4-24.5.8L286 248c.1.2.1.5.2.7 3.7 14 1.7 28.5-5.5 40.9z" fill="rgba(211, 175, 175, 1)" stroke="none"/>
</svg>
</g></svg></g></g>
<!-- /image 50718 -->

<!-- image 61980 -->
<g id="transformed-61980" data-image="61980" transform="translate(208.73730723489817, 34.997307234898166) rotate(30, 22.422692765101836, 22.422692765101836)"><g><svg version="1.1" width="44.84538553020367px" height="44.84538553020367px" viewBox="0 0 44.84538553020367 44.84538553020367"><g id="original-61980"><svg xmlns="http://www.w3.org/2000/svg" viewBox="0 0 400 400" xmlns:xlink="http://www.w3.org/1999/xlink" version="1.1" preserveAspectRatio="xMidYMid meet">
  <path d="M265 159.8c-.1-.1-.1-.2-.2-.3l-.4-.4c-10.9-10.6-24.2-18.6-39.2-23V121c0-9.4-7.6-17-17-17h-20c-9.4 0-17 7.6-17 17v19c0 2.8 2.2 5 5 5s5-2.2 5-5v-19c0-3.9 3.1-7 7-7h20c3.9 0 7 3.1 7 7v12.8c-5.4-1-10.9-1.5-16.6-1.5-3.3 0-6.5.2-9.8.5-2.7.3-4.7 2.7-4.5 5.5.3 2.7 2.7 4.7 5.5 4.5 1.2-.1 2.4-.2 3.7-.3L114.7 219c1.3-14.5 6.3-28.4 14.7-40.4 9.6-13.8 22.9-24.4 38.5-30.5 2.6-1 3.8-3.9 2.8-6.5s-3.9-3.8-6.5-2.8c-17.5 6.8-32.4 18.6-43.1 34.1-11 15.8-16.8 34.4-16.8 53.7 0 52 42.3 94.2 94.2 94.2 52 0 94.2-42.3 94.2-94.2.1-26.1-10.5-49.7-27.7-66.8zM164.1 303.4l112.3-109c2.7 6.6 4.7 13.7 5.6 21-.1 0-.1.1-.2.1l-97 94.1c-7.2-1.1-14.2-3.2-20.7-6.2zm-23.9-16.1c.1-.1.3-.2.4-.3L261 170.1c4.1 4.5 7.7 9.5 10.7 14.9l-117 113.5c-5.2-3.2-10-7-14.5-11.2zM114.6 233l92.9-90.2c7.3.8 14.3 2.5 20.9 5L119 254.1c-2.4-6.7-3.8-13.8-4.4-21.1zm7.9 29.7c1.2 0 2.4-.5 3.4-1.4l112.3-109c5.6 3 10.9 6.7 15.7 10.9L133.7 279.8c-.1.1-.1.2-.2.3-4.3-5.3-8.1-11.2-11-17.4zm76.1 48.1h-.5l84.7-82.2c-1.1 45.6-38.5 82.2-84.2 82.2z" fill="rgba(211, 175, 175, 1)" stroke="none"/>
  <path d="M184.2 101.3c2.8 0 5-2.2 5-5 0-5.5 4.5-10 10-10s10 4.5 10 10c0 2.8 2.2 5 5 5s5-2.2 5-5c0-11-9-20-20-20s-20 9-20 20c0 2.8 2.3 5 5 5z" fill="rgba(211, 175, 175, 1)" stroke="none"/>
</svg>
</g></svg></g></g>
<!-- /image 61980 -->

<!-- image 23714 -->
<g id="transformed-23714" data-image="23714" transform="translate(39.43099244186027, 197.99099244186027) rotate(24, 22.829007558139725, 22.829007558139722)"><g><svg version="1.1" width="45.65801511627945px" height="45.658015116279444px" viewBox="0 0 45.65801511627945 45.658015116279444"><g id="original-23714"><svg xmlns="http://www.w3.org/2000/svg" viewBox="0 0 400 400" xmlns:xlink="http://www.w3.org/1999/xlink" version="1.1" preserveAspectRatio="xMidYMid meet">
  <path d="M284.5 204.2h12.4c2.8 0 5-2.2 5-5s-2.2-5-5-5h-13.8l17.4-18.9c1.9-2 1.8-5.2-.3-7.1-2-1.9-5.2-1.8-7.1.3l-23.7 25.7h-58.3l42.4-42.4 34.9 1.4h.2c2.7 0 4.9-2.1 5-4.8.1-2.8-2-5.1-4.8-5.2l-25.7-1 9.7-9.7c2-2 2-5.1 0-7.1s-5.1-2-7.1 0l-8.7 8.7-.9-23.6c-.1-2.8-2.4-4.9-5.2-4.8-2.8.1-4.9 2.4-4.8 5.2l1.3 32.8-44.1 44.1V129l24.9-23c2-1.9 2.2-5 .3-7.1-1.9-2-5-2.2-7.1-.3l-18.1 16.7v-14.7c0-2.8-2.2-5-5-5s-5 2.2-5 5v14.7l-18.1-16.7c-2-1.9-5.2-1.8-7.1.3-1.9 2-1.8 5.2.3 7.1l24.9 23v58.3l-40.5-40.5 1.4-34.9c.1-2.8-2-5.1-4.8-5.2-2.8-.1-5.1 2-5.2 4.8l-1 25.7-11.6-11.6c-2-2-5.1-2-7.1 0s-2 5.1 0 7.1l10.6 10.6-23.6.9c-2.8.1-4.9 2.4-4.8 5.2.1 2.7 2.3 4.8 5 4.8h.2l32.8-1.3 41.3 41.3h-56.3L106 168.5c-1.9-2-5-2.2-7.1-.3-2 1.9-2.2 5-.3 7.1l17.4 18.9H99.8c-2.8 0-5 2.2-5 5s2.2 5 5 5h15l-16 17.3c-1.9 2-1.8 5.2.3 7.1 1 .9 2.2 1.3 3.4 1.3 1.3 0 2.7-.5 3.7-1.6l22.3-24.1H187l-40.3 40.3-32.8-1.3c-2.8-.1-5.1 2-5.2 4.8-.1 2.8 2 5.1 4.8 5.2l23.6.9-10.6 10.6c-2 2-2 5.1 0 7.1 1 1 2.3 1.5 3.5 1.5 1.3 0 2.6-.5 3.5-1.5l11.6-11.6 1 25.7c.1 2.7 2.3 4.8 5 4.8h.2c2.8-.1 4.9-2.4 4.8-5.2l-1.4-34.9 38.5-38.5v58.3l-24.9 23c-2 1.9-2.2 5-.3 7.1 1.9 2 5 2.2 7.1.3l18.1-16.7v13.8c0 2.8 2.2 5 5 5s5-2.2 5-5v-13.8l18.1 16.7c1 .9 2.2 1.3 3.4 1.3 1.3 0 2.7-.5 3.7-1.6 1.9-2 1.8-5.2-.3-7.1l-24.9-23v-58.8l42.2 42.2-1.3 32.8c-.1 2.8 2 5.1 4.8 5.2h.2c2.7 0 4.9-2.1 5-4.8l.9-23.6 8.7 8.7c1 1 2.3 1.5 3.5 1.5 1.3 0 2.6-.5 3.5-1.5 2-2 2-5.1 0-7.1l-9.7-9.7 25.7-1c2.8-.1 4.9-2.4 4.8-5.2-.1-2.8-2.4-4.9-5.2-4.8l-34.9 1.4-41.4-41.4h60.6l22.3 24.1c1 1.1 2.3 1.6 3.7 1.6 1.2 0 2.4-.4 3.4-1.3 2-1.9 2.2-5 .3-7.1l-15.8-17.4z" fill="rgba(211, 175, 175, 1)" stroke="none"/>
</svg>
</g></svg></g></g>
<!-- /image 23714 -->

<!-- image 35934 -->
<g id="transformed-35934" data-image="35934" transform="translate(203.04493663747223, 201.89493663747226) rotate(332, 22.365063362527756, 22.36506336252774)"><g><svg version="1.1" width="44.73012672505551px" height="44.73012672505548px" viewBox="0 0 44.73012672505551 44.73012672505548"><g id="original-35934"><svg xmlns="http://www.w3.org/2000/svg" viewBox="0 0 400 400" xmlns:xlink="http://www.w3.org/1999/xlink" version="1.1" preserveAspectRatio="xMidYMid meet">
  <path d="M316.2 246c0-7.7-.5-24.4-3.9-44.1-6.3-36-19.1-63.2-37.9-80.9-18.9-17.8-43.5-25.3-73.1-22.3-32.9 3.3-59.7 24.1-77.5 60-13.2 26.7-16.8 52-17 53.1-.2 1.5.3 3 1.3 4.1 1 1.1 2.5 1.7 4 1.6 8.6-.6 17.6-8.6 26.3-16.4 5.6-5 12-10.7 15.7-11.6 2.7-.7 4.3-3.4 3.7-6-.7-2.7-3.4-4.3-6-3.7-6.1 1.5-12.9 7.5-20 13.8-4.2 3.8-9.1 8.1-13.4 10.9 2.1-9.5 6.4-25.4 14.5-41.6 16.4-33 39.8-51.3 69.4-54.3 26.6-2.7 48.5 3.9 65.2 19.6 35.5 33.4 38.5 98.8 38.7 117H158.6c-.2-17.6 4.2-29 7.8-38.3 6.8-17.3 9.4-28-16.4-46.9-2.2-1.6-5.4-1.2-7 1.1-1.6 2.2-1.2 5.4 1.1 7 20.8 15.3 18.7 20.7 13 35.2-3.7 9.6-8.7 22.4-8.5 41.9h-6.7c-9.4 0-17 7.6-17 17V285c0 9.4 7.6 17 17 17h169.2c9.4 0 17-7.6 17-17v-22.8c0-7.5-5-14-11.9-16.2zm1.9 39c0 3.9-3.1 7-7 7H141.9c-3.9 0-7-3.1-7-7v-22.8c0-3.9 3.1-7 7-7h169.2c3.9 0 7 3.1 7 7V285z" fill="rgba(211, 175, 175, 1)" stroke="none"/>
  <path d="M95.1 214.4c-14.3 0-26 11.6-26 26 0 14.3 11.6 26 26 26s26-11.6 26-26c-.1-14.3-11.7-26-26-26zm0 41.9c-8.8 0-16-7.2-16-16s7.2-16 16-16 16 7.2 16 16-7.2 16-16 16z" fill="rgba(211, 175, 175, 1)" stroke="none"/>
</svg>
</g></svg></g></g>
<!-- /image 35934 -->

<!-- image 83820 -->
<g id="transformed-83820" data-image="83820" transform="translate(50.79170839691007, 0.8017083969100547) rotate(326, 18.958291603089933, 18.958291603089947)"><g><svg version="1.1" width="37.916583206179865px" height="37.916583206179894px" viewBox="0 0 37.916583206179865 37.916583206179894"><g id="original-83820"><svg xmlns="http://www.w3.org/2000/svg" viewBox="0 0 400 400" xmlns:xlink="http://www.w3.org/1999/xlink" version="1.1" preserveAspectRatio="xMidYMid meet">
  <path d="M281.9 144h-52.8c1.5-.7 3-1.4 4.6-2.1 7.1-3.4 12.7-6.5 17.1-9.4.1-.1.3-.2.4-.3 15.5-10.2 16.1-17.3 16.4-20 .6-6.6-3.4-12.3-12-16.9-3.8-2-7.7-3.1-11.6-3.1-12.2 0-23.9 9.6-34.8 28.5-1.6 2.8-3.1 5.6-4.4 8.3-1-12.6-5.2-32.7-21.6-42.7-20.2-12.2-39.8 3.8-47.7 14.3-.9.8-1.8 1.7-2.7 2.7-5.2 5.9-4.8 11.4-3.6 15 3.1 9.1 15.6 17.2 38.4 24.9.5.2 1 .3 1.5.5h-52.8c-9.4 0-17 7.6-17 17V203c0 9.4 7.6 17 17 17h16l-8.9 9h-.3c-2.8 0-5 2.2-5 5v72.1c0 9.4 7.6 17 17 17h129.6c9.4 0 17-7.6 17-17V233c0-.3 0-.6-.1-.9.3-1.6-.2-3.3-1.5-4.6-2-1.9-5.2-1.8-7.1.2L220 284v-12.3l47.9-51.6h14c9.4 0 17-7.6 17-17v-42c0-9.5-7.6-17.1-17-17.1zm0 10c2.5 0 4.6 1.3 5.9 3.2l-.3.3-48.9 52.5h-11.2l51.8-56h2.7zm-52.6 66l-9.3 10v-10h9.3zm36.3-66l-43.1 46.6v-8.8l35.1-37.8h8zm-32.6 0h10.9l-21.4 23.1v-11.8L233 154zm10.9-51.7c2.3 0 4.6.6 6.9 1.9 3.2 1.7 7 4.4 6.7 7.2-.2 2.3-2.1 4.9-5.2 7.6-1.1-4-3.1-7.3-6-9.9-2.9-2.6-6.2-4.1-9.5-4.9 2.8-1.4 5.2-1.9 7.1-1.9zM178 95c12.3 7.4 15.8 23.5 16.7 34.1-1.9-2.8-4.1-5.9-6.5-8.9-11.1-14.3-21.6-22.6-31.4-25 7.5-4.2 14.4-4.2 21.2-.2zm-68.7 66c0-3.9 3.1-7 7-7h5.5l-12.5 13.9V161zm0 21.9l25.9-28.9h12l-37.9 40.8v-11.9zm10.3 27.1h-3.2c-2.1 0-4-.9-5.3-2.4l49.8-53.6h10.7l-52 56zm8.5 28.6l18.2-18.6h11.8l-30 32.3v-13.7zm50.2 63.3L168 313.1h-11.6l21.9-23.5v12.3zm0-27.1L142.8 313h-7.7c-.9 0-1.8-.2-2.6-.5l45.8-49.5v11.8zm0-26.5l-50.2 54.3v-9.2l50.2-54.1v9zm0-23.7l-50.2 54.1V267l43.7-47h6.6v4.6zm2.5-29L167.4 210h-11l5.5-5.9 1.6-1.6c.2-.2.4-.4.5-.7l16.8-18v11.8zm0-26.5l-26.1 28.1-12.6 12.8h-8.9l47.6-51.2v10.3zM170.7 134c-26.2-8.9-31.1-16-32-18.6-.2-.7-.8-2.4 1.7-5.3 3.3-3.8 6.8-5.6 10.7-5.6 7.9 0 18.3 7.8 29.2 21.8 3.6 4.7 6.8 9.4 9.3 13.3-5.4-1.4-12.1-3.3-18.9-5.6zM210 313.1h-21.7V220H210v93.1zm2.5-103.1h-21.7v-56h9.1c.6.2 1.2.3 1.8.3.5 0 1-.1 1.6-.2 0 0 .1 0 .3-.1h9.1v56zm59.2 96.1c0 3.9-3.1 7-7 7h-12.3l19.3-20.7v13.7zm0-28.4l-.3.3-32.6 35.1h-9.3l42.3-45.3v9.9zm0-34v9.4l-.3.3-51.4 55.1v-10l51.7-54.8zm-59.6-103.4c-.4-.2-.9-.3-1.3-.4 1.9-4.2 4.3-9.3 7.1-14.2 3-5.2 5.9-9.3 8.6-12.5 3.5-.2 9.6.2 13.2 3.4 2.2 2 3.4 4.9 3.6 8.9-8.8 5.3-20.4 10.6-31.2 14.8zm7.9 116.6v-12.3l23-24.6h11.3L220 256.9zm68.9-53.9c0 3.9-3.1 7-7 7h-4.7l11.7-12.6v5.6zm0-20.3L263.6 210h-11.3l36.7-39.4v12.1z" fill="rgba(211, 175, 175, 1)" stroke="none"/>
</svg>
</g></svg></g></g>
<!-- /image 83820 -->

<!-- image 27175 -->
<g id="transformed-27175" data-image="27175" transform="translate(147.45133918276514, -7.998660817234882) rotate(27, 22.81866081723488, 22.818660817234882)"><g><svg version="1.1" width="45.63732163446976px" height="45.637321634469764px" viewBox="0 0 45.63732163446976 45.637321634469764"><g id="original-27175"><svg xmlns="http://www.w3.org/2000/svg" viewBox="0 0 400 400" xmlns:xlink="http://www.w3.org/1999/xlink" version="1.1" preserveAspectRatio="xMidYMid meet">
  <path d="M282 144h-52.8c1.5-.7 3-1.4 4.6-2.1 7.1-3.4 12.7-6.5 17.1-9.4.1-.1.3-.2.4-.3 15.5-10.2 16.1-17.3 16.4-20 .6-6.6-3.4-12.3-12-16.9-6.7-3.6-13.6-4-20.6-1.3-5.2 2.1-10 5.9-14.3 10.6-.3.3-.6.6-.8.9-6.2 7.1-11.4 15.9-15.2 23.6-1-12.6-5.2-32.7-21.6-42.7-20.2-12.2-39.8 3.8-47.7 14.3-.9.8-1.8 1.7-2.6 2.7-5.2 5.9-4.8 11.4-3.6 15 3.1 9.1 15.6 17.2 38.4 24.9.5.2 1 .3 1.5.5h-52.8c-9.4 0-17 7.6-17 17v42c0 9.4 7.6 17 17 17h62v41.6c-.3-.1-.6-.1-.9-.1-8.7 0-15.7 7.1-15.7 15.7s7.1 15.7 15.7 15.7c.3 0 .6 0 .9-.1v20.1h-43.2c-3.9 0-7-3.1-7-7v-39.2c7.1-1.5 12.5-7.8 12.5-15.4 0-7.6-5.4-13.9-12.5-15.4V233c0-2.8-2.2-5-5-5s-5 2.2-5 5v73.1c0 9.4 7.6 17 17 17h129.6c9.4 0 17-7.6 17-17V233c0-2.8-2.2-5-5-5s-5 2.2-5 5v43.6c-2.8-2.7-6.6-4.3-10.8-4.3-8.7 0-15.7 7.1-15.7 15.7 0 8.7 7.1 15.7 15.7 15.7 4.2 0 8-1.6 10.8-4.3v6.6c0 3.9-3.1 7-7 7h-44.7v-56.7c8.2-.5 14.7-7.4 14.7-15.7 0-8.3-6.5-15.2-14.7-15.7v-5H282c9.4 0 17-7.6 17-17v-42c0-9.3-7.7-16.9-17-16.9zM130.6 251.5c0 1.9-1 3.7-2.5 4.7v-9.4c1.5 1 2.5 2.7 2.5 4.7zM261 293.8c-3.2 0-5.7-2.6-5.7-5.7 0-3.2 2.6-5.7 5.7-5.7s5.7 2.6 5.7 5.7-2.6 5.7-5.7 5.7zM212.6 154v56h-21.7v-56h9.1c.6.2 1.2.3 1.8.3.5 0 1-.1 1.6-.2 0 0 .1 0 .3-.1h8.9zm31.3-51.7c2.3 0 4.6.6 6.9 1.9 3.2 1.7 7 4.4 6.7 7.2-.2 2.3-2.1 4.9-5.2 7.6-1.1-4-3.1-7.3-6-9.9-2.8-2.6-6.2-4.1-9.5-4.9.6-.3 1.2-.6 1.8-.8 1.9-.8 3.6-1.1 5.3-1.1zm-17.3 10.8c3.5-.2 9.6.2 13.2 3.4 2.2 2 3.4 4.9 3.6 8.9-9.3 5.6-21.6 11.2-33 15.5 3.7-8.7 9.4-19.7 16.2-27.8zM178 95c12.2 7.4 15.8 23.3 16.7 33.9-8.9-13.2-23-30.1-37.8-33.8 6-3.2 13.4-4.7 21.1-.1zm-39.3 20.3c-.2-.7-.8-2.4 1.7-5.3 3.3-3.8 6.8-5.6 10.7-5.6.5 0 1 0 1.5.1 13 1.5 28.2 21 37.2 35.1-22.3-5.7-48.1-15.4-51.1-24.3zm11.5 38.7c-.2.5-.3 1-.3 1.5 0 3.2-2.6 5.7-5.7 5.7-3.2 0-5.7-2.6-5.7-5.7 0-.5-.1-1-.3-1.5h12zm-40.9 49v-42c0-3.9 3.1-7 7-7h12.4c-.2.5-.3 1-.3 1.5 0 8.7 7.1 15.7 15.7 15.7 8.7 0 15.7-7.1 15.7-15.7 0-.5-.1-1-.3-1.5h21.1v56h-4.9c-1-7.8-7.6-13.8-15.6-13.8s-14.6 6-15.6 13.8h-28.4c-3.6 0-6.8-3.1-6.8-7zm56.4 7h-10.8c.8-2.2 2.9-3.8 5.4-3.8s4.6 1.6 5.4 3.8zm11.7 73c-3.2 0-5.7-2.6-5.7-5.7 0-3.2 2.6-5.7 5.7-5.7.3 0 .6 0 .9-.1v11.7c-.2-.1-.5-.2-.9-.2zm10.9 30.1V220H210v93.1h-21.7zm36.5-72.4c0 2.8-2.1 5.2-4.7 5.7V235c2.7.5 4.7 2.9 4.7 5.7zM289 203c0 3.9-3.1 7-7 7h-59.4v-56H282c3.9 0 7 3.1 7 7v42z" fill="rgba(211, 175, 175, 1)" stroke="none"/>
  <path d="M262.8 163.3c-8.7 0-15.7 7.1-15.7 15.7s7.1 15.7 15.7 15.7c8.7 0 15.7-7.1 15.7-15.7s-7.1-15.7-15.7-15.7zm0 21.4c-3.2 0-5.7-2.6-5.7-5.7s2.6-5.7 5.7-5.7 5.7 2.6 5.7 5.7-2.6 5.7-5.7 5.7z" fill="rgba(211, 175, 175, 1)" stroke="none"/>
</svg>
</g></svg></g></g>
<!-- /image 27175 -->

<!-- image 88667 -->
<g id="transformed-88667" data-image="88667" transform="translate(186.48101130546505, 66.17101130546504) rotate(13, 23.89898869453495, 23.898988694534946)"><g><svg version="1.1" width="47.7979773890699px" height="47.79797738906989px" viewBox="0 0 47.7979773890699 47.79797738906989"><g id="original-88667"><svg xmlns="http://www.w3.org/2000/svg" viewBox="0 0 400 400" xmlns:xlink="http://www.w3.org/1999/xlink" version="1.1" preserveAspectRatio="xMidYMid meet">
  <path d="M258.9 119.7c-7.9-16.3-23-29-41.5-34.7-34.3-10.6-70.9 8.6-81.6 43-.3.8-1.7 5-2.2 8-.7 4.2-1.2 13.7-.1 20.8v.2l.8 4.1c1.6 11.8 12.4 20.2 24.3 18.8 11.9-1.5 20.4-12.4 18.9-24.3l-.4-3c0-.2-.1-.5-.1-.7-1.1-4.1 0-8.9 0-8.9 1.5-5.9 5.2-10.8 10.4-13.9 4.9-2.9 10.5-3.8 16-2.7.2.1.4.2.6.2.4.1.8.2 1.1.2 6 1.7 11.3 6.1 14.3 11.8 2.7 5.1 3.3 10.5 1.6 15.2-5 14.1-49.3 124.6-55.2 139.3-.5.7-.9 1.6-.9 2.5-3.6 10.5 1.7 22.1 12.2 26.2 2.5 1 5.1 1.4 7.6 1.4 8.4 0 16.3-5 19.5-13.3l56-143c6.4-15.9 5.9-32.2-1.3-47.2zm-55.1 164.2l-25.5 5.3c1.4-3.4 3-7.6 5-12.4.2 0 .5 0 .7-.1l24.6-5.2-4.8 12.4zm9.1-23.4l-25.3 5.3c1.9-4.6 3.8-9.6 5.9-14.7l25.2-5.3-5.8 14.7zm10.1-25.8l-25.1 5.3c1.8-4.5 3.6-9.1 5.5-13.7l25-5.2-5.4 13.6zm9.8-24.8l-24.9 5.2c1.9-4.8 3.8-9.6 5.6-14.2.3 0 .5 0 .8-.1l24-5-5.5 14.1zm-21.3-91.4l6.3-22.7c6.8 2.6 13.1 6.2 18.3 10.8l-17 16.5c-2.2-1.9-4.8-3.5-7.6-4.6zm31.1 66.2l-24.8 5.2c2.2-5.7 4.3-10.9 6.1-15.5l24.8-5.2-6.1 15.5zm8.7-26.3l-23 4.8c1-2.7 1.8-4.8 2.3-6 .9-2.6 1.4-5.3 1.5-8.1l22.4-8.4c.5 5.8-.1 11.7-1.8 17.6-.5 0-.9 0-1.4.1zm1.2-27.7l-22 8.3c-.6-1.7-1.3-3.4-2.2-5.1-.7-1.3-1.4-2.4-2.2-3.6l17.1-16.6c2.6 3.2 4.9 6.7 6.6 10.4 1.1 2.2 2 4.4 2.7 6.6zm-107.2.3c1.9-6.3 4.9-11.9 8.7-16.9l16.7 18.2c-1.5 2.5-2.6 5.3-3.3 8.2-.1.2-.2 1-.4 2.2l-21.9-10.9c.1-.3.2-.5.2-.7v-.1zm12.1 39c-6.5.8-12.4-3.8-13.2-10.2 0-.1 0-.2-.1-.3l-.8-4.1c-.6-4.1-.6-9.3-.3-13.3l24.3 12.1.3 2.7c.8 6.4-3.8 12.3-10.2 13.1zm19.7-45.5l-16.3-17.7c5.6-5.1 12.1-9 19.2-11.5l4.6 24.1c-.7.4-1.4.7-2.1 1.1-2 1.2-3.8 2.5-5.4 4zm17-8.2l-4.5-23.5c6.1-1 12.3-.9 18.6.3l-6.4 23c-1-.1-1.9-.1-2.9-.1-1.6 0-3.2.1-4.8.3zm-13.3 196.3c-5-2-7.7-7.2-6.8-12.2l25.4-5.3-4.4 11.4c-2.3 5.5-8.6 8.3-14.2 6.1z" fill="rgba(211, 175, 175, 1)" stroke="none"/>
</svg>
</g></svg></g></g>
<!-- /image 88667 -->

<!-- image 47548 -->
<g id="transformed-47548" data-image="47548" transform="translate(198.98536294897195, 154.93536294897194) rotate(358, 25.254637051028045, 25.254637051028045)"><g><svg version="1.1" width="50.50927410205609px" height="50.50927410205609px" viewBox="0 0 50.50927410205609 50.50927410205609"><g id="original-47548"><svg xmlns="http://www.w3.org/2000/svg" viewBox="0 0 400 400" xmlns:xlink="http://www.w3.org/1999/xlink" version="1.1" preserveAspectRatio="xMidYMid meet">
  <circle cx="201.6" cy="173.8" r="6.4" fill="rgba(211, 175, 175, 1)" stroke="none"/>
  <circle cx="201.6" cy="196" r="6.4" fill="rgba(211, 175, 175, 1)" stroke="none"/>
  <circle cx="201.6" cy="216.7" r="6.4" fill="rgba(211, 175, 175, 1)" stroke="none"/>
  <circle cx="217.2" cy="90" r="6" fill="rgba(211, 175, 175, 1)" stroke="none"/>
  <circle cx="184" cy="90" r="6" fill="rgba(211, 175, 175, 1)" stroke="none"/>
  <path d="M217.2 103c-2.8 0-5 2.2-5 5 0 6.4-5.2 11.6-11.6 11.6-6.4 0-11.6-5.2-11.6-11.6 0-2.8-2.2-5-5-5s-5 2.2-5 5c0 11.9 9.7 21.6 21.6 21.6 11.9 0 21.6-9.7 21.6-21.6 0-2.7-2.2-5-5-5z" fill="rgba(211, 175, 175, 1)" stroke="none"/>
  <path d="M263.7 146.3h-31.2c12.6-9.6 20-24.5 20-40.8 0-28.4-23.1-51.5-51.5-51.5s-51.5 23.1-51.5 51.5c0 16 7.6 31.1 20.1 40.8h-34.1c-15.1 0-27.4 12.3-27.4 27.4 0 15.1 12.3 27.4 27.4 27.4h20.6l-17.9 111.3c-1.2 7.2.6 14.4 4.9 20.4 4.3 5.9 10.6 9.8 17.8 11 7.2 1.2 14.4-.6 20.4-4.9 5.9-4.3 9.8-10.6 11-17.8l7.6-47.1 7.6 47.1c1.2 7.2 5.1 13.5 11 17.8 4.7 3.4 10.3 5.2 16 5.2 1.5 0 2.9-.1 4.4-.4 7.2-1.2 13.5-5.1 17.8-11 4.3-5.9 6-13.2 4.9-20.4l-1.1-6.6c0-.3 0-.6-.1-.8 0-.2-.1-.4-.2-.6L243.6 201h20c15.1 0 27.4-12.3 27.4-27.4 0-15-12.2-27.3-27.3-27.3zm-145.5 27.4c0-8.1 5.6-14.9 13.1-16.8v33.6c-7.6-1.9-13.1-8.7-13.1-16.8zm57.2 157.1c-3.8 2.7-8.4 3.8-12.9 3.1-4.6-.7-8.6-3.2-11.3-7-2.7-3.8-3.8-8.4-3.1-12.9l.5-3.1 34.2 6.2-.4 2.4c-.7 4.5-3.2 8.5-7 11.3zm73.1-3.9c-2.7 3.8-6.7 6.3-11.3 7-4.6.7-9.1-.4-12.9-3.1-3.8-2.7-6.3-6.7-7-11.3l-.3-1.6 34.2-6.2.4 2.3c.7 4.5-.4 9.1-3.1 12.9zm-15.7-130.1l16.9 105-34.2 6.2-10.7-66.3c-.4-2.4-2.5-4.2-4.9-4.2-2.5 0-4.5 1.8-4.9 4.2l-10.5 65.5-34.2-6.2L167 196.8c.2-1.4-.2-2.9-1.1-4-.9-1.1-2.3-1.8-3.8-1.8h-20.8v-34.7h36c2.8 0 5-2.2 5-5v-5.8c0-1.8-.9-3.4-2.4-4.3-12.5-7.5-20.3-21.1-20.3-35.7 0-22.9 18.6-41.5 41.5-41.5s41.5 18.6 41.5 41.5c0 15.8-8.8 30-23 37.1-1.7.8-2.8 2.6-2.8 4.5v4.2c0 2.8 2.2 5 5 5h35.5V191h-19.5c-1.5 0-2.9.6-3.8 1.8-1 1.1-1.5 2.6-1.2 4zm34.4-6.1v-34c7.9 1.6 13.8 8.6 13.8 17 0 8.3-5.9 15.3-13.8 17z" fill="rgba(211, 175, 175, 1)" stroke="none"/>
</svg>
</g></svg></g></g>
<!-- /image 47548 -->

<!-- image 55691 -->
<g id="transformed-55691" data-image="55691" transform="translate(91.49970316621548, -4.550296833784518) rotate(357, 28.270296833784506, 28.270296833784517)"><g><svg version="1.1" width="56.54059366756901px" height="56.540593667569034px" viewBox="0 0 56.54059366756901 56.540593667569034"><g id="original-55691"><svg xmlns="http://www.w3.org/2000/svg" viewBox="0 0 400 400" xmlns:xlink="http://www.w3.org/1999/xlink" version="1.1" preserveAspectRatio="xMidYMid meet">
  <path d="M209.3 175.4c-2.1 1.8-2.4 4.9-.6 7 1.7 2.1 4.9 2.4 7 .7 1-.8 10.2-7.8 19-.1 1 .8 2.1 1.3 3.3 1.3 1.4 0 2.8-.6 3.8-1.7 1.8-2.1 1.6-5.2-.4-7.1-12.5-10.8-26.5-4.8-32.1-.1z" fill="rgba(211, 175, 175, 1)" stroke="none"/>
  <path d="M143.6 175.4c-2.1 1.8-2.4 4.9-.6 7 1.7 2.1 4.9 2.4 7 .7 1-.8 10.2-7.8 19-.1 1 .8 2.1 1.3 3.3 1.3 1.4 0 2.8-.6 3.8-1.7 1.8-2.1 1.6-5.2-.4-7.1-12.4-10.8-26.4-4.8-32.1-.1z" fill="rgba(211, 175, 175, 1)" stroke="none"/>
  <path d="M302.7 155.3c0-.2.1-.4.1-.6 0-51.8-42.2-94-94-94-39.1 0-74.5 24.6-88.1 61.2-.2.6-.3 1.2-.3 1.7-7.9 4.5-9 11.8-9 15.4 0 5.2 2.8 10.7 7.4 14.5 1.6 1.3 3.4 2.4 5.2 3.1 1.7 31.8.2 80.9-10.9 91-1.3 1.2-1.9 3-1.5 4.8.1.6 3.3 15.1 12.5 30.5 12.5 20.8 30 33.3 50.8 36.1h.7c2.5 0 4.6-1.8 4.9-4.3.4-2.7-1.6-5.3-4.3-5.6-17.8-2.4-32.4-12.8-43.4-31-6.3-10.5-9.6-20.7-10.8-25.2 4.4-5.4 7.6-14.4 9.6-27.1.1.3.2.6.4.9 11.2 18.8 26.3 23.4 38.6 23.4 4.9 0 9.3-.7 12.8-1.6 4.2-1 7.7-3.4 10.2-6.6 2.5 3.2 6 5.5 10.2 6.6 3.5.9 8 1.6 12.8 1.6 12.1 0 26.9-4.5 38-22.5 2.4 11.7 5.6 20.1 9.9 25.3-1.3 4.6-4.5 14.8-10.8 25.2-11 18.2-25.6 28.7-43.4 31-2.7.4-4.7 2.9-4.3 5.6.3 2.5 2.5 4.3 4.9 4.3h.7c20.8-2.8 38.3-15.3 50.8-36.1 9.2-15.4 12.4-29.9 12.5-30.5.4-1.7-.2-3.6-1.5-4.8-8.5-7.7-12.2-36.9-13.1-64 4.2 8.5 13 14.4 23.1 14.4 14.2 0 25.8-11.6 25.8-25.8 0-6.3-2.5-12.3-6.5-16.9zm-169.8-25c1.2-.1 2.9-.4 5-.7 16.3-2.4 59.6-8.7 111 .6 5.7 1 11.8 3.9 11.8 8.9 0 2.5-1.4 5.3-3.6 7.1-1.4 1.1-3.6 2.3-6.4 1.8-28.2-5.4-71.5-9.9-117.8-.3-.3.1-.6.1-.9.2-1-.9-2.3-1.4-3.7-1.3-.6 0-1.1.2-1.6.4-.5-.3-1.1-.7-1.6-1.1-2.3-1.9-3.8-4.5-3.8-6.8.1-1.8.1-7.5 11.6-8.8zm54.7 100c0 4-2.7 7.5-6.6 8.4-10.1 2.5-23.7 2.5-34.7-9.5 6.3-.7 14.6-2.9 22.2-9.2 4.5-3.7 11.1-7.4 16.7-4.1 1.5.9 2.4 2.6 2.4 4.5v9.9zm18.6 8.5c-3.9-1-6.6-4.4-6.6-8.4v-9.8c0-1.9.9-3.7 2.4-4.5 1.5-.9 3.1-1.3 4.7-1.3 4.3 0 8.7 2.7 12 5.4 7.7 6.2 15.9 8.5 22.2 9.2-11 11.9-24.6 11.9-34.7 9.4zm43.7-19.6c-.5.1-13.5 2.4-25-6.9-5.8-4.7-10.9-6.8-15.2-7.4-.1-1-.4-2-1.1-2.8-1.7-2.1-4.9-2.4-7-.7-1 .8-10.2 7.8-19 .1-2.1-1.8-5.2-1.6-7.1.4-.9 1-1.3 2.3-1.2 3.6-3.6 1-7.7 3.1-12.1 6.7-11.4 9.3-24.4 7-25 6.9-1.9-.4-3.8.4-5 2 1-7.4 1.7-15.9 2-25.5.6-15.3.1-29.9-.3-37.9.3-.1.6-.1 1-.2 44.6-9.2 86.5-4.9 113.8.3.5.1.9.2 1.4.2-.2 6.8-.4 22.3.7 39.3.5 8.3 1.3 15.8 2.3 22.4-.8-.5-2-.7-3.2-.5zm10.2-57.9c0-1.8.1-3.6.2-5.2 1.1-.6 2.1-1.3 3.1-2.1 4.5-3.7 7.2-9.3 7.2-14.8 0-2.9-.7-5.5-2.1-7.9 1.2-4.2 2.4-12.5-2.4-22.9-1.2-2.5-4.1-3.6-6.6-2.5-2.5 1.2-3.6 4.1-2.5 6.6 2 4.3 2.6 8 2.6 10.8-2.6-1.3-5.6-2.3-9-2.9-53-9.6-97.5-3.1-114.2-.7-1.7.3-3.1.5-4.2.6 13.4-29.8 43.5-49.5 76.6-49.5 44.1 0 80.4 34.2 83.7 77.5-2.8-1.1-5.9-1.7-9.1-1.7-10.2 0-19.1 6-23.3 14.7zm23.3 26.9c-8.7 0-15.8-7.1-15.8-15.8 0-8.7 7.1-15.8 15.8-15.8 8.7 0 15.8 7.1 15.8 15.8 0 8.7-7.1 15.8-15.8 15.8z" fill="rgba(211, 175, 175, 1)" stroke="none"/>
  <path d="M214.2 261.5c2.3-1.5 3-4.6 1.6-6.9-1.5-2.3-4.6-3-6.9-1.6-.2.1-17.2 10.6-34 0-2.3-1.5-5.4-.8-6.9 1.5s-.8 5.4 1.5 6.9c7.5 4.8 14.9 6.3 21.6 6.3 12.9.2 22.5-5.8 23.1-6.2z" fill="rgba(211, 175, 175, 1)" stroke="none"/>
  <path d="M192.2 306.5c-2.7.4-4.6 2.9-4.2 5.7.3 2.1.5 9-2.5 12.6-1.4 1.7-3.5 2.5-6.4 2.6-2.8.1-4.9 2.4-4.9 5.1.1 2.7 2.3 4.9 5 4.9h.1c5.7-.2 10.5-2.3 13.7-6.2 6.4-7.6 4.9-19.1 4.8-20.4-.4-2.8-2.9-4.7-5.6-4.3z" fill="rgba(211, 175, 175, 1)" stroke="none"/>
</svg>
</g></svg></g></g>
<!-- /image 55691 -->

<!-- image 34637 -->
<g id="transformed-34637" data-image="34637" transform="translate(109.85276903851499, 199.462769038515) rotate(2, 21.817230961485, 21.817230961485002)"><g><svg version="1.1" width="43.63446192297px" height="43.634461922970004px" viewBox="0 0 43.63446192297 43.634461922970004"><g id="original-34637"><svg xmlns="http://www.w3.org/2000/svg" viewBox="0 0 400 400" xmlns:xlink="http://www.w3.org/1999/xlink" version="1.1" preserveAspectRatio="xMidYMid meet">
  <path d="M327.7 186.1c3.3-6.4 7.4-14.5 7.4-23.8 0-9.4-4.5-16-8.4-21.9-2.5-3.8-4.9-7.3-6.3-11.5-1.2-3.8-1.1-8.3-.9-13.1.2-6.9.5-14.6-3.7-21.1-3.4-5.2-10.2-8.3-16.7-11.2-4.2-1.9-8.5-3.9-10.7-6-2.3-2.3-4.5-6-6.8-9.8-3.6-6-7.3-12.3-12.9-15.7-6.9-4.2-14.8-4.5-22.5-4.8-4.8-.2-9.3-.4-13.4-1.4-3.5-.9-7.3-2.9-11.4-5.1-6.8-3.6-13.8-7.2-21.5-7.2-8.7 0-16.6 4-24.2 7.9-4.3 2.2-8.3 4.2-12 5.3-3.9 1.2-8.5 1.4-13.4 1.6-7.7.3-15.7.7-22.3 4.9-5.2 3.3-8.1 9.2-10.9 14.9-1.8 3.6-3.7 7.4-5.7 9.4-2.2 2.2-7 4.4-11.7 6.5-7.2 3.3-14.6 6.7-18.1 12.2-4.1 6.4-3.2 13.8-2.3 20.3.6 4.6 1.2 9 .1 12.5-1.4 4.2-4 7.7-6.9 11.5-4.4 5.8-9.3 12.4-9.3 21.7 0 6.4 3.9 13.9 7.6 21.2 2.3 4.4 4.6 9 5.3 11.9.7 3.2-.1 7.8-1 12.4-1.2 6.9-2.5 14 .4 20 3 6.2 9.4 9.6 15.5 13 4 2.1 8 4.3 10 6.8 1.4 1.8 2.3 4.2 3.3 6.8 2.2 5.9 5.1 13.7 15.6 15.7-2 6.4-2.8 14.3 1 24.3 3.2 8.5 9 11.3 13.4 12 1.1.2 2.3.3 3.5.3 2.2 0 4.5-.4 6.8-1L129.7 332c-1 1.7-.8 3.9.3 5.4 1.2 1.6 3.2 2.3 5.1 1.9l16.3-3.6 2.9 19.6c.3 2.1 1.9 3.8 4.1 4.2.3.1.6.1.9.1 1.8 0 3.5-1 4.4-2.6l37.6-68.7 39.7 72.5c.9 1.6 2.6 2.6 4.4 2.6.3 0 .6 0 .9-.1 2.1-.4 3.8-2.1 4.1-4.2l2.9-19.6 16.3 3.6c1.9.4 3.9-.3 5.1-1.9 1.2-1.6 1.3-3.7.3-5.4l-16.5-29c1.4.2 2.7.4 4.1.4 1.2 0 2.3-.1 3.5-.3 4.3-.8 10.2-3.5 13.4-12 3.9-10.3 2.9-18.4.8-24.8 12.6-2 15.2-10.7 17.1-17.3.9-2.8 1.7-5.5 3.1-7.5 2.1-2.8 5.8-4.8 9.8-7 5.7-3.1 12.1-6.7 15-13.6 2.2-5.1.9-11.8-.4-18.3-.8-4.1-1.7-8.8-1.2-11.2.6-2.4 2.2-5.6 4-9.1zM136.2 296.6c-1.7-.3-4.1-1.2-5.8-5.7-4.1-10.9-1-18 1.9-24.8 2-4.7 3.9-9.1 3-14.1-1-5-2.9-9.7-4.7-14.3-4.7-11.7-6-16.9 0-21.9 16.3-13.3 47.6 20.5 47.9 20.8l.3.3c-1.9 4.2-3 9.7-3 15.8 0 5.9 1 11.1 2.7 15.3-8.2 9.4-16.6 16.9-24.1 21.9-.3.2-.6.3-.8.5-6.9 4.8-13.1 7-17.4 6.2zm79.2-43.8c0 9.6-3.4 14.9-4.6 15.3h-20.2c-1.3-.4-4.6-5.7-4.6-15.3 0-9.6 3.4-14.9 4.6-15.3h20.2c1.2.4 4.6 5.7 4.6 15.3zm-53.3 86.4l-1.5-10.1c-.2-1.4-1-2.6-2.1-3.4-1.1-.8-2.6-1.1-3.9-.8l-10.5 2.3 16.7-29.4c10.1-6.9 19.2-16.2 24.1-21.6 1.7 1.2 3.7 1.8 5.8 1.8h5l-33.6 61.2zm98.5-8.1l-10.5-2.3c-1.4-.3-2.8 0-3.9.8s-1.9 2-2.1 3.4l-1.5 10.1-35.5-65h3.8c1.7 0 3.3-.4 4.8-1.2 5.5 6.1 16.2 17 27.8 24l17.1 30.2zm9.4-39.7c-1.7 4.5-4.1 5.4-5.8 5.7-8.9 1.6-25.7-9.6-42-28 2-4.3 3.2-10 3.2-16.4 0-6.3-1.1-11.9-3.1-16.1 4.2-4.4 32.3-32.7 47.4-20.3 6 4.9 4.7 10.2 0 21.9-1.8 4.6-3.7 9.3-4.7 14.3-.9 4.9 1 9.4 3 14.1.1.2.1.3.2.5.1.3.2.6.4.9 2.8 6.4 5.2 13.3 1.4 23.4zm48.8-109.8c-2.1 4.1-4 7.9-4.9 11.7-1 4.4 0 9.6 1.1 15.2.9 4.5 2 10.2 1 12.5-1.6 3.7-6 6.2-10.7 8.8-4.6 2.6-9.4 5.2-12.8 9.7-2.6 3.4-3.8 7.3-4.8 10.7-1.9 6.3-3 10.1-11.4 10.5-1-2.5-1.7-4.6-1.5-6.1.8-4.1 2.5-8.3 4.1-12.4 4.2-10.4 9.4-23.3-3-33.4-21.4-17.6-52.9 12.7-60.2 20.3-1.6-.9-3.2-1.4-5-1.4h-20.3c-1.9 0-3.7.5-5.3 1.6-4.8-5.2-29.3-29.8-50.2-26 2.4-1.1 3.5-3.9 2.5-6.4-3.3-8.1-5-16.8-5-25.6 0-37.2 30.3-67.4 67.4-67.4s67.4 30.3 67.4 67.4c0 8.4-1.5 16.6-4.5 24.3-1 2.6.3 5.5 2.9 6.5s5.5-.3 6.5-2.9c3.4-8.9 5.2-18.3 5.2-27.9 0-42.7-34.7-77.4-77.4-77.4s-77.4 34.7-77.4 77.4c0 10.2 1.9 20.1 5.8 29.4.8 1.9 2.7 3.1 4.6 3.1-3 .8-5.9 2.3-8.6 4.5-12.3 10.1-7.1 23-3 33.4 1.7 4.1 3.4 8.4 4.1 12.4.3 1.6-.5 3.9-1.7 6.6-6.6-.5-7.9-3.9-10-9.7-1.2-3.1-2.5-6.6-4.9-9.6-3.3-4-8.2-6.7-13.1-9.3-4.8-2.6-9.7-5.2-11.3-8.5-1.5-3.1-.5-8.6.5-14 1-5.5 2-11.1.9-16.3-.9-4.2-3.5-9.1-6.2-14.4-3.1-5.9-6.5-12.7-6.5-16.6 0-6 3.4-10.5 7.3-15.7 3.2-4.3 6.5-8.7 8.4-14.4 1.8-5.7 1-11.6.3-16.9-.7-5.5-1.4-10.2.7-13.5 2-3 8.3-5.9 13.9-8.5 5.7-2.6 11-5.1 14.5-8.4 3.3-3.2 5.5-7.8 7.7-12.2 2.2-4.5 4.5-9.1 7.3-10.9 4.3-2.8 10.7-3 17.3-3.3 5.3-.2 10.7-.5 15.8-2 4.6-1.4 9.3-3.7 13.7-6 6.6-3.4 13.4-6.8 19.6-6.8 5.3 0 11.2 3.1 16.9 6.1 4.3 2.3 8.8 4.6 13.4 5.9 5.1 1.4 10.4 1.6 15.6 1.8 6.7.3 13.1.5 17.7 3.3 3.5 2.1 6.5 7.3 9.5 12.2 2.5 4.3 5.2 8.7 8.4 11.9 3.4 3.3 8.3 5.5 13.5 7.9 5 2.3 10.7 4.9 12.5 7.7 2.5 3.8 2.3 9.3 2.1 15.2-.2 5.5-.4 11.1 1.4 16.6 1.8 5.5 4.7 9.8 7.5 13.9 3.6 5.4 6.7 10 6.7 16.3.3 6.7-2.9 13-6 19.1z" fill="rgba(211, 175, 175, 1)" stroke="none"/>
  <path d="M296.3 179.6c-8.1-1.5-15.9 3.9-17.4 12.1-.7 3.9.2 7.9 2.4 11.2 2.3 3.3 5.7 5.5 9.6 6.2.9.2 1.8.2 2.7.2 3 0 6-.9 8.5-2.7 3.3-2.3 5.5-5.7 6.2-9.6 1.5-8.1-3.9-15.9-12-17.4zm2.2 15.6c-.2 1.3-1 2.4-2.1 3.2-1.1.8-2.4 1-3.7.8-1.3-.2-2.4-1-3.2-2.1-.8-1.1-1-2.4-.8-3.7.4-2.4 2.5-4.1 4.9-4.1.3 0 .6 0 .9.1 2.7.5 4.5 3.1 4 5.8z" fill="rgba(211, 175, 175, 1)" stroke="none"/>
  <path d="M286.5 143.4c3 0 6-.9 8.5-2.7 3.3-2.3 5.5-5.7 6.2-9.6.7-3.9-.2-7.9-2.4-11.2-2.3-3.3-5.7-5.5-9.6-6.2-3.9-.7-7.9.2-11.2 2.4-3.3 2.3-5.5 5.7-6.2 9.6-.7 3.9.2 7.9 2.4 11.2 2.3 3.3 5.7 5.5 9.6 6.2.9.2 1.8.3 2.7.3zm-4.1-12.1c-.8-1.1-1-2.4-.8-3.7.2-1.3 1-2.4 2.1-3.2.8-.6 1.8-.9 2.8-.9.3 0 .6 0 .9.1 1.3.2 2.4 1 3.2 2.1.8 1.1 1 2.4.8 3.7-.2 1.3-1 2.4-2.1 3.2-1.1.8-2.4 1-3.7.8-1.3-.3-2.4-1-3.2-2.1z" fill="rgba(211, 175, 175, 1)" stroke="none"/>
  <path d="M241.4 66.5c-8.1-1.5-15.9 3.9-17.4 12.1-.7 3.9.2 7.9 2.4 11.2 2.3 3.3 5.7 5.5 9.6 6.2.9.2 1.8.2 2.7.2 3 0 6-.9 8.5-2.7 3.3-2.3 5.5-5.7 6.2-9.6 1.6-8.2-3.8-16-12-17.4zm2.3 15.6c-.2 1.3-1 2.4-2.1 3.2-1.1.8-2.4 1-3.7.8-1.3-.2-2.4-1-3.2-2.1-.8-1.1-1-2.4-.8-3.7.4-2.4 2.5-4.1 4.9-4.1.3 0 .6 0 .9.1 2.7.5 4.5 3.1 4 5.8z" fill="rgba(211, 175, 175, 1)" stroke="none"/>
  <path d="M177.5 70.5c-2.3-3.3-5.7-5.5-9.6-6.2-3.9-.7-7.9.2-11.2 2.4-3.3 2.3-5.5 5.7-6.2 9.6-.7 3.9.2 7.9 2.4 11.2 2.3 3.3 5.7 5.5 9.6 6.2.9.2 1.8.2 2.7.2 7.1 0 13.4-5.1 14.7-12.3.7-3.9-.1-7.8-2.4-11.1zm-7.4 9.4c-.5 2.7-3.1 4.5-5.8 4-1.3-.2-2.4-1-3.2-2.1-.8-1.1-1-2.4-.8-3.7.2-1.3 1-2.4 2.1-3.2.8-.6 1.8-.9 2.8-.9.3 0 .6 0 .9.1 1.3.2 2.4 1 3.2 2.1.7 1.1 1 2.4.8 3.7z" fill="rgba(211, 175, 175, 1)" stroke="none"/>
  <path d="M124.6 118.3c-2.3-3.3-5.7-5.5-9.6-6.2-8.1-1.5-15.9 3.9-17.4 12.1-.7 3.9.2 7.9 2.4 11.2 2.3 3.3 5.7 5.5 9.6 6.2.9.2 1.8.2 2.7.2 7.1 0 13.4-5.1 14.7-12.3.7-3.9-.1-7.9-2.4-11.2zm-7.4 9.4c-.5 2.7-3.1 4.5-5.8 4-1.3-.2-2.4-1-3.2-2.1-.8-1.1-1-2.4-.8-3.7.4-2.4 2.5-4.1 4.9-4.1.3 0 .6 0 .9.1 1.3.2 2.4 1 3.2 2.1.7 1.1 1 2.4.8 3.7z" fill="rgba(211, 175, 175, 1)" stroke="none"/>
  <path d="M109.3 181.7c-8.1-1.5-15.9 3.9-17.4 12.1-.7 3.9.2 7.9 2.4 11.2 2.3 3.3 5.7 5.5 9.6 6.2.9.2 1.8.2 2.7.2 3 0 6-.9 8.5-2.7 3.3-2.3 5.5-5.7 6.2-9.6 1.6-8.1-3.9-15.9-12-17.4zm2.2 15.6c-.2 1.3-1 2.4-2.1 3.2-1.1.8-2.4 1-3.7.8-1.3-.2-2.4-1-3.2-2.1-.8-1.1-1-2.4-.8-3.7.4-2.4 2.5-4.1 4.9-4.1.3 0 .6 0 .9.1 2.7.5 4.5 3.1 4 5.8z" fill="rgba(211, 175, 175, 1)" stroke="none"/>
  <path d="M135.6 218.7c-13.1 5.3 39.1 20.2 39.1 20.2s-25.9-25.5-39.1-20.2z" fill="rgba(211, 175, 175, 1)" stroke="none"/>
  <path d="M264.8 219.2c-13.1-5.3-39.1 20.2-39.1 20.2s52.2-14.9 39.1-20.2z" fill="rgba(211, 175, 175, 1)" stroke="none"/>
</svg>
</g></svg></g></g>
<!-- /image 34637 -->

<!-- image 33905 -->
<g id="transformed-33905" data-image="33905" transform="translate(208.03526952858516, 105.55526952858517) rotate(335, 20.16473047141483, 20.164730471414824)"><g><svg version="1.1" width="40.32946094282966px" height="40.32946094282965px" viewBox="0 0 40.32946094282966 40.32946094282965"><g id="original-33905"><svg xmlns="http://www.w3.org/2000/svg" viewBox="0 0 400 400" xmlns:xlink="http://www.w3.org/1999/xlink" version="1.1" preserveAspectRatio="xMidYMid meet">
  <path d="M282.2 144h-52.8c1.5-.7 3-1.4 4.6-2.1 7.1-3.4 12.7-6.5 17.1-9.4.1-.1.3-.2.4-.3 15.5-10.2 16.1-17.3 16.4-20 .6-6.6-3.4-12.3-12-16.9-6.7-3.6-13.6-4-20.6-1.3-5.2 2.1-10 5.9-14.3 10.6-.3.3-.6.6-.8.9-6.2 7.1-11.4 15.9-15.2 23.6-1-12.6-5.2-32.7-21.6-42.7-20.2-12.2-39.8 3.8-47.7 14.4-.9.8-1.8 1.7-2.6 2.7-5.2 5.9-4.8 11.4-3.6 15 3.1 9.1 15.6 17.2 38.4 24.9.5.2 1 .3 1.5.5h-52.8c-9.4 0-17 7.6-17 17v42c0 9.4 7.6 17 17 17h62V313h-43.2c-3.9 0-7-3.1-7-7v-73c0-2.8-2.2-5-5-5s-5 2.2-5 5v73.1c0 9.4 7.6 17 17 17H265c9.4 0 17-7.6 17-17V233c0-2.8-2.2-5-5-5s-5 2.2-5 5v73.1c0 3.9-3.1 7-7 7h-44.7V220h61.9c9.4 0 17-7.6 17-17v-42c0-9.4-7.7-17-17-17zm-69.4 10v56H191v-56h9.1c.6.2 1.2.3 1.8.3.5 0 1-.1 1.6-.2 0 0 .1 0 .3-.1h9zm31.4-51.7c2.3 0 4.6.6 6.9 1.9 3.2 1.7 7 4.4 6.7 7.2-.2 2.3-2.1 4.9-5.2 7.6-1.1-4-3.1-7.3-6-9.9-2.8-2.6-6.2-4.1-9.5-4.9.6-.3 1.2-.6 1.8-.8 1.8-.8 3.5-1.1 5.3-1.1zm-17.4 10.8c3.5-.2 9.6.2 13.2 3.4 2.2 2 3.4 4.9 3.6 8.9-9.3 5.6-21.6 11.2-33 15.5 3.7-8.7 9.4-19.7 16.2-27.8zM178.2 95c12.2 7.4 15.7 23.3 16.7 33.9-9-13.2-23-30.1-37.9-33.8 7.6-4.1 14.5-4.1 21.2-.1zm-39.3 20.3c-.2-.7-.8-2.4 1.7-5.3 3.3-3.8 6.8-5.6 10.7-5.6.5 0 1 0 1.5.1 13 1.5 28.2 21 37.2 35.1-22.3-5.7-48.1-15.4-51.1-24.3zM109.6 203v-42c0-3.9 3.1-7 7-7H181v56h-64.5c-3.8 0-6.9-3.1-6.9-7zm79 110.1V220h21.7v93.1h-21.7zM289.2 203c0 3.9-3.1 7-7 7h-59.4v-56h59.4c3.9 0 7 3.1 7 7v42z" fill="rgba(211, 175, 175, 1)" stroke="none"/>
</svg>
</g></svg></g></g>
<!-- /image 33905 -->

<!-- image 19525 -->
<g id="transformed-19525" data-image="19525" transform="translate(5.889068912980221, 200.43906891298022) rotate(1, 21.310931087019778, 21.310931087019778)"><g><svg version="1.1" width="42.621862174039556px" height="42.621862174039556px" viewBox="0 0 42.621862174039556 42.621862174039556"><g id="original-19525"><svg xmlns="http://www.w3.org/2000/svg" viewBox="0 0 400 400" xmlns:xlink="http://www.w3.org/1999/xlink" version="1.1" preserveAspectRatio="xMidYMid meet">
  <path d="M225.7 137.3v-15.7c0-9.4-7.6-17-17-17h-20c-9.4 0-17 7.6-17 17v19c0 2.8 2.2 5 5 5s5-2.2 5-5v-19c0-3.9 3.1-7 7-7h20c3.9 0 7 3.1 7 7v13.3c-5.5-1-11.2-1.5-17-1.5-3.3 0-6.5.2-9.8.5-2.7.3-4.7 2.7-4.5 5.5.3 2.7 2.7 4.7 5.5 4.5 2.9-.3 5.8-.4 8.7-.4 37.4 0 69.1 24.5 80.1 58.2H118.6c2.5-7.8 6.2-15.2 10.9-22 9.6-13.8 22.9-24.4 38.5-30.5 2.6-1 3.8-3.9 2.8-6.5s-3.9-3.8-6.5-2.8c-17.5 6.8-32.4 18.6-43.1 34.1-11 15.8-16.8 34.4-16.8 53.7 0 52 42.3 94.2 94.2 94.2s94.2-42.3 94.2-94.2c.2-42.7-28.2-78.7-67.1-90.4zm57.3 90.3c0 8-1.1 15.7-3.2 23h-17.5l19.7-35.8c.7 4.2 1 8.5 1 12.8zm-10.6-16l-18.6 33.9-19.8-33.9h38.4zm-27.3 39h-39.7l20.3-33.3 19.4 33.3zm-27.7-39l-21 34.5-21.8-34.5h42.8zm-30 39h-38.9l17.9-33.2 21 33.2zm-29.1-39l-18.2 33.7-18.8-33.7h37zm-26.7 39h-13.9c-2.1-7.3-3.2-15-3.2-23 0-2.4.1-4.8.3-7.1l16.8 30.1zm67.1 61.3c-34.7 0-64.6-21.1-77.5-51.2h154.9c-12.7 30-42.6 51.2-77.4 51.2z" fill="rgba(211, 175, 175, 1)" stroke="none"/>
  <path d="M258.2 195.7c.9 1.7 2.6 2.6 4.4 2.6.8 0 1.6-.2 2.4-.6 2.4-1.3 3.3-4.4 2-6.8-8-14.6-20.8-26.6-35.8-33.7-2.5-1.2-5.5-.1-6.7 2.4-1.2 2.5-.1 5.5 2.4 6.7 13.1 6.1 24.2 16.6 31.3 29.4z" fill="rgba(211, 175, 175, 1)" stroke="none"/>
  <circle cx="215.1" cy="156.2" r="5.9" fill="rgba(211, 175, 175, 1)" stroke="none"/>
  <path d="M183.6 102c2.8 0 5-2.2 5-5 0-5.5 4.5-10 10-10s10 4.5 10 10c0 2.8 2.2 5 5 5s5-2.2 5-5c0-11-9-20-20-20s-20 9-20 20c0 2.7 2.2 5 5 5z" fill="rgba(211, 175, 175, 1)" stroke="none"/>
</svg>
</g></svg></g></g>
<!-- /image 19525 -->

<!-- image 67803 -->
<g id="transformed-67803" data-image="67803" transform="translate(83.787709484969, 68.43770948496899) rotate(10, 22.14229051503101, 22.142290515031004)"><g><svg version="1.1" width="44.28458103006202px" height="44.28458103006201px" viewBox="0 0 44.28458103006202 44.28458103006201"><g id="original-67803"><svg xmlns="http://www.w3.org/2000/svg" viewBox="0 0 400 400" xmlns:xlink="http://www.w3.org/1999/xlink" version="1.1" preserveAspectRatio="xMidYMid meet">
  <path d="M286.2 241.5c-2.7.4-4.7 2.9-4.3 5.6.4 3.2.6 6.5.6 9.7 0 41.2-33.5 74.7-74.7 74.7s-74.7-33.5-74.7-74.7c0-17.5 6.6-33.1 20.2-48 .1-.1 5.5-6.3 9.8-10 2.1-1.8 2.3-5 .5-7.1-1.8-2.1-5-2.3-7.1-.5-4.8 4.2-10.6 10.7-10.8 10.9-10 10.9-16.6 22.4-20 34.6l-9.9-2.6-2.5-16.8c-.4-2.7-2.9-4.6-5.7-4.2-2.7.4-4.6 2.9-4.2 5.7l1.9 12.6-17.9-4.6c-2.7-.7-5.4.9-6.1 3.6-.7 2.7.9 5.4 3.6 6.1l38.9 10c-.5 3.4-.7 6.8-.7 10.3 0 46.7 38 84.7 84.7 84.7s84.7-38 84.7-84.7c0-3.7-.2-7.4-.7-11-.4-2.8-2.9-4.7-5.6-4.3z" fill="rgba(211, 175, 175, 1)" stroke="none"/>
  <path d="M256.2 167.5c-2.4-1.3-5.5-.4-6.8 2-2.5 4.6-5.7 8.7-9.6 12.2-1.3 1.2-1.9 2.9-1.5 4.6.3 1.7 1.5 3.1 3.1 3.7.2.1 20.2 7.9 31.6 30.3.9 1.7 2.6 2.7 4.5 2.7.8 0 1.5-.2 2.3-.5 2.5-1.3 3.4-4.3 2.2-6.7-9-17.6-22.5-27.4-30.4-31.9 2.5-3 4.8-6.2 6.7-9.7 1.2-2.4.3-5.4-2.1-6.7z" fill="rgba(211, 175, 175, 1)" stroke="none"/>
  <path d="M230 124.1c-9.7 0-9.7 15 0 15s9.7-15 0-15z" fill="rgba(211, 175, 175, 1)" stroke="none"/>
  <path d="M317 215.9c-1.2-2.5-4.2-3.5-6.7-2.3l-48 23.5c-2.5 1.2-3.5 4.2-2.3 6.7.9 1.8 2.6 2.8 4.5 2.8.7 0 1.5-.2 2.2-.5l48-23.5c2.5-1.2 3.5-4.2 2.3-6.7z" fill="rgba(211, 175, 175, 1)" stroke="none"/>
  <path d="M120.2 169.1c0 8 6.5 14.6 14.6 14.6 8 0 14.6-6.5 14.6-14.6 0-6.3-4-11.6-9.5-13.6.5-2.3 1.3-5 2.5-8 .3.4.6.8 1 1.2 2.2 2.4 4.7 3.9 7.1 4.8 3.9 28.7 28.3 50.2 57.4 50.2 2.8 0 5-2.2 5-5s-2.2-5-5-5c-23.5 0-43.3-16.8-47.3-39.7.5-.3.9-.7 1.3-1.2 30.4-40.3 81.1-37.9 81.6-37.9.4 0 .8 0 1.2-.1 5.6 6.7 9.2 14.6 10.6 23.2.4 2.5 2.5 4.2 4.9 4.2.3 0 .5 0 .8-.1 2.7-.4 4.6-3 4.2-5.7-1.8-11.3-6.8-21.6-14.6-30.1 1.5-4.9 1.3-9.5-.5-13.7-3.7-8.7-12.9-11.6-14-11.9-.4-.1-.9-.2-1.4-.2h-2.3c-.1-.3-.3-.6-.5-.9-.2-.4-6-9-17.5-14.4-19.1-8.8-38.8-2-52.1 5.2-29.3 16.1-36.8 40.6-37.9 58.4-.7 11.5 1 21.5 2.6 27.8-4.1 2.7-6.8 7.3-6.8 12.5zm14.5 4.5c-2.5 0-4.6-2-4.6-4.6 0-1.1.4-2.1 1.1-2.9.7.4 1.6.7 2.5.7.3 0 .5 0 .8-.1 1.1-.2 2.1-.7 2.8-1.5 1.2.8 2 2.2 2 3.8 0 2.6-2.1 4.6-4.6 4.6zm99-82.9c1.5.6 5.5 2.5 7.1 6.1.9 2.2.8 4.9-.4 8.1-12.6.1-55.8 3.1-85 39.7-1.5-.3-3.4-1-4.8-2.6-1.9-2.2-2.6-5.7-1.9-10.5 1.4-2.4 7.1-11.4 18.5-20.2 17.6-13.6 40-20.5 66.5-20.5-.1-.1 0-.1 0-.1zm-99.4 38.9c1.4-22.2 12.4-39.1 32.8-50.2 29-15.9 46.2-4.8 53 1.9-28.6 2.6-47.9 13.2-59.5 22.4-14.9 11.6-20.9 23.4-21.1 23.9-.2.5-.4 1-.5 1.5-.2 1.2-.3 2.3-.4 3.4-1.6 2.6-3 5.2-4.1 7.7-.3-3.3-.4-6.9-.2-10.6z" fill="rgba(211, 175, 175, 1)" stroke="none"/>
  <path d="M212.8 135.1c0-2.8-2.2-5-5-5h-8.7c-2.8 0-5 2.2-5 5s2.2 5 5 5h8.7c2.8 0 5-2.2 5-5z" fill="rgba(211, 175, 175, 1)" stroke="none"/>
  <path d="M185.6 156.6c-2.5 1.2-3.5 4.2-2.2 6.7.1.2.3.7.8 1.4 1 1.5 2.6 2.3 4.2 2.3.9 0 1.9-.3 2.7-.8 2.3-1.5 2.9-4.6 1.4-6.9-.1-.2-.2-.3-.2-.4-1.3-2.6-4.3-3.5-6.7-2.3z" fill="rgba(211, 175, 175, 1)" stroke="none"/>
  <path d="M203.3 168.1c-2.4-1.3-5.5-.4-6.8 2.1-1.3 2.4-.4 5.5 2.1 6.8.5.3 1.1.6 1.6.8.7.3 1.5.5 2.2.5 1.9 0 3.6-1 4.5-2.8 1.2-2.5.2-5.5-2.3-6.7-.4-.3-.9-.5-1.3-.7z" fill="rgba(211, 175, 175, 1)" stroke="none"/>
  <path d="M219.2 173.6c-2.7-.5-5.3 1.2-5.9 3.9-.5 2.7 1.2 5.3 3.9 5.9l1 .2c.3.1.6.1.9.1 2.3 0 4.4-1.7 4.9-4.1.5-2.7-1.3-5.3-4-5.9l-.8-.1z" fill="rgba(211, 175, 175, 1)" stroke="none"/>
  <path d="M220.2 155.3c0 2.8 2.2 5 5 5h58.5c2.8 0 5-2.2 5-5s-2.2-5-5-5h-58.5c-2.8 0-5 2.2-5 5z" fill="rgba(211, 175, 175, 1)" stroke="none"/>
</svg>
</g></svg></g></g>
<!-- /image 67803 -->

<!-- image 15439 -->
<g id="transformed-15439" data-image="15439" transform="translate(59.4366009631633, 129.23660096316328) rotate(344, 25.703399036836704, 25.703399036836707)"><g><svg version="1.1" width="51.40679807367341px" height="51.406798073673414px" viewBox="0 0 51.40679807367341 51.406798073673414"><g id="original-15439"><svg xmlns="http://www.w3.org/2000/svg" viewBox="0 0 400 400" xmlns:xlink="http://www.w3.org/1999/xlink" version="1.1" preserveAspectRatio="xMidYMid meet">
  <circle cx="201.6" cy="173.8" r="6.4" fill="rgba(211, 175, 175, 1)" stroke="none"/>
  <circle cx="201.6" cy="196" r="6.4" fill="rgba(211, 175, 175, 1)" stroke="none"/>
  <circle cx="201.6" cy="216.7" r="6.4" fill="rgba(211, 175, 175, 1)" stroke="none"/>
  <circle cx="217.2" cy="90" r="6" fill="rgba(211, 175, 175, 1)" stroke="none"/>
  <circle cx="184" cy="90" r="6" fill="rgba(211, 175, 175, 1)" stroke="none"/>
  <path d="M217.2 103c-2.8 0-5 2.2-5 5 0 6.4-5.2 11.6-11.6 11.6-6.4 0-11.6-5.2-11.6-11.6 0-2.8-2.2-5-5-5s-5 2.2-5 5c0 11.9 9.7 21.6 21.6 21.6 11.9 0 21.6-9.7 21.6-21.6 0-2.7-2.2-5-5-5z" fill="rgba(211, 175, 175, 1)" stroke="none"/>
  <path d="M263.7 146.3h-31.2c12.6-9.6 20-24.5 20-40.8 0-28.4-23.1-51.5-51.5-51.5s-51.5 23.1-51.5 51.5c0 16 7.6 31.1 20.1 40.8h-34.1c-15.1 0-27.4 12.3-27.4 27.4 0 15.1 12.3 27.4 27.4 27.4h20.6l-17.9 111.3c-1.2 7.2.6 14.4 4.9 20.4 4.3 5.9 10.6 9.8 17.8 11 7.2 1.2 14.4-.6 20.4-4.9 5.9-4.3 9.8-10.6 11-17.8l7.6-47.1 7.6 47.1c1.2 7.2 5.1 13.5 11 17.8 4.7 3.4 10.3 5.2 16 5.2 1.5 0 2.9-.1 4.4-.4 7.2-1.2 13.5-5.1 17.8-11 4.3-5.9 6-13.2 4.9-20.4l-1.1-6.6c0-.3 0-.6-.1-.8 0-.2-.1-.4-.2-.6L243.6 201h20c15.1 0 27.4-12.3 27.4-27.4 0-15-12.2-27.3-27.3-27.3zm-145.5 27.4c0-8.1 5.6-14.9 13.1-16.8v33.6c-7.6-1.9-13.1-8.7-13.1-16.8zm57.2 157.1c-3.8 2.7-8.4 3.8-12.9 3.1-4.6-.7-8.6-3.2-11.3-7-2.7-3.8-3.8-8.4-3.1-12.9l.5-3.1 34.2 6.2-.4 2.4c-.7 4.5-3.2 8.5-7 11.3zm73.1-3.9c-2.7 3.8-6.7 6.3-11.3 7-4.6.7-9.1-.4-12.9-3.1-3.8-2.7-6.3-6.7-7-11.3l-.3-1.6 34.2-6.2.4 2.3c.7 4.5-.4 9.1-3.1 12.9zm-15.7-130.1l16.9 105-34.2 6.2-10.7-66.3c-.4-2.4-2.5-4.2-4.9-4.2-2.5 0-4.5 1.8-4.9 4.2l-10.5 65.5-34.2-6.2L167 196.8c.2-1.4-.2-2.9-1.1-4-.9-1.1-2.3-1.8-3.8-1.8h-20.8v-34.7h36c2.8 0 5-2.2 5-5v-5.8c0-1.8-.9-3.4-2.4-4.3-12.5-7.5-20.3-21.1-20.3-35.7 0-22.9 18.6-41.5 41.5-41.5s41.5 18.6 41.5 41.5c0 15.8-8.8 30-23 37.1-1.7.8-2.8 2.6-2.8 4.5v4.2c0 2.8 2.2 5 5 5h35.5V191h-19.5c-1.5 0-2.9.6-3.8 1.8-1 1.1-1.5 2.6-1.2 4zm34.4-6.1v-34c7.9 1.6 13.8 8.6 13.8 17 0 8.3-5.9 15.3-13.8 17z" fill="rgba(211, 175, 175, 1)" stroke="none"/>
</svg>
</g></svg></g></g>
<!-- /image 15439 -->

<!-- image 29079 -->
<g id="transformed-29079" data-image="29079" transform="translate(129.6784141394441, 62.848414139444074) rotate(1, 28.23158586055591, 28.231585860555924)"><g><svg version="1.1" width="56.46317172111182px" height="56.46317172111185px" viewBox="0 0 56.46317172111182 56.46317172111185"><g id="original-29079"><svg xmlns="http://www.w3.org/2000/svg" viewBox="0 0 400 400" xmlns:xlink="http://www.w3.org/1999/xlink" version="1.1" preserveAspectRatio="xMidYMid meet">
  <path d="M309.4 144.2c-.7-1.1-1.9-1.9-3.2-2.2-1.6-.3-39-7.6-59.2 20.4-1.4-.6-3.1-1.4-5.2-2.2 6.6-3.5 15.7-9.2 24.9-17.4 4.5-4 9.2-8.9 13.7-14.7.2-.2.4-.5.6-.7 11.6-15.1 21.8-36.2 22.8-64.5.1-2.8-2.1-5.1-4.8-5.2-2.8-.1-5.1 2.1-5.2 4.8-.8 20.9-6.8 39.5-18.1 55.4-8.2-6.2-27-23-24.6-44.4.3-2.7-1.7-5.2-4.4-5.5-2.7-.3-5.2 1.7-5.5 4.4-1.6 14 3.7 28.3 15.3 41.3 4.8 5.4 9.7 9.5 13.1 12.1-2.8 3.3-5.9 6.4-9.2 9.4-9.6 8.7-19.3 14.3-25.4 17.4-2.7-6.8-8.1-24.7.9-38.4 1.5-2.3.9-5.4-1.4-6.9s-5.4-.9-6.9 1.4c-11 16.9-5.6 37.3-2.3 46.4-14-3.2-32.6-4.9-52.7.3-.4-.2-1.1-.5-2.1-.9 3.4-9.4 8.3-29.3-2.5-45.8-1.5-2.3-4.6-3-6.9-1.4-2.3 1.5-3 4.6-1.4 6.9 8 12.1 4.5 27.7 1.8 35.8-5.8-3.3-13.2-8.2-20.6-14.9-3.3-3-6.4-6.1-9.2-9.4 3.4-2.6 8.3-6.7 13.1-12.1 11.5-13 16.8-27.3 15.3-41.3-.3-2.7-2.8-4.7-5.5-4.4-2.7.3-4.7 2.8-4.4 5.5 1.2 11.2-3 22.4-12.7 33.4-4.4 5-8.9 8.7-12 11.1-11.5-15.9-17.6-34.5-18.3-55.4-.1-2.8-2.4-4.9-5.2-4.8-2.8.1-4.9 2.4-4.8 5.2 1 28.3 11.2 49.4 22.8 64.5.2.3.4.5.6.7 4.5 5.8 9.3 10.7 13.7 14.7 9 8.1 17.9 13.7 24.5 17.2-1.9.8-3.8 1.6-5.7 2.5-6.9-7.8-26.7-26-59.5-24.6-1.4.1-2.7.7-3.6 1.8-.9 1.1-1.3 2.4-1.2 3.8.2 1.6 4.7 37.9 36.2 59.8.2 15.3 3 88.5 35.4 121 10.4 10.5 22.9 15.8 37.1 15.8 14.2 0 26.6-5.3 37-15.8 32.3-32.6 34.7-105.9 34.8-121.1 8-5.8 34.5-26.8 40.7-55.3.3-1.2.1-2.6-.6-3.7zm-47.8 52.3c-1.4.9-2.3 2.5-2.2 4.2 0 .8.5 83.8-31.9 116.6-8.5 8.6-18.3 12.8-29.9 12.8-11.6 0-21.4-4.2-30-12.8-32.6-32.7-32.5-115.8-32.5-116.6 0-1.7-.9-3.3-2.3-4.2-22.4-14.5-30.3-37.9-32.9-48.5 31.2 1.2 47.1 22.8 47.8 23.8 1.5 2 4.2 2.7 6.4 1.5 46.3-24.6 91.8-.3 92.2 0 2.4 1.3 5.3.5 6.7-1.8 6.5-10.9 16.9-17.6 31-19.7 5.8-.9 11.1-.8 14.8-.5-8.7 26.1-36.9 45-37.2 45.2z" fill="rgba(211, 175, 175, 1)" stroke="none"/>
  <circle cx="242.7" cy="209.5" r="8" fill="rgba(211, 175, 175, 1)" stroke="none"/>
  <circle cx="155.1" cy="209.5" r="8" fill="rgba(211, 175, 175, 1)" stroke="none"/>
  <path d="M282.4 156.5c-16.5-.9-22.5 14.8-22.8 15.5-1 2.6.4 5.5 2.9 6.4.6.2 1.2.3 1.7.3 2 0 3.9-1.2 4.7-3.3 0-.1 3.6-9.5 12.9-9 2.7.1 5.1-2 5.3-4.7.2-2.7-1.9-5-4.7-5.2z" fill="rgba(211, 175, 175, 1)" stroke="none"/>
  <path d="M115.9 156.2c-2.7-.1-5.1 2-5.2 4.8-.1 2.8 2 5.1 4.8 5.2.1 0 10.2.5 12.5 9.5.6 2.2 2.6 3.7 4.8 3.7.4 0 .9-.1 1.3-.2 2.7-.7 4.3-3.4 3.5-6.1-4.2-16-21-16.9-21.7-16.9z" fill="rgba(211, 175, 175, 1)" stroke="none"/>
  <path d="M198.5 254.1c-13.6 0-24.8 11-24.8 24.5s11.1 24.5 24.8 24.5c13.6 0 24.8-11 24.8-24.5-.1-13.6-11.2-24.5-24.8-24.5zm0 38.9c-8.1 0-14.8-6.5-14.8-14.5s6.6-14.5 14.8-14.5 14.8 6.5 14.8 14.5c-.1 8-6.7 14.5-14.8 14.5z" fill="rgba(211, 175, 175, 1)" stroke="none"/>
  <path d="M212.4 311.1c-14.2 9.6-27.2.5-27.8.1-2.2-1.6-5.3-1.1-7 1.1-1.6 2.2-1.2 5.4 1.1 7 .5.4 8.7 6.2 20 6.2 5.8 0 12.4-1.5 19.2-6.1 2.3-1.5 2.9-4.6 1.4-6.9-1.5-2.3-4.6-3-6.9-1.4z" fill="rgba(211, 175, 175, 1)" stroke="none"/>
</svg>
</g></svg></g></g>
<!-- /image 29079 -->

<!-- image 08896 -->
<g id="transformed-08896" data-image="08896" transform="translate(117.09247154043155, 130.46247154043152) rotate(104, 21.017528459568464, 21.01752845956847)"><g><svg version="1.1" width="42.03505691913693px" height="42.03505691913694px" viewBox="0 0 42.03505691913693 42.03505691913694"><g id="original-08896"><svg xmlns="http://www.w3.org/2000/svg" viewBox="0 0 400 400" xmlns:xlink="http://www.w3.org/1999/xlink" version="1.1" preserveAspectRatio="xMidYMid meet">
  <path d="M355.7 274.2l-7.6-21.5c-1-2.9-2.7-5.3-5-7.2 5.7-32.7 12.3-70.9 12.5-72.4 1.2-8.5-1.2-16.9-6.5-23.7-5.4-6.7-13-10.9-21.6-11.6-14.2-1.3-27.8 7.7-32.4 21.1l-6.4-18.1c-5.7-16.2-17.3-29.1-32.8-36.5-15.5-7.4-32.9-8.3-49-2.7-2.6.9-4 3.8-3.1 6.4.9 2.6 3.8 4 6.4 3.1 13.6-4.8 28.3-4 41.4 2.2 6.7 3.2 12.6 7.7 17.3 13.1l-47.1 16.8c-2.6.9-4 3.8-3 6.4.7 2 2.7 3.3 4.7 3.3.6 0 1.1-.1 1.7-.3l49.9-17.8c1.7 2.9 3.1 6 4.3 9.3l12.8 36.4c.8 2.2 3 3.6 5.3 3.3 2.3-.3 4.1-2.1 4.4-4.4.6-5.1 1.8-14 2.3-16 2.6-9.9 12.2-16.6 22.4-15.7 5.8.5 11.1 3.3 14.7 7.9 3.6 4.6 5.2 10.3 4.4 16.1-.2 1.4-4.7 27.4-12.1 69.8-2.4-.2-4.9 0-7.3.9L219.6 280c-8.8 3.1-13.5 12.8-10.4 21.7l7.6 21.5c2.5 7 9 11.4 16.1 11.4 1.9 0 3.8-.3 5.6-1L345.2 296c8.9-3.3 13.6-13 10.5-21.8zm-37.5 20.6l-12.6-34.5 8.6-3 12.6 34.5-8.6 3zm-17.6 6.2L288 266.4l8.2-2.9 12.6 34.5-8.2 3zm-17.2 6l-12.6-34.5 7.7-2.7 12.6 34.5-7.7 2.7zm-17.6 6.2l-12.6-34.5 8.2-2.9 12.6 34.5-8.2 2.9zm-17.2 6.1l-13.1-34.4 8.2-2.9 12.6 34.5-7.7 2.8zm-13.3 4.7c-3.6 1.3-7.6-.6-8.9-4.3l-7.6-21.5c-1.3-3.6.6-7.6 4.3-8.9l3.1-1.1 13.1 34.4-4 1.4zm106.6-37.6l-5.8 2-12.6-34.5 6.1-2.2c.8-.3 1.5-.4 2.3-.4 1 0 2.1.2 3 .7 1.7.8 3 2.2 3.6 4l7.6 21.5c1.4 3.6-.5 7.6-4.2 8.9z" fill="rgba(211, 175, 175, 1)" stroke="none"/>
  <path d="M182.7 289.1l61.1-24c4.2-1.7 7.5-4.9 9.4-9 1.8-4.2 1.9-8.8.2-13l-6.9-17.6-47.3-120.2c-6.3-15.9-18.4-28.5-34.1-35.3-15.7-6.9-33.1-7.3-49.1-1-15.9 6.3-28.5 18.4-35.3 34.1-6.8 15.7-7.2 33.1-.9 49.1l7 17.9c-12.2-7.2-28.4-5.1-38.3 5.2-6 6.2-9.1 14.4-8.7 23 .4 8.6 4.1 16.5 10.6 22.2 1.2 1.1 35.4 29.1 56.9 46.6-.4 2.9-.1 5.9 1 8.7l8.3 21.2c1.7 4.2 4.9 7.5 9 9.4 2.2 1 4.5 1.4 6.8 1.4 2.1 0 4.2-.4 6.2-1.2l43-16.9c.2 0 .3-.1.5-.1.1-.2.3-.3.6-.5zm-16.9-4.1l-12.6-34.5 8.1-3.2 12.6 34.5-8.1 3.2zm-16.9 6.7l-13-34.4 8.1-3.2 12.6 34.5-7.7 3.1zm21.7-48.1l7.6-3 12.6 34.5-7.6 3-12.6-34.5zm42.8-16.8l12.6 34.5-8.5 3.3-12.6-34.5 8.5-3.3zm-17.8 7l12.6 34.5-8.1 3.2-12.6-34.5 8.1-3.2zm48.4 18.3c-.8 1.7-2.1 3-3.8 3.7l-4.8 1.9-12.6-34.5 4-1.6c.8-.3 1.7-.5 2.5-.5 1 0 1.9.2 2.8.6 1.7.8 3 2.1 3.7 3.8l8.3 21.2c.7 1.8.6 3.7-.1 5.4zm-154.1-145c5.8-13.3 16.4-23.5 29.8-28.8 13.5-5.3 28.2-5 41.4.8 11.7 5.1 21.1 14 26.7 25.3L87.5 143.8c-3.5-12.1-2.8-25 2.4-36.7zm21.8 150.6C85.5 236.3 58.2 214 57 212.9c-4.4-3.9-6.9-9.2-7.2-15.1-.2-5.8 1.9-11.4 5.9-15.6 7.1-7.3 18.8-8.5 27.2-2.8 1.8 1.2 8.5 7.1 12.3 10.6l15.8 14.4-20.1-51.2 100.8-39.6 38.4 97.6c-2.4-.1-4.8.2-7.1 1.1l-105.2 41.4c-2.4.9-4.4 2.3-6.1 4zm23.2 39.5c-1.7.7-3.6.6-5.4-.1-1.7-.8-3-2.1-3.7-3.8l-8.3-21.2c-.7-1.7-.6-3.6.1-5.4.8-1.7 2.1-3 3.8-3.7l5.1-2 13 34.4-4.6 1.8z" fill="rgba(211, 175, 175, 1)" stroke="none"/>
</svg>
</g></svg></g></g>
<!-- /image 08896 -->

<!-- image 41182 -->
<g id="transformed-41182" data-image="41182" transform="translate(152.03010064862494, 160.44010064862493) rotate(11, 22.71989935137505, 22.719899351375048)"><g><svg version="1.1" width="45.4397987027501px" height="45.439798702750096px" viewBox="0 0 45.4397987027501 45.439798702750096"><g id="original-41182"><svg xmlns="http://www.w3.org/2000/svg" viewBox="0 0 400 400" xmlns:xlink="http://www.w3.org/1999/xlink" version="1.1" preserveAspectRatio="xMidYMid meet">
  <path d="M220.8 138.5c-1.9-2-5.1-2-7.1 0l-14.5 14.4-15.5-15.4c-2-1.9-5.1-1.9-7.1 0-1.9 2-1.9 5.1 0 7.1l19 18.9c.1.1.3.3.5.4.1.1.2.2.3.2.2.1.3.2.5.3.1.1.2.1.3.2.2.1.4.1.6.2.1 0 .2.1.3.1.3.1.6.1 1 .1.3 0 .6 0 1-.1.1 0 .2-.1.3-.1.2-.1.4-.1.6-.2.1-.1.3-.1.4-.2.2-.1.3-.2.5-.3.1-.1.2-.2.4-.3.1-.1.3-.2.4-.3l18-17.9c2-1.9 2.1-5.1.1-7.1z" fill="rgba(211, 175, 175, 1)" stroke="none"/>
  <path d="M259.2 213.7l-16-15.9 16-15.9c2-1.9 2-5.1 0-7.1-1.9-2-5.1-2-7.1 0l-17.9 17.8c-.8.2-1.5.6-2.1 1.2-1.1 1.1-1.5 2.5-1.4 3.9-.1 1.4.3 2.9 1.4 3.9.6.6 1.3 1 2.1 1.2l17.9 17.8c1 1 2.3 1.5 3.5 1.5 1.3 0 2.6-.5 3.5-1.5 2.1-1.7 2.1-4.9.1-6.9z" fill="rgba(211, 175, 175, 1)" stroke="none"/>
  <path d="M164.3 200.7c1.1-1.1 1.5-2.5 1.4-3.9.1-1.4-.3-2.9-1.4-3.9-.6-.6-1.3-1-2.1-1.2l-16.9-16.8c-2-1.9-5.1-1.9-7.1 0-1.9 2-1.9 5.1 0 7.1l14.9 14.9-16 15.9c-2 1.9-2 5.1 0 7.1 1 1 2.3 1.5 3.5 1.5 1.3 0 2.6-.5 3.5-1.5l17.9-17.8c1-.4 1.7-.8 2.3-1.4z" fill="rgba(211, 175, 175, 1)" stroke="none"/>
  <path d="M175.6 258.1c1 1 2.3 1.5 3.5 1.5 1.3 0 2.6-.5 3.5-1.5l15.6-15.5 15.6 15.5c1 1 2.3 1.5 3.5 1.5 1.3 0 2.6-.5 3.5-1.5 1.9-2 1.9-5.1 0-7.1l-19.1-19c-.1-.1-.3-.2-.4-.3-.1-.1-.2-.2-.4-.3-.1-.1-.3-.1-.4-.2-.2-.1-.3-.2-.5-.3-.1 0-.2-.1-.4-.1-.2-.1-.4-.1-.6-.2h-.3c-.2 0-.4-.1-.6-.1h-.3c-.2 0-.4 0-.6.1-.1 0-.2.1-.3.1-.2.1-.4.1-.6.2-.1 0-.2.1-.3.2l-.6.3c-.1.1-.2.2-.3.2-.2.1-.3.2-.5.4l-19.1 19c-1.9 2-1.9 5.2.1 7.1z" fill="rgba(211, 175, 175, 1)" stroke="none"/>
  <path d="M201.6 274c-1.9-1.8-4.9-1.8-6.8 0l-28.7 26.6c-2 1.9-2.2 5-.3 7.1 1.9 2 5 2.2 7.1.3l25.3-23.4 25.3 23.4c1 .9 2.2 1.3 3.4 1.3 1.3 0 2.7-.5 3.7-1.6 1.9-2 1.8-5.2-.3-7.1L201.6 274z" fill="rgba(211, 175, 175, 1)" stroke="none"/>
  <path d="M285.3 197.4l23.4-25.3c1.9-2 1.8-5.2-.3-7.1-2-1.9-5.2-1.8-7.1.3L274.8 194c-1.8 1.9-1.8 4.9 0 6.8l26.6 28.7c1 1.1 2.3 1.6 3.7 1.6 1.2 0 2.4-.4 3.4-1.3 2-1.9 2.2-5 .3-7.1l-23.5-25.3z" fill="rgba(211, 175, 175, 1)" stroke="none"/>
  <path d="M194.8 123.4c1 .9 2.2 1.3 3.4 1.3 1.2 0 2.4-.4 3.4-1.3l28.7-26.6c2-1.9 2.2-5 .3-7.1-1.9-2-5-2.2-7.1-.3l-25.3 23.4-25.3-23.4c-2-1.9-5.2-1.8-7.1.3-1.9 2-1.8 5.2.3 7.1l28.7 26.6z" fill="rgba(211, 175, 175, 1)" stroke="none"/>
  <path d="M124.5 194l-26.6-28.7c-1.9-2-5-2.2-7.1-.3-2 1.9-2.2 5-.3 7.1l23.4 25.3-23.4 25.3c-1.9 2-1.8 5.2.3 7.1 1 .9 2.2 1.3 3.4 1.3 1.3 0 2.7-.5 3.7-1.6l26.6-28.7c1.7-1.9 1.7-4.9 0-6.8z" fill="rgba(211, 175, 175, 1)" stroke="none"/>
  <path d="M230.4 222.5c-2-1.9-5.1-1.9-7.1.1-1.9 2-1.9 5.1.1 7.1l15.1 14.8c1 1 2.2 1.4 3.5 1.4 1.3 0 2.6-.5 3.6-1.5 1.9-2 1.9-5.1-.1-7.1l-15.1-14.8z" fill="rgba(211, 175, 175, 1)" stroke="none"/>
  <path d="M166.2 172c1 1 2.2 1.4 3.5 1.4 1.3 0 2.6-.5 3.6-1.5 1.9-2 1.9-5.1-.1-7.1l-16.8-16.5c-2-1.9-5.1-1.9-7.1.1-1.9 2-1.9 5.1.1 7.1l16.8 16.5z" fill="rgba(211, 175, 175, 1)" stroke="none"/>
  <path d="M173.2 222.1c-2-1.9-5.1-1.9-7.1.1l-16.9 17.2c-1.9 2-1.9 5.1.1 7.1 1 1 2.2 1.4 3.5 1.4 1.3 0 2.6-.5 3.6-1.5l16.9-17.2c1.8-2 1.8-5.1-.1-7.1z" fill="rgba(211, 175, 175, 1)" stroke="none"/>
  <path d="M223.8 172.1c1 1 2.2 1.4 3.5 1.4 1.3 0 2.6-.5 3.6-1.5l14.7-14.9c1.9-2 1.9-5.1-.1-7.1-2-1.9-5.1-1.9-7.1.1L223.7 165c-1.9 2-1.9 5.1.1 7.1z" fill="rgba(211, 175, 175, 1)" stroke="none"/>
  <circle cx="271.2" cy="119.7" r="7.3" fill="rgba(211, 175, 175, 1)" stroke="none"/>
  <circle cx="128.1" cy="119.7" r="7.3" fill="rgba(211, 175, 175, 1)" stroke="none"/>
  <circle cx="128.1" cy="269.9" r="7.3" fill="rgba(211, 175, 175, 1)" stroke="none"/>
  <circle cx="264" cy="269.9" r="7.3" fill="rgba(211, 175, 175, 1)" stroke="none"/>
  <circle cx="198.2" cy="198.9" r="19.1" fill="rgba(211, 175, 175, 1)" stroke="none"/>
</svg>
</g></svg></g></g>
<!-- /image 41182 -->

<!-- image 65242 -->
<g id="transformed-65242" data-image="65242" transform="translate(4.73703931933014, -3.172960680669849) rotate(328, 24.45296068066986, 24.45296068066985)"><g><svg version="1.1" width="48.90592136133972px" height="48.9059213613397px" viewBox="0 0 48.90592136133972 48.9059213613397"><g id="original-65242"><svg xmlns="http://www.w3.org/2000/svg" viewBox="0 0 400 400" xmlns:xlink="http://www.w3.org/1999/xlink" version="1.1" preserveAspectRatio="xMidYMid meet">
  <path d="M226.4 136.7V121c0-9.4-7.6-17-17-17h-20c-9.4 0-17 7.6-17 17v19c0 2.8 2.2 5 5 5s5-2.2 5-5v-19c0-3.9 3.1-7 7-7h20c3.9 0 7 3.1 7 7v13.3c-5.5-1-11.2-1.5-17-1.5-3.3 0-6.5.2-9.8.5-2.7.3-4.7 2.7-4.5 5.5.3 2.7 2.7 4.7 5.5 4.5 2.9-.3 5.8-.4 8.7-.4 46.5 0 84.2 37.8 84.2 84.2 0 46.5-37.8 84.2-84.2 84.2s-84.2-37.8-84.2-84.2c0-17.3 5.2-33.9 15-48 9.6-13.8 22.9-24.4 38.5-30.5 2.6-1 3.8-3.9 2.8-6.5s-3.9-3.8-6.5-2.8c-17.5 6.8-32.4 18.6-43.1 34.1-11 15.8-16.8 34.4-16.8 53.7 0 52 42.3 94.2 94.2 94.2 52 0 94.2-42.3 94.2-94.2.3-42.7-28.1-78.8-67-90.4z" fill="rgba(211, 175, 175, 1)" stroke="none"/>
  <path d="M269.9 205c2.5-1.2 3.6-4.1 2.4-6.6-8.4-17.9-22.5-33.1-39.7-42.7-2.4-1.3-5.5-.5-6.8 1.9-1.3 2.4-.5 5.5 1.9 6.8 15.4 8.6 28 22.1 35.5 38.2.8 1.8 2.7 2.9 4.5 2.9.8-.1 1.5-.2 2.2-.5z" fill="rgba(211, 175, 175, 1)" stroke="none"/>
  <circle cx="217.2" cy="154.6" r="5.9" fill="rgba(211, 175, 175, 1)" stroke="none"/>
  <circle cx="176.1" cy="275" r="15" fill="rgba(211, 175, 175, 1)" stroke="none"/>
  <circle cx="213.4" cy="262.7" r="5.3" fill="rgba(211, 175, 175, 1)" stroke="none"/>
  <circle cx="202.1" cy="211" r="16" fill="rgba(211, 175, 175, 1)" stroke="none"/>
  <circle cx="258.4" cy="244.6" r="9.4" fill="rgba(211, 175, 175, 1)" stroke="none"/>
  <circle cx="157" cy="197.5" r="10.9" fill="rgba(211, 175, 175, 1)" stroke="none"/>
  <path d="M184.4 101.3c2.8 0 5-2.2 5-5 0-5.5 4.5-10 10-10s10 4.5 10 10c0 2.8 2.2 5 5 5s5-2.2 5-5c0-11-9-20-20-20s-20 9-20 20c0 2.8 2.3 5 5 5z" fill="rgba(211, 175, 175, 1)" stroke="none"/>
</svg>
</g></svg></g></g>
<!-- /image 65242 -->

<!-- image 48377 -->
<g id="transformed-48377" data-image="48377" transform="translate(2.8761280638334004, 78.0996925448552) rotate(37, 11.9738719361666, 16.940307455144797)"><g><svg version="1.1" width="23.9477438723332px" height="33.880614910289594px" viewBox="0 0 23.9477438723332 33.880614910289594"><g id="original-48377"><svg xmlns="http://www.w3.org/2000/svg" viewBox="0 0 595.28 841.89" xmlns:xlink="http://www.w3.org/1999/xlink" version="1.1" preserveAspectRatio="xMidYMid meet">
  <path d="M553.845 336.415s0-.658-.658-.658c-87.485-122.347-224.96-97.351-226.276-96.694-1.316 0-1.973.658-2.631 1.316-4.604-1.973-9.867-3.947-14.471-4.604 1.316-23.022 7.236-78.276 42.098-90.773 5.92-1.973 8.551-8.551 6.578-14.471-1.973-5.92-8.551-8.551-14.471-6.578-48.676 17.102-55.911 85.511-57.227 111.822-28.284 5.262-49.991 30.258-49.991 59.858v3.289L45.382 427.847c-1.316.658-1.973 1.316-2.631 2.631-1.316 1.973-1.316 2.631-1.973 3.947V437.056l-.658 270.347c0 3.289 1.316 6.578 3.947 8.551 1.973 1.973 4.604 2.631 7.236 2.631h1.973l492.676-91.431c5.262-.658 9.209-5.92 9.209-11.182V342.336 340.362v-.658c-.001-1.315-.658-1.973-1.316-3.289zm-256.534-80.249c21.707 0 38.809 17.76 38.809 38.809 0 21.707-17.76 38.809-38.809 38.809-21.707 0-38.809-17.76-38.809-38.809 0-21.048 17.76-38.809 38.809-38.809zm-55.253 65.778c9.867 20.391 30.916 34.862 55.253 34.862 33.547 0 61.173-27.627 61.173-61.173a61.069 61.069 0 0 0-11.84-36.178c34.204-2.631 115.111 1.316 176.943 75.645l-420.979 80.907 139.45-94.063zm290.08 284.161L62.484 693.589V573.874l469.654-83.538v115.769zm0-138.134L62.484 551.509V445.607l469.654-90.116v112.48z" fill="rgba(211, 175, 175, 1)" stroke="none"/>
</svg>
</g></svg></g></g>
<!-- /image 48377 -->
</defs><rect x="0" y="0" width="250" height="250" fill="rgba(255, 255, 255, 1)"></rect><use xlink:href="#transformed-03053" transform="translate(-250, -250)"></use><use xlink:href="#transformed-03053" transform="translate(0, -250)"></use><use xlink:href="#transformed-03053" transform="translate(250, -250)"></use><use xlink:href="#transformed-03053" transform="translate(-250, 0)"></use><use xlink:href="#transformed-03053" transform="translate(0, 0)"></use><use xlink:href="#transformed-03053" transform="translate(250, 0)"></use><use xlink:href="#transformed-03053" transform="translate(-250, 250)"></use><use xlink:href="#transformed-03053" transform="translate(0, 250)"></use><use xlink:href="#transformed-03053" transform="translate(250, 250)"></use><use xlink:href="#transformed-56792" transform="translate(-250, -250)"></use><use xlink:href="#transformed-56792" transform="translate(0, -250)"></use><use xlink:href="#transformed-56792" transform="translate(250, -250)"></use><use xlink:href="#transformed-56792" transform="translate(-250, 0)"></use><use xlink:href="#transformed-56792" transform="translate(0, 0)"></use><use xlink:href="#transformed-56792" transform="translate(250, 0)"></use><use xlink:href="#transformed-56792" transform="translate(-250, 250)"></use><use xlink:href="#transformed-56792" transform="translate(0, 250)"></use><use xlink:href="#transformed-56792" transform="translate(250, 250)"></use><use xlink:href="#transformed-66052" transform="translate(-250, -250)"></use><use xlink:href="#transformed-66052" transform="translate(0, -250)"></use><use xlink:href="#transformed-66052" transform="translate(250, -250)"></use><use xlink:href="#transformed-66052" transform="translate(-250, 0)"></use><use xlink:href="#transformed-66052" transform="translate(0, 0)"></use><use xlink:href="#transformed-66052" transform="translate(250, 0)"></use><use xlink:href="#transformed-66052" transform="translate(-250, 250)"></use><use xlink:href="#transformed-66052" transform="translate(0, 250)"></use><use xlink:href="#transformed-66052" transform="translate(250, 250)"></use><use xlink:href="#transformed-52194" transform="translate(-250, -250)"></use><use xlink:href="#transformed-52194" transform="translate(0, -250)"></use><use xlink:href="#transformed-52194" transform="translate(250, -250)"></use><use xlink:href="#transformed-52194" transform="translate(-250, 0)"></use><use xlink:href="#transformed-52194" transform="translate(0, 0)"></use><use xlink:href="#transformed-52194" transform="translate(250, 0)"></use><use xlink:href="#transformed-52194" transform="translate(-250, 250)"></use><use xlink:href="#transformed-52194" transform="translate(0, 250)"></use><use xlink:href="#transformed-52194" transform="translate(250, 250)"></use><use xlink:href="#transformed-63877" transform="translate(-250, -250)"></use><use xlink:href="#transformed-63877" transform="translate(0, -250)"></use><use xlink:href="#transformed-63877" transform="translate(250, -250)"></use><use xlink:href="#transformed-63877" transform="translate(-250, 0)"></use><use xlink:href="#transformed-63877" transform="translate(0, 0)"></use><use xlink:href="#transformed-63877" transform="translate(250, 0)"></use><use xlink:href="#transformed-63877" transform="translate(-250, 250)"></use><use xlink:href="#transformed-63877" transform="translate(0, 250)"></use><use xlink:href="#transformed-63877" transform="translate(250, 250)"></use><use xlink:href="#transformed-76941" transform="translate(-250, -250)"></use><use xlink:href="#transformed-76941" transform="translate(0, -250)"></use><use xlink:href="#transformed-76941" transform="translate(250, -250)"></use><use xlink:href="#transformed-76941" transform="translate(-250, 0)"></use><use xlink:href="#transformed-76941" transform="translate(0, 0)"></use><use xlink:href="#transformed-76941" transform="translate(250, 0)"></use><use xlink:href="#transformed-76941" transform="translate(-250, 250)"></use><use xlink:href="#transformed-76941" transform="translate(0, 250)"></use><use xlink:href="#transformed-76941" transform="translate(250, 250)"></use><use xlink:href="#transformed-26537" transform="translate(-250, -250)"></use><use xlink:href="#transformed-26537" transform="translate(0, -250)"></use><use xlink:href="#transformed-26537" transform="translate(250, -250)"></use><use xlink:href="#transformed-26537" transform="translate(-250, 0)"></use><use xlink:href="#transformed-26537" transform="translate(0, 0)"></use><use xlink:href="#transformed-26537" transform="translate(250, 0)"></use><use xlink:href="#transformed-26537" transform="translate(-250, 250)"></use><use xlink:href="#transformed-26537" transform="translate(0, 250)"></use><use xlink:href="#transformed-26537" transform="translate(250, 250)"></use><use xlink:href="#transformed-88688" transform="translate(-250, -250)"></use><use xlink:href="#transformed-88688" transform="translate(0, -250)"></use><use xlink:href="#transformed-88688" transform="translate(250, -250)"></use><use xlink:href="#transformed-88688" transform="translate(-250, 0)"></use><use xlink:href="#transformed-88688" transform="translate(0, 0)"></use><use xlink:href="#transformed-88688" transform="translate(250, 0)"></use><use xlink:href="#transformed-88688" transform="translate(-250, 250)"></use><use xlink:href="#transformed-88688" transform="translate(0, 250)"></use><use xlink:href="#transformed-88688" transform="translate(250, 250)"></use><use xlink:href="#transformed-88569" transform="translate(-250, -250)"></use><use xlink:href="#transformed-88569" transform="translate(0, -250)"></use><use xlink:href="#transformed-88569" transform="translate(250, -250)"></use><use xlink:href="#transformed-88569" transform="translate(-250, 0)"></use><use xlink:href="#transformed-88569" transform="translate(0, 0)"></use><use xlink:href="#transformed-88569" transform="translate(250, 0)"></use><use xlink:href="#transformed-88569" transform="translate(-250, 250)"></use><use xlink:href="#transformed-88569" transform="translate(0, 250)"></use><use xlink:href="#transformed-88569" transform="translate(250, 250)"></use><use xlink:href="#transformed-44102" transform="translate(-250, -250)"></use><use xlink:href="#transformed-44102" transform="translate(0, -250)"></use><use xlink:href="#transformed-44102" transform="translate(250, -250)"></use><use xlink:href="#transformed-44102" transform="translate(-250, 0)"></use><use xlink:href="#transformed-44102" transform="translate(0, 0)"></use><use xlink:href="#transformed-44102" transform="translate(250, 0)"></use><use xlink:href="#transformed-44102" transform="translate(-250, 250)"></use><use xlink:href="#transformed-44102" transform="translate(0, 250)"></use><use xlink:href="#transformed-44102" transform="translate(250, 250)"></use><use xlink:href="#transformed-47856" transform="translate(-250, -250)"></use><use xlink:href="#transformed-47856" transform="translate(0, -250)"></use><use xlink:href="#transformed-47856" transform="translate(250, -250)"></use><use xlink:href="#transformed-47856" transform="translate(-250, 0)"></use><use xlink:href="#transformed-47856" transform="translate(0, 0)"></use><use xlink:href="#transformed-47856" transform="translate(250, 0)"></use><use xlink:href="#transformed-47856" transform="translate(-250, 250)"></use><use xlink:href="#transformed-47856" transform="translate(0, 250)"></use><use xlink:href="#transformed-47856" transform="translate(250, 250)"></use><use xlink:href="#transformed-50718" transform="translate(-250, -250)"></use><use xlink:href="#transformed-50718" transform="translate(0, -250)"></use><use xlink:href="#transformed-50718" transform="translate(250, -250)"></use><use xlink:href="#transformed-50718" transform="translate(-250, 0)"></use><use xlink:href="#transformed-50718" transform="translate(0, 0)"></use><use xlink:href="#transformed-50718" transform="translate(250, 0)"></use><use xlink:href="#transformed-50718" transform="translate(-250, 250)"></use><use xlink:href="#transformed-50718" transform="translate(0, 250)"></use><use xlink:href="#transformed-50718" transform="translate(250, 250)"></use><use xlink:href="#transformed-61980" transform="translate(-250, -250)"></use><use xlink:href="#transformed-61980" transform="translate(0, -250)"></use><use xlink:href="#transformed-61980" transform="translate(250, -250)"></use><use xlink:href="#transformed-61980" transform="translate(-250, 0)"></use><use xlink:href="#transformed-61980" transform="translate(0, 0)"></use><use xlink:href="#transformed-61980" transform="translate(250, 0)"></use><use xlink:href="#transformed-61980" transform="translate(-250, 250)"></use><use xlink:href="#transformed-61980" transform="translate(0, 250)"></use><use xlink:href="#transformed-61980" transform="translate(250, 250)"></use><use xlink:href="#transformed-23714" transform="translate(-250, -250)"></use><use xlink:href="#transformed-23714" transform="translate(0, -250)"></use><use xlink:href="#transformed-23714" transform="translate(250, -250)"></use><use xlink:href="#transformed-23714" transform="translate(-250, 0)"></use><use xlink:href="#transformed-23714" transform="translate(0, 0)"></use><use xlink:href="#transformed-23714" transform="translate(250, 0)"></use><use xlink:href="#transformed-23714" transform="translate(-250, 250)"></use><use xlink:href="#transformed-23714" transform="translate(0, 250)"></use><use xlink:href="#transformed-23714" transform="translate(250, 250)"></use><use xlink:href="#transformed-35934" transform="translate(-250, -250)"></use><use xlink:href="#transformed-35934" transform="translate(0, -250)"></use><use xlink:href="#transformed-35934" transform="translate(250, -250)"></use><use xlink:href="#transformed-35934" transform="translate(-250, 0)"></use><use xlink:href="#transformed-35934" transform="translate(0, 0)"></use><use xlink:href="#transformed-35934" transform="translate(250, 0)"></use><use xlink:href="#transformed-35934" transform="translate(-250, 250)"></use><use xlink:href="#transformed-35934" transform="translate(0, 250)"></use><use xlink:href="#transformed-35934" transform="translate(250, 250)"></use><use xlink:href="#transformed-83820" transform="translate(-250, -250)"></use><use xlink:href="#transformed-83820" transform="translate(0, -250)"></use><use xlink:href="#transformed-83820" transform="translate(250, -250)"></use><use xlink:href="#transformed-83820" transform="translate(-250, 0)"></use><use xlink:href="#transformed-83820" transform="translate(0, 0)"></use><use xlink:href="#transformed-83820" transform="translate(250, 0)"></use><use xlink:href="#transformed-83820" transform="translate(-250, 250)"></use><use xlink:href="#transformed-83820" transform="translate(0, 250)"></use><use xlink:href="#transformed-83820" transform="translate(250, 250)"></use><use xlink:href="#transformed-27175" transform="translate(-250, -250)"></use><use xlink:href="#transformed-27175" transform="translate(0, -250)"></use><use xlink:href="#transformed-27175" transform="translate(250, -250)"></use><use xlink:href="#transformed-27175" transform="translate(-250, 0)"></use><use xlink:href="#transformed-27175" transform="translate(0, 0)"></use><use xlink:href="#transformed-27175" transform="translate(250, 0)"></use><use xlink:href="#transformed-27175" transform="translate(-250, 250)"></use><use xlink:href="#transformed-27175" transform="translate(0, 250)"></use><use xlink:href="#transformed-27175" transform="translate(250, 250)"></use><use xlink:href="#transformed-88667" transform="translate(-250, -250)"></use><use xlink:href="#transformed-88667" transform="translate(0, -250)"></use><use xlink:href="#transformed-88667" transform="translate(250, -250)"></use><use xlink:href="#transformed-88667" transform="translate(-250, 0)"></use><use xlink:href="#transformed-88667" transform="translate(0, 0)"></use><use xlink:href="#transformed-88667" transform="translate(250, 0)"></use><use xlink:href="#transformed-88667" transform="translate(-250, 250)"></use><use xlink:href="#transformed-88667" transform="translate(0, 250)"></use><use xlink:href="#transformed-88667" transform="translate(250, 250)"></use><use xlink:href="#transformed-47548" transform="translate(-250, -250)"></use><use xlink:href="#transformed-47548" transform="translate(0, -250)"></use><use xlink:href="#transformed-47548" transform="translate(250, -250)"></use><use xlink:href="#transformed-47548" transform="translate(-250, 0)"></use><use xlink:href="#transformed-47548" transform="translate(0, 0)"></use><use xlink:href="#transformed-47548" transform="translate(250, 0)"></use><use xlink:href="#transformed-47548" transform="translate(-250, 250)"></use><use xlink:href="#transformed-47548" transform="translate(0, 250)"></use><use xlink:href="#transformed-47548" transform="translate(250, 250)"></use><use xlink:href="#transformed-55691" transform="translate(-250, -250)"></use><use xlink:href="#transformed-55691" transform="translate(0, -250)"></use><use xlink:href="#transformed-55691" transform="translate(250, -250)"></use><use xlink:href="#transformed-55691" transform="translate(-250, 0)"></use><use xlink:href="#transformed-55691" transform="translate(0, 0)"></use><use xlink:href="#transformed-55691" transform="translate(250, 0)"></use><use xlink:href="#transformed-55691" transform="translate(-250, 250)"></use><use xlink:href="#transformed-55691" transform="translate(0, 250)"></use><use xlink:href="#transformed-55691" transform="translate(250, 250)"></use><use xlink:href="#transformed-34637" transform="translate(-250, -250)"></use><use xlink:href="#transformed-34637" transform="translate(0, -250)"></use><use xlink:href="#transformed-34637" transform="translate(250, -250)"></use><use xlink:href="#transformed-34637" transform="translate(-250, 0)"></use><use xlink:href="#transformed-34637" transform="translate(0, 0)"></use><use xlink:href="#transformed-34637" transform="translate(250, 0)"></use><use xlink:href="#transformed-34637" transform="translate(-250, 250)"></use><use xlink:href="#transformed-34637" transform="translate(0, 250)"></use><use xlink:href="#transformed-34637" transform="translate(250, 250)"></use><use xlink:href="#transformed-33905" transform="translate(-250, -250)"></use><use xlink:href="#transformed-33905" transform="translate(0, -250)"></use><use xlink:href="#transformed-33905" transform="translate(250, -250)"></use><use xlink:href="#transformed-33905" transform="translate(-250, 0)"></use><use xlink:href="#transformed-33905" transform="translate(0, 0)"></use><use xlink:href="#transformed-33905" transform="translate(250, 0)"></use><use xlink:href="#transformed-33905" transform="translate(-250, 250)"></use><use xlink:href="#transformed-33905" transform="translate(0, 250)"></use><use xlink:href="#transformed-33905" transform="translate(250, 250)"></use><use xlink:href="#transformed-19525" transform="translate(-250, -250)"></use><use xlink:href="#transformed-19525" transform="translate(0, -250)"></use><use xlink:href="#transformed-19525" transform="translate(250, -250)"></use><use xlink:href="#transformed-19525" transform="translate(-250, 0)"></use><use xlink:href="#transformed-19525" transform="translate(0, 0)"></use><use xlink:href="#transformed-19525" transform="translate(250, 0)"></use><use xlink:href="#transformed-19525" transform="translate(-250, 250)"></use><use xlink:href="#transformed-19525" transform="translate(0, 250)"></use><use xlink:href="#transformed-19525" transform="translate(250, 250)"></use><use xlink:href="#transformed-67803" transform="translate(-250, -250)"></use><use xlink:href="#transformed-67803" transform="translate(0, -250)"></use><use xlink:href="#transformed-67803" transform="translate(250, -250)"></use><use xlink:href="#transformed-67803" transform="translate(-250, 0)"></use><use xlink:href="#transformed-67803" transform="translate(0, 0)"></use><use xlink:href="#transformed-67803" transform="translate(250, 0)"></use><use xlink:href="#transformed-67803" transform="translate(-250, 250)"></use><use xlink:href="#transformed-67803" transform="translate(0, 250)"></use><use xlink:href="#transformed-67803" transform="translate(250, 250)"></use><use xlink:href="#transformed-15439" transform="translate(-250, -250)"></use><use xlink:href="#transformed-15439" transform="translate(0, -250)"></use><use xlink:href="#transformed-15439" transform="translate(250, -250)"></use><use xlink:href="#transformed-15439" transform="translate(-250, 0)"></use><use xlink:href="#transformed-15439" transform="translate(0, 0)"></use><use xlink:href="#transformed-15439" transform="translate(250, 0)"></use><use xlink:href="#transformed-15439" transform="translate(-250, 250)"></use><use xlink:href="#transformed-15439" transform="translate(0, 250)"></use><use xlink:href="#transformed-15439" transform="translate(250, 250)"></use><use xlink:href="#transformed-29079" transform="translate(-250, -250)"></use><use xlink:href="#transformed-29079" transform="translate(0, -250)"></use><use xlink:href="#transformed-29079" transform="translate(250, -250)"></use><use xlink:href="#transformed-29079" transform="translate(-250, 0)"></use><use xlink:href="#transformed-29079" transform="translate(0, 0)"></use><use xlink:href="#transformed-29079" transform="translate(250, 0)"></use><use xlink:href="#transformed-29079" transform="translate(-250, 250)"></use><use xlink:href="#transformed-29079" transform="translate(0, 250)"></use><use xlink:href="#transformed-29079" transform="translate(250, 250)"></use><use xlink:href="#transformed-08896" transform="translate(-250, -250)"></use><use xlink:href="#transformed-08896" transform="translate(0, -250)"></use><use xlink:href="#transformed-08896" transform="translate(250, -250)"></use><use xlink:href="#transformed-08896" transform="translate(-250, 0)"></use><use xlink:href="#transformed-08896" transform="translate(0, 0)"></use><use xlink:href="#transformed-08896" transform="translate(250, 0)"></use><use xlink:href="#transformed-08896" transform="translate(-250, 250)"></use><use xlink:href="#transformed-08896" transform="translate(0, 250)"></use><use xlink:href="#transformed-08896" transform="translate(250, 250)"></use><use xlink:href="#transformed-41182" transform="translate(-250, -250)"></use><use xlink:href="#transformed-41182" transform="translate(0, -250)"></use><use xlink:href="#transformed-41182" transform="translate(250, -250)"></use><use xlink:href="#transformed-41182" transform="translate(-250, 0)"></use><use xlink:href="#transformed-41182" transform="translate(0, 0)"></use><use xlink:href="#transformed-41182" transform="translate(250, 0)"></use><use xlink:href="#transformed-41182" transform="translate(-250, 250)"></use><use xlink:href="#transformed-41182" transform="translate(0, 250)"></use><use xlink:href="#transformed-41182" transform="translate(250, 250)"></use><use xlink:href="#transformed-65242" transform="translate(-250, -250)"></use><use xlink:href="#transformed-65242" transform="translate(0, -250)"></use><use xlink:href="#transformed-65242" transform="translate(250, -250)"></use><use xlink:href="#transformed-65242" transform="translate(-250, 0)"></use><use xlink:href="#transformed-65242" transform="translate(0, 0)"></use><use xlink:href="#transformed-65242" transform="translate(250, 0)"></use><use xlink:href="#transformed-65242" transform="translate(-250, 250)"></use><use xlink:href="#transformed-65242" transform="translate(0, 250)"></use><use xlink:href="#transformed-65242" transform="translate(250, 250)"></use><use xlink:href="#transformed-48377" transform="translate(-250, -250)"></use><use xlink:href="#transformed-48377" transform="translate(0, -250)"></use><use xlink:href="#transformed-48377" transform="translate(250, -250)"></use><use xlink:href="#transformed-48377" transform="translate(-250, 0)"></use><use xlink:href="#transformed-48377" transform="translate(0, 0)"></use><use xlink:href="#transformed-48377" transform="translate(250, 0)"></use><use xlink:href="#transformed-48377" transform="translate(-250, 250)"></use><use xlink:href="#transformed-48377" transform="translate(0, 250)"></use><use xlink:href="#transformed-48377" transform="translate(250, 250)"></use></svg>