<svg version="1.1"
      xmlns="http://www.w3.org/2000/svg"
      xmlns:xlink="http://www.w3.org/1999/xlink"  id="snapshot-46399" width="796" height="283" viewBox="0 0 796 283"><desc>This image was made on Patterninja.com</desc><defs>
<!-- image 58046 -->
<g id="transformed-58046" data-image="58046" transform="translate(650.2268028515891, 130.22680285158916) rotate(312, 41.77319714841084, 41.773197148410844)"><g><svg version="1.1" width="83.54639429682167px" height="83.54639429682169px" viewBox="0 0 83.54639429682167 83.54639429682169"><g id="original-58046"><svg xmlns="http://www.w3.org/2000/svg" viewBox="0 0 60 60" xmlns:xlink="http://www.w3.org/1999/xlink" version="1.1" preserveAspectRatio="xMidYMid meet">
  <path d="M30.559 20.09c-7.546-2.025-15.101.531-16.631 6.838-3.104 12.798 10.79 29.517 17.54 29.65 6.749.135 20.329-22.166 16.543-31.143-1.92-4.553-9.686-7.318-17.452-5.344z" stroke-linecap="round" stroke-width="2" stroke-linejoin="round" fill-rule="evenodd" fill="rgba(205, 143, 143, 1)" stroke="rgba(83, 83, 83, 1)"/>
  <path d="M29 26h2" stroke-width="2" stroke-linejoin="round" fill-rule="evenodd" fill="rgba(205, 143, 143, 1)" stroke="rgba(83, 83, 83, 1)"/>
  <path d="M32 29h2" stroke-width="2" stroke-linejoin="round" fill-rule="evenodd" fill="rgba(205, 143, 143, 1)" stroke="rgba(83, 83, 83, 1)"/>
  <path d="M34 26h2" stroke-width="2" stroke-linejoin="round" fill-rule="evenodd" fill="rgba(205, 143, 143, 1)" stroke="rgba(83, 83, 83, 1)"/>
  <path d="M36 30h2" stroke-width="2" stroke-linejoin="round" fill-rule="evenodd" fill="rgba(205, 143, 143, 1)" stroke="rgba(83, 83, 83, 1)"/>
  <path d="M42 26h2" stroke-width="2" stroke-linejoin="round" fill-rule="evenodd" fill="rgba(205, 143, 143, 1)" stroke="rgba(83, 83, 83, 1)"/>
  <path d="M38 27h2" stroke-width="2" stroke-linejoin="round" fill-rule="evenodd" fill="rgba(205, 143, 143, 1)" stroke="rgba(83, 83, 83, 1)"/>
  <path d="M40 30h2" stroke-width="2" stroke-linejoin="round" fill-rule="evenodd" fill="rgba(205, 143, 143, 1)" stroke="rgba(83, 83, 83, 1)"/>
  <path d="M33 32h2" stroke-width="2" stroke-linejoin="round" fill-rule="evenodd" fill="rgba(205, 143, 143, 1)" stroke="rgba(83, 83, 83, 1)"/>
  <path d="M25.746 18.823l-3.38-6.105s2.695-4.88 5.688-2.84c2.992 2.039 1.638 4.504 1.638 4.504l5.165-8.32-.461 8.32s4.902-6.906 6.665-4.285c1.763 2.621-4.68 8.767-4.68 8.767" stroke-linecap="round" stroke-width="2" stroke-linejoin="round" fill-rule="evenodd" fill="rgba(205, 143, 143, 1)" stroke="rgba(83, 83, 83, 1)"/>
</svg>
</g></svg></g></g>
<!-- /image 58046 -->

<!-- image 75777 -->
<g id="transformed-75777" data-image="75777" transform="translate(288.2268028515892, 142.22680285158916) rotate(312, 41.77319714841084, 41.773197148410844)"><g><svg version="1.1" width="83.54639429682167px" height="83.54639429682169px" viewBox="0 0 83.54639429682167 83.54639429682169"><g id="original-75777"><svg xmlns="http://www.w3.org/2000/svg" viewBox="0 0 60 60" xmlns:xlink="http://www.w3.org/1999/xlink" version="1.1" preserveAspectRatio="xMidYMid meet">
  <path d="M30.559 20.09c-7.546-2.025-15.101.531-16.631 6.838-3.104 12.798 10.79 29.517 17.54 29.65 6.749.135 20.329-22.166 16.543-31.143-1.92-4.553-9.686-7.318-17.452-5.344z" stroke-linecap="round" stroke-width="2" stroke-linejoin="round" fill-rule="evenodd" fill="rgba(205, 143, 143, 1)" stroke="rgba(83, 83, 83, 1)"/>
  <path d="M29 26h2" stroke-width="2" stroke-linejoin="round" fill-rule="evenodd" fill="rgba(205, 143, 143, 1)" stroke="rgba(83, 83, 83, 1)"/>
  <path d="M32 29h2" stroke-width="2" stroke-linejoin="round" fill-rule="evenodd" fill="rgba(205, 143, 143, 1)" stroke="rgba(83, 83, 83, 1)"/>
  <path d="M34 26h2" stroke-width="2" stroke-linejoin="round" fill-rule="evenodd" fill="rgba(205, 143, 143, 1)" stroke="rgba(83, 83, 83, 1)"/>
  <path d="M36 30h2" stroke-width="2" stroke-linejoin="round" fill-rule="evenodd" fill="rgba(205, 143, 143, 1)" stroke="rgba(83, 83, 83, 1)"/>
  <path d="M42 26h2" stroke-width="2" stroke-linejoin="round" fill-rule="evenodd" fill="rgba(205, 143, 143, 1)" stroke="rgba(83, 83, 83, 1)"/>
  <path d="M38 27h2" stroke-width="2" stroke-linejoin="round" fill-rule="evenodd" fill="rgba(205, 143, 143, 1)" stroke="rgba(83, 83, 83, 1)"/>
  <path d="M40 30h2" stroke-width="2" stroke-linejoin="round" fill-rule="evenodd" fill="rgba(205, 143, 143, 1)" stroke="rgba(83, 83, 83, 1)"/>
  <path d="M33 32h2" stroke-width="2" stroke-linejoin="round" fill-rule="evenodd" fill="rgba(205, 143, 143, 1)" stroke="rgba(83, 83, 83, 1)"/>
  <path d="M25.746 18.823l-3.38-6.105s2.695-4.88 5.688-2.84c2.992 2.039 1.638 4.504 1.638 4.504l5.165-8.32-.461 8.32s4.902-6.906 6.665-4.285c1.763 2.621-4.68 8.767-4.68 8.767" stroke-linecap="round" stroke-width="2" stroke-linejoin="round" fill-rule="evenodd" fill="rgba(205, 143, 143, 1)" stroke="rgba(83, 83, 83, 1)"/>
</svg>
</g></svg></g></g>
<!-- /image 75777 -->

<!-- image 69690 -->
<g id="transformed-69690" data-image="69690" transform="translate(-26.078371156488537, 219.92162884351148) rotate(336, 51.07837115648854, 51.07837115648853)"><g><svg version="1.1" width="102.15674231297707px" height="102.15674231297706px" viewBox="0 0 102.15674231297707 102.15674231297706"><g id="original-69690"><svg xmlns="http://www.w3.org/2000/svg" viewBox="0 0 64 64" xmlns:xlink="http://www.w3.org/1999/xlink" version="1.1" preserveAspectRatio="xMidYMid meet">
  <g data-name="Layer 68">
    <path d="M32.87 36.78l-.86.86c-4.19-5.64-12.34.54-7.61 5.87l7.6 7.61c.47-.47 7.42-7.41 7.59-7.61 4.34-4.51-2.16-11.06-6.72-6.73z" fill="rgba(97, 48, 18, 0.8546511627906976)" stroke="none"/>
    <path d="M51 22h-2V4a1 1 0 0 0-1-1H17a1 1 0 0 0-1 1v18c-.81.14-3.06-.47-3 1v37a1 1 0 0 0 1 1h37a1 1 0 0 0 1-1V23a1 1 0 0 0-1-1zm-18 0v-7h6v7zm-7 0v-7h5v7zm15-7h6v7h-6zm6-10v8h-6V5zm-8 0v8h-6V5zm-8 8h-5V5h5zm-7-8v8h-6V5zm-6 10h6v7h-6zm32 44H15V24h35z" fill="rgba(97, 48, 18, 0.8546511627906976)" stroke="none"/>
  </g>
</svg>
</g></svg></g></g>
<!-- /image 69690 -->

<!-- image 46862 -->
<g id="transformed-46862" data-image="46862" transform="translate(175.56848935406884, 225.79860141569964) rotate(323, 40.43151064593116, 57.201398584300364)"><g><svg version="1.1" width="80.86302129186232px" height="114.40279716860073px" viewBox="0 0 80.86302129186232 114.40279716860073"><g id="original-46862"><svg xmlns="http://www.w3.org/2000/svg" viewBox="0 0 595.28 841.89" xmlns:xlink="http://www.w3.org/1999/xlink" version="1.1" preserveAspectRatio="xMidYMid meet">
  <path d="M553.845 336.415s0-.658-.658-.658c-87.485-122.347-224.96-97.351-226.276-96.694-1.316 0-1.973.658-2.631 1.316-4.604-1.973-9.867-3.947-14.471-4.604 1.316-23.022 7.236-78.276 42.098-90.773 5.92-1.973 8.551-8.551 6.578-14.471-1.973-5.92-8.551-8.551-14.471-6.578-48.676 17.102-55.911 85.511-57.227 111.822-28.284 5.262-49.991 30.258-49.991 59.858v3.289L45.382 427.847c-1.316.658-1.973 1.316-2.631 2.631-1.316 1.973-1.316 2.631-1.973 3.947V437.056l-.658 270.347c0 3.289 1.316 6.578 3.947 8.551 1.973 1.973 4.604 2.631 7.236 2.631h1.973l492.676-91.431c5.262-.658 9.209-5.92 9.209-11.182V342.336 340.362v-.658c-.001-1.315-.658-1.973-1.316-3.289zm-256.534-80.249c21.707 0 38.809 17.76 38.809 38.809 0 21.707-17.76 38.809-38.809 38.809-21.707 0-38.809-17.76-38.809-38.809 0-21.048 17.76-38.809 38.809-38.809zm-55.253 65.778c9.867 20.391 30.916 34.862 55.253 34.862 33.547 0 61.173-27.627 61.173-61.173a61.069 61.069 0 0 0-11.84-36.178c34.204-2.631 115.111 1.316 176.943 75.645l-420.979 80.907 139.45-94.063zm290.08 284.161L62.484 693.589V573.874l469.654-83.538v115.769zm0-138.134L62.484 551.509V445.607l469.654-90.116v112.48z" fill="rgba(206, 58, 0, 1)" stroke="none"/>
</svg>
</g></svg></g></g>
<!-- /image 46862 -->

<!-- image 33464 -->
<g id="transformed-33464" data-image="33464" transform="translate(546.3402532295481, 215.13479008044024) rotate(326, 36.65974677045188, 51.86520991955976)"><g><svg version="1.1" width="73.31949354090376px" height="103.73041983911952px" viewBox="0 0 73.31949354090376 103.73041983911952"><g id="original-33464"><svg xmlns="http://www.w3.org/2000/svg" viewBox="0 0 595.28 841.89" xmlns:xlink="http://www.w3.org/1999/xlink" version="1.1" preserveAspectRatio="xMidYMid meet">
  <path d="M553.845 336.415s0-.658-.658-.658c-87.485-122.347-224.96-97.351-226.276-96.694-1.316 0-1.973.658-2.631 1.316-4.604-1.973-9.867-3.947-14.471-4.604 1.316-23.022 7.236-78.276 42.098-90.773 5.92-1.973 8.551-8.551 6.578-14.471-1.973-5.92-8.551-8.551-14.471-6.578-48.676 17.102-55.911 85.511-57.227 111.822-28.284 5.262-49.991 30.258-49.991 59.858v3.289L45.382 427.847c-1.316.658-1.973 1.316-2.631 2.631-1.316 1.973-1.316 2.631-1.973 3.947V437.056l-.658 270.347c0 3.289 1.316 6.578 3.947 8.551 1.973 1.973 4.604 2.631 7.236 2.631h1.973l492.676-91.431c5.262-.658 9.209-5.92 9.209-11.182V342.336 340.362v-.658c-.001-1.315-.658-1.973-1.316-3.289zm-256.534-80.249c21.707 0 38.809 17.76 38.809 38.809 0 21.707-17.76 38.809-38.809 38.809-21.707 0-38.809-17.76-38.809-38.809 0-21.048 17.76-38.809 38.809-38.809zm-55.253 65.778c9.867 20.391 30.916 34.862 55.253 34.862 33.547 0 61.173-27.627 61.173-61.173a61.069 61.069 0 0 0-11.84-36.178c34.204-2.631 115.111 1.316 176.943 75.645l-420.979 80.907 139.45-94.063zm290.08 284.161L62.484 693.589V573.874l469.654-83.538v115.769zm0-138.134L62.484 551.509V445.607l469.654-90.116v112.48z" fill="rgba(206, 58, 0, 1)" stroke="none"/>
</svg>
</g></svg></g></g>
<!-- /image 33464 -->

<!-- image 49646 -->
<g id="transformed-49646" data-image="49646" transform="translate(402.97917118582814, -41.020828814171864) rotate(328, 48.02082881417188, 48.020828814171864)"><g><svg version="1.1" width="96.04165762834376px" height="96.04165762834373px" viewBox="0 0 96.04165762834376 96.04165762834373"><g id="original-49646"><svg xmlns="http://www.w3.org/2000/svg" viewBox="0 0 64 64" xmlns:xlink="http://www.w3.org/1999/xlink" version="1.1" preserveAspectRatio="xMidYMid meet">
  <g data-name="Layer 68">
    <path d="M32.87 36.78l-.86.86c-4.19-5.64-12.34.54-7.61 5.87l7.6 7.61c.47-.47 7.42-7.41 7.59-7.61 4.34-4.51-2.16-11.06-6.72-6.73z" fill="rgba(97, 48, 18, 1)" stroke="none"/>
    <path d="M51 22h-2V4a1 1 0 0 0-1-1H17a1 1 0 0 0-1 1v18c-.81.14-3.06-.47-3 1v37a1 1 0 0 0 1 1h37a1 1 0 0 0 1-1V23a1 1 0 0 0-1-1zm-18 0v-7h6v7zm-7 0v-7h5v7zm15-7h6v7h-6zm6-10v8h-6V5zm-8 0v8h-6V5zm-8 8h-5V5h5zm-7-8v8h-6V5zm-6 10h6v7h-6zm32 44H15V24h35z" fill="rgba(97, 48, 18, 1)" stroke="none"/>
  </g>
</svg>
</g></svg></g></g>
<!-- /image 49646 -->

<!-- image 31693 -->
<g id="transformed-31693" data-image="31693" transform="translate(89.36198878934434, 121.36198878934431) rotate(309, 42.63801121065566, 42.638011210655684)"><g><svg version="1.1" width="85.27602242131132px" height="85.27602242131137px" viewBox="0 0 85.27602242131132 85.27602242131137"><g id="original-31693"><svg xmlns="http://www.w3.org/2000/svg" viewBox="0 0 60 60" xmlns:xlink="http://www.w3.org/1999/xlink" version="1.1" preserveAspectRatio="xMidYMid meet">
  <path d="M30.559 20.09c-7.546-2.025-15.101.531-16.631 6.838-3.104 12.798 10.79 29.517 17.54 29.65 6.749.135 20.329-22.166 16.543-31.143-1.92-4.553-9.686-7.318-17.452-5.344z" stroke-linecap="round" stroke-width="2" stroke-linejoin="round" fill-rule="evenodd" fill="rgba(205, 143, 143, 1)" stroke="rgba(83, 83, 83, 1)"/>
  <path d="M29 26h2" stroke-width="2" stroke-linejoin="round" fill-rule="evenodd" fill="rgba(205, 143, 143, 1)" stroke="rgba(83, 83, 83, 1)"/>
  <path d="M32 29h2" stroke-width="2" stroke-linejoin="round" fill-rule="evenodd" fill="rgba(205, 143, 143, 1)" stroke="rgba(83, 83, 83, 1)"/>
  <path d="M34 26h2" stroke-width="2" stroke-linejoin="round" fill-rule="evenodd" fill="rgba(205, 143, 143, 1)" stroke="rgba(83, 83, 83, 1)"/>
  <path d="M36 30h2" stroke-width="2" stroke-linejoin="round" fill-rule="evenodd" fill="rgba(205, 143, 143, 1)" stroke="rgba(83, 83, 83, 1)"/>
  <path d="M42 26h2" stroke-width="2" stroke-linejoin="round" fill-rule="evenodd" fill="rgba(205, 143, 143, 1)" stroke="rgba(83, 83, 83, 1)"/>
  <path d="M38 27h2" stroke-width="2" stroke-linejoin="round" fill-rule="evenodd" fill="rgba(205, 143, 143, 1)" stroke="rgba(83, 83, 83, 1)"/>
  <path d="M40 30h2" stroke-width="2" stroke-linejoin="round" fill-rule="evenodd" fill="rgba(205, 143, 143, 1)" stroke="rgba(83, 83, 83, 1)"/>
  <path d="M33 32h2" stroke-width="2" stroke-linejoin="round" fill-rule="evenodd" fill="rgba(205, 143, 143, 1)" stroke="rgba(83, 83, 83, 1)"/>
  <path d="M25.746 18.823l-3.38-6.105s2.695-4.88 5.688-2.84c2.992 2.039 1.638 4.504 1.638 4.504l5.165-8.32-.461 8.32s4.902-6.906 6.665-4.285c1.763 2.621-4.68 8.767-4.68 8.767" stroke-linecap="round" stroke-width="2" stroke-linejoin="round" fill-rule="evenodd" fill="rgba(205, 143, 143, 1)" stroke="rgba(83, 83, 83, 1)"/>
</svg>
</g></svg></g></g>
<!-- /image 31693 -->
</defs><rect x="0" y="0" width="796" height="283" fill="rgba(236, 210, 238, 0)"></rect><use xlink:href="#transformed-58046" transform="translate(-796, -283)"></use><use xlink:href="#transformed-58046" transform="translate(0, -283)"></use><use xlink:href="#transformed-58046" transform="translate(796, -283)"></use><use xlink:href="#transformed-58046" transform="translate(-796, 0)"></use><use xlink:href="#transformed-58046" transform="translate(0, 0)"></use><use xlink:href="#transformed-58046" transform="translate(796, 0)"></use><use xlink:href="#transformed-58046" transform="translate(-796, 283)"></use><use xlink:href="#transformed-58046" transform="translate(0, 283)"></use><use xlink:href="#transformed-58046" transform="translate(796, 283)"></use><use xlink:href="#transformed-75777" transform="translate(-796, -283)"></use><use xlink:href="#transformed-75777" transform="translate(0, -283)"></use><use xlink:href="#transformed-75777" transform="translate(796, -283)"></use><use xlink:href="#transformed-75777" transform="translate(-796, 0)"></use><use xlink:href="#transformed-75777" transform="translate(0, 0)"></use><use xlink:href="#transformed-75777" transform="translate(796, 0)"></use><use xlink:href="#transformed-75777" transform="translate(-796, 283)"></use><use xlink:href="#transformed-75777" transform="translate(0, 283)"></use><use xlink:href="#transformed-75777" transform="translate(796, 283)"></use><use xlink:href="#transformed-69690" transform="translate(-796, -283)"></use><use xlink:href="#transformed-69690" transform="translate(0, -283)"></use><use xlink:href="#transformed-69690" transform="translate(796, -283)"></use><use xlink:href="#transformed-69690" transform="translate(-796, 0)"></use><use xlink:href="#transformed-69690" transform="translate(0, 0)"></use><use xlink:href="#transformed-69690" transform="translate(796, 0)"></use><use xlink:href="#transformed-69690" transform="translate(-796, 283)"></use><use xlink:href="#transformed-69690" transform="translate(0, 283)"></use><use xlink:href="#transformed-69690" transform="translate(796, 283)"></use><use xlink:href="#transformed-46862" transform="translate(-796, -283)"></use><use xlink:href="#transformed-46862" transform="translate(0, -283)"></use><use xlink:href="#transformed-46862" transform="translate(796, -283)"></use><use xlink:href="#transformed-46862" transform="translate(-796, 0)"></use><use xlink:href="#transformed-46862" transform="translate(0, 0)"></use><use xlink:href="#transformed-46862" transform="translate(796, 0)"></use><use xlink:href="#transformed-46862" transform="translate(-796, 283)"></use><use xlink:href="#transformed-46862" transform="translate(0, 283)"></use><use xlink:href="#transformed-46862" transform="translate(796, 283)"></use><use xlink:href="#transformed-33464" transform="translate(-796, -283)"></use><use xlink:href="#transformed-33464" transform="translate(0, -283)"></use><use xlink:href="#transformed-33464" transform="translate(796, -283)"></use><use xlink:href="#transformed-33464" transform="translate(-796, 0)"></use><use xlink:href="#transformed-33464" transform="translate(0, 0)"></use><use xlink:href="#transformed-33464" transform="translate(796, 0)"></use><use xlink:href="#transformed-33464" transform="translate(-796, 283)"></use><use xlink:href="#transformed-33464" transform="translate(0, 283)"></use><use xlink:href="#transformed-33464" transform="translate(796, 283)"></use><use xlink:href="#transformed-49646" transform="translate(-796, -283)"></use><use xlink:href="#transformed-49646" transform="translate(0, -283)"></use><use xlink:href="#transformed-49646" transform="translate(796, -283)"></use><use xlink:href="#transformed-49646" transform="translate(-796, 0)"></use><use xlink:href="#transformed-49646" transform="translate(0, 0)"></use><use xlink:href="#transformed-49646" transform="translate(796, 0)"></use><use xlink:href="#transformed-49646" transform="translate(-796, 283)"></use><use xlink:href="#transformed-49646" transform="translate(0, 283)"></use><use xlink:href="#transformed-49646" transform="translate(796, 283)"></use><use xlink:href="#transformed-31693" transform="translate(-796, -283)"></use><use xlink:href="#transformed-31693" transform="translate(0, -283)"></use><use xlink:href="#transformed-31693" transform="translate(796, -283)"></use><use xlink:href="#transformed-31693" transform="translate(-796, 0)"></use><use xlink:href="#transformed-31693" transform="translate(0, 0)"></use><use xlink:href="#transformed-31693" transform="translate(796, 0)"></use><use xlink:href="#transformed-31693" transform="translate(-796, 283)"></use><use xlink:href="#transformed-31693" transform="translate(0, 283)"></use><use xlink:href="#transformed-31693" transform="translate(796, 283)"></use></svg>